<?xml version="1.0" standalone="no"?>
<!DOCTYPE svg PUBLIC "-//W3C//DTD SVG 1.1//EN" "http://www.w3.org/Graphics/SVG/1.1/DTD/svg11.dtd" >
<svg xmlns="http://www.w3.org/2000/svg" xmlns:xlink="http://www.w3.org/1999/xlink" version="1.1">
<metadata>
Created by FontForge 20170910 at Sun Jul 24 11:52:49 2016
 By Jimmy Wärting
Copyright \(c\) 2014 Commercial Type. All rights reserved.
</metadata>
<defs>
<font id="MarianText-1757Italic" horiz-adv-x="350" >
  <font-face 
    font-family="Marian Text"
    font-weight="400"
    font-style="italic"
    font-stretch="normal"
    units-per-em="1000"
    panose-1="2 0 0 0 0 0 0 0 0 0"
    ascent="700"
    descent="-300"
    x-height="453"
    cap-height="700"
    bbox="-293 -351 1266 1135"
    underline-thickness="26"
    underline-position="-204"
    slope="-17"
    unicode-range="U+000D-FB06"
  />
<missing-glyph horiz-adv-x="200" 
 />
    <glyph glyph-name="f_b" unicode="fb" horiz-adv-x="673" 
d="M376 421h-185c-43 -142 -117 -393 -151 -512c-46 -153 -107 -189 -186 -189c-64 0 -103 23 -131 80l30 13c19 -40 51 -63 102 -63c67 0 114 39 151 167c35 117 105 360 148 504h-94l9 29h94l31 105c40 139 99 185 197 185c47 0 86 -13 119 -30l-123 -353
c43 67 100 103 164 103s97 -36 97 -116c0 -94 -51 -230 -120 -299c-37 -37 -78 -55 -125 -55c-68 0 -117 40 -117 124c0 35 9 70 20 103zM322 117c0 -64 31 -97 83 -97c35 0 71 15 103 48c64 67 104 190 104 274c0 55 -16 88 -65 88c-78 0 -163 -87 -195 -180l-15 -44
c-11 -31 -15 -64 -15 -89zM386 450l84 245c-19 9 -47 15 -76 15c-91 0 -136 -50 -168 -166l-27 -94h187z" />
    <glyph glyph-name="f_f" unicode="ff" horiz-adv-x="508" 
d="M390 450l31 105c12 40 25 73 40 98c-15 25 -42 38 -82 38c-79 0 -120 -51 -156 -166l-24 -75h191zM239 -63c35 112 102 346 142 484h-190c-43 -142 -117 -393 -151 -512c-12 -41 -25 -75 -40 -100c20 -26 49 -39 88 -39c67 0 114 39 151 167zM273 -71
c-46 -153 -107 -189 -186 -189c-47 0 -80 12 -105 41c-36 -47 -79 -61 -128 -61c-64 0 -103 23 -131 80l30 13c19 -40 51 -63 102 -63c67 0 114 39 151 167c35 117 105 360 148 504h-94l9 29h94l28 86c45 138 107 185 191 185c49 0 77 -17 97 -40c33 43 72 59 117 59
c39 0 72 -12 107 -53l-21 -21c-29 33 -53 44 -85 44c-68 0 -111 -49 -144 -166l-27 -94h105l-9 -29h-104c-40 -136 -110 -378 -145 -492z" />
    <glyph glyph-name="f_f_b" unicode="ffb" horiz-adv-x="900" 
d="M618 740c47 0 86 -13 119 -30l-123 -353c43 67 100 103 164 103s97 -36 97 -116c0 -94 -51 -230 -120 -299c-37 -37 -78 -55 -125 -55c-68 0 -117 40 -117 124c0 35 9 70 20 103l70 204h-185c-43 -141 -110 -372 -145 -492c-46 -153 -107 -189 -186 -189
c-47 0 -80 12 -105 41c-36 -47 -79 -61 -128 -61c-64 0 -103 23 -131 80l30 13c19 -40 51 -63 102 -63c67 0 114 39 151 167c35 117 105 360 148 504h-94l9 29h94l28 86c45 138 107 185 191 185c49 0 78 -18 98 -41c35 43 78 60 138 60zM88 -230c67 0 114 39 151 167
c35 117 99 342 142 484h-190c-43 -142 -117 -393 -151 -512c-12 -41 -25 -75 -40 -100c20 -26 49 -39 88 -39zM549 117c0 -64 31 -97 83 -97c35 0 71 15 103 48c64 67 104 190 104 274c0 55 -16 88 -65 88c-78 0 -163 -87 -195 -180l-15 -44c-11 -31 -15 -64 -15 -89z
M621 710c-91 0 -136 -50 -168 -166l-27 -94h187l84 245c-19 9 -47 15 -76 15zM390 450l31 105c12 41 25 73 40 97c-15 26 -42 39 -82 39c-79 0 -120 -51 -156 -166l-24 -75h191z" />
    <glyph glyph-name="f_f_h" unicode="ffh" horiz-adv-x="940" 
d="M603 421h-185c-43 -141 -110 -372 -145 -492c-46 -153 -107 -189 -186 -189c-47 0 -80 12 -105 41c-36 -47 -79 -61 -128 -61c-64 0 -103 23 -131 80l30 13c19 -40 51 -63 102 -63c67 0 114 39 151 167c35 117 105 360 148 504h-94l9 29h94c11 32 23 58 31 86
c43 139 105 185 188 185c51 0 78 -18 98 -42c35 44 78 61 138 61c47 0 86 -13 119 -30l-120 -351c48 73 96 101 145 101c48 0 74 -28 74 -69c0 -16 -3 -38 -10 -62c-15 -64 -42 -142 -62 -209c-7 -25 -11 -48 -11 -67c0 -22 7 -33 22 -33c16 0 31 13 46 33
c23 31 43 75 63 118l28 -12c-25 -53 -46 -93 -66 -121c-24 -32 -47 -48 -75 -48c-31 0 -53 18 -53 61c0 21 6 47 13 76c21 76 47 148 60 205c6 24 9 44 9 59c0 23 -11 39 -42 39c-23 0 -44 -8 -64 -23c-61 -45 -108 -136 -116 -161l-84 -246h-35zM0 -191
c20 -26 49 -39 88 -39c67 0 114 39 151 167c35 117 99 342 142 484h-190c-43 -142 -117 -393 -151 -512c-12 -41 -25 -75 -40 -100zM613 450l84 245c-19 9 -47 15 -76 15c-92 0 -133 -51 -168 -166c-11 -31 -16 -59 -27 -94h187zM199 450h191l31 105c12 39 25 72 40 97
c-13 26 -41 39 -82 39c-77 0 -117 -50 -153 -166c-8 -25 -18 -47 -27 -75z" />
    <glyph glyph-name="f_f_i" unicode="ffi" horiz-adv-x="703" 
d="M223 524l-24 -74h191l31 105c11 39 25 71 40 96c-15 26 -42 39 -82 39c-79 0 -119 -51 -156 -166zM88 -230c67 0 114 39 151 167c35 112 102 347 142 483h-190c-43 -142 -117 -393 -151 -512c-12 -40 -25 -73 -40 -99c21 -26 50 -39 88 -39zM87 -260
c-46 0 -81 13 -105 40c-36 -47 -79 -61 -128 -61c-64 0 -103 23 -131 80l30 13c19 -40 51 -63 102 -63c67 0 114 39 151 167c35 117 105 360 148 504h-94l9 29h94l28 86c45 138 107 185 191 185c49 0 78 -18 98 -41c35 44 78 61 127 61c40 0 76 -10 111 -53l-21 -21
c-31 35 -56 44 -89 44c-75 0 -120 -49 -155 -166l-27 -94h135c24 0 49 -1 72 2h25l-122 -328c-9 -24 -16 -48 -16 -68c0 -21 7 -36 26 -36c42 0 79 79 111 151l26 -12c-51 -113 -85 -169 -140 -169c-35 0 -58 23 -58 64c0 25 9 54 20 83l106 285c-16 -3 -34 -1 -53 -1h-140
c-40 -136 -110 -378 -145 -492c-46 -153 -107 -189 -186 -189z" />
    <glyph glyph-name="f_f_j" unicode="ffj" horiz-adv-x="659" 
d="M221 525l-22 -75h191l28 86c15 44 30 79 49 106c-15 33 -44 49 -88 49c-77 0 -125 -50 -158 -166zM558 421h-140c-42 -141 -116 -391 -151 -512c-5 -12 -19 -58 -19 -76c0 -31 25 -51 68 -51c61 0 105 42 140 154l152 486c-15 -1 -31 -1 -50 -1zM1 -189
c19 -27 47 -41 88 -41c64 0 112 39 144 147c35 117 105 360 148 504h-190c-43 -142 -117 -393 -151 -512c-11 -39 -24 -72 -39 -98zM426 450h135c24 0 49 -1 72 2h20l-163 -524c-45 -146 -106 -176 -170 -176c-52 0 -88 23 -99 58c-35 -47 -72 -70 -133 -70
c-47 0 -79 12 -106 41c-36 -47 -79 -61 -128 -61c-64 0 -103 23 -131 80l30 13c19 -40 51 -63 102 -63c67 0 114 39 151 167c35 117 105 360 148 504h-94l9 29h94l26 86c43 139 110 185 193 185c55 0 85 -21 105 -53c35 39 75 53 122 53c57 0 86 -24 106 -52l-26 -19
c-14 27 -42 41 -83 41c-77 0 -119 -51 -156 -166z" />
    <glyph glyph-name="f_f_k" unicode="ffk" horiz-adv-x="873" 
d="M618 740c47 0 86 -13 119 -30l-157 -451c37 48 80 98 115 129c57 53 94 72 133 72c43 0 59 -23 59 -51c0 -19 -9 -32 -17 -41c-5 -5 -11 -10 -17 -13l-19 19l9 8c5 5 10 13 10 24c0 13 -7 24 -30 24c-31 0 -59 -17 -110 -64c-29 -27 -66 -63 -98 -103c6 4 14 6 23 6
c43 0 53 -19 66 -111l12 -86c4 -31 15 -50 46 -50c24 0 40 13 59 36l21 -18c-25 -31 -43 -48 -82 -48c-36 0 -67 16 -75 73l-13 89c-8 52 -8 91 -45 91c-18 0 -36 -12 -54 -37c-15 -21 -21 -39 -38 -87l-42 -121h-35l145 421h-185c-43 -141 -110 -372 -145 -492
c-46 -153 -107 -189 -186 -189c-47 0 -80 12 -105 41c-36 -47 -79 -61 -128 -61c-64 0 -103 23 -131 80l30 13c19 -40 51 -63 102 -63c67 0 114 39 151 167c35 117 105 360 148 504h-94l9 29h94c11 32 23 58 31 86c43 139 105 185 188 185c51 0 78 -18 98 -42
c35 44 78 61 138 61zM0 -191c20 -26 49 -39 88 -39c67 0 114 39 151 167c35 117 99 342 142 484h-190c-43 -142 -117 -393 -151 -512c-12 -41 -25 -75 -40 -100zM621 710c-92 0 -133 -51 -168 -166c-11 -31 -16 -59 -27 -94h186l85 245c-19 9 -47 15 -76 15zM199 450h191
l31 105c12 39 25 72 40 97c-13 26 -41 39 -82 39c-77 0 -117 -50 -153 -166c-8 -25 -18 -47 -27 -75z" />
    <glyph glyph-name="f_f_l" unicode="ffl" horiz-adv-x="711" 
d="M-146 -280c-64 0 -103 23 -131 80l30 13c19 -40 51 -63 102 -63c67 0 114 39 151 167c35 117 105 360 148 504h-94l9 29h94l28 86c45 138 107 185 191 185c51 0 78 -18 98 -42c35 44 78 61 138 61c45 0 84 -13 117 -30l-166 -496c-16 -49 -49 -127 -49 -164
c0 -20 8 -30 25 -30c46 0 85 101 106 148l27 -11c-37 -85 -73 -167 -138 -167c-33 0 -55 19 -55 56c0 45 33 127 51 179l67 196h-185c-43 -141 -110 -372 -145 -492c-46 -153 -107 -189 -186 -189c-47 0 -80 12 -105 41c-36 -47 -79 -61 -128 -61zM88 -230
c67 0 114 39 151 167c35 117 99 342 142 484h-190c-43 -142 -117 -393 -151 -512c-12 -41 -25 -75 -40 -100c20 -26 49 -39 88 -39zM612 450l84 245c-19 9 -47 15 -75 15c-92 0 -133 -51 -168 -166c-11 -31 -16 -59 -27 -94h186zM390 450l31 105c12 39 25 72 40 97
c-13 26 -41 39 -82 39c-79 0 -120 -51 -156 -166l-24 -75h191z" />
    <glyph glyph-name="f_h" unicode="fh" horiz-adv-x="713" 
d="M376 421h-185c-43 -142 -117 -393 -151 -512c-46 -153 -107 -189 -186 -189c-64 0 -103 23 -131 80l30 13c19 -40 51 -63 102 -63c67 0 114 39 151 167c35 117 105 360 148 504h-94l9 29h94l31 105c40 139 99 185 197 185c47 0 86 -13 119 -30l-120 -351
c48 73 96 101 145 101c48 0 74 -28 74 -69c0 -16 -3 -38 -10 -63c-15 -64 -44 -139 -61 -208c-7 -25 -12 -48 -12 -67c0 -22 7 -33 22 -33c16 0 31 13 46 33c23 29 43 74 63 118l28 -12c-25 -53 -46 -94 -66 -121c-24 -32 -47 -48 -75 -48c-31 0 -53 18 -53 61
c0 20 5 47 13 75c20 75 47 149 60 206c6 24 9 44 9 59c0 23 -11 39 -42 39c-23 0 -44 -8 -64 -23c-61 -45 -108 -138 -116 -161l-84 -246h-35zM386 450l84 245c-19 9 -47 15 -76 15c-91 0 -136 -50 -168 -166l-27 -94h187z" />
    <glyph glyph-name="f_i" unicode="fi" horiz-adv-x="476" 
d="M154 421h-94l9 29h94l31 105c40 140 106 185 186 185c40 0 76 -10 111 -53l-21 -21c-31 35 -56 44 -89 44c-75 0 -120 -49 -155 -166l-27 -94h135c24 0 49 -1 72 2h25l-122 -328c-9 -24 -16 -48 -16 -68c0 -21 7 -36 26 -36c42 0 79 79 111 151l26 -12
c-51 -113 -85 -169 -140 -169c-35 0 -58 23 -58 64c0 25 9 54 20 83l106 285c-16 -3 -34 -1 -53 -1h-140c-43 -142 -117 -393 -151 -512c-46 -153 -107 -189 -186 -189c-64 0 -103 23 -131 80l30 13c19 -40 51 -63 102 -63c67 0 114 39 151 167c35 117 105 360 148 504z" />
    <glyph glyph-name="f_j" unicode="fj" horiz-adv-x="432" 
d="M331 421h-140c-43 -142 -117 -393 -151 -512c-3 -12 -20 -58 -20 -76c0 -31 26 -51 69 -51c61 0 105 42 140 154l152 486c-15 -1 -31 -1 -50 -1zM-146 -280c-64 0 -103 23 -131 80l30 13c19 -40 51 -63 102 -63c67 0 114 39 151 167c35 117 105 360 148 504h-94l9 29h94
l28 86c45 138 107 185 191 185c57 0 86 -24 106 -52l-26 -19c-14 27 -42 41 -83 41c-79 0 -119 -51 -156 -166l-24 -75h135c24 0 49 -1 72 2h20l-163 -524c-45 -146 -106 -176 -170 -176c-53 0 -86 20 -97 53c-28 -47 -71 -85 -142 -85z" />
    <glyph glyph-name="f_k" unicode="fk" horiz-adv-x="646" 
d="M266 0h-35l145 421h-185c-43 -142 -117 -393 -151 -512c-46 -153 -107 -189 -186 -189c-64 0 -103 23 -131 80l30 13c19 -40 51 -63 102 -63c67 0 114 39 151 167c35 117 105 360 148 504h-94l9 29h94l31 105c40 139 99 185 197 185c47 0 86 -13 119 -30l-157 -451
c37 48 80 98 115 129c57 53 94 72 133 72c43 0 59 -23 59 -51c0 -19 -9 -32 -17 -41c-5 -5 -11 -10 -17 -13l-19 19l9 8c5 5 10 13 10 24c0 13 -7 24 -30 24c-31 0 -59 -17 -110 -64c-29 -27 -66 -63 -98 -103c6 4 14 6 23 6c43 0 53 -19 66 -111l12 -86
c4 -31 15 -50 46 -50c24 0 40 13 59 36l21 -18c-25 -31 -43 -48 -82 -48c-36 0 -67 16 -75 73l-13 89c-8 52 -8 91 -45 91c-18 0 -36 -12 -54 -37c-15 -21 -21 -39 -38 -87zM385 450l85 245c-19 9 -47 15 -76 15c-91 0 -136 -50 -168 -166l-27 -94h186z" />
    <glyph glyph-name="f_l" unicode="fl" horiz-adv-x="484" 
d="M376 421h-185c-43 -142 -117 -393 -151 -512c-46 -153 -107 -189 -186 -189c-64 0 -103 23 -131 80l30 13c19 -40 51 -63 102 -63c67 0 114 39 151 167c35 117 105 360 148 504h-94l9 29h94l31 105c43 139 99 185 197 185c45 0 84 -13 117 -30l-166 -496
c-16 -49 -49 -127 -49 -164c0 -20 8 -30 25 -30c46 0 85 101 106 148l27 -11c-37 -85 -73 -167 -138 -167c-33 0 -55 19 -55 56c0 45 33 127 51 179zM385 450l84 245c-19 9 -47 15 -75 15c-92 0 -133 -51 -168 -166c-11 -31 -16 -59 -27 -94h186z" />
    <glyph glyph-name="g_g" unicode="gg" horiz-adv-x="897" 
d="M191 148c80 0 150 79 150 177c0 59 -25 107 -90 107c-80 0 -150 -79 -150 -177c0 -59 25 -107 90 -107zM625 147c80 0 150 79 150 177c0 59 -25 107 -90 107c-80 0 -150 -79 -150 -177c0 -59 25 -107 90 -107zM364 -144c0 -103 -86 -146 -198 -146
c-155 0 -201 83 -201 150c0 56 31 93 58 106l21 -19c-25 -13 -45 -49 -45 -86c0 -54 37 -123 168 -123c89 0 163 33 163 116c0 48 -24 70 -80 89c-37 15 -78 22 -119 39c-47 20 -73 42 -73 82s26 63 57 78c-31 23 -48 60 -48 113c0 122 91 205 185 205c41 0 73 -14 96 -43
c20 19 44 30 75 30c38 0 72 -20 56 -94l-34 4c11 44 0 61 -27 61c-21 0 -40 -11 -56 -26c9 -17 13 -40 13 -67c0 -122 -91 -205 -187 -205c-18 0 -34 3 -49 9c-29 -15 -47 -35 -47 -62c0 -25 17 -38 53 -53c39 -16 85 -28 114 -37c72 -24 105 -57 105 -121zM812 -147
c0 -99 -92 -144 -205 -144c-150 0 -193 80 -193 148c0 60 31 95 58 108l21 -19c-25 -13 -45 -47 -45 -88c0 -56 35 -121 160 -121c89 0 170 33 170 115c0 47 -26 67 -82 86c-41 15 -86 24 -131 43c-47 20 -73 42 -73 82s26 63 57 78c-31 23 -48 60 -48 113
c0 122 91 205 185 205c41 0 73 -14 96 -43c20 19 44 30 75 30c38 0 72 -20 56 -94l-34 4c11 44 0 61 -27 61c-21 0 -40 -11 -56 -26c9 -17 13 -40 13 -67c0 -122 -91 -205 -187 -205c-18 0 -34 3 -49 9c-29 -15 -47 -35 -47 -62c0 -25 17 -38 53 -53c43 -19 95 -30 126 -41
c73 -24 107 -54 107 -119z" />
    <glyph glyph-name="g_y" unicode="gy" horiz-adv-x="855" 
d="M191 148c80 0 150 79 150 177c0 59 -25 107 -90 107c-80 0 -150 -79 -150 -177c0 -59 25 -107 90 -107zM378 -146c0 -27 -9 -51 -27 -72c76 40 165 96 237 167c27 75 42 173 42 264c0 72 -5 137 -18 176c-9 27 -23 41 -40 41c-48 0 -72 -91 -80 -168l-30 5
c3 32 10 63 17 90c4 15 4 22 4 29c0 23 -23 32 -43 32c-24 0 -51 -11 -78 -26c9 -17 13 -40 13 -67c0 -122 -91 -205 -187 -205c-18 0 -34 3 -49 9c-29 -15 -47 -35 -47 -62c0 -25 17 -38 53 -53c43 -19 95 -30 126 -41c73 -24 107 -54 107 -119zM170 -290
c-160 0 -205 83 -205 150c0 56 31 93 58 106l21 -19c-25 -13 -45 -49 -45 -86c0 -54 37 -123 172 -123c92 0 173 33 173 115c0 47 -26 67 -82 86c-41 15 -86 24 -131 43c-47 20 -73 42 -73 82s26 63 57 78c-31 23 -48 60 -48 113c0 122 91 205 185 205c41 0 73 -14 96 -43
c31 19 64 30 97 30c21 0 46 -8 57 -36c17 31 42 49 73 49c35 0 56 -24 69 -63c15 -44 20 -105 20 -173s-6 -140 -17 -207c86 132 149 263 149 372c0 21 -2 38 -5 49l-5 16l34 9l6 -19c3 -12 6 -30 6 -53c0 -128 -81 -297 -194 -436c-99 -120 -253 -199 -367 -231
c-31 -9 -65 -14 -101 -14z" />
    <glyph glyph-name="g_g_y" unicode="ggy" horiz-adv-x="1289" 
d="M625 148c80 0 150 79 150 177c0 59 -25 107 -90 107c-80 0 -150 -79 -150 -177c0 -59 25 -107 90 -107zM191 148c80 0 150 79 150 177c0 59 -25 107 -90 107c-80 0 -150 -79 -150 -177c0 -59 25 -107 90 -107zM812 -146c0 -27 -9 -51 -27 -72c76 40 165 96 237 167
c27 75 42 173 42 264c0 72 -5 137 -18 176c-9 27 -23 41 -40 41c-48 0 -72 -91 -80 -168l-30 5c3 32 10 63 17 90c4 15 4 22 4 29c0 23 -23 32 -43 32c-24 0 -51 -11 -78 -26c9 -17 13 -40 13 -67c0 -122 -91 -205 -187 -205c-18 0 -34 3 -49 9c-29 -15 -47 -35 -47 -62
c0 -25 17 -38 53 -53c43 -19 95 -30 126 -41c73 -24 107 -54 107 -119zM604 -290c-160 0 -205 83 -205 150c0 56 31 93 58 106l21 -19c-25 -13 -45 -49 -45 -86c0 -54 37 -123 172 -123c92 0 173 33 173 115c0 47 -26 67 -82 86c-41 15 -86 24 -131 43c-47 20 -73 42 -73 82
s26 63 57 78c-31 23 -48 60 -48 113c0 122 91 205 185 205c41 0 73 -14 96 -43c31 19 64 30 97 30c21 0 46 -8 57 -36c17 31 42 49 73 49c35 0 56 -24 69 -63c15 -41 20 -105 20 -173s-6 -140 -17 -207c86 132 149 263 149 372c0 21 -2 38 -5 49l-5 16l34 9l6 -19
c3 -12 6 -30 6 -53c0 -128 -81 -297 -194 -436c-99 -120 -253 -199 -367 -231c-31 -9 -65 -14 -101 -14zM378 -146c0 -99 -92 -144 -208 -144c-160 0 -205 83 -205 150c0 56 31 93 58 106l21 -19c-25 -13 -45 -49 -45 -86c0 -54 37 -123 172 -123c92 0 173 33 173 115
c0 47 -26 67 -82 86c-41 15 -86 24 -131 43c-47 20 -73 42 -73 82s26 63 57 78c-31 23 -48 60 -48 113c0 122 91 205 185 205c41 0 73 -14 96 -43c20 19 44 30 75 30s60 -12 60 -59c0 -11 -1 -22 -4 -35l-34 4c3 10 4 20 4 29c0 21 -10 32 -31 32s-40 -11 -56 -26
c9 -17 13 -40 13 -67c0 -122 -91 -205 -187 -205c-18 0 -34 3 -49 9c-29 -15 -47 -35 -47 -62c0 -25 17 -38 53 -53c43 -19 95 -30 126 -41c73 -24 107 -54 107 -119z" />
    <glyph glyph-name=".notdef" horiz-adv-x="200" 
 />
    <glyph glyph-name="NULL" horiz-adv-x="0" 
 />
    <glyph glyph-name="NULL" horiz-adv-x="0" 
 />
    <glyph glyph-name="CR" unicode="&#xd;" horiz-adv-x="190" 
 />
    <glyph glyph-name="space" unicode=" " horiz-adv-x="190" 
 />
    <glyph glyph-name="numbersign" unicode="#" horiz-adv-x="581" 
d="M257 395l-50 -172h144l50 172h-144zM409 422l53 180h32l-53 -180h137v-27h-145l-50 -172h153v-27h-161l-61 -206h-32l61 206h-144l-61 -206h-32l61 206h-133v27h141l50 172h-149v27h157l53 180h32l-53 -180h144z" />
    <glyph glyph-name="dollar" unicode="$" horiz-adv-x="449" 
d="M142 423c0 -60 40 -86 83 -121l65 217c-10 2 -20 3 -30 3c-67 0 -118 -34 -118 -99zM207 10c79 0 124 42 124 106c0 66 -47 99 -91 134l-70 -236c10 -3 22 -4 37 -4zM206 -18c-15 0 -29 2 -44 5l-22 -74h-30l24 82c-51 23 -78 67 -82 122l-30 -103h-30l52 176h28
c-2 -12 -3 -24 -3 -35c0 -57 22 -109 73 -132l74 246c-54 43 -108 74 -108 153c0 89 73 128 153 128c13 0 25 -1 37 -3l21 72h30l-24 -80c40 -15 65 -43 72 -79l19 65h30l-38 -128h-28c7 60 -20 98 -63 115l-68 -230c52 -41 116 -79 116 -163c0 -85 -68 -137 -159 -137z" />
    <glyph glyph-name="percent" unicode="%" horiz-adv-x="661" 
d="M618 609l20 -21l-590 -646l-20 21zM148 264c-53 0 -86 33 -86 94c0 90 61 196 152 196c53 0 86 -33 86 -94c0 -90 -61 -196 -152 -196zM214 526c-24 0 -45 -10 -62 -26c-36 -33 -56 -93 -56 -142c0 -35 13 -66 52 -66c25 0 46 11 63 27c35 35 55 92 55 141
c0 35 -13 66 -52 66zM435 -20c-53 0 -86 33 -86 94c0 90 61 196 152 196c53 0 86 -33 86 -94c0 -90 -61 -196 -152 -196zM501 242c-24 0 -45 -10 -62 -26c-36 -33 -56 -93 -56 -142c0 -35 13 -66 52 -66c25 0 46 11 63 27c35 35 55 92 55 141c0 35 -13 66 -52 66z" />
    <glyph glyph-name="ampersand" unicode="&#x26;" horiz-adv-x="820" 
d="M569 260c0 -147 -69 -302 -264 -302c-169 0 -257 107 -257 260c0 132 65 228 148 228c43 0 60 -27 70 -50l-28 -12c-9 19 -15 32 -42 32c-68 0 -112 -91 -112 -198c0 -68 17 -122 50 -161c67 139 172 365 215 466c28 67 38 111 38 143c0 40 -12 69 -36 100l27 22
c24 -36 45 -67 45 -122c0 -35 -12 -85 -43 -156c-45 -104 -162 -353 -223 -476c38 -31 87 -46 148 -46c176 0 228 144 228 272c0 71 -7 130 -12 166c-8 3 -17 4 -27 4c-55 0 -95 -41 -95 -109c0 -15 1 -25 3 -32c1 -4 3 -7 4 -10l-26 -12c-3 4 -5 9 -7 14c-3 9 -6 22 -6 39
c0 81 55 140 127 140c52 0 88 -30 123 -61c36 -31 68 -63 112 -63s62 33 62 65c0 49 -41 71 -89 78l7 26c56 -5 113 -37 113 -104c0 -48 -27 -95 -92 -95c-56 0 -93 36 -130 69c-15 13 -29 25 -45 36c5 -35 14 -88 14 -151z" />
    <glyph glyph-name="quotesingle" unicode="'" horiz-adv-x="211" 
d="M194 488h-36l66 222h36z" />
    <glyph glyph-name="parenleft" unicode="(" horiz-adv-x="321" 
d="M163 -244l-28 -12c-41 84 -72 192 -72 313c0 298 148 552 345 675l15 -23c-187 -120 -324 -378 -324 -652c0 -116 24 -217 64 -301z" />
    <glyph glyph-name="parenright" unicode=")" horiz-adv-x="321" 
d="M182 718l28 12c41 -84 72 -192 72 -313c0 -298 -148 -552 -345 -675l-15 23c187 120 324 378 324 652c0 116 -24 217 -64 301z" />
    <glyph glyph-name="asterisk" unicode="*" horiz-adv-x="435" 
d="M269 528l-61 170l27 8l60 -168l115 136l22 -17l-116 -137l176 -32l-5 -27l-176 32l61 -170l-27 -8l-60 168l-115 -136l-22 17l116 137l-176 32l5 27z" />
    <glyph glyph-name="plus" unicode="+" horiz-adv-x="475" 
d="M440 231h-178v-186h-30v186h-177v27h177v176h30v-176h178v-27z" />
    <glyph glyph-name="comma" unicode="," horiz-adv-x="250" 
d="M156 39c0 43 -21 62 -50 62c-9 0 -17 -1 -24 -4l-11 -3l-8 28l14 4c9 3 19 5 34 5c37 0 81 -19 81 -88c0 -90 -74 -174 -176 -198l-8 28c85 27 148 94 148 166z" />
    <glyph glyph-name="hyphen" unicode="-" horiz-adv-x="294" 
d="M59 220l8 27h184l-8 -27h-184z" />
    <glyph glyph-name="period" unicode="." horiz-adv-x="176" 
d="M68 -10c-16 0 -31 12 -31 31s15 31 31 31s31 -12 31 -31s-15 -31 -31 -31z" />
    <glyph glyph-name="slash" unicode="/" horiz-adv-x="297" 
d="M-67 -166l412 886l29 -13l-412 -886z" />
    <glyph glyph-name="zero" unicode="0" horiz-adv-x="449" 
d="M279 460c86 0 133 -66 133 -151c0 -148 -99 -319 -243 -319c-86 0 -133 66 -133 151c0 148 99 319 243 319zM169 18c36 0 68 13 96 34c69 53 111 159 111 257c0 63 -25 123 -97 123c-25 0 -50 -6 -73 -19c-83 -45 -134 -164 -134 -272c0 -63 25 -123 97 -123z" />
    <glyph glyph-name="one" unicode="1" horiz-adv-x="312" 
d="M228 0h-228l12 27h93l102 388c-35 -13 -79 -25 -135 -36l13 29c49 12 100 25 140 42h26l-111 -423h100z" />
    <glyph glyph-name="two" unicode="2" horiz-adv-x="428" 
d="M213 283l20 -21c-6 -8 -13 -15 -20 -22c-13 -11 -33 -22 -61 -22c-48 0 -81 32 -81 85c0 85 82 157 186 157c89 0 143 -49 143 -128c0 -83 -60 -149 -184 -225c-56 -35 -104 -60 -143 -80h272l-31 -102h-34l23 75h-301l5 23c44 23 112 57 195 108c113 71 162 129 162 201
c0 60 -35 100 -108 100c-88 0 -149 -61 -149 -129c0 -29 13 -55 46 -55c19 0 34 8 45 17c6 5 11 11 15 18z" />
    <glyph glyph-name="three" unicode="3" horiz-adv-x="418" 
d="M77 -209c-108 0 -142 55 -142 106c0 24 8 42 16 54c5 7 10 14 17 19l23 -19c-5 -4 -8 -9 -11 -14c-7 -9 -11 -23 -11 -40c0 -37 25 -76 111 -76c125 0 222 91 222 200c0 71 -38 115 -113 115c-24 0 -42 -6 -91 -27l-15 22c63 31 108 52 145 72c68 37 109 81 109 142
c0 56 -32 87 -99 87c-81 0 -147 -48 -147 -113c0 -24 11 -40 36 -40c9 0 17 2 24 5l9 6l8 -30l-12 -6c-9 -3 -20 -5 -33 -5c-40 0 -66 24 -66 68c0 85 87 143 183 143c84 0 133 -41 133 -113c0 -75 -53 -125 -129 -166c-15 -8 -30 -14 -45 -21h4c80 -7 135 -51 135 -139
c0 -126 -109 -230 -261 -230z" />
    <glyph glyph-name="four" unicode="4" horiz-adv-x="513" 
d="M364 -210h-239l8 27h97l50 188h-282l8 19l398 459h35l-116 -448h137l-8 -30h-137l-50 -188h107zM288 35l99 383l-332 -383h233z" />
    <glyph glyph-name="five" unicode="5" horiz-adv-x="410" 
d="M72 -210c-84 0 -133 40 -133 97c0 16 3 29 7 40l8 16l28 -13c-2 -3 -4 -7 -5 -11c-3 -7 -4 -16 -4 -27c0 -45 38 -72 99 -72c132 0 221 125 221 249c0 72 -29 112 -97 112c-47 0 -90 -17 -125 -60l-24 9l110 318c68 -17 113 -22 157 -22c37 0 53 20 65 57l33 -9
c-17 -57 -49 -78 -98 -78c-47 0 -98 6 -137 15l-82 -238c27 25 66 38 107 38c80 0 127 -40 127 -140c0 -145 -102 -281 -257 -281z" />
    <glyph glyph-name="six" unicode="6" horiz-adv-x="431" 
d="M390 278c0 -141 -73 -288 -210 -288c-93 0 -136 65 -136 160c0 151 88 315 200 411c64 56 133 86 204 86c29 0 51 -6 66 -11c9 -3 16 -7 23 -11l-15 -26l-20 9c-13 4 -31 9 -55 9c-60 0 -122 -26 -183 -79c-56 -47 -104 -108 -140 -188c36 51 82 77 138 77
c64 0 128 -34 128 -149zM258 400c-55 0 -94 -29 -121 -64c-17 -21 -28 -41 -35 -60c-16 -41 -22 -83 -22 -126c0 -72 25 -132 102 -132c123 0 172 145 172 260c0 87 -36 122 -96 122z" />
    <glyph glyph-name="seven" unicode="7" horiz-adv-x="422" 
d="M174 488l-14 -38h275l-5 -17l-368 -642h-36l359 629h-236l-58 -155h-34l84 223h33z" />
    <glyph glyph-name="eight" unicode="8" horiz-adv-x="446" 
d="M285 335c51 -40 103 -87 103 -178c0 -107 -72 -167 -184 -167c-107 0 -163 65 -163 148c0 106 92 163 182 203c-45 37 -93 86 -93 158c0 101 87 148 174 148c84 0 147 -44 147 -129c0 -91 -76 -141 -166 -183zM415 518c0 64 -42 99 -111 99c-72 0 -138 -40 -138 -119
c0 -69 50 -107 93 -142c88 40 156 80 156 162zM250 320c-85 -37 -173 -85 -173 -182c0 -67 42 -118 127 -118c97 0 148 53 148 137c0 87 -53 125 -102 163z" />
    <glyph glyph-name="nine" unicode="9" horiz-adv-x="429" 
d="M171 43c56 0 107 42 140 95c17 27 29 56 35 86c7 29 6 58 6 86c0 66 -18 122 -91 122c-115 0 -183 -148 -183 -272c0 -72 34 -117 93 -117zM54 -210c-52 0 -100 20 -100 75c0 13 2 23 5 32l6 12l28 -13l-3 -8c-1 -7 -2 -13 -2 -19c0 -37 31 -49 66 -49
c56 0 105 33 156 92c51 56 91 129 116 209c-41 -71 -91 -106 -155 -106c-72 0 -129 47 -129 145c0 149 92 300 219 300c89 0 127 -59 127 -150c0 -259 -182 -520 -334 -520z" />
    <glyph glyph-name="colon" unicode=":" horiz-adv-x="213" 
d="M162 398c-16 0 -31 12 -31 31s15 31 31 31s31 -12 31 -31s-15 -31 -31 -31zM65 -10c-16 0 -31 12 -31 31s15 31 31 31s31 -12 31 -31s-15 -31 -31 -31z" />
    <glyph glyph-name="semicolon" unicode=";" horiz-adv-x="244" 
d="M157 398c-16 0 -31 12 -31 31s15 31 31 31s31 -12 31 -31s-15 -31 -31 -31zM110 39c0 43 -21 62 -50 62c-9 0 -17 -1 -24 -4l-11 -3l-8 28l14 4c9 3 19 5 34 5c37 0 81 -19 81 -88c0 -90 -74 -174 -176 -198l-8 28c85 27 148 94 148 166z" />
    <glyph glyph-name="less" unicode="&#x3c;" horiz-adv-x="420" 
d="M365 83l-325 153v16l325 154v-29l-282 -133l282 -132v-29z" />
    <glyph glyph-name="equal" unicode="=" horiz-adv-x="435" 
d="M390 338v-27h-325v27h325zM390 178v-27h-325v27h325z" />
    <glyph glyph-name="greater" unicode="&#x3e;" horiz-adv-x="450" 
d="M85 83v29l282 132l-282 134v28l325 -155v-15z" />
    <glyph glyph-name="question" unicode="?" horiz-adv-x="375" 
d="M255 245l26 -12c-21 -44 -56 -75 -107 -75c-56 0 -87 33 -87 80c0 78 91 115 165 157c75 43 116 82 116 150c0 57 -34 100 -106 100c-76 0 -120 -45 -120 -101c0 -35 17 -63 60 -63c37 0 58 23 58 55c0 9 -1 18 -6 27l28 12c7 -11 10 -24 10 -39c0 -51 -36 -85 -92 -85
c-57 0 -92 38 -92 93c0 75 66 131 154 131c91 0 140 -54 140 -130c0 -79 -51 -129 -134 -176c-68 -39 -147 -67 -147 -129c0 -28 16 -52 53 -52c39 0 64 24 81 57zM116 -10c-16 0 -29 13 -29 28c0 17 13 30 29 30s28 -13 28 -30c0 -15 -12 -28 -28 -28z" />
    <glyph glyph-name="at" unicode="@" horiz-adv-x="833" 
d="M525 13c-47 0 -83 24 -83 67v7c-29 -45 -66 -74 -117 -74c-44 0 -89 24 -89 95c0 69 42 168 104 233c33 35 76 58 120 58c33 0 53 -14 64 -34l10 28h37l-82 -236c-7 -19 -15 -38 -15 -63c0 -43 28 -53 56 -53c85 0 196 107 196 271c0 145 -99 227 -264 227
c-212 0 -382 -154 -382 -406c0 -160 106 -278 318 -278s302 104 352 197l26 -18c-51 -96 -151 -207 -378 -207c-229 0 -354 126 -354 306c0 274 191 434 418 434c164 0 300 -78 300 -255c0 -190 -138 -299 -237 -299zM460 371c-36 0 -72 -22 -99 -51
c-56 -62 -89 -154 -89 -211c0 -49 24 -68 57 -68c58 0 105 61 126 124l45 130c5 13 7 26 7 38c0 23 -16 38 -47 38z" />
    <glyph glyph-name="A" unicode="A" horiz-adv-x="683" 
d="M280 293h205l45 360zM487 27h102l-12 -27h-238l12 27h101l29 238h-220l-168 -238h94l-12 -27h-215l12 27h84l476 681h39z" />
    <glyph glyph-name="B" unicode="B" horiz-adv-x="642" 
d="M168 673l12 27h239c123 0 195 -48 195 -148c0 -95 -66 -161 -170 -180c82 -16 143 -65 143 -165c0 -156 -135 -207 -263 -207h-353l12 27h103l190 646h-108zM312 673l-84 -286h149c43 0 86 10 122 30c48 27 78 73 78 133c0 80 -54 123 -159 123h-106zM122 27h202
c107 0 227 47 227 178c0 104 -78 155 -207 155h-124z" />
    <glyph glyph-name="C" unicode="C" horiz-adv-x="668" 
d="M497 1l29 100c-45 -61 -112 -115 -217 -115c-152 0 -236 119 -236 283c0 200 125 445 361 445c128 0 191 -74 202 -178l39 131h30l-67 -226h-26c3 20 3 40 2 60c-5 99 -56 185 -182 185c-212 0 -323 -238 -323 -419c0 -139 70 -253 204 -253c140 0 221 122 253 217h28
l-67 -230h-30z" />
    <glyph glyph-name="D" unicode="D" horiz-adv-x="704" 
d="M-29 0l12 27h97l190 646h-102l12 27h226c168 0 295 -85 295 -285c0 -119 -46 -225 -125 -301c-73 -72 -175 -114 -300 -114h-305zM404 673h-98l-190 -646h161c241 0 388 177 388 388c0 97 -31 167 -92 212c-44 32 -101 46 -169 46z" />
    <glyph glyph-name="E" unicode="E" horiz-adv-x="649" 
d="M528 0h-557l12 27h103l190 646h-106l8 27h475l-46 -185h-32l39 158h-302l-85 -289h180l37 125h33l-82 -278h-33l37 126h-180l-97 -330h381l46 158h33z" />
    <glyph glyph-name="F" unicode="F" horiz-adv-x="592" 
d="M227 0h-256l12 27h103l190 646h-108l12 27h490l-55 -185h-32l47 158h-318l-85 -289h181l37 125h32l-82 -278h-32l37 126h-181l-97 -330h117z" />
    <glyph glyph-name="G" unicode="G" horiz-adv-x="729" 
d="M616 247l-50 -171c-32 -40 -115 -90 -231 -90c-177 0 -262 116 -262 277c0 204 122 451 362 451c138 0 203 -85 208 -190l39 131h30l-63 -210h-28c1 17 1 36 0 56c-8 85 -52 185 -188 185c-211 0 -324 -236 -324 -423c0 -139 71 -249 228 -249c100 0 164 44 194 68
l49 165h-135l3 27h279l-3 -27h-108z" />
    <glyph glyph-name="H" unicode="H" horiz-adv-x="791" 
d="M210 0h-239l12 27h103l189 646h-108l12 27h242l-12 -27h-98l-85 -290h427l86 290h-101l12 27h242l-12 -27h-105l-191 -646h109l-12 -27h-240l12 27h95l97 328h-427l-96 -328h100z" />
    <glyph glyph-name="I" unicode="I" horiz-adv-x="327" 
d="M220 0h-249l12 27h103l190 646h-109l12 27h251l-12 -27h-106l-190 -646h110z" />
    <glyph glyph-name="J" unicode="J" horiz-adv-x="651" 
d="M-60 -200c0 27 7 39 19 63l29 -13c-11 -21 -14 -31 -14 -50c0 -43 48 -79 116 -79c130 0 189 117 226 221l112 330h-141l4 30h148c37 109 77 205 102 262c-49 5 -86 31 -121 59c-44 37 -87 77 -146 77s-95 -32 -95 -77c0 -21 8 -34 16 -42c5 -5 10 -8 16 -11l-16 -24
c-9 3 -17 9 -24 16c-12 12 -24 30 -24 61c0 63 53 107 130 107c69 0 116 -44 164 -81c35 -27 69 -51 113 -56c35 77 74 139 133 139c36 0 64 -20 64 -63c0 -63 -63 -115 -176 -107c-24 -53 -63 -152 -101 -260h123l-4 -30h-130l-116 -342c-40 -118 -107 -239 -257 -239
c-88 0 -150 48 -150 109zM685 702c-40 0 -66 -44 -97 -111c85 -5 131 33 131 77c0 25 -15 34 -34 34z" />
    <glyph glyph-name="K" unicode="K" horiz-adv-x="700" 
d="M514 -8c-57 0 -102 22 -118 121l-16 106c-11 65 -31 117 -85 117c-27 0 -42 -11 -57 -34c-29 -43 -63 -85 -78 -137l-41 -138h109l-12 -27h-247l12 27h102l190 646h-107l12 27h243l-12 -27h-100l-120 -396c86 129 225 302 330 380c64 48 116 62 160 62
c63 0 86 -27 86 -59c0 -31 -20 -51 -64 -58l-4 26c29 7 32 22 32 31c0 16 -11 30 -50 30c-36 0 -83 -11 -143 -56c-76 -58 -174 -163 -259 -275c9 3 18 4 30 4c63 0 95 -44 108 -141l15 -103c9 -68 39 -96 87 -96c31 0 62 14 92 41l16 -24c-37 -33 -66 -47 -111 -47z" />
    <glyph glyph-name="L" unicode="L" horiz-adv-x="626" 
d="M499 0h-531l12 27h103l190 646h-107l12 27h253l-12 -27h-110l-190 -646h356l49 166h32z" />
    <glyph glyph-name="M" unicode="M" horiz-adv-x="866" 
d="M214 27l-12 -27h-231l12 27h97l190 646h-102l12 27h138l60 -644l439 644h152l-12 -27h-98l-192 -646h103l-12 -27h-234l12 27h95l181 611l-434 -638h-28l-59 632l-178 -605h101z" />
    <glyph glyph-name="N" unicode="N" horiz-adv-x="915" 
d="M611 67l123 421c29 101 62 163 97 199c31 31 64 43 101 43c60 0 94 -30 94 -74c0 -23 -8 -37 -16 -48c-5 -6 -10 -11 -16 -15l-22 18c3 3 6 7 9 12c4 8 9 18 9 31c0 27 -21 46 -58 46c-81 0 -131 -92 -168 -220l-141 -482h-28l-175 637l-123 -412
c-55 -185 -125 -269 -230 -269c-72 0 -108 41 -108 93c0 35 15 58 40 79l19 -25c-17 -15 -23 -34 -23 -53c0 -32 19 -64 72 -64c39 0 72 16 100 44c44 44 74 118 101 206l132 439h-126l8 27h155z" />
    <glyph glyph-name="O" unicode="O" horiz-adv-x="661" 
d="M442 714c149 0 218 -94 218 -249c0 -137 -50 -290 -146 -386c-59 -57 -131 -93 -223 -93c-149 0 -218 94 -218 249c0 140 51 295 152 391c57 55 129 88 217 88zM444 686c-80 0 -147 -33 -200 -86c-91 -91 -137 -241 -137 -365c0 -120 47 -221 182 -221
c81 0 147 33 200 86c91 91 137 240 137 365c0 120 -47 221 -182 221z" />
    <glyph glyph-name="P" unicode="P" horiz-adv-x="587" 
d="M215 0h-247l12 27h103l190 646h-109l12 27h236c133 0 205 -56 205 -160c0 -137 -120 -222 -260 -222h-153l-85 -291h108zM410 673h-101l-97 -328h145c117 0 224 71 224 195c0 89 -57 133 -171 133z" />
    <glyph glyph-name="Q" unicode="Q" horiz-adv-x="644" 
d="M436 686c-80 0 -144 -36 -197 -89c-88 -88 -130 -239 -130 -362c0 -120 44 -221 172 -221c80 0 143 35 198 90c88 88 129 237 129 361c0 120 -44 221 -172 221zM434 714c142 0 208 -95 208 -249c0 -219 -123 -479 -359 -479c-14 0 -27 1 -40 3c-4 -9 -12 -27 -27 -47
c48 -27 91 -66 131 -109c73 -78 142 -154 237 -154c51 0 80 20 99 43c11 12 19 26 24 43l30 -10c-1 0 -33 -106 -153 -106c-104 0 -180 78 -260 163c-37 40 -79 78 -126 105c-29 -40 -75 -78 -131 -78c-41 0 -76 19 -76 62c0 51 46 75 105 75c32 0 63 -8 94 -21
c11 15 18 29 23 40c-95 28 -138 113 -138 240c0 219 123 479 359 479zM92 -54c-39 0 -69 -13 -69 -42c0 -23 19 -35 46 -35c43 0 76 29 103 61c-27 11 -52 16 -80 16z" />
    <glyph glyph-name="R" unicode="R" horiz-adv-x="709" 
d="M122 27h110l-12 -27h-249l12 27h103l190 646h-110l12 27h248c133 0 199 -50 199 -150c0 -128 -108 -203 -240 -203h-5c43 -16 76 -51 87 -126c3 -27 13 -91 21 -128c12 -51 36 -71 79 -71c31 0 59 11 86 33l16 -21c-31 -27 -60 -42 -103 -42c-55 0 -96 24 -113 93
c-8 38 -16 103 -22 134c-15 89 -56 123 -143 123h-73zM223 369h145c119 0 221 62 221 180c0 84 -51 124 -164 124h-113z" />
    <glyph glyph-name="S" unicode="S" horiz-adv-x="578" 
d="M304 -14c-119 0 -196 83 -199 182l-40 -141h-30l66 225h26c-3 -24 -4 -49 -1 -72c11 -92 70 -166 179 -166c96 0 155 57 155 156c0 107 -71 143 -130 194c-64 56 -130 105 -130 197c0 109 85 153 169 153c92 0 150 -52 157 -123l27 90h30l-49 -163h-28c3 21 3 40 0 57
c-11 75 -69 111 -138 111c-72 0 -132 -39 -132 -122c0 -78 58 -124 116 -174c64 -56 144 -97 144 -217c0 -123 -85 -187 -192 -187z" />
    <glyph glyph-name="T" unicode="T" horiz-adv-x="683" 
d="M390 0h-237l12 27h97l180 611l-165 -6c-86 -3 -129 -34 -129 -93c0 -21 4 -34 11 -45c3 -6 6 -11 11 -15l-29 -12c-5 4 -10 10 -14 17c-7 12 -13 28 -13 55c0 76 57 118 162 122l405 15c77 3 93 34 93 65c0 17 -6 31 -11 39c-3 5 -6 9 -10 12l23 18c6 -4 11 -9 16 -16
c8 -11 16 -29 16 -53c0 -48 -31 -91 -126 -94l-203 -8l-181 -612h104z" />
    <glyph glyph-name="U" unicode="U" horiz-adv-x="769" 
d="M764 673l-134 -452c-51 -168 -131 -235 -293 -235c-145 0 -218 69 -218 185c0 40 8 81 19 116l115 386h-108l12 27h249l-12 -27h-105l-117 -394c-11 -37 -17 -81 -17 -109c0 -89 59 -154 182 -154c146 0 214 67 259 213l132 444h-111l12 27h252l-12 -27h-105z" />
    <glyph glyph-name="V" unicode="V" horiz-adv-x="664" 
d="M761 673h-77l-473 -681h-37l85 681h-103l12 27h236l-12 -27h-98l-77 -618l429 618h-98l12 27h213z" />
    <glyph glyph-name="W" unicode="W" horiz-adv-x="968" 
d="M591 673h-108l12 27h248l-12 -27h-104l-78 -619l410 619h-104l12 27h225l-12 -27h-83l-451 -681h-39l78 600l-382 -600h-39l85 681h-109l12 27h248l-12 -27h-104l-77 -618l381 592z" />
    <glyph glyph-name="X" unicode="X" horiz-adv-x="728" 
d="M573 700h243l-12 -27h-101l-275 -308l86 -338h112l-12 -27h-244l12 27h96l-78 307l-282 -307h106l-12 -27h-246l12 27h100l312 340l-87 306h-106l12 27h246l-12 -27h-103l78 -275l246 275h-103z" />
    <glyph glyph-name="Y" unicode="Y" horiz-adv-x="646" 
d="M132 27h97l100 339c7 23 14 77 14 134c0 88 -17 184 -82 184c-23 0 -40 -11 -56 -28c-37 -43 -57 -120 -68 -172l-32 4c19 77 40 149 80 190c22 24 48 36 79 36c88 0 110 -99 110 -189c0 -33 -4 -62 -9 -89c20 56 58 126 109 183c56 64 123 111 194 111
c49 0 84 -24 84 -71c0 -19 -5 -34 -10 -45c-3 -7 -6 -13 -10 -18l-28 9l7 16c3 11 7 23 7 36c0 29 -18 43 -54 43c-59 0 -117 -41 -169 -101c-60 -71 -109 -162 -132 -241l-98 -331h109l-12 -27h-242z" />
    <glyph glyph-name="Z" unicode="Z" horiz-adv-x="637" 
d="M266 129c97 0 160 -51 202 -99c96 -101 145 -222 273 -222c89 0 123 59 123 127l32 -5c0 -86 -55 -152 -157 -152c-138 0 -197 124 -293 231c-34 39 -90 90 -180 90c-48 0 -85 -13 -120 -57l-45 -57l-23 19l455 566c-6 -2 -13 -3 -20 -3c-59 0 -106 50 -140 76
c-37 28 -62 41 -94 41c-53 0 -101 -31 -108 -112l-32 5c11 103 78 137 140 137c41 0 69 -15 112 -48c31 -23 69 -69 122 -69c33 0 57 18 85 53l43 54l23 -19l-455 -566c19 8 38 10 57 10z" />
    <glyph glyph-name="bracketleft" unicode="[" horiz-adv-x="330" 
d="M154 -212l-8 -27h-178l277 939h179l-8 -27h-143l-261 -885h142z" />
    <glyph glyph-name="backslash" unicode="\" horiz-adv-x="530" 
d="M180 715l32 9l239 -893l-32 -9z" />
    <glyph glyph-name="bracketright" unicode="]" horiz-adv-x="330" 
d="M174 674l8 27h178l-277 -939h-179l8 27h143l261 885h-142z" />
    <glyph glyph-name="asciicircum" unicode="^" horiz-adv-x="384" 
d="M398 445l-94 226l-209 -228l-20 21l226 246h22l106 -252z" />
    <glyph glyph-name="underscore" unicode="_" horiz-adv-x="420" 
d="M-90 -219l8 27h408l-8 -27h-408z" />
    <glyph glyph-name="grave" unicode="`" 
d="M171 746l85 -193l-31 -13l-85 193z" />
    <glyph glyph-name="a" unicode="a" horiz-adv-x="465" 
d="M323 -10c-39 0 -53 30 -56 69c-1 9 -1 19 0 29c-32 -60 -80 -98 -143 -98c-50 0 -99 27 -99 119c0 93 46 202 121 282c40 41 93 69 144 69c47 0 68 -23 73 -58l17 50h35l-105 -307c-8 -23 -15 -50 -14 -75c0 -28 9 -50 30 -50c19 0 35 13 50 33c23 31 39 75 54 118
l26 -12c-19 -49 -35 -93 -58 -124c-20 -28 -43 -45 -75 -45zM288 430c-44 0 -85 -28 -118 -63c-71 -75 -109 -174 -109 -258c0 -63 25 -89 68 -89c74 0 130 82 157 159l48 139c9 25 12 46 10 64c-4 29 -20 48 -56 48z" />
    <glyph glyph-name="b" unicode="b" horiz-adv-x="413" 
d="M257 730l-130 -373c43 67 100 103 164 103s97 -36 97 -116c0 -94 -51 -230 -120 -299c-37 -37 -78 -55 -125 -55c-68 0 -117 40 -117 124c0 35 9 70 20 103l166 484l-90 -5l11 28zM62 117c0 -64 31 -97 83 -97c35 0 71 15 103 48c64 67 104 190 104 274
c0 55 -16 88 -65 88c-78 0 -163 -87 -195 -180l-15 -44c-11 -31 -15 -64 -15 -89z" />
    <glyph glyph-name="c" unicode="c" horiz-adv-x="379" 
d="M343 380c0 35 -28 50 -61 50s-67 -15 -99 -42c-67 -57 -122 -159 -122 -259c0 -55 18 -109 86 -109c64 0 112 48 140 132l28 -16c-31 -92 -91 -146 -170 -146c-80 0 -120 54 -120 138c0 118 62 231 141 289c37 27 78 43 119 43c52 0 94 -23 94 -79c0 -16 -5 -34 -14 -55
l-34 4c9 24 12 39 12 50z" />
    <glyph glyph-name="d" unicode="d" horiz-adv-x="468" 
d="M323 -10c-37 0 -53 29 -56 68c-1 10 -1 20 0 31c-32 -60 -80 -99 -143 -99c-50 0 -99 27 -99 119s44 205 121 282c40 41 93 69 144 69c47 0 68 -23 73 -58l102 299l-91 -5l11 28l124 6l-199 -585c-8 -24 -13 -54 -12 -79c1 -27 9 -46 28 -46s35 13 50 32
c23 31 39 76 54 119l26 -12c-20 -52 -38 -98 -62 -129c-19 -25 -40 -40 -71 -40zM288 430c-43 0 -85 -28 -118 -63c-72 -72 -109 -176 -109 -258c0 -63 25 -89 68 -89c35 0 65 17 90 44c31 31 52 74 67 115l48 139c8 23 11 44 10 63c-3 29 -20 49 -56 49z" />
    <glyph glyph-name="e" unicode="e" horiz-adv-x="366" 
d="M61 126c0 -53 17 -106 85 -106c64 0 112 49 143 130l26 -12c-35 -89 -87 -148 -171 -148c-81 0 -119 55 -119 135c0 95 53 208 125 275c40 37 86 60 130 60c47 0 84 -23 84 -72c0 -52 -42 -96 -89 -125c-57 -36 -122 -54 -207 -77c-4 -20 -7 -40 -7 -60zM77 220
c73 19 129 36 176 65c44 27 75 64 75 101c0 29 -19 44 -51 44c-35 0 -70 -20 -101 -49c-43 -39 -79 -98 -99 -161z" />
    <glyph glyph-name="f" unicode="f" horiz-adv-x="281" 
d="M199 450h105l-9 -29h-104c-43 -142 -117 -393 -151 -512c-46 -153 -107 -189 -186 -189c-64 0 -103 23 -131 80l30 13c19 -40 51 -63 102 -63c67 0 114 39 151 167c35 117 105 360 148 504h-94l9 29h94l31 105c43 139 99 185 175 185c39 0 72 -12 107 -53l-21 -21
c-29 33 -53 44 -85 44c-68 0 -108 -50 -144 -166c-11 -31 -16 -59 -27 -94z" />
    <glyph glyph-name="g" unicode="g" horiz-adv-x="462" 
d="M191 148c80 0 150 79 150 177c0 59 -25 107 -90 107c-80 0 -150 -79 -150 -177c0 -59 25 -107 90 -107zM378 -146c0 -99 -92 -144 -208 -144c-160 0 -205 83 -205 150c0 56 31 93 58 106l21 -19c-25 -13 -45 -49 -45 -86c0 -54 37 -123 172 -123c92 0 173 33 173 115
c0 47 -26 67 -82 86c-41 15 -86 24 -131 43c-47 20 -73 42 -73 82s26 63 57 78c-31 23 -48 60 -48 113c0 122 91 205 185 205c41 0 73 -14 96 -43c20 19 44 30 75 30s60 -12 60 -59c0 -11 -1 -22 -4 -35l-34 4c3 10 4 20 4 29c0 21 -10 32 -31 32s-40 -11 -56 -26
c9 -17 13 -40 13 -67c0 -122 -91 -205 -187 -205c-18 0 -34 3 -49 9c-29 -15 -47 -35 -47 -62c0 -25 17 -38 53 -53c43 -19 95 -30 126 -41c73 -24 107 -54 107 -119z" />
    <glyph glyph-name="h" unicode="h" horiz-adv-x="484" 
d="M315 -10c-31 0 -53 18 -53 61c0 21 6 48 13 77c20 72 44 137 57 193c7 28 12 51 12 70c0 23 -11 39 -42 39c-24 0 -46 -11 -69 -27c-59 -45 -103 -134 -111 -157l-84 -246h-35l240 701l-90 -5l11 28l124 6l-128 -371c49 73 97 101 146 101c48 0 74 -28 74 -69
c0 -19 -5 -44 -13 -75c-15 -61 -40 -133 -59 -196c-7 -25 -11 -48 -11 -67c0 -22 7 -33 22 -33c19 0 37 18 54 45c19 29 36 67 55 106l28 -12c-23 -47 -40 -84 -59 -111c-27 -39 -51 -58 -82 -58z" />
    <glyph glyph-name="i" unicode="i" horiz-adv-x="300" 
d="M230 625c-19 0 -31 12 -31 31c0 17 12 31 31 31c17 0 31 -14 31 -31c0 -19 -14 -31 -31 -31zM191 402c0 19 -7 28 -20 28c-41 0 -82 -87 -109 -146l-28 12c49 112 90 164 141 164c28 0 52 -17 52 -56c0 -24 -11 -59 -24 -95c-23 -59 -45 -113 -70 -174
c-12 -28 -21 -56 -21 -79c0 -21 7 -36 26 -36c42 0 79 79 111 151l26 -12c-51 -113 -85 -169 -140 -169c-35 0 -58 23 -58 64c0 27 10 59 23 91c23 60 49 113 70 172c12 33 21 64 21 85z" />
    <glyph glyph-name="j" unicode="j" horiz-adv-x="238" 
d="M197 656c0 17 12 31 31 31c17 0 31 -14 31 -31c0 -19 -14 -31 -31 -31c-19 0 -31 12 -31 31zM32 -64c16 49 101 312 121 371c12 39 21 69 21 96c0 18 -7 27 -22 27c-47 0 -81 -102 -97 -140l-27 12c32 74 64 158 127 158c31 0 55 -17 55 -56c0 -31 -10 -62 -25 -105
l-121 -371c-53 -147 -106 -176 -168 -176c-61 0 -93 32 -93 79c0 12 2 22 5 30c1 4 3 8 5 11l31 -4l-4 -11c-2 -7 -3 -15 -3 -24c0 -31 20 -51 59 -51c56 0 95 41 136 154z" />
    <glyph glyph-name="k" unicode="k" horiz-adv-x="418" 
d="M258 366c-29 -27 -68 -63 -101 -104c8 5 17 7 26 7c43 0 53 -19 66 -111l12 -86c4 -31 15 -50 46 -50c24 0 40 13 59 36l21 -18c-25 -31 -43 -48 -82 -48c-36 0 -67 16 -75 73l-13 89c-8 52 -8 91 -45 91c-18 0 -36 -12 -54 -37c-15 -21 -21 -39 -38 -87l-42 -121h-35
l242 702l-96 -5l11 28l130 6l-170 -480c39 51 84 104 120 137c57 53 94 72 133 72c43 0 59 -23 59 -51c0 -19 -9 -32 -17 -41c-5 -5 -11 -10 -17 -13l-19 19l9 8c5 5 10 13 10 24c0 13 -7 24 -30 24c-31 0 -59 -17 -110 -64z" />
    <glyph glyph-name="l" unicode="l" horiz-adv-x="254" 
d="M79 225l165 487l-91 -5l11 28l124 6l-176 -527c-16 -49 -49 -127 -49 -164c0 -20 8 -30 25 -30c46 0 85 101 106 148l27 -11c-37 -85 -73 -167 -138 -167c-33 0 -55 19 -55 56c0 45 33 127 51 179z" />
    <glyph glyph-name="m" unicode="m" horiz-adv-x="739" 
d="M662 54c-28 -43 -54 -64 -86 -64c-31 0 -53 18 -53 61c0 23 7 53 15 85c19 65 39 126 54 182c7 29 12 56 12 75c0 20 -10 37 -41 37c-18 0 -35 -6 -52 -19c-58 -42 -104 -141 -112 -165l-84 -246h-36l95 273c20 60 23 91 23 120c0 20 -10 37 -41 37
c-23 0 -44 -11 -64 -28c-53 -45 -93 -132 -101 -156l-84 -246h-35l78 228c31 87 42 137 42 168c0 25 -8 34 -23 34s-28 -9 -41 -24c-27 -31 -52 -83 -69 -122l-28 12c27 60 51 103 76 130c21 23 43 34 68 34c32 0 48 -19 48 -58c0 -17 -4 -41 -11 -70c23 40 44 70 64 89
c29 29 56 39 83 39c49 0 75 -28 75 -67c0 -13 -2 -28 -6 -45c22 37 44 64 66 83c23 19 47 29 72 29c49 0 75 -28 75 -67c0 -20 -5 -45 -13 -76c-15 -60 -39 -127 -56 -188c-8 -29 -14 -55 -14 -76c0 -22 7 -33 22 -33c19 0 37 19 56 47c19 29 36 67 53 104l28 -12
c-20 -44 -38 -78 -55 -105z" />
    <glyph glyph-name="n" unicode="n" horiz-adv-x="547" 
d="M497 171l28 -12c-19 -40 -35 -71 -51 -98c-29 -48 -55 -71 -90 -71c-31 0 -53 18 -53 61c0 23 6 50 14 81c19 68 42 134 57 191c7 28 11 51 11 68c0 23 -11 39 -42 39c-23 0 -45 -10 -66 -25c-61 -45 -106 -135 -114 -159l-84 -246h-35l78 228c31 87 42 137 42 168
c0 25 -8 34 -23 34c-11 0 -23 -6 -36 -19c-29 -29 -55 -84 -74 -127l-28 12c28 64 54 108 81 135c19 19 40 29 63 29c32 0 48 -19 48 -57c0 -20 -4 -44 -12 -73c25 43 51 75 77 96c29 24 58 34 87 34c48 0 74 -28 74 -69c0 -19 -5 -43 -12 -72c-16 -61 -40 -133 -59 -197
c-7 -27 -12 -50 -12 -69c0 -22 7 -33 22 -33c21 0 41 23 61 55c16 28 32 61 48 96z" />
    <glyph glyph-name="o" unicode="o" horiz-adv-x="410" 
d="M260 460c80 0 125 -55 125 -143c0 -136 -87 -327 -235 -327c-80 0 -125 55 -125 143c0 136 87 327 235 327zM150 18c44 0 80 22 111 55c56 64 88 165 88 244c0 64 -24 115 -89 115c-39 0 -71 -15 -99 -42c-64 -61 -100 -174 -100 -257c0 -64 22 -115 89 -115z" />
    <glyph glyph-name="p" unicode="p" horiz-adv-x="486" 
d="M425 314c0 79 -32 116 -84 116c-76 0 -141 -84 -168 -176l-14 -45c-12 -36 -16 -75 -12 -110c5 -45 35 -79 87 -79c117 0 191 177 191 294zM104 -280h-212l3 27h85l198 640c-45 -37 -106 -86 -124 -162l-32 4c27 109 127 154 172 212l61 196h35l-81 -264
c35 56 80 87 136 87c61 0 116 -37 116 -146c0 -136 -82 -324 -223 -324c-61 0 -102 36 -113 92c-1 4 -2 7 -2 11l-107 -346h91z" />
    <glyph glyph-name="q" unicode="q" horiz-adv-x="424" 
d="M270 -280h-212l3 27h91l116 332c-32 -49 -76 -89 -139 -89c-55 0 -104 30 -104 124c0 113 65 223 149 289c44 35 95 57 146 57c37 0 58 -14 71 -27l6 17h35l-245 -703h86zM132 20c80 0 150 94 179 182l70 202c-11 13 -29 26 -60 26c-43 0 -88 -23 -127 -54
c-75 -64 -133 -165 -133 -262c0 -64 26 -94 71 -94z" />
    <glyph glyph-name="r" unicode="r" horiz-adv-x="390" 
d="M107 0h-35l83 242c25 71 37 123 37 154c0 25 -8 34 -23 34c-12 0 -23 -6 -34 -17c-29 -29 -57 -87 -76 -129l-28 12c29 67 57 113 84 138c19 17 39 26 60 26c33 0 49 -19 49 -58c0 -17 -4 -40 -11 -68c20 39 40 71 71 98c27 23 46 28 67 28c35 0 56 -16 59 -72l-33 -5
c-1 29 -4 47 -28 47c-15 0 -31 -6 -47 -19c-51 -43 -91 -103 -114 -172z" />
    <glyph glyph-name="s" unicode="s" horiz-adv-x="316" 
d="M321 375l-32 -5c-6 41 -26 62 -60 62c-40 0 -62 -28 -62 -79c0 -31 12 -61 27 -109c19 -62 31 -89 31 -132c0 -88 -55 -122 -119 -122c-68 0 -114 37 -121 110l32 4c7 -52 38 -86 90 -86c45 0 85 28 85 95c0 36 -14 64 -31 119c-16 51 -29 85 -29 121c0 77 46 107 98 107
c49 0 83 -26 91 -85z" />
    <glyph glyph-name="t" unicode="t" horiz-adv-x="299" 
d="M235 168l27 -12c-24 -60 -50 -106 -82 -135c-23 -21 -48 -31 -76 -31c-42 0 -63 22 -63 66c0 20 5 43 14 71l101 294h-76l9 29h77c25 72 47 129 55 156l35 -4l-55 -152h100l-9 -29h-102l-100 -294c-9 -29 -14 -52 -14 -68c0 -26 11 -39 33 -39c19 0 36 8 53 25
c28 27 52 71 73 123z" />
    <glyph glyph-name="u" unicode="u" horiz-adv-x="532" 
d="M482 171l27 -12c-23 -55 -43 -94 -66 -122c-25 -31 -51 -47 -79 -47c-33 0 -49 19 -49 58c0 17 3 39 10 64c-41 -76 -99 -122 -159 -122c-38 0 -77 17 -77 73c0 23 5 51 16 83c19 72 55 157 71 203c5 16 10 36 10 53c0 16 -5 28 -20 28c-11 0 -23 -6 -34 -17
c-29 -29 -57 -87 -76 -129l-28 12c29 67 57 113 84 138c18 17 38 26 60 26c36 0 50 -23 50 -56c0 -19 -5 -42 -13 -66c-16 -48 -51 -132 -70 -200c-9 -29 -14 -53 -14 -72c0 -31 14 -46 43 -46c37 0 72 25 103 60c39 43 65 95 76 124l84 246h35l-79 -228
c-29 -84 -40 -135 -40 -166c0 -27 8 -36 23 -36c17 0 35 14 51 37c23 31 45 75 61 114z" />
    <glyph glyph-name="v" unicode="v" horiz-adv-x="449" 
d="M424 350c0 -86 -29 -200 -84 -274c-39 -51 -88 -86 -152 -86c-84 0 -120 61 -120 128c0 92 68 193 124 273h-5c-15 0 -28 6 -39 14c-15 11 -22 21 -37 21c-33 0 -44 -44 -51 -108l-30 5c11 100 41 133 81 133c21 0 34 -11 53 -26c9 -7 18 -16 31 -16c8 0 16 3 24 15
l24 34l24 -16c-62 -94 -163 -220 -163 -328c0 -45 20 -99 88 -99c51 0 91 29 122 73c51 72 79 179 79 262c0 35 -5 66 -16 93l30 13c12 -33 17 -72 17 -111z" />
    <glyph glyph-name="w" unicode="w" horiz-adv-x="688" 
d="M416 -10c-43 0 -85 20 -98 96c-45 -60 -85 -96 -149 -96c-67 0 -103 40 -103 112c0 106 78 208 137 288c-1 -1 -3 -1 -6 -1c-15 0 -28 9 -41 18c-12 9 -24 18 -39 18c-35 0 -48 -44 -55 -108l-32 5c11 104 47 133 85 133c23 0 39 -12 55 -23c13 -11 25 -19 38 -19
c7 0 13 3 17 8c11 15 19 23 30 42l25 -17c-64 -93 -178 -222 -178 -345c0 -40 11 -81 68 -81c56 0 99 41 140 98c-1 61 4 118 17 171c20 81 55 140 100 140c19 0 37 -12 37 -48c0 -35 -12 -79 -35 -130c-20 -44 -48 -92 -83 -137c4 -63 28 -94 72 -94c56 0 105 44 142 108
c43 72 68 165 68 244c0 32 -4 53 -12 74l31 14c12 -27 16 -51 16 -84c0 -84 -25 -184 -72 -261c-43 -73 -103 -125 -175 -125zM433 374c0 14 -4 21 -12 21c-23 0 -44 -48 -61 -113c-11 -43 -18 -91 -21 -139c25 39 47 82 63 121c19 47 31 87 31 110z" />
    <glyph glyph-name="x" unicode="x" horiz-adv-x="501" 
d="M235 375l31 -114l96 138c28 39 52 61 83 61c23 0 46 -12 46 -47s-21 -70 -48 -103l-22 18c23 31 38 58 38 81c0 14 -6 21 -18 21c-19 0 -38 -22 -59 -53c-29 -40 -75 -105 -107 -153c13 -50 36 -134 47 -166c7 -23 19 -35 35 -35c37 0 54 55 70 115l30 -4
c-23 -92 -52 -144 -103 -144c-25 0 -48 13 -63 56c-9 28 -27 88 -42 143l-94 -138c-28 -39 -47 -61 -82 -61c-27 0 -50 14 -50 57c0 51 32 93 54 115l23 -17c-19 -23 -45 -60 -45 -95c0 -20 8 -30 23 -30c23 0 36 22 57 53c29 40 72 109 104 154l-37 138
c-12 48 -22 65 -37 65c-27 0 -45 -57 -61 -129l-30 5c23 104 44 154 95 154c32 0 50 -21 66 -85z" />
    <glyph glyph-name="y" unicode="y" horiz-adv-x="428" 
d="M-81 -293l-11 27c88 36 186 117 273 228c15 71 22 164 22 251c0 72 -5 137 -18 176c-9 27 -23 41 -40 41c-48 0 -72 -91 -80 -168l-30 5c11 105 45 193 113 193c35 0 56 -24 69 -63c15 -44 20 -105 20 -173s-6 -140 -17 -207c86 132 149 263 149 372c0 21 -2 38 -5 49
l-5 16l34 9l6 -19c3 -12 6 -30 6 -53c0 -127 -91 -290 -194 -436c-86 -121 -201 -210 -292 -248z" />
    <glyph glyph-name="z" unicode="z" horiz-adv-x="370" 
d="M301 410l34 43l25 -16l-270 -327h2c31 0 53 -20 78 -47c19 -20 34 -43 65 -43c54 0 71 67 87 113l30 -8c-21 -61 -52 -135 -116 -135c-37 0 -62 25 -89 54c-19 20 -34 39 -59 39c-27 0 -33 -14 -46 -33l-46 -57l-21 20l278 338h-4c-28 0 -53 21 -77 44
c-15 13 -25 25 -44 25c-29 0 -39 -29 -46 -72l-29 8c9 60 30 94 73 94c27 0 45 -13 64 -32c21 -19 40 -40 65 -40c23 0 33 15 46 32z" />
    <glyph glyph-name="braceleft" unicode="{" horiz-adv-x="339" 
d="M428 702l-8 -27h-19c-71 0 -136 -37 -155 -116c-11 -45 -7 -101 -10 -166c-4 -91 -47 -140 -126 -155c31 -16 48 -47 48 -83c0 -47 -26 -97 -49 -148c-20 -44 -39 -88 -39 -132c0 -57 30 -85 101 -85h11l-8 -27h-11c-79 0 -129 32 -129 112c0 53 21 99 44 144
s44 88 44 136c0 35 -20 73 -72 73h-29l8 27h18c113 0 148 55 153 140c3 67 1 123 12 170c24 99 106 137 190 137h26z" />
    <glyph glyph-name="bar" unicode="|" horiz-adv-x="275" 
d="M155 -249v979h30v-979h-30z" />
    <glyph glyph-name="braceright" unicode="}" horiz-adv-x="339" 
d="M-63 -238l8 27h19c71 0 136 37 155 116c11 45 7 101 10 166c4 91 47 140 126 155c-31 16 -48 47 -48 83c0 47 26 97 49 148c20 44 39 88 39 132c0 57 -30 85 -101 85h-11l8 27h11c79 0 129 -32 129 -112c0 -53 -21 -99 -44 -144s-44 -88 -44 -136c0 -35 20 -73 72 -73h29
l-8 -27h-18c-113 0 -148 -55 -153 -140c-3 -67 -1 -123 -12 -170c-24 -99 -106 -137 -190 -137h-26z" />
    <glyph glyph-name="asciitilde" unicode="~" horiz-adv-x="512" 
d="M339 240c25 0 46 13 69 60l24 -16c-27 -56 -57 -74 -93 -74c-52 0 -115 59 -163 59c-27 0 -48 -14 -71 -61l-25 15c27 56 56 75 96 75c52 0 115 -58 163 -58z" />
    <glyph glyph-name="uni00A0" unicode="&#xa0;" horiz-adv-x="172" 
 />
    <glyph glyph-name="exclamdown" unicode="&#xa1;" horiz-adv-x="250" 
d="M153 387h36l-153 -523h-36zM204 535c16 0 29 -13 29 -28c0 -17 -13 -30 -29 -30s-28 13 -28 30c0 15 12 28 28 28z" />
    <glyph glyph-name="cent" unicode="&#xa2;" horiz-adv-x="394" 
d="M69 129c0 -43 11 -84 46 -101l160 401c-28 -4 -57 -18 -84 -41c-67 -57 -122 -159 -122 -259zM153 -10c-7 0 -13 0 -20 1l-35 -88l-28 12l33 84c-47 19 -70 65 -70 129c0 118 62 231 141 289c35 27 75 42 114 43l35 88l28 -12l-31 -78c39 -8 67 -32 67 -77
c0 -16 -5 -34 -14 -55l-34 4c9 24 12 39 12 50c0 28 -18 43 -43 48l-163 -408h10c64 0 112 48 140 132l28 -16c-31 -92 -91 -146 -170 -146z" />
    <glyph glyph-name="sterling" unicode="&#xa3;" horiz-adv-x="547" 
d="M390 -201c-72 0 -122 38 -172 78c-40 31 -79 62 -126 73c-18 -44 -49 -113 -111 -113c-32 0 -54 17 -54 52c0 51 50 93 135 93h8l63 128h-109l11 27h111c67 140 139 296 187 397c60 121 127 174 216 175c38 0 67 -10 86 -29l-21 -23c-19 19 -38 22 -69 22
c-80 -1 -136 -57 -183 -156c-47 -95 -117 -250 -181 -386h158l-8 -27h-163c-25 -51 -46 -96 -63 -133c52 -11 93 -42 132 -73c48 -37 95 -75 156 -75c63 0 94 37 94 80c0 21 -9 34 -17 42c-5 5 -10 8 -16 11l16 25c9 -4 17 -10 24 -17c12 -12 25 -32 25 -61
c0 -64 -48 -110 -129 -110zM-16 -133c40 0 61 55 74 87h-6c-49 0 -93 -27 -93 -63c0 -16 8 -24 25 -24z" />
    <glyph glyph-name="yen" unicode="&#xa5;" horiz-adv-x="572" 
d="M343 27l-12 -27h-215l12 27h87l46 161h-148l8 27h148l19 65l-9 25h-135l8 27h118l-87 249h-83l12 27h203l-12 -27h-82l94 -269l219 269h-78l12 27h195l-12 -27h-79l-203 -249h129l-8 -27h-143l-23 -28l-18 -62h161l-8 -27h-161l-47 -161h92z" />
    <glyph glyph-name="brokenbar" unicode="&#xa6;" horiz-adv-x="275" 
d="M155 281v449h30v-449h-30zM155 -249v449h30v-449h-30z" />
    <glyph glyph-name="section" unicode="&#xa7;" horiz-adv-x="343" 
d="M178 88l16 -43c8 -5 18 -10 41 -10c47 0 80 27 80 86c0 22 -6 50 -18 83l-79 207l-18 48c-8 5 -18 10 -41 10c-47 0 -80 -26 -80 -85c0 -23 6 -51 18 -84zM215 -53c0 -97 -61 -159 -157 -159c-52 0 -89 21 -104 45l19 21c16 -24 46 -38 85 -38c80 0 123 51 123 127
c0 53 -24 105 -35 136l-79 213c-13 34 -19 65 -19 92c0 75 50 111 107 111c13 0 25 -2 35 -5c-7 19 -11 40 -11 67c0 97 62 159 161 159c31 0 57 -7 80 -20l-14 -26c-20 12 -40 18 -68 18c-83 0 -125 -51 -125 -127c0 -53 23 -105 35 -136l79 -213c13 -34 19 -64 19 -91
c0 -75 -50 -112 -107 -112c-13 0 -25 2 -35 5c7 -19 11 -40 11 -67z" />
    <glyph glyph-name="dieresis" unicode="&#xa8;" 
d="M160 625c-19 0 -31 12 -31 31c0 17 12 31 31 31c17 0 31 -14 31 -31c0 -19 -14 -31 -31 -31zM352 625c-19 0 -31 12 -31 31c0 17 12 31 31 31c17 0 31 -14 31 -31c0 -19 -14 -31 -31 -31z" />
    <glyph glyph-name="copyright" unicode="&#xa9;" horiz-adv-x="845" 
d="M819 221c0 -219 -165 -367 -372 -367c-206 0 -371 148 -371 367c0 218 165 368 371 368c207 0 372 -150 372 -368zM112 221c0 -196 145 -339 335 -339c189 0 336 143 336 339c0 197 -147 340 -336 340c-190 0 -335 -143 -335 -340zM608 7v66c-21 -45 -73 -89 -163 -89
c-143 0 -228 101 -228 237c0 139 85 239 224 239c91 0 146 -47 167 -95v72h28v-158h-25c-3 34 -12 63 -29 88c-28 41 -75 65 -139 65c-127 0 -190 -97 -190 -211c0 -115 63 -209 194 -209c51 0 94 15 123 46c24 25 37 58 40 100h26v-151h-28z" />
    <glyph glyph-name="ordfeminine" unicode="&#xaa;" horiz-adv-x="386" 
d="M306 370c-20 0 -41 10 -44 46v8c-19 -31 -45 -54 -84 -54c-29 0 -68 16 -68 73c0 61 36 137 87 180c25 23 53 35 81 35c25 0 40 -11 47 -26l8 22h31l-62 -177c-4 -12 -12 -32 -12 -51c0 -15 3 -28 18 -28c10 0 19 7 28 21c11 16 19 39 27 64l28 -8
c-11 -31 -22 -55 -33 -70c-15 -23 -32 -35 -52 -35zM276 630c-23 0 -42 -10 -61 -26c-43 -38 -73 -111 -73 -159c0 -31 13 -47 40 -47c41 0 74 37 93 90l33 94c3 11 5 20 4 26c-3 15 -15 22 -36 22z" />
    <glyph glyph-name="guillemotleft" unicode="&#xab;" horiz-adv-x="405" 
d="M158 106l-105 135v8l147 131l19 -20l-131 -117l90 -116zM311 106l-105 135v8l147 131l19 -20l-131 -117l90 -116z" />
    <glyph glyph-name="logicalnot" unicode="&#xac;" horiz-adv-x="463" 
d="M403 107h-30v143h-333v27h363v-170z" />
    <glyph glyph-name="registered" unicode="&#xae;" horiz-adv-x="416" 
d="M88 546c0 102 83 179 185 179s185 -77 185 -179c0 -101 -83 -178 -185 -178s-185 77 -185 178zM118 546c0 -83 64 -151 155 -151s155 68 155 151s-64 151 -155 151s-155 -68 -155 -151zM281 622h-35v-60h34c23 0 30 15 30 30c0 19 -6 30 -29 30zM181 463v23h35v136h-35
v23h96c36 0 63 -17 63 -53c0 -28 -20 -46 -47 -51c15 -19 31 -36 40 -43c5 -4 12 -12 19 -12h27v-23h-26c-12 0 -26 3 -37 15c-20 17 -43 46 -56 61h-14v-53h31v-23h-96z" />
    <glyph glyph-name="macron" unicode="&#xaf;" 
d="M338 651l-8 -30h-222l8 30h222z" />
    <glyph glyph-name="degree" unicode="&#xb0;" horiz-adv-x="289" 
d="M76 562c0 96 74 133 138 133s139 -37 139 -133s-75 -133 -139 -133s-138 37 -138 133zM110 562c0 -68 48 -105 104 -105s105 37 105 105s-48 105 -105 105s-104 -37 -104 -105z" />
    <glyph glyph-name="plusminus" unicode="&#xb1;" horiz-adv-x="548" 
d="M450 42h-385v27h177v162h-177v27h177v176h30v-176h178v-27h-178v-162h178v-27z" />
    <glyph glyph-name="twosuperior" unicode="&#xb2;" horiz-adv-x="373" 
d="M324 274h-36l19 47h-255l9 23c48 27 150 81 200 118c56 40 118 77 118 143c0 37 -28 66 -85 66c-56 0 -124 -32 -124 -95c0 -15 3 -32 30 -32c23 0 36 14 51 39l26 -17c-19 -31 -42 -50 -77 -50c-41 0 -62 25 -62 60c0 80 87 123 156 123c75 0 117 -38 117 -94
c0 -79 -74 -122 -131 -163c-41 -32 -109 -68 -156 -94h230z" />
    <glyph glyph-name="threesuperior" unicode="&#xb3;" horiz-adv-x="339" 
d="M189 316c-69 0 -102 31 -102 67c0 22 11 41 34 56l16 -20c-17 -11 -18 -26 -18 -33c0 -25 23 -42 70 -42c75 0 148 45 148 106c0 33 -20 56 -63 56c-17 0 -29 -4 -45 -12l-36 -18l-15 23l84 41c37 19 103 37 103 86c0 31 -24 45 -65 45c-52 0 -104 -23 -104 -64
c0 -12 6 -21 22 -21c11 0 18 4 25 8l9 9l14 -21c-4 -5 -8 -8 -13 -11c-8 -7 -21 -11 -37 -11c-25 0 -52 11 -52 46c0 58 68 93 136 93c60 0 97 -24 97 -71c0 -54 -50 -77 -107 -101h3c47 -4 76 -35 76 -78c0 -77 -87 -133 -180 -133z" />
    <glyph glyph-name="acute" unicode="&#xb4;" 
d="M350 746l26 -20l-142 -187l-26 20z" />
    <glyph glyph-name="uni03BC" unicode="&#xb5;" horiz-adv-x="667" 
d="M340 -10c-56 0 -99 15 -124 52v-240h-36v648h36v-319c0 -80 44 -111 124 -111c60 0 117 22 148 51c19 19 22 34 22 54v325h36v-366l3 -62l86 14v-28l-98 -15h-22l-4 66c-33 -39 -90 -69 -171 -69z" />
    <glyph glyph-name="paragraph" unicode="&#xb6;" horiz-adv-x="484" 
d="M397 0h-318l12 27h84l84 289h-11c-111 0 -183 61 -183 174c0 148 125 210 256 210h286l-12 -27h-92l-189 -646h95zM249 343h18l97 330h-44c-117 0 -221 -55 -221 -183c0 -96 58 -147 150 -147zM278 27l189 646h-67l-189 -646h67z" />
    <glyph glyph-name="periodcentered" unicode="&#xb7;" horiz-adv-x="227" 
d="M137 223c-16 0 -31 12 -31 31s15 31 31 31s31 -12 31 -31s-15 -31 -31 -31z" />
    <glyph glyph-name="cedilla" unicode="&#xb8;" 
d="M145 -251c-25 0 -54 6 -81 26l15 23c23 -19 43 -21 66 -21c55 0 83 30 83 69c0 32 -18 47 -49 47c-15 0 -29 -5 -42 -15l-15 18l63 114h33l-52 -95c7 3 13 4 24 4c32 0 71 -16 71 -72c0 -57 -43 -98 -116 -98z" />
    <glyph glyph-name="onesuperior" unicode="&#xb9;" horiz-adv-x="337" 
d="M325 697l-103 -348h76l-12 -27h-185l12 27h75l93 313c-21 -7 -48 -14 -87 -19l9 28c43 8 67 14 95 26h27z" />
    <glyph glyph-name="ordmasculine" unicode="&#xba;" horiz-adv-x="332" 
d="M260 658c44 0 82 -27 82 -91c0 -91 -58 -197 -150 -197c-44 0 -82 27 -82 91c0 91 58 197 150 197zM193 398c19 0 38 7 55 21c39 32 62 95 62 148c0 39 -15 63 -51 63c-21 0 -41 -8 -58 -23c-38 -32 -59 -96 -59 -146c0 -39 15 -63 51 -63z" />
    <glyph glyph-name="guillemotright" unicode="&#xbb;" horiz-adv-x="405" 
d="M104 380l105 -135v-8l-147 -131l-19 20l131 117l-90 116zM257 380l105 -135v-8l-147 -131l-19 20l131 117l-90 116z" />
    <glyph glyph-name="onequarter" unicode="&#xbc;" horiz-adv-x="576" 
d="M373 320h-157l12 27h58l98 334c-20 -7 -46 -11 -79 -14l8 28c39 4 64 12 91 21h25l-109 -369h65zM35 252h506v-27h-506v27zM312 -233h-179l12 27h71l24 80h-179l4 17l259 271h33l-76 -261h75l-12 -27h-71l-24 -80h75zM248 -99l60 206l-198 -206h138z" />
    <glyph glyph-name="onehalf" unicode="&#xbd;" horiz-adv-x="576" 
d="M373 320h-157l12 27h58l98 334c-20 -7 -46 -11 -79 -14l8 28c39 4 64 12 91 21h25l-109 -369h65zM35 252h506v-27h-506v27zM259 41l22 -15c-17 -27 -41 -50 -76 -50s-66 21 -66 68c0 75 75 125 155 125c72 0 118 -34 118 -101c0 -74 -61 -127 -133 -178
c-29 -21 -99 -64 -147 -96h226l-9 -27h-283l7 20c67 43 155 100 189 124c65 48 116 92 116 155c0 48 -31 75 -84 75c-67 0 -123 -42 -123 -98c0 -21 9 -39 36 -39c21 0 39 12 52 37z" />
    <glyph glyph-name="threequarters" unicode="&#xbe;" horiz-adv-x="576" 
d="M468 449c0 -77 -75 -139 -182 -139c-72 0 -111 29 -111 76c0 27 14 45 34 61l23 -16c-20 -19 -23 -29 -23 -45c0 -29 29 -48 77 -48c90 0 148 52 148 109c0 40 -27 62 -64 62c-16 0 -33 -4 -51 -12l-37 -17l-15 23l88 40c43 19 99 46 99 98c0 35 -25 53 -68 53
c-56 0 -100 -30 -100 -65c0 -13 8 -24 27 -24c11 0 18 2 33 13l12 -24c-16 -12 -34 -16 -49 -16c-31 0 -55 14 -55 49c0 53 63 95 135 95c57 0 99 -27 99 -80c0 -55 -45 -85 -98 -110h1c47 -7 77 -32 77 -83zM35 252h506v-27h-506v27zM304 -233h-179l12 27h71l24 80h-179
l4 17l259 271h33l-76 -261h75l-12 -27h-71l-24 -80h75zM240 -99l60 206l-198 -206h138z" />
    <glyph glyph-name="questiondown" unicode="&#xbf;" horiz-adv-x="375" 
d="M154 280l-26 12c21 44 56 75 107 75c56 0 87 -33 87 -80c0 -78 -91 -115 -165 -157c-75 -43 -116 -82 -116 -150c0 -57 34 -100 106 -100c76 0 120 45 120 101c0 35 -17 63 -60 63c-37 0 -58 -23 -58 -55c0 -9 1 -18 6 -27l-28 -12c-7 11 -10 24 -10 39c0 51 36 85 92 85
c57 0 92 -38 92 -93c0 -75 -66 -131 -154 -131c-91 0 -140 54 -140 130c0 79 51 129 134 176c68 39 147 67 147 129c0 28 -16 52 -53 52c-39 0 -64 -24 -81 -57zM293 535c16 0 29 -13 29 -28c0 -17 -13 -30 -29 -30s-28 13 -28 30c0 15 12 28 28 28z" />
    <glyph glyph-name="Agrave" unicode="&#xc0;" horiz-adv-x="683" 
d="M280 293h205l45 360zM487 27h102l-12 -27h-238l12 27h101l29 238h-220l-168 -238h94l-12 -27h-215l12 27h84l476 681h39zM526 933l93 -155l-26 -17l-93 155z" />
    <glyph glyph-name="Aacute" unicode="&#xc1;" horiz-adv-x="683" 
d="M280 293h205l45 360zM487 27h102l-12 -27h-238l12 27h101l29 238h-220l-168 -238h94l-12 -27h-215l12 27h84l476 681h39zM646 933l22 -22l-134 -148l-22 22z" />
    <glyph glyph-name="Acircumflex" unicode="&#xc2;" horiz-adv-x="683" 
d="M280 293h205l45 360zM487 27h102l-12 -27h-238l12 27h101l29 238h-220l-168 -238h94l-12 -27h-215l12 27h84l476 681h39zM629 766l-66 116l-124 -118l-18 22l138 132h19l78 -139z" />
    <glyph glyph-name="Atilde" unicode="&#xc3;" horiz-adv-x="683" 
d="M280 293h205l45 360zM487 27h102l-12 -27h-238l12 27h101l29 238h-220l-168 -238h94l-12 -27h-215l12 27h84l476 681h39zM642 830c21 0 42 17 65 58l27 -17c-32 -51 -59 -70 -91 -70c-27 0 -53 15 -78 28c-17 8 -32 17 -51 17c-27 0 -46 -19 -70 -60l-27 17
c31 51 59 72 96 72c24 0 44 -9 65 -20s41 -25 64 -25z" />
    <glyph glyph-name="Adieresis" unicode="&#xc4;" horiz-adv-x="683" 
d="M280 293h205l45 360zM487 27h102l-12 -27h-238l12 27h101l29 238h-220l-168 -238h94l-12 -27h-215l12 27h84l476 681h39zM485 798c-19 0 -31 12 -31 31c0 17 12 31 31 31c17 0 31 -14 31 -31c0 -19 -14 -31 -31 -31zM677 798c-19 0 -31 12 -31 31c0 17 12 31 31 31
c17 0 31 -14 31 -31c0 -19 -14 -31 -31 -31z" />
    <glyph glyph-name="Aring" unicode="&#xc5;" horiz-adv-x="683" 
d="M280 293h205l45 360zM487 27h102l-12 -27h-238l12 27h101l29 238h-220l-168 -238h94l-12 -27h-215l12 27h84l476 681h39zM490 847c0 60 46 86 86 86s86 -26 86 -86s-46 -86 -86 -86s-86 26 -86 86zM522 847c0 -35 25 -58 54 -58c31 0 54 23 54 58s-23 58 -54 58
c-29 0 -54 -23 -54 -58z" />
    <glyph glyph-name="AE" unicode="&#xc6;" horiz-adv-x="1010" 
d="M378 354h165l94 319h-6zM943 185l-54 -185h-557l12 27h103l88 300h-179l-248 -300h87l-12 -27h-213l12 27h89l524 646h-75l8 27h486l-46 -185h-32l39 158h-302l-94 -319h180l37 125h33l-82 -278h-33l37 126h-180l-88 -300h381l46 158h33z" />
    <glyph glyph-name="Ccedilla" unicode="&#xc7;" horiz-adv-x="668" 
d="M230 -251c-25 0 -54 6 -81 26l15 23c23 -19 43 -21 66 -21c55 0 83 30 83 69c0 32 -18 47 -49 47c-15 0 -29 -5 -42 -15l-15 18l52 95c-120 24 -186 133 -186 278c0 200 125 445 361 445c128 0 191 -74 202 -178l39 131h30l-67 -226h-26c3 20 3 40 2 60
c-5 99 -56 185 -182 185c-212 0 -323 -238 -323 -419c0 -139 70 -253 204 -253c140 0 221 122 253 217h28l-67 -230h-30l29 100c-45 -61 -112 -115 -217 -115c-7 0 -12 0 -19 1l-39 -72c7 3 13 4 24 4c32 0 71 -16 71 -72c0 -57 -43 -98 -116 -98z" />
    <glyph glyph-name="Egrave" unicode="&#xc8;" horiz-adv-x="649" 
d="M528 0h-557l12 27h103l190 646h-106l8 27h475l-46 -185h-32l39 158h-302l-85 -289h180l37 125h33l-82 -278h-33l37 126h-180l-97 -330h381l46 158h33zM417 933l93 -155l-26 -17l-93 155z" />
    <glyph glyph-name="Eacute" unicode="&#xc9;" horiz-adv-x="649" 
d="M528 0h-557l12 27h103l190 646h-106l8 27h475l-46 -185h-32l39 158h-302l-85 -289h180l37 125h33l-82 -278h-33l37 126h-180l-97 -330h381l46 158h33zM543 933l22 -22l-134 -148l-22 22z" />
    <glyph glyph-name="Ecircumflex" unicode="&#xca;" horiz-adv-x="649" 
d="M528 0h-557l12 27h103l190 646h-106l8 27h475l-46 -185h-32l39 158h-302l-85 -289h180l37 125h33l-82 -278h-33l37 126h-180l-97 -330h381l46 158h33zM531 766l-66 116l-124 -118l-18 22l138 132h19l78 -139z" />
    <glyph glyph-name="Edieresis" unicode="&#xcb;" horiz-adv-x="649" 
d="M528 0h-557l12 27h103l190 646h-106l8 27h475l-46 -185h-32l39 158h-302l-85 -289h180l37 125h33l-82 -278h-33l37 126h-180l-97 -330h381l46 158h33zM387 798c-19 0 -31 12 -31 31c0 17 12 31 31 31c17 0 31 -14 31 -31c0 -19 -14 -31 -31 -31zM579 798
c-19 0 -31 12 -31 31c0 17 12 31 31 31c17 0 31 -14 31 -31c0 -19 -14 -31 -31 -31z" />
    <glyph glyph-name="Igrave" unicode="&#xcc;" horiz-adv-x="327" 
d="M220 0h-249l12 27h103l190 646h-109l12 27h251l-12 -27h-106l-190 -646h110zM288 933l93 -155l-26 -17l-93 155z" />
    <glyph glyph-name="Iacute" unicode="&#xcd;" horiz-adv-x="327" 
d="M220 0h-249l12 27h103l190 646h-109l12 27h251l-12 -27h-106l-190 -646h110zM412 933l22 -22l-134 -148l-22 22z" />
    <glyph glyph-name="Icircumflex" unicode="&#xce;" horiz-adv-x="327" 
d="M220 0h-249l12 27h103l190 646h-109l12 27h251l-12 -27h-106l-190 -646h110zM390 766l-66 116l-124 -118l-18 22l138 132h19l78 -139z" />
    <glyph glyph-name="Idieresis" unicode="&#xcf;" horiz-adv-x="327" 
d="M220 0h-249l12 27h103l190 646h-109l12 27h251l-12 -27h-106l-190 -646h110zM246 798c-19 0 -31 12 -31 31c0 17 12 31 31 31c17 0 31 -14 31 -31c0 -19 -14 -31 -31 -31zM438 798c-19 0 -31 12 -31 31c0 17 12 31 31 31c17 0 31 -14 31 -31c0 -19 -14 -31 -31 -31z" />
    <glyph glyph-name="Eth" unicode="&#xd0;" horiz-adv-x="704" 
d="M276 0h-305l12 27h97l94 321h-101l8 27h101l88 298h-102l12 27h226c168 0 295 -85 295 -285c0 -119 -46 -225 -125 -301c-73 -72 -175 -114 -300 -114zM116 27h161c241 0 388 177 388 388c0 97 -31 167 -92 212c-44 32 -101 46 -169 46h-98l-88 -298h181l-8 -27h-181z
" />
    <glyph glyph-name="Ntilde" unicode="&#xd1;" horiz-adv-x="915" 
d="M611 67l123 421c29 101 62 163 97 199c31 31 64 43 101 43c60 0 94 -30 94 -74c0 -23 -8 -37 -16 -48c-5 -6 -10 -11 -16 -15l-22 18c3 3 6 7 9 12c4 8 9 18 9 31c0 27 -21 46 -58 46c-81 0 -131 -92 -168 -220l-141 -482h-28l-175 637l-123 -412
c-55 -185 -125 -269 -230 -269c-72 0 -108 41 -108 93c0 35 15 58 40 79l19 -25c-17 -15 -23 -34 -23 -53c0 -32 19 -64 72 -64c39 0 72 16 100 44c44 44 74 118 101 206l132 439h-126l8 27h155zM749 830c21 0 42 17 65 58l27 -17c-32 -51 -59 -70 -91 -70
c-27 0 -53 15 -78 28c-17 8 -32 17 -51 17c-27 0 -46 -19 -70 -60l-27 17c31 51 59 72 96 72c24 0 44 -9 65 -20s41 -25 64 -25z" />
    <glyph glyph-name="Ograve" unicode="&#xd2;" horiz-adv-x="661" 
d="M442 714c149 0 218 -94 218 -249c0 -137 -50 -290 -146 -386c-59 -57 -131 -93 -223 -93c-149 0 -218 94 -218 249c0 140 51 295 152 391c57 55 129 88 217 88zM444 686c-80 0 -147 -33 -200 -86c-91 -91 -137 -241 -137 -365c0 -120 47 -221 182 -221
c81 0 147 33 200 86c91 91 137 240 137 365c0 120 -47 221 -182 221zM437 933l93 -155l-26 -17l-93 155z" />
    <glyph glyph-name="Oacute" unicode="&#xd3;" horiz-adv-x="661" 
d="M442 714c149 0 218 -94 218 -249c0 -137 -50 -290 -146 -386c-59 -57 -131 -93 -223 -93c-149 0 -218 94 -218 249c0 140 51 295 152 391c57 55 129 88 217 88zM444 686c-80 0 -147 -33 -200 -86c-91 -91 -137 -241 -137 -365c0 -120 47 -221 182 -221
c81 0 147 33 200 86c91 91 137 240 137 365c0 120 -47 221 -182 221zM559 933l22 -22l-134 -148l-22 22z" />
    <glyph glyph-name="Ocircumflex" unicode="&#xd4;" horiz-adv-x="661" 
d="M442 714c149 0 218 -94 218 -249c0 -137 -50 -290 -146 -386c-59 -57 -131 -93 -223 -93c-149 0 -218 94 -218 249c0 140 51 295 152 391c57 55 129 88 217 88zM444 686c-80 0 -147 -33 -200 -86c-91 -91 -137 -241 -137 -365c0 -120 47 -221 182 -221
c81 0 147 33 200 86c91 91 137 240 137 365c0 120 -47 221 -182 221zM539 766l-66 116l-124 -118l-18 22l138 132h19l78 -139z" />
    <glyph glyph-name="Otilde" unicode="&#xd5;" horiz-adv-x="661" 
d="M442 714c149 0 218 -94 218 -249c0 -137 -50 -290 -146 -386c-59 -57 -131 -93 -223 -93c-149 0 -218 94 -218 249c0 140 51 295 152 391c57 55 129 88 217 88zM444 686c-80 0 -147 -33 -200 -86c-91 -91 -137 -241 -137 -365c0 -120 47 -221 182 -221
c81 0 147 33 200 86c91 91 137 240 137 365c0 120 -47 221 -182 221zM552 830c21 0 42 17 65 58l27 -17c-32 -51 -59 -70 -91 -70c-27 0 -53 15 -78 28c-17 8 -32 17 -51 17c-27 0 -46 -19 -70 -60l-27 17c31 51 59 72 96 72c24 0 44 -9 65 -20s41 -25 64 -25z" />
    <glyph glyph-name="Odieresis" unicode="&#xd6;" horiz-adv-x="661" 
d="M442 714c149 0 218 -94 218 -249c0 -137 -50 -290 -146 -386c-59 -57 -131 -93 -223 -93c-149 0 -218 94 -218 249c0 140 51 295 152 391c57 55 129 88 217 88zM444 686c-80 0 -147 -33 -200 -86c-91 -91 -137 -241 -137 -365c0 -120 47 -221 182 -221
c81 0 147 33 200 86c91 91 137 240 137 365c0 120 -47 221 -182 221zM385 798c-19 0 -31 12 -31 31c0 17 12 31 31 31c17 0 31 -14 31 -31c0 -19 -14 -31 -31 -31zM577 798c-19 0 -31 12 -31 31c0 17 12 31 31 31c17 0 31 -14 31 -31c0 -19 -14 -31 -31 -31z" />
    <glyph glyph-name="multiply" unicode="&#xd7;" horiz-adv-x="470" 
d="M381 78l-143 143l-143 -143l-19 22l142 142l-142 141l19 22l143 -143l143 143l19 -22l-141 -141l141 -142z" />
    <glyph glyph-name="Oslash" unicode="&#xd8;" horiz-adv-x="661" 
d="M244 600c-91 -91 -137 -241 -137 -365c0 -55 9 -103 32 -142l439 538c-29 35 -71 55 -134 55c-80 0 -147 -33 -200 -86zM289 14c81 0 147 33 200 86c91 91 137 240 137 365c0 53 -8 102 -31 141l-438 -538c28 -35 71 -54 132 -54zM514 79c-59 -57 -131 -93 -223 -93
c-67 0 -119 19 -155 56l-82 -100l-23 18l86 105c-31 43 -44 99 -44 170c0 140 51 295 152 391c57 55 129 88 217 88c68 0 120 -19 157 -57l79 97l22 -19l-83 -102c29 -41 43 -97 43 -168c0 -137 -50 -290 -146 -386z" />
    <glyph glyph-name="Ugrave" unicode="&#xd9;" horiz-adv-x="769" 
d="M764 673l-134 -452c-51 -168 -131 -235 -293 -235c-145 0 -218 69 -218 185c0 40 8 81 19 116l115 386h-108l12 27h249l-12 -27h-105l-117 -394c-11 -37 -17 -81 -17 -109c0 -89 59 -154 182 -154c146 0 214 67 259 213l132 444h-111l12 27h252l-12 -27h-105zM481 933
l93 -155l-26 -17l-93 155z" />
    <glyph glyph-name="Uacute" unicode="&#xda;" horiz-adv-x="769" 
d="M764 673l-134 -452c-51 -168 -131 -235 -293 -235c-145 0 -218 69 -218 185c0 40 8 81 19 116l115 386h-108l12 27h249l-12 -27h-105l-117 -394c-11 -37 -17 -81 -17 -109c0 -89 59 -154 182 -154c146 0 214 67 259 213l132 444h-111l12 27h252l-12 -27h-105zM615 933
l22 -22l-134 -148l-22 22z" />
    <glyph glyph-name="Ucircumflex" unicode="&#xdb;" horiz-adv-x="769" 
d="M764 673l-134 -452c-51 -168 -131 -235 -293 -235c-145 0 -218 69 -218 185c0 40 8 81 19 116l115 386h-108l12 27h249l-12 -27h-105l-117 -394c-11 -37 -17 -81 -17 -109c0 -89 59 -154 182 -154c146 0 214 67 259 213l132 444h-111l12 27h252l-12 -27h-105zM623 766
l-66 116l-124 -118l-18 22l138 132h19l78 -139z" />
    <glyph glyph-name="Udieresis" unicode="&#xdc;" horiz-adv-x="769" 
d="M764 673l-134 -452c-51 -168 -131 -235 -293 -235c-145 0 -218 69 -218 185c0 40 8 81 19 116l115 386h-108l12 27h249l-12 -27h-105l-117 -394c-11 -37 -17 -81 -17 -109c0 -89 59 -154 182 -154c146 0 214 67 259 213l132 444h-111l12 27h252l-12 -27h-105zM451 798
c-19 0 -31 12 -31 31c0 17 12 31 31 31c17 0 31 -14 31 -31c0 -19 -14 -31 -31 -31zM643 798c-19 0 -31 12 -31 31c0 17 12 31 31 31c17 0 31 -14 31 -31c0 -19 -14 -31 -31 -31z" />
    <glyph glyph-name="Yacute" unicode="&#xdd;" horiz-adv-x="646" 
d="M132 27h97l100 339c7 23 14 77 14 134c0 88 -17 184 -82 184c-23 0 -40 -11 -56 -28c-37 -43 -57 -120 -68 -172l-32 4c19 77 40 149 80 190c22 24 48 36 79 36c88 0 110 -99 110 -189c0 -33 -4 -62 -9 -89c20 56 58 126 109 183c56 64 123 111 194 111
c49 0 84 -24 84 -71c0 -19 -5 -34 -10 -45c-3 -7 -6 -13 -10 -18l-28 9l7 16c3 11 7 23 7 36c0 29 -18 43 -54 43c-59 0 -117 -41 -169 -101c-60 -71 -109 -162 -132 -241l-98 -331h109l-12 -27h-242zM551 933l22 -22l-134 -148l-22 22z" />
    <glyph glyph-name="Thorn" unicode="&#xde;" horiz-adv-x="570" 
d="M220 0h-249l12 27h103l190 646h-109l12 27h251l-12 -27h-106l-39 -133h96c137 0 205 -57 205 -161c0 -138 -120 -220 -260 -220h-153l-39 -132h110zM367 513h-102l-96 -327h145c119 0 224 70 224 193c0 87 -54 134 -171 134z" />
    <glyph glyph-name="germandbls" unicode="&#xdf;" horiz-adv-x="424" 
d="M272 353c0 70 51 111 97 160c35 33 66 65 66 113c0 47 -28 78 -84 78c-67 0 -107 -47 -140 -160l-188 -639c-46 -153 -104 -185 -184 -185c-65 0 -105 20 -132 80l30 13c17 -40 45 -64 102 -64c73 0 113 39 151 168l188 638c40 133 100 177 173 177
c72 0 118 -38 118 -106c0 -60 -38 -95 -78 -135c-42 -40 -85 -81 -85 -138c0 -32 11 -62 27 -113c19 -62 33 -86 33 -129c0 -89 -58 -121 -122 -121c-76 0 -113 45 -120 110l33 5c4 -47 28 -87 87 -87c49 0 86 28 86 95c0 35 -11 62 -29 115c-16 52 -29 88 -29 125z" />
    <glyph glyph-name="agrave" unicode="&#xe0;" horiz-adv-x="465" 
d="M323 -10c-39 0 -53 30 -56 69c-1 9 -1 19 0 29c-32 -60 -80 -98 -143 -98c-50 0 -99 27 -99 119c0 93 46 202 121 282c40 41 93 69 144 69c47 0 68 -23 73 -58l17 50h35l-105 -307c-8 -23 -15 -50 -14 -75c0 -28 9 -50 30 -50c19 0 35 13 50 33c23 31 39 75 54 118
l26 -12c-19 -49 -35 -93 -58 -124c-20 -28 -43 -45 -75 -45zM288 430c-44 0 -85 -28 -118 -63c-71 -75 -109 -174 -109 -258c0 -63 25 -89 68 -89c74 0 130 82 157 159l48 139c9 25 12 46 10 64c-4 29 -20 48 -56 48zM259 746l85 -193l-31 -13l-85 193z" />
    <glyph glyph-name="aacute" unicode="&#xe1;" horiz-adv-x="465" 
d="M323 -10c-39 0 -53 30 -56 69c-1 9 -1 19 0 29c-32 -60 -80 -98 -143 -98c-50 0 -99 27 -99 119c0 93 46 202 121 282c40 41 93 69 144 69c47 0 68 -23 73 -58l17 50h35l-105 -307c-8 -23 -15 -50 -14 -75c0 -28 9 -50 30 -50c19 0 35 13 50 33c23 31 39 75 54 118
l26 -12c-19 -49 -35 -93 -58 -124c-20 -28 -43 -45 -75 -45zM288 430c-44 0 -85 -28 -118 -63c-71 -75 -109 -174 -109 -258c0 -63 25 -89 68 -89c74 0 130 82 157 159l48 139c9 25 12 46 10 64c-4 29 -20 48 -56 48zM408 746l26 -20l-142 -187l-26 20z" />
    <glyph glyph-name="acircumflex" unicode="&#xe2;" horiz-adv-x="465" 
d="M323 -10c-39 0 -53 30 -56 69c-1 9 -1 19 0 29c-32 -60 -80 -98 -143 -98c-50 0 -99 27 -99 119c0 93 46 202 121 282c40 41 93 69 144 69c47 0 68 -23 73 -58l17 50h35l-105 -307c-8 -23 -15 -50 -14 -75c0 -28 9 -50 30 -50c19 0 35 13 50 33c23 31 39 75 54 118
l26 -12c-19 -49 -35 -93 -58 -124c-20 -28 -43 -45 -75 -45zM288 430c-44 0 -85 -28 -118 -63c-71 -75 -109 -174 -109 -258c0 -63 25 -89 68 -89c74 0 130 82 157 159l48 139c9 25 12 46 10 64c-4 29 -20 48 -56 48zM377 541l-38 141l-110 -142l-23 20l130 164h24l47 -170z
" />
    <glyph glyph-name="atilde" unicode="&#xe3;" horiz-adv-x="465" 
d="M323 -10c-39 0 -53 30 -56 69c-1 9 -1 19 0 29c-32 -60 -80 -98 -143 -98c-50 0 -99 27 -99 119c0 93 46 202 121 282c40 41 93 69 144 69c47 0 68 -23 73 -58l17 50h35l-105 -307c-8 -23 -15 -50 -14 -75c0 -28 9 -50 30 -50c19 0 35 13 50 33c23 31 39 75 54 118
l26 -12c-19 -49 -35 -93 -58 -124c-20 -28 -43 -45 -75 -45zM288 430c-44 0 -85 -28 -118 -63c-71 -75 -109 -174 -109 -258c0 -63 25 -89 68 -89c74 0 130 82 157 159l48 139c9 25 12 46 10 64c-4 29 -20 48 -56 48zM370 598c23 0 46 14 69 57l24 -17
c-27 -51 -58 -70 -93 -70c-48 0 -88 45 -128 45c-27 0 -49 -15 -72 -58l-24 17c29 53 59 71 96 71c54 0 91 -45 128 -45z" />
    <glyph glyph-name="adieresis" unicode="&#xe4;" horiz-adv-x="465" 
d="M323 -10c-39 0 -53 30 -56 69c-1 9 -1 19 0 29c-32 -60 -80 -98 -143 -98c-50 0 -99 27 -99 119c0 93 46 202 121 282c40 41 93 69 144 69c47 0 68 -23 73 -58l17 50h35l-105 -307c-8 -23 -15 -50 -14 -75c0 -28 9 -50 30 -50c19 0 35 13 50 33c23 31 39 75 54 118
l26 -12c-19 -49 -35 -93 -58 -124c-20 -28 -43 -45 -75 -45zM288 430c-44 0 -85 -28 -118 -63c-71 -75 -109 -174 -109 -258c0 -63 25 -89 68 -89c74 0 130 82 157 159l48 139c9 25 12 46 10 64c-4 29 -20 48 -56 48zM233 625c-19 0 -31 12 -31 31c0 17 12 31 31 31
c17 0 31 -14 31 -31c0 -19 -14 -31 -31 -31zM425 625c-19 0 -31 12 -31 31c0 17 12 31 31 31c17 0 31 -14 31 -31c0 -19 -14 -31 -31 -31z" />
    <glyph glyph-name="aring" unicode="&#xe5;" horiz-adv-x="465" 
d="M323 -10c-39 0 -53 30 -56 69c-1 9 -1 19 0 29c-32 -60 -80 -98 -143 -98c-50 0 -99 27 -99 119c0 93 46 202 121 282c40 41 93 69 144 69c47 0 68 -23 73 -58l17 50h35l-105 -307c-8 -23 -15 -50 -14 -75c0 -28 9 -50 30 -50c19 0 35 13 50 33c23 31 39 75 54 118
l26 -12c-19 -49 -35 -93 -58 -124c-20 -28 -43 -45 -75 -45zM288 430c-44 0 -85 -28 -118 -63c-71 -75 -109 -174 -109 -258c0 -63 25 -89 68 -89c74 0 130 82 157 159l48 139c9 25 12 46 10 64c-4 29 -20 48 -56 48zM227 650c0 60 46 86 86 86s86 -26 86 -86
s-46 -86 -86 -86s-86 26 -86 86zM257 650c0 -36 25 -60 56 -60s56 24 56 60s-25 60 -56 60s-56 -24 -56 -60z" />
    <glyph glyph-name="ae" unicode="&#xe6;" horiz-adv-x="593" 
d="M295 186c-4 -20 -7 -40 -7 -60c0 -53 17 -106 85 -106c64 0 112 49 143 130l26 -12c-35 -89 -87 -148 -171 -148c-65 0 -102 35 -114 90c-31 -64 -82 -90 -133 -90c-55 0 -99 30 -99 107c0 133 208 363 473 363h9c47 0 84 -23 84 -72c0 -52 -42 -96 -89 -125
c-57 -36 -122 -54 -207 -77zM304 220c73 19 129 36 176 65c44 27 75 64 75 101c0 29 -19 44 -51 44c-35 0 -70 -20 -101 -49c-43 -39 -79 -98 -99 -161zM377 400c11 9 21 18 32 25c-72 -15 -136 -49 -189 -89c-100 -75 -159 -168 -159 -239c0 -53 22 -80 66 -80
c51 0 97 39 125 119c3 92 57 201 125 264z" />
    <glyph glyph-name="ccedilla" unicode="&#xe7;" horiz-adv-x="379" 
d="M71 -251c-25 0 -54 6 -81 26l15 23c23 -19 43 -21 66 -21c55 0 83 30 83 69c0 32 -18 47 -49 47c-15 0 -29 -5 -42 -15l-15 18l55 100c-52 16 -78 64 -78 132c0 118 62 231 141 289c37 27 78 43 119 43c52 0 94 -23 94 -79c0 -16 -5 -34 -14 -55l-34 4c9 24 12 39 12 50
c0 35 -28 50 -61 50s-67 -15 -99 -42c-67 -57 -122 -159 -122 -259c0 -55 18 -109 86 -109c64 0 112 48 140 132l28 -16c-31 -92 -91 -146 -170 -146h-12l-41 -75c7 3 13 4 24 4c32 0 71 -16 71 -72c0 -57 -43 -98 -116 -98z" />
    <glyph glyph-name="egrave" unicode="&#xe8;" horiz-adv-x="366" 
d="M61 126c0 -53 17 -106 85 -106c64 0 112 49 143 130l26 -12c-35 -89 -87 -148 -171 -148c-81 0 -119 55 -119 135c0 95 53 208 125 275c40 37 86 60 130 60c47 0 84 -23 84 -72c0 -52 -42 -96 -89 -125c-57 -36 -122 -54 -207 -77c-4 -20 -7 -40 -7 -60zM77 220
c73 19 129 36 176 65c44 27 75 64 75 101c0 29 -19 44 -51 44c-35 0 -70 -20 -101 -49c-43 -39 -79 -98 -99 -161zM232 746l85 -193l-31 -13l-85 193z" />
    <glyph glyph-name="eacute" unicode="&#xe9;" horiz-adv-x="366" 
d="M61 126c0 -53 17 -106 85 -106c64 0 112 49 143 130l26 -12c-35 -89 -87 -148 -171 -148c-81 0 -119 55 -119 135c0 95 53 208 125 275c40 37 86 60 130 60c47 0 84 -23 84 -72c0 -52 -42 -96 -89 -125c-57 -36 -122 -54 -207 -77c-4 -20 -7 -40 -7 -60zM77 220
c73 19 129 36 176 65c44 27 75 64 75 101c0 29 -19 44 -51 44c-35 0 -70 -20 -101 -49c-43 -39 -79 -98 -99 -161zM381 746l26 -20l-142 -187l-26 20z" />
    <glyph glyph-name="ecircumflex" unicode="&#xea;" horiz-adv-x="366" 
d="M61 126c0 -53 17 -106 85 -106c64 0 112 49 143 130l26 -12c-35 -89 -87 -148 -171 -148c-81 0 -119 55 -119 135c0 95 53 208 125 275c40 37 86 60 130 60c47 0 84 -23 84 -72c0 -52 -42 -96 -89 -125c-57 -36 -122 -54 -207 -77c-4 -20 -7 -40 -7 -60zM77 220
c73 19 129 36 176 65c44 27 75 64 75 101c0 29 -19 44 -51 44c-35 0 -70 -20 -101 -49c-43 -39 -79 -98 -99 -161zM350 541l-38 141l-110 -142l-23 20l130 164h24l47 -170z" />
    <glyph glyph-name="edieresis" unicode="&#xeb;" horiz-adv-x="366" 
d="M61 126c0 -53 17 -106 85 -106c64 0 112 49 143 130l26 -12c-35 -89 -87 -148 -171 -148c-81 0 -119 55 -119 135c0 95 53 208 125 275c40 37 86 60 130 60c47 0 84 -23 84 -72c0 -52 -42 -96 -89 -125c-57 -36 -122 -54 -207 -77c-4 -20 -7 -40 -7 -60zM77 220
c73 19 129 36 176 65c44 27 75 64 75 101c0 29 -19 44 -51 44c-35 0 -70 -20 -101 -49c-43 -39 -79 -98 -99 -161zM206 625c-19 0 -31 12 -31 31c0 17 12 31 31 31c17 0 31 -14 31 -31c0 -19 -14 -31 -31 -31zM398 625c-19 0 -31 12 -31 31c0 17 12 31 31 31
c17 0 31 -14 31 -31c0 -19 -14 -31 -31 -31z" />
    <glyph glyph-name="igrave" unicode="&#xec;" horiz-adv-x="300" 
d="M191 402c0 19 -7 28 -20 28c-41 0 -82 -87 -109 -146l-28 12c49 112 90 164 141 164c28 0 52 -17 52 -56c0 -24 -11 -59 -24 -95c-23 -59 -45 -113 -70 -174c-12 -28 -21 -56 -21 -79c0 -21 7 -36 26 -36c42 0 79 79 111 151l26 -12c-51 -113 -85 -169 -140 -169
c-35 0 -58 23 -58 64c0 27 10 59 23 91c23 60 49 113 70 172c12 33 21 64 21 85zM155 746l85 -193l-31 -13l-85 193z" />
    <glyph glyph-name="iacute" unicode="&#xed;" horiz-adv-x="300" 
d="M191 402c0 19 -7 28 -20 28c-41 0 -82 -87 -109 -146l-28 12c49 112 90 164 141 164c28 0 52 -17 52 -56c0 -24 -11 -59 -24 -95c-23 -59 -45 -113 -70 -174c-12 -28 -21 -56 -21 -79c0 -21 7 -36 26 -36c42 0 79 79 111 151l26 -12c-51 -113 -85 -169 -140 -169
c-35 0 -58 23 -58 64c0 27 10 59 23 91c23 60 49 113 70 172c12 33 21 64 21 85zM304 746l26 -20l-142 -187l-26 20z" />
    <glyph glyph-name="icircumflex" unicode="&#xee;" horiz-adv-x="300" 
d="M191 402c0 19 -7 28 -20 28c-41 0 -82 -87 -109 -146l-28 12c49 112 90 164 141 164c28 0 52 -17 52 -56c0 -24 -11 -59 -24 -95c-23 -59 -45 -113 -70 -174c-12 -28 -21 -56 -21 -79c0 -21 7 -36 26 -36c42 0 79 79 111 151l26 -12c-51 -113 -85 -169 -140 -169
c-35 0 -58 23 -58 64c0 27 10 59 23 91c23 60 49 113 70 172c12 33 21 64 21 85zM273 541l-38 141l-110 -142l-23 20l130 164h24l47 -170z" />
    <glyph glyph-name="idieresis" unicode="&#xef;" horiz-adv-x="300" 
d="M142 625c-19 0 -31 12 -31 31c0 17 12 31 31 31c17 0 31 -14 31 -31c0 -19 -14 -31 -31 -31zM278 625c-19 0 -31 12 -31 31c0 17 12 31 31 31c17 0 31 -14 31 -31c0 -19 -14 -31 -31 -31zM191 402c0 19 -7 28 -20 28c-41 0 -82 -87 -109 -146l-28 12
c49 112 90 164 141 164c28 0 52 -17 52 -56c0 -24 -11 -59 -24 -95c-23 -59 -45 -113 -70 -174c-12 -28 -21 -56 -21 -79c0 -21 7 -36 26 -36c42 0 79 79 111 151l26 -12c-51 -113 -85 -169 -140 -169c-35 0 -58 23 -58 64c0 27 10 59 23 91c23 60 49 113 70 172
c12 33 21 64 21 85z" />
    <glyph glyph-name="eth" unicode="&#xf0;" horiz-adv-x="373" 
d="M129 -10c-80 0 -125 55 -125 143c0 136 87 327 235 327c36 0 63 -11 82 -33c-10 69 -31 128 -64 177l-101 -69l-14 22l99 68c-32 39 -76 69 -141 93l7 26c71 -25 120 -55 159 -102l99 67l14 -22l-97 -66c49 -69 82 -170 82 -299v-5c0 -136 -87 -327 -235 -327zM40 133
c0 -64 22 -115 89 -115c39 0 71 15 98 42c65 59 101 175 101 257c0 64 -24 115 -89 115c-39 0 -71 -16 -99 -43c-64 -61 -100 -173 -100 -256z" />
    <glyph glyph-name="ntilde" unicode="&#xf1;" horiz-adv-x="547" 
d="M497 171l28 -12c-19 -40 -35 -71 -51 -98c-29 -48 -55 -71 -90 -71c-31 0 -53 18 -53 61c0 23 6 50 14 81c19 68 42 134 57 191c7 28 11 51 11 68c0 23 -11 39 -42 39c-23 0 -45 -10 -66 -25c-61 -45 -106 -135 -114 -159l-84 -246h-35l78 228c31 87 42 137 42 168
c0 25 -8 34 -23 34c-11 0 -23 -6 -36 -19c-29 -29 -55 -84 -74 -127l-28 12c28 64 54 108 81 135c19 19 40 29 63 29c32 0 48 -19 48 -57c0 -20 -4 -44 -12 -73c25 43 51 75 77 96c29 24 58 34 87 34c48 0 74 -28 74 -69c0 -19 -5 -43 -12 -72c-16 -61 -40 -133 -59 -197
c-7 -27 -12 -50 -12 -69c0 -22 7 -33 22 -33c21 0 41 23 61 55c16 28 32 61 48 96zM390 598c23 0 46 14 69 57l24 -17c-27 -51 -58 -70 -93 -70c-48 0 -88 45 -128 45c-27 0 -49 -15 -72 -58l-24 17c29 53 59 71 96 71c54 0 91 -45 128 -45z" />
    <glyph glyph-name="ograve" unicode="&#xf2;" horiz-adv-x="410" 
d="M260 460c80 0 125 -55 125 -143c0 -136 -87 -327 -235 -327c-80 0 -125 55 -125 143c0 136 87 327 235 327zM150 18c44 0 80 22 111 55c56 64 88 165 88 244c0 64 -24 115 -89 115c-39 0 -71 -15 -99 -42c-64 -61 -100 -174 -100 -257c0 -64 22 -115 89 -115zM236 746
l85 -193l-31 -13l-85 193z" />
    <glyph glyph-name="oacute" unicode="&#xf3;" horiz-adv-x="410" 
d="M260 460c80 0 125 -55 125 -143c0 -136 -87 -327 -235 -327c-80 0 -125 55 -125 143c0 136 87 327 235 327zM150 18c44 0 80 22 111 55c56 64 88 165 88 244c0 64 -24 115 -89 115c-39 0 -71 -15 -99 -42c-64 -61 -100 -174 -100 -257c0 -64 22 -115 89 -115zM385 746
l26 -20l-142 -187l-26 20z" />
    <glyph glyph-name="ocircumflex" unicode="&#xf4;" horiz-adv-x="410" 
d="M260 460c80 0 125 -55 125 -143c0 -136 -87 -327 -235 -327c-80 0 -125 55 -125 143c0 136 87 327 235 327zM150 18c44 0 80 22 111 55c56 64 88 165 88 244c0 64 -24 115 -89 115c-39 0 -71 -15 -99 -42c-64 -61 -100 -174 -100 -257c0 -64 22 -115 89 -115zM354 541
l-38 141l-110 -142l-23 20l130 164h24l47 -170z" />
    <glyph glyph-name="otilde" unicode="&#xf5;" horiz-adv-x="410" 
d="M260 460c80 0 125 -55 125 -143c0 -136 -87 -327 -235 -327c-80 0 -125 55 -125 143c0 136 87 327 235 327zM150 18c44 0 80 22 111 55c56 64 88 165 88 244c0 64 -24 115 -89 115c-39 0 -71 -15 -99 -42c-64 -61 -100 -174 -100 -257c0 -64 22 -115 89 -115zM356 598
c23 0 46 14 69 57l24 -17c-27 -51 -58 -70 -93 -70c-48 0 -88 45 -128 45c-27 0 -49 -15 -72 -58l-24 17c29 53 59 71 96 71c54 0 91 -45 128 -45z" />
    <glyph glyph-name="odieresis" unicode="&#xf6;" horiz-adv-x="410" 
d="M260 460c80 0 125 -55 125 -143c0 -136 -87 -327 -235 -327c-80 0 -125 55 -125 143c0 136 87 327 235 327zM150 18c44 0 80 22 111 55c56 64 88 165 88 244c0 64 -24 115 -89 115c-39 0 -71 -15 -99 -42c-64 -61 -100 -174 -100 -257c0 -64 22 -115 89 -115zM210 625
c-19 0 -31 12 -31 31c0 17 12 31 31 31c17 0 31 -14 31 -31c0 -19 -14 -31 -31 -31zM402 625c-19 0 -31 12 -31 31c0 17 12 31 31 31c17 0 31 -14 31 -31c0 -19 -14 -31 -31 -31z" />
    <glyph glyph-name="divide" unicode="&#xf7;" horiz-adv-x="415" 
d="M218 334c-15 0 -27 11 -27 26s12 26 27 26s26 -11 26 -26s-11 -26 -26 -26zM380 258v-27h-325v27h325zM218 104c-15 0 -27 11 -27 26s12 26 27 26s26 -11 26 -26s-11 -26 -26 -26z" />
    <glyph glyph-name="oslash" unicode="&#xf8;" horiz-adv-x="410" 
d="M161 390c-64 -61 -100 -174 -100 -257c0 -28 4 -54 15 -74l233 360c-14 9 -30 13 -49 13c-39 0 -71 -15 -99 -42zM150 18c44 0 80 22 111 55c56 64 88 165 88 244c0 31 -5 59 -18 80l-235 -362c15 -11 33 -17 54 -17zM385 317c0 -136 -87 -327 -235 -327
c-27 0 -50 6 -70 19l-36 -55l-25 17l38 58c-21 25 -32 60 -32 104c0 136 87 327 235 327c24 0 46 -5 65 -16l32 49l25 -17l-33 -51c24 -25 36 -61 36 -108z" />
    <glyph glyph-name="ugrave" unicode="&#xf9;" horiz-adv-x="532" 
d="M482 171l27 -12c-23 -55 -43 -94 -66 -122c-25 -31 -51 -47 -79 -47c-33 0 -49 19 -49 58c0 17 3 39 10 64c-41 -76 -99 -122 -159 -122c-38 0 -77 17 -77 73c0 23 5 51 16 83c19 72 55 157 71 203c5 16 10 36 10 53c0 16 -5 28 -20 28c-11 0 -23 -6 -34 -17
c-29 -29 -57 -87 -76 -129l-28 12c29 67 57 113 84 138c18 17 38 26 60 26c36 0 50 -23 50 -56c0 -19 -5 -42 -13 -66c-16 -48 -51 -132 -70 -200c-9 -29 -14 -53 -14 -72c0 -31 14 -46 43 -46c37 0 72 25 103 60c39 43 65 95 76 124l84 246h35l-79 -228
c-29 -84 -40 -135 -40 -166c0 -27 8 -36 23 -36c17 0 35 14 51 37c23 31 45 75 61 114zM253 746l85 -193l-31 -13l-85 193z" />
    <glyph glyph-name="uacute" unicode="&#xfa;" horiz-adv-x="532" 
d="M482 171l27 -12c-23 -55 -43 -94 -66 -122c-25 -31 -51 -47 -79 -47c-33 0 -49 19 -49 58c0 17 3 39 10 64c-41 -76 -99 -122 -159 -122c-38 0 -77 17 -77 73c0 23 5 51 16 83c19 72 55 157 71 203c5 16 10 36 10 53c0 16 -5 28 -20 28c-11 0 -23 -6 -34 -17
c-29 -29 -57 -87 -76 -129l-28 12c29 67 57 113 84 138c18 17 38 26 60 26c36 0 50 -23 50 -56c0 -19 -5 -42 -13 -66c-16 -48 -51 -132 -70 -200c-9 -29 -14 -53 -14 -72c0 -31 14 -46 43 -46c37 0 72 25 103 60c39 43 65 95 76 124l84 246h35l-79 -228
c-29 -84 -40 -135 -40 -166c0 -27 8 -36 23 -36c17 0 35 14 51 37c23 31 45 75 61 114zM422 746l26 -20l-142 -187l-26 20z" />
    <glyph glyph-name="ucircumflex" unicode="&#xfb;" horiz-adv-x="532" 
d="M482 171l27 -12c-23 -55 -43 -94 -66 -122c-25 -31 -51 -47 -79 -47c-33 0 -49 19 -49 58c0 17 3 39 10 64c-41 -76 -99 -122 -159 -122c-38 0 -77 17 -77 73c0 23 5 51 16 83c19 72 55 157 71 203c5 16 10 36 10 53c0 16 -5 28 -20 28c-11 0 -23 -6 -34 -17
c-29 -29 -57 -87 -76 -129l-28 12c29 67 57 113 84 138c18 17 38 26 60 26c36 0 50 -23 50 -56c0 -19 -5 -42 -13 -66c-16 -48 -51 -132 -70 -200c-9 -29 -14 -53 -14 -72c0 -31 14 -46 43 -46c37 0 72 25 103 60c39 43 65 95 76 124l84 246h35l-79 -228
c-29 -84 -40 -135 -40 -166c0 -27 8 -36 23 -36c17 0 35 14 51 37c23 31 45 75 61 114zM371 541l-38 141l-110 -142l-23 20l130 164h24l47 -170z" />
    <glyph glyph-name="udieresis" unicode="&#xfc;" horiz-adv-x="532" 
d="M482 171l27 -12c-23 -55 -43 -94 -66 -122c-25 -31 -51 -47 -79 -47c-33 0 -49 19 -49 58c0 17 3 39 10 64c-41 -76 -99 -122 -159 -122c-38 0 -77 17 -77 73c0 23 5 51 16 83c19 72 55 157 71 203c5 16 10 36 10 53c0 16 -5 28 -20 28c-11 0 -23 -6 -34 -17
c-29 -29 -57 -87 -76 -129l-28 12c29 67 57 113 84 138c18 17 38 26 60 26c36 0 50 -23 50 -56c0 -19 -5 -42 -13 -66c-16 -48 -51 -132 -70 -200c-9 -29 -14 -53 -14 -72c0 -31 14 -46 43 -46c37 0 72 25 103 60c39 43 65 95 76 124l84 246h35l-79 -228
c-29 -84 -40 -135 -40 -166c0 -27 8 -36 23 -36c17 0 35 14 51 37c23 31 45 75 61 114zM227 625c-19 0 -31 12 -31 31c0 17 12 31 31 31c17 0 31 -14 31 -31c0 -19 -14 -31 -31 -31zM419 625c-19 0 -31 12 -31 31c0 17 12 31 31 31c17 0 31 -14 31 -31
c0 -19 -14 -31 -31 -31z" />
    <glyph glyph-name="yacute" unicode="&#xfd;" horiz-adv-x="428" 
d="M-81 -293l-11 27c88 36 186 117 273 228c15 71 22 164 22 251c0 72 -5 137 -18 176c-9 27 -23 41 -40 41c-48 0 -72 -91 -80 -168l-30 5c11 105 45 193 113 193c35 0 56 -24 69 -63c15 -44 20 -105 20 -173s-6 -140 -17 -207c86 132 149 263 149 372c0 21 -2 38 -5 49
l-5 16l34 9l6 -19c3 -12 6 -30 6 -53c0 -127 -91 -290 -194 -436c-86 -121 -201 -210 -292 -248zM394 746l26 -20l-142 -187l-26 20z" />
    <glyph glyph-name="thorn" unicode="&#xfe;" horiz-adv-x="439" 
d="M100 116c3 -53 28 -96 87 -96c39 0 73 18 101 49c57 62 90 166 90 245s-32 116 -84 116c-76 0 -141 -84 -168 -176l-14 -45c-10 -31 -14 -62 -12 -93zM28 -290h-199l12 27h76l332 975l-90 -5l11 28l123 6l-126 -360c35 51 78 79 131 79c61 0 116 -37 116 -146
c0 -92 -37 -208 -104 -272c-32 -32 -72 -52 -119 -52c-65 0 -108 41 -115 105v9l-124 -367h88z" />
    <glyph glyph-name="ydieresis" unicode="&#xff;" horiz-adv-x="428" 
d="M-81 -293l-11 27c88 36 186 117 273 228c15 71 22 164 22 251c0 72 -5 137 -18 176c-9 27 -23 41 -40 41c-48 0 -72 -91 -80 -168l-30 5c11 105 45 193 113 193c35 0 56 -24 69 -63c15 -44 20 -105 20 -173s-6 -140 -17 -207c86 132 149 263 149 372c0 21 -2 38 -5 49
l-5 16l34 9l6 -19c3 -12 6 -30 6 -53c0 -127 -91 -290 -194 -436c-86 -121 -201 -210 -292 -248zM209 625c-19 0 -31 12 -31 31c0 17 12 31 31 31c17 0 31 -14 31 -31c0 -19 -14 -31 -31 -31zM401 625c-19 0 -31 12 -31 31c0 17 12 31 31 31c17 0 31 -14 31 -31
c0 -19 -14 -31 -31 -31z" />
    <glyph glyph-name="dotlessi" unicode="&#x131;" horiz-adv-x="300" 
d="M191 402c0 19 -7 28 -20 28c-41 0 -82 -87 -109 -146l-28 12c49 112 90 164 141 164c28 0 52 -17 52 -56c0 -24 -11 -59 -24 -95c-23 -59 -45 -113 -70 -174c-12 -28 -21 -56 -21 -79c0 -21 7 -36 26 -36c42 0 79 79 111 151l26 -12c-51 -113 -85 -169 -140 -169
c-35 0 -58 23 -58 64c0 27 10 59 23 91c23 60 49 113 70 172c12 33 21 64 21 85z" />
    <glyph glyph-name="Lslash" unicode="&#x141;" horiz-adv-x="626" 
d="M499 0h-531l12 27h103l77 262l-108 -50l-13 25l132 61l102 348h-107l12 27h253l-12 -27h-110l-97 -328l226 105l13 -25l-249 -116l-83 -282h356l49 166h32z" />
    <glyph glyph-name="lslash" unicode="&#x142;" horiz-adv-x="254" 
d="M83 -10c-33 0 -55 19 -55 56c0 45 33 127 51 179l46 137l-84 -44l-4 28l101 53l106 313l-91 -5l11 28l124 6l-106 -319l88 47l4 -29l-105 -55l-57 -171c-16 -49 -49 -127 -49 -164c0 -20 8 -30 25 -30c46 0 85 101 106 148l27 -11c-37 -85 -73 -167 -138 -167z" />
    <glyph glyph-name="OE" unicode="&#x152;" horiz-adv-x="1001" 
d="M438 27l190 646h-131c-120 0 -213 -43 -281 -112c-69 -72 -107 -168 -107 -276c0 -175 100 -258 261 -258h68zM934 185l-54 -185h-512c-168 0 -295 85 -295 285c0 119 46 225 125 301c73 72 175 114 300 114h507l-46 -185h-32l39 158h-302l-85 -289h180l37 125h33
l-82 -278h-33l37 126h-180l-97 -330h381l46 158h33z" />
    <glyph glyph-name="oe" unicode="&#x153;" horiz-adv-x="650" 
d="M428 -10c-71 0 -115 48 -115 120v2c-32 -72 -92 -122 -163 -122c-80 0 -125 55 -125 143c0 136 87 327 235 327c63 0 111 -46 111 -127c0 -9 -1 -18 -2 -29c19 36 38 71 65 96c40 37 86 60 130 60c47 0 84 -23 84 -72c0 -52 -42 -96 -89 -125c-57 -36 -122 -54 -207 -77
c-4 -20 -7 -40 -7 -60c0 -53 17 -106 85 -106c64 0 112 49 143 130l26 -12c-35 -89 -87 -148 -171 -148zM150 18c40 0 75 19 103 50c58 64 91 169 91 259c0 53 -23 105 -84 105c-43 0 -79 -21 -110 -54c-58 -64 -89 -167 -89 -245c0 -64 22 -115 89 -115zM361 220
c73 19 129 36 176 65c44 27 75 64 75 101c0 29 -19 44 -51 44c-35 0 -70 -20 -101 -49c-43 -39 -79 -98 -99 -161z" />
    <glyph glyph-name="Scaron" unicode="&#x160;" horiz-adv-x="578" 
d="M304 -14c-119 0 -196 83 -199 182l-40 -141h-30l66 225h26c-3 -24 -4 -49 -1 -72c11 -92 70 -166 179 -166c96 0 155 57 155 156c0 107 -71 143 -130 194c-64 56 -130 105 -130 197c0 109 85 153 169 153c92 0 150 -52 157 -123l27 90h30l-49 -163h-28c3 21 3 40 0 57
c-11 75 -69 111 -138 111c-72 0 -132 -39 -132 -122c0 -78 58 -124 116 -174c64 -56 144 -97 144 -217c0 -123 -85 -187 -192 -187zM421 768h-19l-78 139l27 13l66 -116l124 118l18 -22z" />
    <glyph glyph-name="scaron" unicode="&#x161;" horiz-adv-x="316" 
d="M321 375l-32 -5c-6 41 -26 62 -60 62c-40 0 -62 -28 -62 -79c0 -31 12 -61 27 -109c19 -62 31 -89 31 -132c0 -88 -55 -122 -119 -122c-68 0 -114 37 -121 110l32 4c7 -52 38 -86 90 -86c45 0 85 28 85 95c0 36 -14 64 -31 119c-16 51 -29 85 -29 121c0 77 46 107 98 107
c49 0 83 -26 91 -85zM264 554h-24l-47 170l30 13l38 -141l110 142l23 -20z" />
    <glyph glyph-name="Ydieresis" unicode="&#x178;" horiz-adv-x="646" 
d="M132 27h97l100 339c7 23 14 77 14 134c0 88 -17 184 -82 184c-23 0 -40 -11 -56 -28c-37 -43 -57 -120 -68 -172l-32 4c19 77 40 149 80 190c22 24 48 36 79 36c88 0 110 -99 110 -189c0 -33 -4 -62 -9 -89c20 56 58 126 109 183c56 64 123 111 194 111
c49 0 84 -24 84 -71c0 -19 -5 -34 -10 -45c-3 -7 -6 -13 -10 -18l-28 9l7 16c3 11 7 23 7 36c0 29 -18 43 -54 43c-59 0 -117 -41 -169 -101c-60 -71 -109 -162 -132 -241l-98 -331h109l-12 -27h-242zM400 798c-19 0 -31 12 -31 31c0 17 12 31 31 31c17 0 31 -14 31 -31
c0 -19 -14 -31 -31 -31zM592 798c-19 0 -31 12 -31 31c0 17 12 31 31 31c17 0 31 -14 31 -31c0 -19 -14 -31 -31 -31z" />
    <glyph glyph-name="Zcaron" unicode="&#x17d;" horiz-adv-x="637" 
d="M266 129c97 0 160 -51 202 -99c96 -101 145 -222 273 -222c89 0 123 59 123 127l32 -5c0 -86 -55 -152 -157 -152c-138 0 -197 124 -293 231c-34 39 -90 90 -180 90c-48 0 -85 -13 -120 -57l-45 -57l-23 19l455 566c-6 -2 -13 -3 -20 -3c-59 0 -106 50 -140 76
c-37 28 -62 41 -94 41c-53 0 -101 -31 -108 -112l-32 5c11 103 78 137 140 137c41 0 69 -15 112 -48c31 -23 69 -69 122 -69c33 0 57 18 85 53l43 54l23 -19l-455 -566c19 8 38 10 57 10zM444 768h-19l-78 139l27 13l66 -116l124 118l18 -22z" />
    <glyph glyph-name="zcaron" unicode="&#x17e;" horiz-adv-x="370" 
d="M301 410l34 43l25 -16l-270 -327h2c31 0 53 -20 78 -47c19 -20 34 -43 65 -43c54 0 71 67 87 113l30 -8c-21 -61 -52 -135 -116 -135c-37 0 -62 25 -89 54c-19 20 -34 39 -59 39c-27 0 -33 -14 -46 -33l-46 -57l-21 20l278 338h-4c-28 0 -53 21 -77 44
c-15 13 -25 25 -44 25c-29 0 -39 -29 -46 -72l-29 8c9 60 30 94 73 94c27 0 45 -13 64 -32c21 -19 40 -40 65 -40c23 0 33 15 46 32zM245 554h-24l-47 170l30 13l38 -141l110 142l23 -20z" />
    <glyph glyph-name="circumflex" unicode="&#x2c6;" 
d="M269 541l-38 141l-110 -142l-23 20l130 164h24l47 -170z" />
    <glyph glyph-name="caron" unicode="&#x2c7;" 
d="M159 554h-24l-47 170l30 13l38 -141l110 142l23 -20z" />
    <glyph glyph-name="breve" unicode="&#x2d8;" 
d="M220 579c51 0 85 37 98 100l29 -13c-16 -73 -61 -116 -129 -116s-109 44 -92 125h30c-12 -60 13 -96 64 -96z" />
    <glyph glyph-name="dotaccent" unicode="&#x2d9;" 
d="M260 625c-19 0 -31 12 -31 31c0 17 12 31 31 31c17 0 31 -14 31 -31c0 -19 -14 -31 -31 -31z" />
    <glyph glyph-name="ring" unicode="&#x2da;" 
d="M131 650c0 60 46 86 86 86s86 -26 86 -86s-46 -86 -86 -86s-86 26 -86 86zM161 650c0 -36 25 -60 56 -60s56 24 56 60s-25 60 -56 60s-56 -24 -56 -60z" />
    <glyph glyph-name="ogonek" unicode="&#x2db;" 
d="M116 -189l27 -12c-20 -60 -57 -85 -104 -85c-53 0 -81 33 -81 78c0 85 100 164 165 218h43c-77 -64 -172 -140 -172 -218c0 -25 10 -50 46 -50c35 0 60 23 76 69z" />
    <glyph glyph-name="tilde" unicode="&#x2dc;" 
d="M292 598c23 0 46 14 69 57l24 -17c-27 -51 -58 -70 -93 -70c-48 0 -88 45 -128 45c-27 0 -49 -15 -72 -58l-24 17c29 53 59 71 96 71c54 0 91 -45 128 -45z" />
    <glyph glyph-name="hungarumlaut" unicode="&#x2dd;" 
d="M276 722l-119 -181l-25 17l119 181zM414 722l-119 -181l-25 17l119 181z" />
    <glyph glyph-name="pi" unicode="&#x3c0;" horiz-adv-x="612" 
d="M465 -18c-38 0 -79 18 -79 125c0 79 10 156 26 282l-85 9l-80 10c-19 -137 -30 -253 -47 -322c-22 -86 -51 -104 -96 -104c-32 0 -53 10 -77 34l18 23c17 -19 39 -27 59 -27c41 0 52 32 63 79c15 69 25 183 44 320h-16c-96 0 -112 -56 -120 -136l-32 4
c11 107 42 163 142 163c35 0 89 -6 148 -13c60 -7 120 -14 163 -14c23 0 36 2 44 3c7 33 7 53 8 86h32c-3 -45 -3 -63 -11 -111l-22 -4c-15 -3 -34 -4 -61 -4c-12 0 -25 0 -37 1c-16 -125 -27 -204 -27 -279c0 -61 12 -95 48 -95c16 0 29 8 40 24c12 19 21 52 28 99l32 -5
c-8 -51 -20 -87 -35 -110c-17 -25 -40 -38 -70 -38z" />
    <glyph glyph-name="endash" unicode="&#x2013;" horiz-adv-x="508" 
d="M49 220l8 27h418l-8 -27h-418z" />
    <glyph glyph-name="emdash" unicode="&#x2014;" horiz-adv-x="678" 
d="M49 220l8 27h588l-8 -27h-588z" />
    <glyph glyph-name="quoteleft" unicode="&#x2018;" horiz-adv-x="204" 
d="M250 526l8 -28c-11 -5 -24 -7 -39 -7c-36 0 -77 19 -77 78c0 76 58 130 138 165l15 -25c-72 -36 -117 -81 -117 -138c0 -37 20 -50 48 -50c9 0 17 2 24 5z" />
    <glyph glyph-name="quoteright" unicode="&#x2019;" horiz-adv-x="204" 
d="M183 686l-8 28c11 5 24 7 39 7c36 0 77 -19 77 -78c0 -76 -58 -130 -138 -165l-15 25c72 36 117 81 117 138c0 37 -20 50 -48 50c-9 0 -17 -2 -24 -5z" />
    <glyph glyph-name="quotesinglbase" unicode="&#x201a;" horiz-adv-x="191" 
d="M-17 49l-8 28c11 5 24 7 39 7c36 0 77 -19 77 -78c0 -76 -58 -130 -138 -165l-15 25c72 36 117 81 117 138c0 37 -20 50 -48 50c-9 0 -17 -2 -24 -5z" />
    <glyph glyph-name="quotedblleft" unicode="&#x201c;" horiz-adv-x="374" 
d="M250 526l8 -28c-11 -5 -24 -7 -39 -7c-36 0 -77 19 -77 78c0 76 58 130 138 165l15 -25c-72 -36 -117 -81 -117 -138c0 -37 20 -50 48 -50c9 0 17 2 24 5zM420 526l8 -28c-11 -5 -24 -7 -39 -7c-36 0 -77 19 -77 78c0 76 58 130 138 165l15 -25
c-72 -36 -117 -81 -117 -138c0 -37 20 -50 48 -50c9 0 17 2 24 5z" />
    <glyph glyph-name="quotedblright" unicode="&#x201d;" horiz-adv-x="374" 
d="M359 686l-8 28c11 5 24 7 39 7c36 0 77 -19 77 -78c0 -76 -58 -130 -138 -165l-15 25c72 36 117 81 117 138c0 37 -20 50 -48 50c-9 0 -17 -2 -24 -5zM189 686l-8 28c11 5 24 7 39 7c36 0 77 -19 77 -78c0 -76 -58 -130 -138 -165l-15 25c72 36 117 81 117 138
c0 37 -20 50 -48 50c-9 0 -17 -2 -24 -5z" />
    <glyph glyph-name="quotedblbase" unicode="&#x201e;" horiz-adv-x="361" 
d="M153 49l-8 28c11 5 24 7 39 7c36 0 77 -19 77 -78c0 -76 -58 -130 -138 -165l-15 25c72 36 117 81 117 138c0 37 -20 50 -48 50c-9 0 -17 -2 -24 -5zM-17 49l-8 28c11 5 24 7 39 7c36 0 77 -19 77 -78c0 -76 -58 -130 -138 -165l-15 25c72 36 117 81 117 138
c0 37 -20 50 -48 50c-9 0 -17 -2 -24 -5z" />
    <glyph glyph-name="dagger" unicode="&#x2020;" horiz-adv-x="565" 
d="M424 408c-8 2 -16 3 -24 3c-11 0 -18 -1 -29 -1c-4 0 -9 0 -13 1l-176 -544l-31 10l176 543c-23 13 -41 39 -70 39c-21 0 -41 -14 -64 -14c-28 0 -50 18 -50 43c0 22 11 39 34 52l18 -19c-19 -13 -22 -23 -22 -34c0 -5 5 -15 22 -15c19 0 38 14 63 14c37 0 54 -26 77 -39
l84 259l31 -10l-84 -259c3 -1 6 -1 11 -1c11 0 19 2 30 2c71 0 66 -68 103 -68c15 0 17 16 17 24c0 5 -1 12 -3 21l25 5c5 -9 7 -19 7 -30c0 -32 -19 -49 -42 -49c-51 0 -53 54 -90 67z" />
    <glyph glyph-name="daggerdbl" unicode="&#x2021;" horiz-adv-x="565" 
d="M317 74c-25 8 -37 25 -56 36l-79 -243l-31 10l79 243c-12 0 -24 -1 -37 -1c-75 0 -68 68 -106 68c-15 0 -17 -16 -17 -25c0 -5 1 -11 3 -20l-25 -5c-5 9 -7 19 -7 30c0 32 19 48 42 48c61 0 51 -69 114 -69c9 0 17 1 28 1c4 0 8 -1 13 -1l89 274c-23 13 -41 39 -70 39
c-21 0 -41 -14 -64 -14c-28 0 -50 18 -50 43c0 22 11 39 34 52l18 -19c-19 -13 -22 -23 -22 -34c0 -5 5 -15 22 -15c19 0 38 14 63 14c37 0 54 -26 77 -39l84 259l31 -10l-84 -259c3 -1 6 -1 11 -1c11 0 19 2 30 2c71 0 66 -68 103 -68c15 0 17 16 17 24c0 5 -1 12 -3 21
l25 5c5 -9 7 -19 7 -30c0 -32 -19 -49 -42 -49c-61 0 -51 70 -114 70c-11 0 -18 -1 -29 -1c-4 0 -9 0 -13 1l-89 -274c26 -13 42 -40 71 -40c23 0 42 14 65 14c28 0 49 -18 49 -42c0 -22 -11 -39 -34 -52l-18 19c17 13 22 23 22 34c0 5 -5 14 -22 14c-19 0 -37 -13 -64 -13
c-6 0 -13 1 -21 3z" />
    <glyph glyph-name="bullet" unicode="&#x2022;" horiz-adv-x="190" 
d="M115 262c-16 0 -32 13 -32 32s16 32 32 32s32 -13 32 -32s-16 -32 -32 -32z" />
    <glyph glyph-name="ellipsis" unicode="&#x2026;" horiz-adv-x="612" 
d="M504 -10c-16 0 -31 12 -31 31s15 31 31 31s31 -12 31 -31s-15 -31 -31 -31zM292 -10c-16 0 -31 12 -31 31s15 31 31 31s31 -12 31 -31s-15 -31 -31 -31zM80 -10c-16 0 -31 12 -31 31s15 31 31 31s31 -12 31 -31s-15 -31 -31 -31z" />
    <glyph glyph-name="perthousand" unicode="&#x2030;" horiz-adv-x="948" 
d="M618 609l20 -21l-590 -646l-20 21zM148 264c-53 0 -86 33 -86 94c0 90 61 196 152 196c53 0 86 -33 86 -94c0 -90 -61 -196 -152 -196zM214 526c-24 0 -45 -10 -62 -26c-36 -33 -56 -93 -56 -142c0 -35 13 -66 52 -66c25 0 46 11 63 27c35 35 55 92 55 141
c0 35 -13 66 -52 66zM713 -20c-53 0 -86 33 -86 94c0 90 61 196 152 196c53 0 86 -33 86 -94c0 -90 -61 -196 -152 -196zM435 -20c-53 0 -86 33 -86 94c0 90 61 196 152 196c53 0 86 -33 86 -94c0 -90 -61 -196 -152 -196zM779 242c-24 0 -45 -10 -62 -26
c-36 -33 -56 -93 -56 -142c0 -35 13 -66 52 -66c25 0 46 11 63 27c35 35 55 92 55 141c0 35 -13 66 -52 66zM501 242c-24 0 -45 -10 -62 -26c-36 -33 -56 -93 -56 -142c0 -35 13 -66 52 -66c25 0 46 11 63 27c35 35 55 92 55 141c0 35 -13 66 -52 66z" />
    <glyph glyph-name="guilsinglleft" unicode="&#x2039;" horiz-adv-x="252" 
d="M158 106l-105 135v8l147 131l19 -20l-131 -117l90 -116z" />
    <glyph glyph-name="guilsinglright" unicode="&#x203a;" horiz-adv-x="252" 
d="M104 380l105 -135v-8l-147 -131l-19 20l131 117l-90 116z" />
    <glyph glyph-name="fraction" unicode="&#x2044;" horiz-adv-x="242" 
d="M-171 4l560 724l24 -20l-560 -724z" />
    <glyph glyph-name="Euro" unicode="&#x20ac;" horiz-adv-x="666" 
d="M319 -14c-129 0 -200 102 -200 235h-100l9 27h92c1 29 5 59 14 90h-80l9 27h78c40 125 138 238 284 238c100 0 155 -44 176 -112c4 -13 5 -25 8 -40l33 112h32l-57 -191h-28c5 35 3 71 -8 103c-20 57 -67 100 -158 100c-125 0 -209 -98 -246 -210h247l-9 -27h-246
c-8 -29 -13 -59 -15 -90h190l-9 -27h-182c0 -116 60 -207 169 -207c124 0 204 101 228 180h30l-57 -195h-32l25 85c-40 -53 -104 -98 -197 -98z" />
    <glyph glyph-name="trademark" unicode="&#x2122;" horiz-adv-x="675" 
d="M170 430v25h48v229h-92v-66h-30v92h276v-92h-30v66h-90v-229h48v-25h-130zM532 430h-124v25h47v229h-47v26h87l101 -230l105 230h87v-25h-48v-230h48v-25h-130v25h48v198l-98 -214h-30l-93 213v-197h47v-25z" />
    <glyph glyph-name="uni03A9" unicode="&#x2126;" horiz-adv-x="915" 
d="M485 710c217 0 355 -159 355 -359c0 -179 -108 -281 -215 -324h225v140h30v-167h-330v23c140 48 254 148 254 328s-119 329 -319 329c-195 0 -309 -149 -309 -329c0 -182 114 -280 254 -328v-23h-330v167h30v-140h225c-107 43 -215 145 -215 324c0 200 133 359 345 359z
" />
    <glyph glyph-name="partialdiff" unicode="&#x2202;" horiz-adv-x="551" 
d="M280 -10c-147 0 -235 93 -235 235c0 141 89 235 240 235c73 0 128 -23 167 -55c-47 169 -183 258 -376 281v28c236 -24 430 -144 430 -456c0 -160 -69 -268 -226 -268zM280 17c140 0 190 105 190 241c0 36 -3 70 -8 102c-41 44 -96 72 -176 72c-139 0 -205 -87 -205 -207
c0 -121 67 -208 199 -208z" />
    <glyph glyph-name="uni0394" unicode="&#x2206;" horiz-adv-x="676" 
d="M25 0v17l316 680h27l318 -681v-16h-661zM64 27h582l-291 624z" />
    <glyph glyph-name="product" unicode="&#x220f;" horiz-adv-x="798" 
d="M30 673v27h738v-27h-111v-646h111v-27h-253v27h106v646h-444v-646h106v-27h-253v27h111v646h-111z" />
    <glyph glyph-name="summation" unicode="&#x2211;" horiz-adv-x="641" 
d="M586 224v-224h-536v18l259 342l-250 322v18h522v-194h-33v167h-445l240 -310v-10l-247 -326h457v197h33z" />
    <glyph glyph-name="minus" unicode="&#x2212;" horiz-adv-x="475" 
d="M440 258v-27h-385v27h385z" />
    <glyph glyph-name="radical" unicode="&#x221a;" horiz-adv-x="639" 
d="M311 -21h-35l-154 290l-97 -58l-14 26l123 74l158 -296l283 685h34z" />
    <glyph glyph-name="infinity" unicode="&#x221e;" horiz-adv-x="516" 
d="M364 157c-40 0 -68 16 -107 63c-37 -44 -65 -63 -105 -63c-45 0 -87 26 -87 86s42 86 87 86c40 0 66 -16 105 -63c35 43 67 63 107 63c45 0 87 -26 87 -86s-42 -86 -87 -86zM152 185c33 0 54 19 85 58c-31 39 -52 58 -85 58s-55 -23 -55 -58s22 -58 55 -58zM364 185
c33 0 55 23 55 58s-22 58 -55 58s-55 -19 -87 -58c31 -39 52 -58 87 -58z" />
    <glyph glyph-name="integral" unicode="&#x222b;" horiz-adv-x="368" 
d="M-1 -88c43 0 63 24 74 63c48 169 68 356 97 547c24 147 72 189 148 189c43 0 67 -12 90 -47l-24 -19c-16 27 -37 36 -65 36c-64 0 -96 -48 -113 -163c-28 -183 -50 -370 -99 -553c-16 -59 -52 -83 -107 -83c-37 0 -69 12 -90 47l24 19c17 -28 41 -36 65 -36z" />
    <glyph glyph-name="approxequal" unicode="&#x2248;" horiz-adv-x="436" 
d="M319 292c21 0 47 7 60 59l27 -7c-18 -71 -53 -82 -87 -82c-53 0 -114 63 -159 63c-24 0 -49 -5 -63 -62l-27 8c19 72 53 83 90 83c53 0 114 -62 159 -62zM319 153c21 0 47 7 60 59l27 -7c-18 -71 -53 -82 -87 -82c-53 0 -114 63 -159 63c-23 0 -47 -7 -63 -62l-27 8
c22 70 53 83 90 83c53 0 114 -62 159 -62z" />
    <glyph glyph-name="notequal" unicode="&#x2260;" horiz-adv-x="548" 
d="M390 151h-186l-54 -117l-26 12l49 105h-108v27h121l62 133h-183v27h195l50 107l25 -13l-44 -94h99v-27h-111l-62 -133h173v-27z" />
    <glyph glyph-name="lessequal" unicode="&#x2264;" horiz-adv-x="440" 
d="M380 103l-325 153v16l325 154v-30l-280 -132l280 -131v-30zM70 42v27h310v-27h-310z" />
    <glyph glyph-name="greaterequal" unicode="&#x2265;" horiz-adv-x="410" 
d="M60 103v30l280 131l-280 133v29l325 -155v-15zM60 42v27h310v-27h-310z" />
    <glyph glyph-name="lozenge" unicode="&#x25ca;" horiz-adv-x="410" 
d="M215 28l-185 193l185 194l185 -194zM215 71l145 151l-144 150l-146 -151z" />
    <glyph glyph-name="Dcroat" unicode="&#x110;" horiz-adv-x="704" 
d="M276 0h-305l12 27h97l94 321h-101l8 27h101l88 298h-102l12 27h226c168 0 295 -85 295 -285c0 -119 -46 -225 -125 -301c-73 -72 -175 -114 -300 -114zM116 27h161c241 0 388 177 388 388c0 97 -31 167 -92 212c-44 32 -101 46 -169 46h-98l-88 -298h181l-8 -27h-181z
" />
    <glyph glyph-name="Eng" unicode="&#x14a;" horiz-adv-x="915" 
d="M372 -259c-79 0 -127 35 -134 102l34 5c5 -49 39 -77 100 -77c108 0 176 82 221 235l-173 629l-123 -412c-55 -185 -125 -269 -230 -269c-72 0 -108 41 -108 93c0 35 15 58 40 79l19 -25c-17 -15 -23 -34 -23 -53c0 -32 19 -64 72 -64c44 0 79 20 108 53
c40 45 69 116 93 197l132 439h-126l8 27h155l174 -633l123 421c27 92 56 152 88 189c33 39 70 53 110 53c60 0 94 -30 94 -74c0 -23 -8 -37 -16 -48c-5 -6 -10 -11 -16 -15l-22 18c3 3 6 7 9 12c4 8 9 18 9 31c0 27 -21 46 -58 46c-81 0 -131 -92 -168 -220l-137 -467
c-59 -200 -138 -272 -255 -272z" />
    <glyph glyph-name="IJ" unicode="&#x132;" horiz-adv-x="652" 
d="M220 0h-249l12 27h103l190 646h-109l12 27h251l-12 -27h-106l-190 -646h110zM413 11l194 662h-108l12 27h248l-12 -27h-104l-196 -670c-52 -180 -133 -262 -252 -262c-79 0 -127 35 -134 102l34 5c5 -49 39 -77 100 -77c107 0 171 83 218 240z" />
    <glyph glyph-name="dcroat" unicode="&#x111;" horiz-adv-x="468" 
d="M323 -10c-37 0 -53 29 -56 68c-1 10 -1 20 0 31c-32 -60 -80 -99 -143 -99c-50 0 -99 27 -99 119s44 205 121 282c40 41 93 69 144 69c47 0 68 -23 73 -58l66 193h-139l8 27h140l27 79l-91 -5l11 28l124 6l-37 -108h70l-8 -27h-71l-153 -450c-8 -24 -13 -54 -12 -79
c1 -27 9 -46 28 -46s35 13 50 32c23 31 39 76 54 119l26 -12c-20 -52 -38 -98 -62 -129c-19 -25 -40 -40 -71 -40zM288 430c-43 0 -85 -28 -118 -63c-72 -72 -109 -176 -109 -258c0 -63 25 -89 68 -89c35 0 65 17 90 44c31 31 52 74 67 115l48 139c8 23 11 44 10 63
c-3 29 -20 49 -56 49z" />
    <glyph glyph-name="eng" unicode="&#x14b;" horiz-adv-x="486" 
d="M312 -72c-56 -147 -106 -176 -168 -176c-61 0 -93 32 -93 79c0 12 2 22 5 30c1 4 3 8 5 11l31 -4l-4 -11c-2 -7 -3 -15 -3 -24c0 -31 20 -51 59 -51c56 0 96 41 137 154c40 106 61 180 91 279c21 68 41 137 41 176c0 23 -11 39 -42 39c-21 0 -41 -7 -62 -22
c-62 -43 -110 -138 -118 -162l-84 -246h-35l78 228c31 87 42 137 42 168c0 25 -8 34 -23 34c-13 0 -27 -9 -39 -22c-28 -31 -52 -84 -71 -124l-28 12c27 62 53 106 78 132c21 21 43 32 66 32c32 0 48 -19 48 -57c0 -20 -4 -44 -12 -73c28 48 56 82 85 102c27 20 52 28 79 28
c48 0 74 -28 74 -69c0 -40 -24 -116 -45 -185c-27 -87 -52 -171 -92 -278z" />
    <glyph glyph-name="ij" unicode="&#x133;" horiz-adv-x="525" 
d="M230 625c-19 0 -31 12 -31 31c0 17 12 31 31 31c17 0 31 -14 31 -31c0 -19 -14 -31 -31 -31zM191 402c0 19 -7 28 -20 28c-41 0 -82 -87 -109 -146l-28 12c49 112 90 164 141 164c28 0 52 -17 52 -56c0 -24 -11 -59 -24 -95c-23 -59 -45 -113 -70 -174
c-12 -28 -21 -56 -21 -79c0 -21 7 -36 26 -36c42 0 79 79 111 151l26 -12c-51 -113 -85 -169 -140 -169c-35 0 -58 23 -58 64c0 27 10 59 23 91c23 60 49 113 70 172c12 33 21 64 21 85zM485 656c0 17 12 31 31 31c17 0 31 -14 31 -31c0 -19 -14 -31 -31 -31
c-19 0 -31 12 -31 31zM320 -64c16 49 101 312 121 371c12 39 21 69 21 96c0 18 -7 27 -22 27c-47 0 -81 -102 -97 -140l-27 12c32 74 64 158 127 158c31 0 55 -17 55 -56c0 -31 -10 -62 -25 -105l-121 -371c-53 -147 -106 -176 -168 -176c-61 0 -93 32 -93 79
c0 12 2 22 5 30c1 4 3 8 5 11l31 -4l-4 -11c-2 -7 -3 -15 -3 -24c0 -31 20 -51 59 -51c56 0 95 41 136 154z" />
    <glyph glyph-name="Abreve" unicode="&#x102;" horiz-adv-x="683" 
d="M280 293h205l45 360zM487 27h102l-12 -27h-238l12 27h101l29 238h-220l-168 -238h94l-12 -27h-215l12 27h84l476 681h39zM574 796c56 0 91 37 106 100l29 -13c-17 -73 -65 -116 -137 -116c-71 0 -114 44 -97 125h30c-12 -60 14 -96 69 -96z" />
    <glyph glyph-name="Amacron" unicode="&#x100;" horiz-adv-x="683" 
d="M280 293h205l45 360zM487 27h102l-12 -27h-238l12 27h101l29 238h-220l-168 -238h94l-12 -27h-215l12 27h84l476 681h39zM690 831l-8 -30h-232l8 30h232z" />
    <glyph glyph-name="Aogonek" unicode="&#x104;" horiz-adv-x="683" 
d="M422 -189l27 -12c-20 -60 -57 -85 -104 -85c-53 0 -81 33 -81 78c0 83 114 161 186 217l31 256h-220l-168 -238h94l-12 -27h-215l12 27h84l476 681h39l-84 -681h102l-12 -27h-95c-82 -63 -182 -134 -182 -208c0 -25 10 -50 46 -50c35 0 60 23 76 69zM280 293h205l45 360z
" />
    <glyph glyph-name="Aringacute" unicode="&#x1fa;" horiz-adv-x="683" 
d="M280 293h205l45 360zM487 27h102l-12 -27h-238l12 27h101l29 238h-220l-168 -238h94l-12 -27h-215l12 27h84l476 681h39zM490 847c0 60 46 86 86 86s86 -26 86 -86s-46 -86 -86 -86s-86 26 -86 86zM522 847c0 -35 25 -58 54 -58c31 0 54 23 54 58s-23 58 -54 58
c-29 0 -54 -23 -54 -58zM686 1135l22 -22l-134 -148l-22 22z" />
    <glyph glyph-name="AEacute" unicode="&#x1fc;" horiz-adv-x="1010" 
d="M378 354h165l94 319h-6zM943 185l-54 -185h-557l12 27h103l88 300h-179l-248 -300h87l-12 -27h-213l12 27h89l524 646h-75l8 27h486l-46 -185h-32l39 158h-302l-94 -319h180l37 125h33l-82 -278h-33l37 126h-180l-88 -300h381l46 158h33zM877 933l22 -22l-134 -148
l-22 22z" />
    <glyph glyph-name="Cacute" unicode="&#x106;" horiz-adv-x="668" 
d="M497 1l29 100c-45 -61 -112 -115 -217 -115c-152 0 -236 119 -236 283c0 200 125 445 361 445c128 0 191 -74 202 -178l39 131h30l-67 -226h-26c3 20 3 40 2 60c-5 99 -56 185 -182 185c-212 0 -323 -238 -323 -419c0 -139 70 -253 204 -253c140 0 221 122 253 217h28
l-67 -230h-30zM554 933l22 -22l-134 -148l-22 22z" />
    <glyph glyph-name="Ccaron" unicode="&#x10c;" horiz-adv-x="668" 
d="M497 1l29 100c-45 -61 -112 -115 -217 -115c-152 0 -236 119 -236 283c0 200 125 445 361 445c128 0 191 -74 202 -178l39 131h30l-67 -226h-26c3 20 3 40 2 60c-5 99 -56 185 -182 185c-212 0 -323 -238 -323 -419c0 -139 70 -253 204 -253c140 0 221 122 253 217h28
l-67 -230h-30zM459 768h-19l-78 139l27 13l66 -116l124 118l18 -22z" />
    <glyph glyph-name="Ccircumflex" unicode="&#x108;" horiz-adv-x="668" 
d="M497 1l29 100c-45 -61 -112 -115 -217 -115c-152 0 -236 119 -236 283c0 200 125 445 361 445c128 0 191 -74 202 -178l39 131h30l-67 -226h-26c3 20 3 40 2 60c-5 99 -56 185 -182 185c-212 0 -323 -238 -323 -419c0 -139 70 -253 204 -253c140 0 221 122 253 217h28
l-67 -230h-30zM534 766l-66 116l-124 -118l-18 22l138 132h19l78 -139z" />
    <glyph glyph-name="Cdotaccent" unicode="&#x10a;" horiz-adv-x="668" 
d="M497 1l29 100c-45 -61 -112 -115 -217 -115c-152 0 -236 119 -236 283c0 200 125 445 361 445c128 0 191 -74 202 -178l39 131h30l-67 -226h-26c3 20 3 40 2 60c-5 99 -56 185 -182 185c-212 0 -323 -238 -323 -419c0 -139 70 -253 204 -253c140 0 221 122 253 217h28
l-67 -230h-30zM478 798c-19 0 -31 12 -31 31c0 17 12 31 31 31c17 0 31 -14 31 -31c0 -19 -14 -31 -31 -31z" />
    <glyph glyph-name="Dcaron" unicode="&#x10e;" horiz-adv-x="704" 
d="M-29 0l12 27h97l190 646h-102l12 27h226c168 0 295 -85 295 -285c0 -119 -46 -225 -125 -301c-73 -72 -175 -114 -300 -114h-305zM404 673h-98l-190 -646h161c241 0 388 177 388 388c0 97 -31 167 -92 212c-44 32 -101 46 -169 46zM449 768h-19l-78 139l27 13l66 -116
l124 118l18 -22z" />
    <glyph glyph-name="Ebreve" unicode="&#x114;" horiz-adv-x="649" 
d="M528 0h-557l12 27h103l190 646h-106l8 27h475l-46 -185h-32l39 158h-302l-85 -289h180l37 125h33l-82 -278h-33l37 126h-180l-97 -330h381l46 158h33zM476 796c56 0 91 37 106 100l29 -13c-17 -73 -65 -116 -137 -116c-71 0 -114 44 -97 125h30c-12 -60 14 -96 69 -96z
" />
    <glyph glyph-name="Ecaron" unicode="&#x11a;" horiz-adv-x="649" 
d="M528 0h-557l12 27h103l190 646h-106l8 27h475l-46 -185h-32l39 158h-302l-85 -289h180l37 125h33l-82 -278h-33l37 126h-180l-97 -330h381l46 158h33zM450 768h-19l-78 139l27 13l66 -116l124 118l18 -22z" />
    <glyph glyph-name="Edotaccent" unicode="&#x116;" horiz-adv-x="649" 
d="M528 0h-557l12 27h103l190 646h-106l8 27h475l-46 -185h-32l39 158h-302l-85 -289h180l37 125h33l-82 -278h-33l37 126h-180l-97 -330h381l46 158h33zM475 798c-19 0 -31 12 -31 31c0 17 12 31 31 31c17 0 31 -14 31 -31c0 -19 -14 -31 -31 -31z" />
    <glyph glyph-name="Emacron" unicode="&#x112;" horiz-adv-x="649" 
d="M528 0h-557l12 27h103l190 646h-106l8 27h475l-46 -185h-32l39 158h-302l-85 -289h180l37 125h33l-82 -278h-33l37 126h-180l-97 -330h381l46 158h33zM588 831l-8 -30h-232l8 30h232z" />
    <glyph glyph-name="Eogonek" unicode="&#x118;" horiz-adv-x="649" 
d="M438 -189l27 -12c-20 -60 -57 -85 -104 -85c-53 0 -81 33 -81 78c0 79 89 154 153 208h-462l12 27h103l190 646h-106l8 27h475l-46 -185h-32l39 158h-302l-85 -289h180l37 125h33l-82 -278h-33l37 126h-180l-97 -330h381l46 158h33l-54 -185h-52
c-75 -61 -160 -134 -160 -208c0 -25 10 -50 46 -50c35 0 60 23 76 69z" />
    <glyph glyph-name="Gbreve" unicode="&#x11e;" horiz-adv-x="729" 
d="M616 247l-50 -171c-32 -40 -115 -90 -231 -90c-177 0 -262 116 -262 277c0 204 122 451 362 451c138 0 203 -85 208 -190l39 131h30l-63 -210h-28c1 17 1 36 0 56c-8 85 -52 185 -188 185c-211 0 -324 -236 -324 -423c0 -139 71 -249 228 -249c100 0 164 44 194 68
l49 165h-135l3 27h279l-3 -27h-108zM477 796c56 0 91 37 106 100l29 -13c-17 -73 -65 -116 -137 -116c-71 0 -114 44 -97 125h30c-12 -60 14 -96 69 -96z" />
    <glyph glyph-name="Gcircumflex" unicode="&#x11c;" horiz-adv-x="729" 
d="M616 247l-50 -171c-32 -40 -115 -90 -231 -90c-177 0 -262 116 -262 277c0 204 122 451 362 451c138 0 203 -85 208 -190l39 131h30l-63 -210h-28c1 17 1 36 0 56c-8 85 -52 185 -188 185c-211 0 -324 -236 -324 -423c0 -139 71 -249 228 -249c100 0 164 44 194 68
l49 165h-135l3 27h279l-3 -27h-108zM532 766l-66 116l-124 -118l-18 22l138 132h19l78 -139z" />
    <glyph glyph-name="uni0122" unicode="&#x122;" horiz-adv-x="729" 
d="M616 247l-50 -171c-32 -40 -115 -90 -231 -90c-177 0 -262 116 -262 277c0 204 122 451 362 451c138 0 203 -85 208 -190l39 131h30l-63 -210h-28c1 17 1 36 0 56c-8 85 -52 185 -188 185c-211 0 -324 -236 -324 -423c0 -139 71 -249 228 -249c100 0 164 44 194 68
l49 165h-135l3 27h279l-3 -27h-108zM231 -85l-7 26c15 7 29 9 42 9c33 0 64 -16 64 -67c0 -61 -45 -105 -126 -142l-11 26c65 31 103 69 103 114c0 24 -11 41 -34 41c-10 0 -20 -2 -31 -7z" />
    <glyph glyph-name="Gdotaccent" unicode="&#x120;" horiz-adv-x="729" 
d="M616 247l-50 -171c-32 -40 -115 -90 -231 -90c-177 0 -262 116 -262 277c0 204 122 451 362 451c138 0 203 -85 208 -190l39 131h30l-63 -210h-28c1 17 1 36 0 56c-8 85 -52 185 -188 185c-211 0 -324 -236 -324 -423c0 -139 71 -249 228 -249c100 0 164 44 194 68
l49 165h-135l3 27h279l-3 -27h-108zM476 798c-19 0 -31 12 -31 31c0 17 12 31 31 31c17 0 31 -14 31 -31c0 -19 -14 -31 -31 -31z" />
    <glyph glyph-name="Hbar" unicode="&#x126;" horiz-adv-x="791" 
d="M226 383h427l41 137h-428zM832 520h-102l-146 -493h109l-12 -27h-240l12 27h95l97 328h-427l-96 -328h100l-12 -27h-239l12 27h103l144 493h-97l8 27h97l37 126h-108l12 27h242l-12 -27h-98l-37 -126h428l37 126h-101l12 27h242l-12 -27h-105l-37 -126h102z" />
    <glyph glyph-name="Hcircumflex" unicode="&#x124;" horiz-adv-x="791" 
d="M210 0h-239l12 27h103l189 646h-108l12 27h242l-12 -27h-98l-85 -290h427l86 290h-101l12 27h242l-12 -27h-105l-191 -646h109l-12 -27h-240l12 27h95l97 328h-427l-96 -328h100zM639 766l-66 116l-124 -118l-18 22l138 132h19l78 -139z" />
    <glyph glyph-name="Ibreve" unicode="&#x12c;" horiz-adv-x="327" 
d="M220 0h-249l12 27h103l190 646h-109l12 27h251l-12 -27h-106l-190 -646h110zM335 796c56 0 91 37 106 100l29 -13c-17 -73 -65 -116 -137 -116c-71 0 -114 44 -97 125h30c-12 -60 14 -96 69 -96z" />
    <glyph glyph-name="Idotaccent" unicode="&#x130;" horiz-adv-x="327" 
d="M220 0h-249l12 27h103l190 646h-109l12 27h251l-12 -27h-106l-190 -646h110zM334 798c-19 0 -31 12 -31 31c0 17 12 31 31 31c17 0 31 -14 31 -31c0 -19 -14 -31 -31 -31z" />
    <glyph glyph-name="Imacron" unicode="&#x12a;" horiz-adv-x="327" 
d="M220 0h-249l12 27h103l190 646h-109l12 27h251l-12 -27h-106l-190 -646h110zM451 831l-8 -30h-232l8 30h232z" />
    <glyph glyph-name="Iogonek" unicode="&#x12e;" horiz-adv-x="327" 
d="M155 -189l27 -12c-20 -60 -57 -85 -104 -85c-53 0 -81 33 -81 78c0 81 80 158 130 208h-156l12 27h103l190 646h-109l12 27h251l-12 -27h-106l-190 -646h110l-12 -27h-52c-60 -55 -135 -133 -135 -208c0 -25 10 -50 46 -50c35 0 60 23 76 69z" />
    <glyph glyph-name="Itilde" unicode="&#x128;" horiz-adv-x="327" 
d="M220 0h-249l12 27h103l190 646h-109l12 27h251l-12 -27h-106l-190 -646h110zM403 830c21 0 42 17 65 58l27 -17c-32 -51 -59 -70 -91 -70c-27 0 -53 15 -78 28c-17 8 -32 17 -51 17c-27 0 -46 -19 -70 -60l-27 17c31 51 59 72 96 72c24 0 44 -9 65 -20s41 -25 64 -25z
" />
    <glyph glyph-name="Jcircumflex" unicode="&#x134;" horiz-adv-x="651" 
d="M-60 -200c0 27 7 39 19 63l29 -13c-11 -21 -14 -31 -14 -50c0 -43 48 -79 116 -79c130 0 189 117 226 221l112 330h-141l4 30h148c37 109 77 205 102 262c-49 5 -86 31 -121 59c-44 37 -87 77 -146 77s-95 -32 -95 -77c0 -21 8 -34 16 -42c5 -5 10 -8 16 -11l-16 -24
c-9 3 -17 9 -24 16c-12 12 -24 30 -24 61c0 63 53 107 130 107c69 0 116 -44 164 -81c35 -27 69 -51 113 -56c35 77 74 139 133 139c36 0 64 -20 64 -63c0 -63 -63 -115 -176 -107c-24 -53 -63 -152 -101 -260h123l-4 -30h-130l-116 -342c-40 -118 -107 -239 -257 -239
c-88 0 -150 48 -150 109zM685 702c-40 0 -66 -44 -97 -111c85 -5 131 33 131 77c0 25 -15 34 -34 34zM582 766l-66 116l-124 -118l-18 22l138 132h19l78 -139z" />
    <glyph glyph-name="uni0136" unicode="&#x136;" horiz-adv-x="700" 
d="M514 -8c-57 0 -102 22 -118 121l-16 106c-11 65 -31 117 -85 117c-27 0 -42 -11 -57 -34c-29 -43 -63 -85 -78 -137l-41 -138h109l-12 -27h-247l12 27h102l190 646h-107l12 27h243l-12 -27h-100l-120 -396c86 129 225 302 330 380c64 48 116 62 160 62
c63 0 86 -27 86 -59c0 -31 -20 -51 -64 -58l-4 26c29 7 32 22 32 31c0 16 -11 30 -50 30c-36 0 -83 -11 -143 -56c-76 -58 -174 -163 -259 -275c9 3 18 4 30 4c63 0 95 -44 108 -141l15 -103c9 -68 39 -96 87 -96c31 0 62 14 92 41l16 -24c-37 -33 -66 -47 -111 -47z
M238 -85l-7 26c15 7 29 9 42 9c33 0 64 -16 64 -67c0 -61 -45 -105 -126 -142l-11 26c65 31 103 69 103 114c0 24 -11 41 -34 41c-10 0 -20 -2 -31 -7z" />
    <glyph glyph-name="Lacute" unicode="&#x139;" horiz-adv-x="626" 
d="M499 0h-531l12 27h103l190 646h-107l12 27h253l-12 -27h-110l-190 -646h356l49 166h32zM405 933l22 -22l-134 -148l-22 22z" />
    <glyph glyph-name="Lcaron" unicode="&#x13d;" horiz-adv-x="626" 
d="M499 0h-531l12 27h103l190 646h-107l12 27h253l-12 -27h-110l-190 -646h356l49 166h32zM563 731l-86 -171l-30 12l86 170z" />
    <glyph glyph-name="uni013B" unicode="&#x13b;" horiz-adv-x="626" 
d="M499 0h-531l12 27h103l190 646h-107l12 27h253l-12 -27h-110l-190 -646h356l49 166h32zM215 -85l-7 26c15 7 29 9 42 9c33 0 64 -16 64 -67c0 -61 -45 -105 -126 -142l-11 26c65 31 103 69 103 114c0 24 -11 41 -34 41c-10 0 -20 -2 -31 -7z" />
    <glyph glyph-name="Ldot" unicode="&#x13f;" horiz-adv-x="626" 
d="M499 0h-531l12 27h103l190 646h-107l12 27h253l-12 -27h-110l-190 -646h356l49 166h32zM564 348c-16 0 -31 12 -31 31s15 31 31 31s31 -12 31 -31s-15 -31 -31 -31z" />
    <glyph glyph-name="Nacute" unicode="&#x143;" horiz-adv-x="915" 
d="M611 67l123 421c29 101 62 163 97 199c31 31 64 43 101 43c60 0 94 -30 94 -74c0 -23 -8 -37 -16 -48c-5 -6 -10 -11 -16 -15l-22 18c3 3 6 7 9 12c4 8 9 18 9 31c0 27 -21 46 -58 46c-81 0 -131 -92 -168 -220l-141 -482h-28l-175 637l-123 -412
c-55 -185 -125 -269 -230 -269c-72 0 -108 41 -108 93c0 35 15 58 40 79l19 -25c-17 -15 -23 -34 -23 -53c0 -32 19 -64 72 -64c39 0 72 16 100 44c44 44 74 118 101 206l132 439h-126l8 27h155zM756 933l22 -22l-134 -148l-22 22z" />
    <glyph glyph-name="Ncaron" unicode="&#x147;" horiz-adv-x="915" 
d="M611 67l123 421c29 101 62 163 97 199c31 31 64 43 101 43c60 0 94 -30 94 -74c0 -23 -8 -37 -16 -48c-5 -6 -10 -11 -16 -15l-22 18c3 3 6 7 9 12c4 8 9 18 9 31c0 27 -21 46 -58 46c-81 0 -131 -92 -168 -220l-141 -482h-28l-175 637l-123 -412
c-55 -185 -125 -269 -230 -269c-72 0 -108 41 -108 93c0 35 15 58 40 79l19 -25c-17 -15 -23 -34 -23 -53c0 -32 19 -64 72 -64c39 0 72 16 100 44c44 44 74 118 101 206l132 439h-126l8 27h155zM661 768h-19l-78 139l27 13l66 -116l124 118l18 -22z" />
    <glyph glyph-name="uni0145" unicode="&#x145;" horiz-adv-x="915" 
d="M611 67l123 421c29 101 62 163 97 199c31 31 64 43 101 43c60 0 94 -30 94 -74c0 -23 -8 -37 -16 -48c-5 -6 -10 -11 -16 -15l-22 18c3 3 6 7 9 12c4 8 9 18 9 31c0 27 -21 46 -58 46c-81 0 -131 -92 -168 -220l-141 -482h-28l-175 637l-123 -412
c-55 -185 -125 -269 -230 -269c-72 0 -108 41 -108 93c0 35 15 58 40 79l19 -25c-17 -15 -23 -34 -23 -53c0 -32 19 -64 72 -64c39 0 72 16 100 44c44 44 74 118 101 206l132 439h-126l8 27h155zM336 -85l-7 26c15 7 29 9 42 9c33 0 64 -16 64 -67c0 -61 -45 -105 -126 -142
l-11 26c65 31 103 69 103 114c0 24 -11 41 -34 41c-10 0 -20 -2 -31 -7z" />
    <glyph glyph-name="Obreve" unicode="&#x14e;" horiz-adv-x="661" 
d="M442 714c149 0 218 -94 218 -249c0 -137 -50 -290 -146 -386c-59 -57 -131 -93 -223 -93c-149 0 -218 94 -218 249c0 140 51 295 152 391c57 55 129 88 217 88zM444 686c-80 0 -147 -33 -200 -86c-91 -91 -137 -241 -137 -365c0 -120 47 -221 182 -221
c81 0 147 33 200 86c91 91 137 240 137 365c0 120 -47 221 -182 221zM474 796c56 0 91 37 106 100l29 -13c-17 -73 -65 -116 -137 -116c-71 0 -114 44 -97 125h30c-12 -60 14 -96 69 -96z" />
    <glyph glyph-name="Ohungarumlaut" unicode="&#x150;" horiz-adv-x="661" 
d="M442 714c149 0 218 -94 218 -249c0 -137 -50 -290 -146 -386c-59 -57 -131 -93 -223 -93c-149 0 -218 94 -218 249c0 140 51 295 152 391c57 55 129 88 217 88zM444 686c-80 0 -147 -33 -200 -86c-91 -91 -137 -241 -137 -365c0 -120 47 -221 182 -221
c81 0 147 33 200 86c91 91 137 240 137 365c0 120 -47 221 -182 221zM532 918l-131 -155l-25 16l131 155zM676 918l-131 -155l-25 16l131 155z" />
    <glyph glyph-name="Omacron" unicode="&#x14c;" horiz-adv-x="661" 
d="M442 714c149 0 218 -94 218 -249c0 -137 -50 -290 -146 -386c-59 -57 -131 -93 -223 -93c-149 0 -218 94 -218 249c0 140 51 295 152 391c57 55 129 88 217 88zM444 686c-80 0 -147 -33 -200 -86c-91 -91 -137 -241 -137 -365c0 -120 47 -221 182 -221
c81 0 147 33 200 86c91 91 137 240 137 365c0 120 -47 221 -182 221zM590 831l-8 -30h-232l8 30h232z" />
    <glyph glyph-name="Oslashacute" unicode="&#x1fe;" horiz-adv-x="661" 
d="M559 933l22 -22l-134 -148l-22 22zM244 600c-91 -91 -137 -241 -137 -365c0 -55 9 -103 32 -142l439 538c-29 35 -71 55 -134 55c-80 0 -147 -33 -200 -86zM289 14c81 0 147 33 200 86c91 91 137 240 137 365c0 53 -8 102 -31 141l-438 -538c28 -35 71 -54 132 -54z
M514 79c-59 -57 -131 -93 -223 -93c-67 0 -119 19 -155 56l-82 -100l-23 18l86 105c-31 43 -44 99 -44 170c0 140 51 295 152 391c57 55 129 88 217 88c68 0 120 -19 157 -57l79 97l22 -19l-83 -102c29 -41 43 -97 43 -168c0 -137 -50 -290 -146 -386z" />
    <glyph glyph-name="Racute" unicode="&#x154;" horiz-adv-x="709" 
d="M122 27h110l-12 -27h-249l12 27h103l190 646h-110l12 27h248c133 0 199 -50 199 -150c0 -128 -108 -203 -240 -203h-5c43 -16 76 -51 87 -126c3 -27 13 -91 21 -128c12 -51 36 -71 79 -71c31 0 59 11 86 33l16 -21c-31 -27 -60 -42 -103 -42c-55 0 -96 24 -113 93
c-8 38 -16 103 -22 134c-15 89 -56 123 -143 123h-73zM223 369h145c119 0 221 62 221 180c0 84 -51 124 -164 124h-113zM530 933l22 -22l-134 -148l-22 22z" />
    <glyph glyph-name="Rcaron" unicode="&#x158;" horiz-adv-x="709" 
d="M122 27h110l-12 -27h-249l12 27h103l190 646h-110l12 27h248c133 0 199 -50 199 -150c0 -128 -108 -203 -240 -203h-5c43 -16 76 -51 87 -126c3 -27 13 -91 21 -128c12 -51 36 -71 79 -71c31 0 59 11 86 33l16 -21c-31 -27 -60 -42 -103 -42c-55 0 -96 24 -113 93
c-8 38 -16 103 -22 134c-15 89 -56 123 -143 123h-73zM223 369h145c119 0 221 62 221 180c0 84 -51 124 -164 124h-113zM435 768h-19l-78 139l27 13l66 -116l124 118l18 -22z" />
    <glyph glyph-name="uni0156" unicode="&#x156;" horiz-adv-x="709" 
d="M122 27h110l-12 -27h-249l12 27h103l190 646h-110l12 27h248c133 0 199 -50 199 -150c0 -128 -108 -203 -240 -203h-5c43 -16 76 -51 87 -126c3 -27 13 -91 21 -128c12 -51 36 -71 79 -71c31 0 59 11 86 33l16 -21c-31 -27 -60 -42 -103 -42c-55 0 -96 24 -113 93
c-8 38 -16 103 -22 134c-15 89 -56 123 -143 123h-73zM223 369h145c119 0 221 62 221 180c0 84 -51 124 -164 124h-113zM261 -85l-7 26c15 7 29 9 42 9c33 0 64 -16 64 -67c0 -61 -45 -105 -126 -142l-11 26c65 31 103 69 103 114c0 24 -11 41 -34 41c-10 0 -20 -2 -31 -7z
" />
    <glyph glyph-name="Sacute" unicode="&#x15a;" horiz-adv-x="578" 
d="M304 -14c-119 0 -196 83 -199 182l-40 -141h-30l66 225h26c-3 -24 -4 -49 -1 -72c11 -92 70 -166 179 -166c96 0 155 57 155 156c0 107 -71 143 -130 194c-64 56 -130 105 -130 197c0 109 85 153 169 153c92 0 150 -52 157 -123l27 90h30l-49 -163h-28c3 21 3 40 0 57
c-11 75 -69 111 -138 111c-72 0 -132 -39 -132 -122c0 -78 58 -124 116 -174c64 -56 144 -97 144 -217c0 -123 -85 -187 -192 -187zM486 933l22 -22l-134 -148l-22 22z" />
    <glyph glyph-name="uni015E" unicode="&#x15e;" horiz-adv-x="578" 
d="M205 -251c-25 0 -54 6 -81 26l15 23c23 -19 43 -21 66 -21c55 0 83 30 83 69c0 32 -18 47 -49 47c-15 0 -29 -5 -42 -15l-15 18l55 100c-80 24 -129 92 -132 172l-40 -141h-30l66 225h26c-3 -24 -4 -49 -1 -72c11 -92 70 -166 179 -166c96 0 155 57 155 156
c0 107 -71 143 -130 194c-64 56 -130 105 -130 197c0 109 85 153 169 153c92 0 150 -52 157 -123l27 90h30l-49 -163h-28c3 21 3 40 0 57c-11 75 -69 111 -138 111c-72 0 -132 -39 -132 -122c0 -78 58 -124 116 -174c64 -56 144 -97 144 -217c0 -123 -85 -187 -192 -187
c-13 0 -26 1 -38 3l-40 -74c7 3 13 4 24 4c32 0 71 -16 71 -72c0 -57 -43 -98 -116 -98z" />
    <glyph glyph-name="Scircumflex" unicode="&#x15c;" horiz-adv-x="578" 
d="M304 -14c-119 0 -196 83 -199 182l-40 -141h-30l66 225h26c-3 -24 -4 -49 -1 -72c11 -92 70 -166 179 -166c96 0 155 57 155 156c0 107 -71 143 -130 194c-64 56 -130 105 -130 197c0 109 85 153 169 153c92 0 150 -52 157 -123l27 90h30l-49 -163h-28c3 21 3 40 0 57
c-11 75 -69 111 -138 111c-72 0 -132 -39 -132 -122c0 -78 58 -124 116 -174c64 -56 144 -97 144 -217c0 -123 -85 -187 -192 -187zM496 766l-66 116l-124 -118l-18 22l138 132h19l78 -139z" />
    <glyph glyph-name="uni0218" unicode="&#x218;" horiz-adv-x="578" 
d="M304 -14c-119 0 -196 83 -199 182l-40 -141h-30l66 225h26c-3 -24 -4 -49 -1 -72c11 -92 70 -166 179 -166c96 0 155 57 155 156c0 107 -71 143 -130 194c-64 56 -130 105 -130 197c0 109 85 153 169 153c92 0 150 -52 157 -123l27 90h30l-49 -163h-28c3 21 3 40 0 57
c-11 75 -69 111 -138 111c-72 0 -132 -39 -132 -122c0 -78 58 -124 116 -174c64 -56 144 -97 144 -217c0 -123 -85 -187 -192 -187zM190 -85l-7 26c15 7 29 9 42 9c33 0 64 -16 64 -67c0 -61 -45 -105 -126 -142l-11 26c65 31 103 69 103 114c0 24 -11 41 -34 41
c-10 0 -20 -2 -31 -7z" />
    <glyph glyph-name="Tcaron" unicode="&#x164;" horiz-adv-x="683" 
d="M390 0h-237l12 27h97l180 611l-165 -6c-86 -3 -129 -34 -129 -93c0 -21 4 -34 11 -45c3 -6 6 -11 11 -15l-29 -12c-5 4 -10 10 -14 17c-7 12 -13 28 -13 55c0 76 57 118 162 122l405 15c77 3 93 34 93 65c0 17 -6 31 -11 39c-3 5 -6 9 -10 12l23 18c6 -4 11 -9 16 -16
c8 -11 16 -29 16 -53c0 -48 -31 -91 -126 -94l-203 -8l-181 -612h104zM495 768h-19l-78 139l27 13l66 -116l124 118l18 -22z" />
    <glyph glyph-name="Tcommaaccent" unicode="&#x162;" horiz-adv-x="683" 
d="M390 0h-237l12 27h97l180 611l-165 -6c-86 -3 -129 -34 -129 -93c0 -21 4 -34 11 -45c3 -6 6 -11 11 -15l-29 -12c-5 4 -10 10 -14 17c-7 12 -13 28 -13 55c0 76 57 118 162 122l405 15c77 3 93 34 93 65c0 17 -6 31 -11 39c-3 5 -6 9 -10 12l23 18c6 -4 11 -9 16 -16
c8 -11 16 -29 16 -53c0 -48 -31 -91 -126 -94l-203 -8l-181 -612h104zM214 -85l-7 26c15 7 29 9 42 9c33 0 64 -16 64 -67c0 -61 -45 -105 -126 -142l-11 26c65 31 103 69 103 114c0 24 -11 41 -34 41c-10 0 -20 -2 -31 -7z" />
    <glyph glyph-name="uni021A" unicode="&#x21a;" horiz-adv-x="683" 
d="M390 0h-237l12 27h97l180 611l-165 -6c-86 -3 -129 -34 -129 -93c0 -21 4 -34 11 -45c3 -6 6 -11 11 -15l-29 -12c-5 4 -10 10 -14 17c-7 12 -13 28 -13 55c0 76 57 118 162 122l405 15c77 3 93 34 93 65c0 17 -6 31 -11 39c-3 5 -6 9 -10 12l23 18c6 -4 11 -9 16 -16
c8 -11 16 -29 16 -53c0 -48 -31 -91 -126 -94l-203 -8l-181 -612h104zM214 -85l-7 26c15 7 29 9 42 9c33 0 64 -16 64 -67c0 -61 -45 -105 -126 -142l-11 26c65 31 103 69 103 114c0 24 -11 41 -34 41c-10 0 -20 -2 -31 -7z" />
    <glyph glyph-name="Tbar" unicode="&#x166;" horiz-adv-x="683" 
d="M402 27l-12 -27h-237l12 27h97l100 341h-153l8 27h153l72 243l-165 -6c-86 -3 -129 -34 -129 -93c0 -21 4 -34 11 -45c3 -6 6 -11 11 -15l-29 -12c-5 4 -10 10 -14 17c-7 12 -13 28 -13 55c0 76 57 118 162 122l405 15c77 3 93 34 93 65c0 17 -6 31 -11 39
c-3 5 -6 9 -10 12l23 18c6 -4 11 -9 16 -16c8 -11 16 -29 16 -53c0 -48 -31 -91 -126 -94l-203 -8l-72 -244h154l-8 -27h-154l-101 -341h104z" />
    <glyph glyph-name="Ubreve" unicode="&#x16c;" horiz-adv-x="769" 
d="M764 673l-134 -452c-51 -168 -131 -235 -293 -235c-145 0 -218 69 -218 185c0 40 8 81 19 116l115 386h-108l12 27h249l-12 -27h-105l-117 -394c-11 -37 -17 -81 -17 -109c0 -89 59 -154 182 -154c146 0 214 67 259 213l132 444h-111l12 27h252l-12 -27h-105zM540 796
c56 0 91 37 106 100l29 -13c-17 -73 -65 -116 -137 -116c-71 0 -114 44 -97 125h30c-12 -60 14 -96 69 -96z" />
    <glyph glyph-name="Uhungarumlaut" unicode="&#x170;" horiz-adv-x="769" 
d="M764 673l-134 -452c-51 -168 -131 -235 -293 -235c-145 0 -218 69 -218 185c0 40 8 81 19 116l115 386h-108l12 27h249l-12 -27h-105l-117 -394c-11 -37 -17 -81 -17 -109c0 -89 59 -154 182 -154c146 0 214 67 259 213l132 444h-111l12 27h252l-12 -27h-105zM594 918
l-131 -155l-25 16l131 155zM738 918l-131 -155l-25 16l131 155z" />
    <glyph glyph-name="Umacron" unicode="&#x16a;" horiz-adv-x="769" 
d="M764 673l-134 -452c-51 -168 -131 -235 -293 -235c-145 0 -218 69 -218 185c0 40 8 81 19 116l115 386h-108l12 27h249l-12 -27h-105l-117 -394c-11 -37 -17 -81 -17 -109c0 -89 59 -154 182 -154c146 0 214 67 259 213l132 444h-111l12 27h252l-12 -27h-105zM664 831
l-8 -30h-232l8 30h232z" />
    <glyph glyph-name="Uogonek" unicode="&#x172;" horiz-adv-x="769" 
d="M399 -189l27 -12c-20 -60 -57 -85 -104 -85c-53 0 -81 33 -81 78c0 75 81 142 146 196c-16 -1 -31 -2 -50 -2c-145 0 -218 69 -218 185c0 40 8 81 19 116l115 386h-108l12 27h249l-12 -27h-105l-117 -394c-11 -37 -17 -81 -17 -109c0 -89 59 -154 182 -154
c146 0 214 67 259 213l132 444h-111l12 27h252l-12 -27h-105l-134 -452c-39 -129 -95 -197 -192 -224c-75 -61 -161 -133 -161 -205c0 -25 10 -50 46 -50c35 0 60 23 76 69z" />
    <glyph glyph-name="Uring" unicode="&#x16e;" horiz-adv-x="769" 
d="M764 673l-134 -452c-51 -168 -131 -235 -293 -235c-145 0 -218 69 -218 185c0 40 8 81 19 116l115 386h-108l12 27h249l-12 -27h-105l-117 -394c-11 -37 -17 -81 -17 -109c0 -89 59 -154 182 -154c146 0 214 67 259 213l132 444h-111l12 27h252l-12 -27h-105zM448 817
c0 60 46 86 86 86s86 -26 86 -86s-46 -86 -86 -86s-86 26 -86 86zM480 817c0 -35 25 -58 54 -58c31 0 54 23 54 58s-23 58 -54 58c-29 0 -54 -23 -54 -58z" />
    <glyph glyph-name="Utilde" unicode="&#x168;" horiz-adv-x="769" 
d="M764 673l-134 -452c-51 -168 -131 -235 -293 -235c-145 0 -218 69 -218 185c0 40 8 81 19 116l115 386h-108l12 27h249l-12 -27h-105l-117 -394c-11 -37 -17 -81 -17 -109c0 -89 59 -154 182 -154c146 0 214 67 259 213l132 444h-111l12 27h252l-12 -27h-105zM616 830
c21 0 42 17 65 58l27 -17c-32 -51 -59 -70 -91 -70c-27 0 -53 15 -78 28c-17 8 -32 17 -51 17c-27 0 -46 -19 -70 -60l-27 17c31 51 59 72 96 72c24 0 44 -9 65 -20s41 -25 64 -25z" />
    <glyph glyph-name="Wacute" unicode="&#x1e82;" horiz-adv-x="968" 
d="M591 673h-108l12 27h248l-12 -27h-104l-78 -619l410 619h-104l12 27h225l-12 -27h-83l-451 -681h-39l78 600l-382 -600h-39l85 681h-109l12 27h248l-12 -27h-104l-77 -618l381 592zM714 933l22 -22l-134 -148l-22 22z" />
    <glyph glyph-name="Wcircumflex" unicode="&#x174;" horiz-adv-x="968" 
d="M591 673h-108l12 27h248l-12 -27h-104l-78 -619l410 619h-104l12 27h225l-12 -27h-83l-451 -681h-39l78 600l-382 -600h-39l85 681h-109l12 27h248l-12 -27h-104l-77 -618l381 592zM722 766l-66 116l-124 -118l-18 22l138 132h19l78 -139z" />
    <glyph glyph-name="Wdieresis" unicode="&#x1e84;" horiz-adv-x="968" 
d="M591 673h-108l12 27h248l-12 -27h-104l-78 -619l410 619h-104l12 27h225l-12 -27h-83l-451 -681h-39l78 600l-382 -600h-39l85 681h-109l12 27h248l-12 -27h-104l-77 -618l381 592zM548 798c-19 0 -31 12 -31 31c0 17 12 31 31 31c17 0 31 -14 31 -31
c0 -19 -14 -31 -31 -31zM740 798c-19 0 -31 12 -31 31c0 17 12 31 31 31c17 0 31 -14 31 -31c0 -19 -14 -31 -31 -31z" />
    <glyph glyph-name="Wgrave" unicode="&#x1e80;" horiz-adv-x="968" 
d="M591 673h-108l12 27h248l-12 -27h-104l-78 -619l410 619h-104l12 27h225l-12 -27h-83l-451 -681h-39l78 600l-382 -600h-39l85 681h-109l12 27h248l-12 -27h-104l-77 -618l381 592zM610 933l93 -155l-26 -17l-93 155z" />
    <glyph glyph-name="Ycircumflex" unicode="&#x176;" horiz-adv-x="646" 
d="M132 27h97l100 339c7 23 14 77 14 134c0 88 -17 184 -82 184c-23 0 -40 -11 -56 -28c-37 -43 -57 -120 -68 -172l-32 4c19 77 40 149 80 190c22 24 48 36 79 36c88 0 110 -99 110 -189c0 -33 -4 -62 -9 -89c20 56 58 126 109 183c56 64 123 111 194 111
c49 0 84 -24 84 -71c0 -19 -5 -34 -10 -45c-3 -7 -6 -13 -10 -18l-28 9l7 16c3 11 7 23 7 36c0 29 -18 43 -54 43c-59 0 -117 -41 -169 -101c-60 -71 -109 -162 -132 -241l-98 -331h109l-12 -27h-242zM540 766l-66 116l-124 -118l-18 22l138 132h19l78 -139z" />
    <glyph glyph-name="Ygrave" unicode="&#x1ef2;" horiz-adv-x="646" 
d="M132 27h97l100 339c7 23 14 77 14 134c0 88 -17 184 -82 184c-23 0 -40 -11 -56 -28c-37 -43 -57 -120 -68 -172l-32 4c19 77 40 149 80 190c22 24 48 36 79 36c88 0 110 -99 110 -189c0 -33 -4 -62 -9 -89c20 56 58 126 109 183c56 64 123 111 194 111
c49 0 84 -24 84 -71c0 -19 -5 -34 -10 -45c-3 -7 -6 -13 -10 -18l-28 9l7 16c3 11 7 23 7 36c0 29 -18 43 -54 43c-59 0 -117 -41 -169 -101c-60 -71 -109 -162 -132 -241l-98 -331h109l-12 -27h-242zM423 933l93 -155l-26 -17l-93 155z" />
    <glyph glyph-name="Zacute" unicode="&#x179;" horiz-adv-x="637" 
d="M266 129c97 0 160 -51 202 -99c96 -101 145 -222 273 -222c89 0 123 59 123 127l32 -5c0 -86 -55 -152 -157 -152c-138 0 -197 124 -293 231c-34 39 -90 90 -180 90c-48 0 -85 -13 -120 -57l-45 -57l-23 19l455 566c-6 -2 -13 -3 -20 -3c-59 0 -106 50 -140 76
c-37 28 -62 41 -94 41c-53 0 -101 -31 -108 -112l-32 5c11 103 78 137 140 137c41 0 69 -15 112 -48c31 -23 69 -69 122 -69c33 0 57 18 85 53l43 54l23 -19l-455 -566c19 8 38 10 57 10zM539 933l22 -22l-134 -148l-22 22z" />
    <glyph glyph-name="Zdotaccent" unicode="&#x17b;" horiz-adv-x="637" 
d="M266 129c97 0 160 -51 202 -99c96 -101 145 -222 273 -222c89 0 123 59 123 127l32 -5c0 -86 -55 -152 -157 -152c-138 0 -197 124 -293 231c-34 39 -90 90 -180 90c-48 0 -85 -13 -120 -57l-45 -57l-23 19l455 566c-6 -2 -13 -3 -20 -3c-59 0 -106 50 -140 76
c-37 28 -62 41 -94 41c-53 0 -101 -31 -108 -112l-32 5c11 103 78 137 140 137c41 0 69 -15 112 -48c31 -23 69 -69 122 -69c33 0 57 18 85 53l43 54l23 -19l-455 -566c19 8 38 10 57 10zM463 798c-19 0 -31 12 -31 31c0 17 12 31 31 31c17 0 31 -14 31 -31
c0 -19 -14 -31 -31 -31z" />
    <glyph glyph-name="abreve" unicode="&#x103;" horiz-adv-x="465" 
d="M323 -10c-39 0 -53 30 -56 69c-1 9 -1 19 0 29c-32 -60 -80 -98 -143 -98c-50 0 -99 27 -99 119c0 93 46 202 121 282c40 41 93 69 144 69c47 0 68 -23 73 -58l17 50h35l-105 -307c-8 -23 -15 -50 -14 -75c0 -28 9 -50 30 -50c19 0 35 13 50 33c23 31 39 75 54 118
l26 -12c-19 -49 -35 -93 -58 -124c-20 -28 -43 -45 -75 -45zM288 430c-44 0 -85 -28 -118 -63c-71 -75 -109 -174 -109 -258c0 -63 25 -89 68 -89c74 0 130 82 157 159l48 139c9 25 12 46 10 64c-4 29 -20 48 -56 48zM317 579c51 0 85 37 98 100l29 -13
c-16 -73 -61 -116 -129 -116s-109 44 -92 125h30c-12 -60 13 -96 64 -96z" />
    <glyph glyph-name="amacron" unicode="&#x101;" horiz-adv-x="465" 
d="M323 -10c-39 0 -53 30 -56 69c-1 9 -1 19 0 29c-32 -60 -80 -98 -143 -98c-50 0 -99 27 -99 119c0 93 46 202 121 282c40 41 93 69 144 69c47 0 68 -23 73 -58l17 50h35l-105 -307c-8 -23 -15 -50 -14 -75c0 -28 9 -50 30 -50c19 0 35 13 50 33c23 31 39 75 54 118
l26 -12c-19 -49 -35 -93 -58 -124c-20 -28 -43 -45 -75 -45zM288 430c-44 0 -85 -28 -118 -63c-71 -75 -109 -174 -109 -258c0 -63 25 -89 68 -89c74 0 130 82 157 159l48 139c9 25 12 46 10 64c-4 29 -20 48 -56 48zM436 651l-8 -30h-222l8 30h222z" />
    <glyph glyph-name="aogonek" unicode="&#x105;" horiz-adv-x="465" 
d="M251 -286c-53 0 -81 33 -81 78c0 76 77 142 142 199c-1 0 -3 1 -4 1c-29 8 -39 37 -42 73c0 8 0 16 1 24c-32 -60 -80 -99 -143 -99c-50 0 -99 27 -99 119c0 93 46 202 121 282c40 41 93 69 144 69c47 0 68 -23 73 -58l17 50h35l-105 -307c-8 -23 -13 -50 -12 -74
c0 -28 8 -51 28 -51c19 0 36 13 51 33c21 31 38 77 53 118l26 -12c-19 -51 -36 -98 -61 -127c-19 -23 -45 -39 -73 -64c-61 -53 -116 -115 -116 -176c0 -25 10 -50 46 -50c35 0 60 23 76 69l27 -12c-20 -60 -57 -85 -104 -85zM286 179l48 139c11 31 14 60 6 81
c-8 19 -24 31 -52 31c-44 0 -85 -28 -118 -63c-71 -75 -109 -174 -109 -258c0 -63 25 -89 68 -89c74 0 130 82 157 159z" />
    <glyph glyph-name="aringacute" unicode="&#x1fb;" horiz-adv-x="465" 
d="M323 -10c-39 0 -53 30 -56 69c-1 9 -1 19 0 29c-32 -60 -80 -98 -143 -98c-50 0 -99 27 -99 119c0 93 46 202 121 282c40 41 93 69 144 69c47 0 68 -23 73 -58l17 50h35l-105 -307c-8 -23 -15 -50 -14 -75c0 -28 9 -50 30 -50c19 0 35 13 50 33c23 31 39 75 54 118
l26 -12c-19 -49 -35 -93 -58 -124c-20 -28 -43 -45 -75 -45zM288 430c-44 0 -85 -28 -118 -63c-71 -75 -109 -174 -109 -258c0 -63 25 -89 68 -89c74 0 130 82 157 159l48 139c9 25 12 46 10 64c-4 29 -20 48 -56 48zM227 650c0 60 46 86 86 86s86 -26 86 -86
s-46 -86 -86 -86s-86 26 -86 86zM257 650c0 -36 25 -60 56 -60s56 24 56 60s-25 60 -56 60s-56 -24 -56 -60zM458 953l22 -22l-134 -148l-22 22z" />
    <glyph glyph-name="aeacute" unicode="&#x1fd;" horiz-adv-x="593" 
d="M295 186c-4 -20 -7 -40 -7 -60c0 -53 17 -106 85 -106c64 0 112 49 143 130l26 -12c-35 -89 -87 -148 -171 -148c-65 0 -102 35 -114 90c-31 -64 -82 -90 -133 -90c-55 0 -99 30 -99 107c0 133 208 363 473 363h9c47 0 84 -23 84 -72c0 -52 -42 -96 -89 -125
c-57 -36 -122 -54 -207 -77zM304 220c73 19 129 36 176 65c44 27 75 64 75 101c0 29 -19 44 -51 44c-35 0 -70 -20 -101 -49c-43 -39 -79 -98 -99 -161zM377 400c11 9 21 18 32 25c-72 -15 -136 -49 -189 -89c-100 -75 -159 -168 -159 -239c0 -53 22 -80 66 -80
c51 0 97 39 125 119c3 92 57 201 125 264zM528 746l26 -20l-142 -187l-26 20z" />
    <glyph glyph-name="cacute" unicode="&#x107;" horiz-adv-x="379" 
d="M343 380c0 35 -28 50 -61 50s-67 -15 -99 -42c-67 -57 -122 -159 -122 -259c0 -55 18 -109 86 -109c64 0 112 48 140 132l28 -16c-31 -92 -91 -146 -170 -146c-80 0 -120 54 -120 138c0 118 62 231 141 289c37 27 78 43 119 43c52 0 94 -23 94 -79c0 -16 -5 -34 -14 -55
l-34 4c9 24 12 39 12 50zM404 746l26 -20l-142 -187l-26 20z" />
    <glyph glyph-name="ccaron" unicode="&#x10d;" horiz-adv-x="379" 
d="M343 380c0 35 -28 50 -61 50s-67 -15 -99 -42c-67 -57 -122 -159 -122 -259c0 -55 18 -109 86 -109c64 0 112 48 140 132l28 -16c-31 -92 -91 -146 -170 -146c-80 0 -120 54 -120 138c0 118 62 231 141 289c37 27 78 43 119 43c52 0 94 -23 94 -79c0 -16 -5 -34 -14 -55
l-34 4c9 24 12 39 12 50zM308 554h-24l-47 170l30 13l38 -141l110 142l23 -20z" />
    <glyph glyph-name="ccircumflex" unicode="&#x109;" horiz-adv-x="379" 
d="M343 380c0 35 -28 50 -61 50s-67 -15 -99 -42c-67 -57 -122 -159 -122 -259c0 -55 18 -109 86 -109c64 0 112 48 140 132l28 -16c-31 -92 -91 -146 -170 -146c-80 0 -120 54 -120 138c0 118 62 231 141 289c37 27 78 43 119 43c52 0 94 -23 94 -79c0 -16 -5 -34 -14 -55
l-34 4c9 24 12 39 12 50zM373 541l-38 141l-110 -142l-23 20l130 164h24l47 -170z" />
    <glyph glyph-name="cdotaccent" unicode="&#x10b;" horiz-adv-x="379" 
d="M343 380c0 35 -28 50 -61 50s-67 -15 -99 -42c-67 -57 -122 -159 -122 -259c0 -55 18 -109 86 -109c64 0 112 48 140 132l28 -16c-31 -92 -91 -146 -170 -146c-80 0 -120 54 -120 138c0 118 62 231 141 289c37 27 78 43 119 43c52 0 94 -23 94 -79c0 -16 -5 -34 -14 -55
l-34 4c9 24 12 39 12 50zM328 625c-19 0 -31 12 -31 31c0 17 12 31 31 31c17 0 31 -14 31 -31c0 -19 -14 -31 -31 -31z" />
    <glyph glyph-name="dcaron" unicode="&#x10f;" horiz-adv-x="468" 
d="M323 -10c-37 0 -53 29 -56 68c-1 10 -1 20 0 31c-32 -60 -80 -99 -143 -99c-50 0 -99 27 -99 119s44 205 121 282c40 41 93 69 144 69c47 0 68 -23 73 -58l102 299l-91 -5l11 28l124 6l-199 -585c-8 -24 -13 -54 -12 -79c1 -27 9 -46 28 -46s35 13 50 32
c23 31 39 76 54 119l26 -12c-20 -52 -38 -98 -62 -129c-19 -25 -40 -40 -71 -40zM288 430c-43 0 -85 -28 -118 -63c-72 -72 -109 -176 -109 -258c0 -63 25 -89 68 -89c35 0 65 17 90 44c31 31 52 74 67 115l48 139c8 23 11 44 10 63c-3 29 -20 49 -56 49zM615 731l-86 -171
l-30 12l86 170z" />
    <glyph glyph-name="ebreve" unicode="&#x115;" horiz-adv-x="366" 
d="M61 126c0 -53 17 -106 85 -106c64 0 112 49 143 130l26 -12c-35 -89 -87 -148 -171 -148c-81 0 -119 55 -119 135c0 95 53 208 125 275c40 37 86 60 130 60c47 0 84 -23 84 -72c0 -52 -42 -96 -89 -125c-57 -36 -122 -54 -207 -77c-4 -20 -7 -40 -7 -60zM77 220
c73 19 129 36 176 65c44 27 75 64 75 101c0 29 -19 44 -51 44c-35 0 -70 -20 -101 -49c-43 -39 -79 -98 -99 -161zM290 579c51 0 85 37 98 100l29 -13c-16 -73 -61 -116 -129 -116s-109 44 -92 125h30c-12 -60 13 -96 64 -96z" />
    <glyph glyph-name="ecaron" unicode="&#x11b;" horiz-adv-x="366" 
d="M61 126c0 -53 17 -106 85 -106c64 0 112 49 143 130l26 -12c-35 -89 -87 -148 -171 -148c-81 0 -119 55 -119 135c0 95 53 208 125 275c40 37 86 60 130 60c47 0 84 -23 84 -72c0 -52 -42 -96 -89 -125c-57 -36 -122 -54 -207 -77c-4 -20 -7 -40 -7 -60zM77 220
c73 19 129 36 176 65c44 27 75 64 75 101c0 29 -19 44 -51 44c-35 0 -70 -20 -101 -49c-43 -39 -79 -98 -99 -161zM285 554h-24l-47 170l30 13l38 -141l110 142l23 -20z" />
    <glyph glyph-name="edotaccent" unicode="&#x117;" horiz-adv-x="366" 
d="M61 126c0 -53 17 -106 85 -106c64 0 112 49 143 130l26 -12c-35 -89 -87 -148 -171 -148c-81 0 -119 55 -119 135c0 95 53 208 125 275c40 37 86 60 130 60c47 0 84 -23 84 -72c0 -52 -42 -96 -89 -125c-57 -36 -122 -54 -207 -77c-4 -20 -7 -40 -7 -60zM77 220
c73 19 129 36 176 65c44 27 75 64 75 101c0 29 -19 44 -51 44c-35 0 -70 -20 -101 -49c-43 -39 -79 -98 -99 -161zM305 625c-19 0 -31 12 -31 31c0 17 12 31 31 31c17 0 31 -14 31 -31c0 -19 -14 -31 -31 -31z" />
    <glyph glyph-name="emacron" unicode="&#x113;" horiz-adv-x="366" 
d="M61 126c0 -53 17 -106 85 -106c64 0 112 49 143 130l26 -12c-35 -89 -87 -148 -171 -148c-81 0 -119 55 -119 135c0 95 53 208 125 275c40 37 86 60 130 60c47 0 84 -23 84 -72c0 -52 -42 -96 -89 -125c-57 -36 -122 -54 -207 -77c-4 -20 -7 -40 -7 -60zM77 220
c73 19 129 36 176 65c44 27 75 64 75 101c0 29 -19 44 -51 44c-35 0 -70 -20 -101 -49c-43 -39 -79 -98 -99 -161zM409 651l-8 -30h-222l8 30h222z" />
    <glyph glyph-name="eogonek" unicode="&#x119;" horiz-adv-x="366" 
d="M273 58c-35 -43 -74 -68 -110 -100c-59 -52 -106 -107 -106 -166c0 -25 10 -50 46 -50c35 0 60 23 76 69l27 -12c-20 -60 -57 -85 -104 -85c-53 0 -81 33 -81 78c0 74 73 143 140 199c-5 -1 -10 -1 -17 -1c-81 0 -119 55 -119 135c0 95 53 208 125 275
c40 37 86 60 130 60c47 0 84 -23 84 -72c0 -52 -42 -96 -89 -125c-57 -36 -122 -54 -207 -77c-4 -20 -7 -40 -7 -60c0 -53 17 -106 85 -106c64 0 112 49 143 130l26 -12c-11 -30 -25 -57 -42 -80zM77 220c73 19 129 36 176 65c44 27 75 64 75 101c0 29 -19 44 -51 44
c-35 0 -70 -20 -101 -49c-43 -39 -79 -98 -99 -161z" />
    <glyph glyph-name="gbreve" unicode="&#x11f;" horiz-adv-x="462" 
d="M191 148c80 0 150 79 150 177c0 59 -25 107 -90 107c-80 0 -150 -79 -150 -177c0 -59 25 -107 90 -107zM378 -146c0 -99 -92 -144 -208 -144c-160 0 -205 83 -205 150c0 56 31 93 58 106l21 -19c-25 -13 -45 -49 -45 -86c0 -54 37 -123 172 -123c92 0 173 33 173 115
c0 47 -26 67 -82 86c-41 15 -86 24 -131 43c-47 20 -73 42 -73 82s26 63 57 78c-31 23 -48 60 -48 113c0 122 91 205 185 205c41 0 73 -14 96 -43c20 19 44 30 75 30s60 -12 60 -59c0 -11 -1 -22 -4 -35l-34 4c3 10 4 20 4 29c0 21 -10 32 -31 32s-40 -11 -56 -26
c9 -17 13 -40 13 -67c0 -122 -91 -205 -187 -205c-18 0 -34 3 -49 9c-29 -15 -47 -35 -47 -62c0 -25 17 -38 53 -53c43 -19 95 -30 126 -41c73 -24 107 -54 107 -119zM285 579c51 0 85 37 98 100l29 -13c-16 -73 -61 -116 -129 -116s-109 44 -92 125h30
c-12 -60 13 -96 64 -96z" />
    <glyph glyph-name="gcircumflex" unicode="&#x11d;" horiz-adv-x="462" 
d="M191 148c80 0 150 79 150 177c0 59 -25 107 -90 107c-80 0 -150 -79 -150 -177c0 -59 25 -107 90 -107zM378 -146c0 -99 -92 -144 -208 -144c-160 0 -205 83 -205 150c0 56 31 93 58 106l21 -19c-25 -13 -45 -49 -45 -86c0 -54 37 -123 172 -123c92 0 173 33 173 115
c0 47 -26 67 -82 86c-41 15 -86 24 -131 43c-47 20 -73 42 -73 82s26 63 57 78c-31 23 -48 60 -48 113c0 122 91 205 185 205c41 0 73 -14 96 -43c20 19 44 30 75 30s60 -12 60 -59c0 -11 -1 -22 -4 -35l-34 4c3 10 4 20 4 29c0 21 -10 32 -31 32s-40 -11 -56 -26
c9 -17 13 -40 13 -67c0 -122 -91 -205 -187 -205c-18 0 -34 3 -49 9c-29 -15 -47 -35 -47 -62c0 -25 17 -38 53 -53c43 -19 95 -30 126 -41c73 -24 107 -54 107 -119zM346 541l-38 141l-110 -142l-23 20l130 164h24l47 -170z" />
    <glyph glyph-name="uni0123" unicode="&#x123;" horiz-adv-x="462" 
d="M191 148c80 0 150 79 150 177c0 59 -25 107 -90 107c-80 0 -150 -79 -150 -177c0 -59 25 -107 90 -107zM378 -146c0 -99 -92 -144 -208 -144c-160 0 -205 83 -205 150c0 56 31 93 58 106l21 -19c-25 -13 -45 -49 -45 -86c0 -54 37 -123 172 -123c92 0 173 33 173 115
c0 47 -26 67 -82 86c-41 15 -86 24 -131 43c-47 20 -73 42 -73 82s26 63 57 78c-31 23 -48 60 -48 113c0 122 91 205 185 205c41 0 73 -14 96 -43c20 19 44 30 75 30s60 -12 60 -59c0 -11 -1 -22 -4 -35l-34 4c3 10 4 20 4 29c0 21 -10 32 -31 32s-40 -11 -56 -26
c9 -17 13 -40 13 -67c0 -122 -91 -205 -187 -205c-18 0 -34 3 -49 9c-29 -15 -47 -35 -47 -62c0 -25 17 -38 53 -53c43 -19 95 -30 126 -41c73 -24 107 -54 107 -119zM329 560l7 -26c-3 -2 -6 -4 -10 -5c-7 -3 -17 -4 -29 -4c-33 0 -68 17 -68 68c0 59 42 102 126 141
l11 -26c-67 -31 -103 -71 -103 -114c0 -24 12 -41 39 -41c7 0 14 1 19 3z" />
    <glyph glyph-name="gdotaccent" unicode="&#x121;" horiz-adv-x="462" 
d="M191 148c80 0 150 79 150 177c0 59 -25 107 -90 107c-80 0 -150 -79 -150 -177c0 -59 25 -107 90 -107zM378 -146c0 -99 -92 -144 -208 -144c-160 0 -205 83 -205 150c0 56 31 93 58 106l21 -19c-25 -13 -45 -49 -45 -86c0 -54 37 -123 172 -123c92 0 173 33 173 115
c0 47 -26 67 -82 86c-41 15 -86 24 -131 43c-47 20 -73 42 -73 82s26 63 57 78c-31 23 -48 60 -48 113c0 122 91 205 185 205c41 0 73 -14 96 -43c20 19 44 30 75 30s60 -12 60 -59c0 -11 -1 -22 -4 -35l-34 4c3 10 4 20 4 29c0 21 -10 32 -31 32s-40 -11 -56 -26
c9 -17 13 -40 13 -67c0 -122 -91 -205 -187 -205c-18 0 -34 3 -49 9c-29 -15 -47 -35 -47 -62c0 -25 17 -38 53 -53c43 -19 95 -30 126 -41c73 -24 107 -54 107 -119zM300 625c-19 0 -31 12 -31 31c0 17 12 31 31 31c17 0 31 -14 31 -31c0 -19 -14 -31 -31 -31z" />
    <glyph glyph-name="hbar" unicode="&#x127;" horiz-adv-x="484" 
d="M397 48c-27 -39 -51 -58 -82 -58s-53 18 -53 61c0 21 6 48 13 77c20 72 44 137 57 193c7 28 12 51 12 70c0 23 -11 39 -42 39c-24 0 -46 -11 -69 -27c-59 -45 -103 -134 -111 -157l-84 -246h-35l204 595h-86l8 27h87l27 79l-90 -5l11 28l124 6l-37 -108h133l-8 -27h-135
l-81 -236c49 73 97 101 146 101c48 0 74 -28 74 -69c0 -19 -5 -44 -13 -75c-15 -61 -40 -133 -59 -196c-7 -25 -11 -48 -11 -67c0 -22 7 -33 22 -33c19 0 37 18 54 45c19 29 36 67 55 106l28 -12c-23 -47 -40 -84 -59 -111z" />
    <glyph glyph-name="hcircumflex" unicode="&#x125;" horiz-adv-x="484" 
d="M315 -10c-31 0 -53 18 -53 61c0 21 6 48 13 77c20 72 44 137 57 193c7 28 12 51 12 70c0 23 -11 39 -42 39c-24 0 -46 -11 -69 -27c-59 -45 -103 -134 -111 -157l-84 -246h-35l240 701l-90 -5l11 28l124 6l-128 -371c49 73 97 101 146 101c48 0 74 -28 74 -69
c0 -19 -5 -44 -13 -75c-15 -61 -40 -133 -59 -196c-7 -25 -11 -48 -11 -67c0 -22 7 -33 22 -33c19 0 37 18 54 45c19 29 36 67 55 106l28 -12c-23 -47 -40 -84 -59 -111c-27 -39 -51 -58 -82 -58zM455 776l-66 116l-124 -118l-18 22l138 132h19l78 -139z" />
    <glyph glyph-name="ibreve" unicode="&#x12d;" horiz-adv-x="300" 
d="M191 402c0 19 -7 28 -20 28c-41 0 -82 -87 -109 -146l-28 12c49 112 90 164 141 164c28 0 52 -17 52 -56c0 -24 -11 -59 -24 -95c-23 -59 -45 -113 -70 -174c-12 -28 -21 -56 -21 -79c0 -21 7 -36 26 -36c42 0 79 79 111 151l26 -12c-51 -113 -85 -169 -140 -169
c-35 0 -58 23 -58 64c0 27 10 59 23 91c23 60 49 113 70 172c12 33 21 64 21 85zM213 579c51 0 85 37 98 100l29 -13c-16 -73 -61 -116 -129 -116s-109 44 -92 125h30c-12 -60 13 -96 64 -96z" />
    <glyph glyph-name="idotaccent" horiz-adv-x="300" 
d="M230 625c-19 0 -31 12 -31 31c0 17 12 31 31 31c17 0 31 -14 31 -31c0 -19 -14 -31 -31 -31zM191 402c0 19 -7 28 -20 28c-41 0 -82 -87 -109 -146l-28 12c49 112 90 164 141 164c28 0 52 -17 52 -56c0 -24 -11 -59 -24 -95c-23 -59 -45 -113 -70 -174
c-12 -28 -21 -56 -21 -79c0 -21 7 -36 26 -36c42 0 79 79 111 151l26 -12c-51 -113 -85 -169 -140 -169c-35 0 -58 23 -58 64c0 27 10 59 23 91c23 60 49 113 70 172c12 33 21 64 21 85z" />
    <glyph glyph-name="imacron" unicode="&#x12b;" horiz-adv-x="300" 
d="M282 618l-8 -27h-187l8 27h187zM191 402c0 19 -7 28 -20 28c-41 0 -82 -87 -109 -146l-28 12c49 112 90 164 141 164c28 0 52 -17 52 -56c0 -24 -11 -59 -24 -95c-23 -59 -45 -113 -70 -174c-12 -28 -21 -56 -21 -79c0 -21 7 -36 26 -36c42 0 79 79 111 151l26 -12
c-51 -113 -85 -169 -140 -169c-35 0 -58 23 -58 64c0 27 10 59 23 91c23 60 49 113 70 172c12 33 21 64 21 85z" />
    <glyph glyph-name="iogonek" unicode="&#x12f;" horiz-adv-x="300" 
d="M230 625c-19 0 -31 12 -31 31c0 17 12 31 31 31c17 0 31 -14 31 -31c0 -19 -14 -31 -31 -31zM72 -286c-53 0 -81 33 -81 78c0 74 69 143 133 199h-2c-28 5 -45 27 -45 63c0 25 9 54 20 83c27 68 59 135 80 199c8 27 14 49 14 66c0 19 -7 28 -20 28
c-41 0 -82 -87 -109 -146l-28 12c49 112 90 164 141 164c28 0 52 -17 52 -56c0 -19 -7 -45 -16 -72c-23 -68 -52 -132 -81 -204c-11 -25 -18 -51 -18 -72s7 -36 26 -36c42 0 79 79 111 151l26 -12c-23 -49 -41 -86 -60 -115c-23 -35 -54 -53 -82 -80
c-59 -55 -106 -112 -106 -172c0 -25 10 -50 46 -50c35 0 60 23 76 69l27 -12c-20 -60 -57 -85 -104 -85z" />
    <glyph glyph-name="itilde" unicode="&#x129;" horiz-adv-x="300" 
d="M191 402c0 19 -7 28 -20 28c-41 0 -82 -87 -109 -146l-28 12c49 112 90 164 141 164c28 0 52 -17 52 -56c0 -24 -11 -59 -24 -95c-23 -59 -45 -113 -70 -174c-12 -28 -21 -56 -21 -79c0 -21 7 -36 26 -36c42 0 79 79 111 151l26 -12c-51 -113 -85 -169 -140 -169
c-35 0 -58 23 -58 64c0 27 10 59 23 91c23 60 49 113 70 172c12 33 21 64 21 85zM275 598c23 0 46 14 69 57l24 -17c-27 -51 -58 -70 -93 -70c-48 0 -88 45 -128 45c-27 0 -49 -15 -72 -58l-24 17c29 53 59 71 96 71c54 0 91 -45 128 -45z" />
    <glyph glyph-name="jcircumflex" unicode="&#x135;" horiz-adv-x="238" 
d="M32 -64c16 49 101 312 121 371c12 39 21 69 21 96c0 18 -7 27 -22 27c-47 0 -81 -102 -97 -140l-27 12c32 74 64 158 127 158c31 0 55 -17 55 -56c0 -31 -10 -62 -25 -105l-121 -371c-53 -147 -106 -176 -168 -176c-61 0 -93 32 -93 79c0 12 2 22 5 30c1 4 3 8 5 11
l31 -4l-4 -11c-2 -7 -3 -15 -3 -24c0 -31 20 -51 59 -51c56 0 95 41 136 154zM262 541l-38 141l-110 -142l-23 20l130 164h24l47 -170z" />
    <glyph glyph-name="uni0137" unicode="&#x137;" horiz-adv-x="418" 
d="M258 366c-29 -27 -68 -63 -101 -104c8 5 17 7 26 7c43 0 53 -19 66 -111l12 -86c4 -31 15 -50 46 -50c24 0 40 13 59 36l21 -18c-25 -31 -43 -48 -82 -48c-36 0 -67 16 -75 73l-13 89c-8 52 -8 91 -45 91c-18 0 -36 -12 -54 -37c-15 -21 -21 -39 -38 -87l-42 -121h-35
l242 702l-96 -5l11 28l130 6l-170 -480c39 51 84 104 120 137c57 53 94 72 133 72c43 0 59 -23 59 -51c0 -19 -9 -32 -17 -41c-5 -5 -11 -10 -17 -13l-19 19l9 8c5 5 10 13 10 24c0 13 -7 24 -30 24c-31 0 -59 -17 -110 -64zM86 -85l-7 26c15 7 29 9 42 9
c33 0 64 -16 64 -67c0 -61 -45 -105 -126 -142l-11 26c65 31 103 69 103 114c0 24 -11 41 -34 41c-10 0 -20 -2 -31 -7z" />
    <glyph glyph-name="lacute" unicode="&#x13a;" horiz-adv-x="254" 
d="M79 225l165 487l-91 -5l11 28l124 6l-176 -527c-16 -49 -49 -127 -49 -164c0 -20 8 -30 25 -30c46 0 85 101 106 148l27 -11c-37 -85 -73 -167 -138 -167c-33 0 -55 19 -55 56c0 45 33 127 51 179zM379 943l22 -22l-134 -148l-22 22z" />
    <glyph glyph-name="lcaron" unicode="&#x13e;" horiz-adv-x="254" 
d="M403 731l-86 -171l-30 12l86 170zM79 225l165 487l-91 -5l11 28l124 6l-176 -527c-16 -49 -49 -127 -49 -164c0 -20 8 -30 25 -30c46 0 85 101 106 148l27 -11c-37 -85 -73 -167 -138 -167c-33 0 -55 19 -55 56c0 45 33 127 51 179z" />
    <glyph glyph-name="uni013C" unicode="&#x13c;" horiz-adv-x="254" 
d="M79 225l165 487l-91 -5l11 28l124 6l-176 -527c-16 -49 -49 -127 -49 -164c0 -20 8 -30 25 -30c46 0 85 101 106 148l27 -11c-37 -85 -73 -167 -138 -167c-33 0 -55 19 -55 56c0 45 33 127 51 179zM18 -85l-7 26c15 7 29 9 42 9c33 0 64 -16 64 -67
c0 -61 -45 -105 -126 -142l-11 26c65 31 103 69 103 114c0 24 -11 41 -34 41c-10 0 -20 -2 -31 -7z" />
    <glyph glyph-name="ldot" unicode="&#x140;" horiz-adv-x="288" 
d="M79 225l165 487l-91 -5l11 28l124 6l-176 -527c-16 -49 -49 -127 -49 -164c0 -20 8 -30 25 -30c46 0 85 101 106 148l27 -11c-37 -85 -73 -167 -138 -167c-33 0 -55 19 -55 56c0 45 33 127 51 179zM286 330c-16 0 -31 12 -31 31s15 31 31 31s31 -12 31 -31
s-15 -31 -31 -31z" />
    <glyph glyph-name="nacute" unicode="&#x144;" horiz-adv-x="547" 
d="M497 171l28 -12c-19 -40 -35 -71 -51 -98c-29 -48 -55 -71 -90 -71c-31 0 -53 18 -53 61c0 23 6 50 14 81c19 68 42 134 57 191c7 28 11 51 11 68c0 23 -11 39 -42 39c-23 0 -45 -10 -66 -25c-61 -45 -106 -135 -114 -159l-84 -246h-35l78 228c31 87 42 137 42 168
c0 25 -8 34 -23 34c-11 0 -23 -6 -36 -19c-29 -29 -55 -84 -74 -127l-28 12c28 64 54 108 81 135c19 19 40 29 63 29c32 0 48 -19 48 -57c0 -20 -4 -44 -12 -73c25 43 51 75 77 96c29 24 58 34 87 34c48 0 74 -28 74 -69c0 -19 -5 -43 -12 -72c-16 -61 -40 -133 -59 -197
c-7 -27 -12 -50 -12 -69c0 -22 7 -33 22 -33c21 0 41 23 61 55c16 28 32 61 48 96zM419 746l26 -20l-142 -187l-26 20z" />
    <glyph glyph-name="napostrophe" unicode="&#x149;" horiz-adv-x="547" 
d="M497 171l28 -12c-19 -40 -35 -71 -51 -98c-29 -48 -55 -71 -90 -71c-31 0 -53 18 -53 61c0 23 6 50 14 81c19 68 42 134 57 191c7 28 11 51 11 68c0 23 -11 39 -42 39c-23 0 -45 -10 -66 -25c-61 -45 -106 -135 -114 -159l-84 -246h-35l78 228c31 87 42 137 42 168
c0 25 -8 34 -23 34c-11 0 -23 -6 -36 -19c-29 -29 -55 -84 -74 -127l-28 12c28 64 54 108 81 135c19 19 40 29 63 29c32 0 48 -19 48 -57c0 -20 -4 -44 -12 -73c25 43 51 75 77 96c29 24 58 34 87 34c48 0 74 -28 74 -69c0 -19 -5 -43 -12 -72c-16 -61 -40 -133 -59 -197
c-7 -27 -12 -50 -12 -69c0 -22 7 -33 22 -33c21 0 41 23 61 55c16 28 32 61 48 96zM77 686l-8 28c11 5 24 7 39 7c36 0 77 -19 77 -78c0 -76 -58 -130 -138 -165l-15 25c72 36 117 81 117 138c0 37 -20 50 -48 50c-9 0 -17 -2 -24 -5z" />
    <glyph glyph-name="ncaron" unicode="&#x148;" horiz-adv-x="547" 
d="M497 171l28 -12c-19 -40 -35 -71 -51 -98c-29 -48 -55 -71 -90 -71c-31 0 -53 18 -53 61c0 23 6 50 14 81c19 68 42 134 57 191c7 28 11 51 11 68c0 23 -11 39 -42 39c-23 0 -45 -10 -66 -25c-61 -45 -106 -135 -114 -159l-84 -246h-35l78 228c31 87 42 137 42 168
c0 25 -8 34 -23 34c-11 0 -23 -6 -36 -19c-29 -29 -55 -84 -74 -127l-28 12c28 64 54 108 81 135c19 19 40 29 63 29c32 0 48 -19 48 -57c0 -20 -4 -44 -12 -73c25 43 51 75 77 96c29 24 58 34 87 34c48 0 74 -28 74 -69c0 -19 -5 -43 -12 -72c-16 -61 -40 -133 -59 -197
c-7 -27 -12 -50 -12 -69c0 -22 7 -33 22 -33c21 0 41 23 61 55c16 28 32 61 48 96zM323 554h-24l-47 170l30 13l38 -141l110 142l23 -20z" />
    <glyph glyph-name="uni0146" unicode="&#x146;" horiz-adv-x="547" 
d="M497 171l28 -12c-19 -40 -35 -71 -51 -98c-29 -48 -55 -71 -90 -71c-31 0 -53 18 -53 61c0 23 6 50 14 81c19 68 42 134 57 191c7 28 11 51 11 68c0 23 -11 39 -42 39c-23 0 -45 -10 -66 -25c-61 -45 -106 -135 -114 -159l-84 -246h-35l78 228c31 87 42 137 42 168
c0 25 -8 34 -23 34c-11 0 -23 -6 -36 -19c-29 -29 -55 -84 -74 -127l-28 12c28 64 54 108 81 135c19 19 40 29 63 29c32 0 48 -19 48 -57c0 -20 -4 -44 -12 -73c25 43 51 75 77 96c29 24 58 34 87 34c48 0 74 -28 74 -69c0 -19 -5 -43 -12 -72c-16 -61 -40 -133 -59 -197
c-7 -27 -12 -50 -12 -69c0 -22 7 -33 22 -33c21 0 41 23 61 55c16 28 32 61 48 96zM149 -85l-7 26c15 7 29 9 42 9c33 0 64 -16 64 -67c0 -61 -45 -105 -126 -142l-11 26c65 31 103 69 103 114c0 24 -11 41 -34 41c-10 0 -20 -2 -31 -7z" />
    <glyph glyph-name="obreve" unicode="&#x14f;" horiz-adv-x="410" 
d="M260 460c80 0 125 -55 125 -143c0 -136 -87 -327 -235 -327c-80 0 -125 55 -125 143c0 136 87 327 235 327zM150 18c44 0 80 22 111 55c56 64 88 165 88 244c0 64 -24 115 -89 115c-39 0 -71 -15 -99 -42c-64 -61 -100 -174 -100 -257c0 -64 22 -115 89 -115zM294 579
c51 0 85 37 98 100l29 -13c-16 -73 -61 -116 -129 -116s-109 44 -92 125h30c-12 -60 13 -96 64 -96z" />
    <glyph glyph-name="ohungarumlaut" unicode="&#x151;" horiz-adv-x="410" 
d="M260 460c80 0 125 -55 125 -143c0 -136 -87 -327 -235 -327c-80 0 -125 55 -125 143c0 136 87 327 235 327zM150 18c44 0 80 22 111 55c56 64 88 165 88 244c0 64 -24 115 -89 115c-39 0 -71 -15 -99 -42c-64 -61 -100 -174 -100 -257c0 -64 22 -115 89 -115zM345 722
l-119 -181l-25 17l119 181zM483 722l-119 -181l-25 17l119 181z" />
    <glyph glyph-name="omacron" unicode="&#x14d;" horiz-adv-x="410" 
d="M260 460c80 0 125 -55 125 -143c0 -136 -87 -327 -235 -327c-80 0 -125 55 -125 143c0 136 87 327 235 327zM150 18c44 0 80 22 111 55c56 64 88 165 88 244c0 64 -24 115 -89 115c-39 0 -71 -15 -99 -42c-64 -61 -100 -174 -100 -257c0 -64 22 -115 89 -115zM413 651
l-8 -30h-222l8 30h222z" />
    <glyph glyph-name="oslashacute" unicode="&#x1ff;" horiz-adv-x="410" 
d="M385 746l26 -20l-142 -187l-26 20zM161 390c-64 -61 -100 -174 -100 -257c0 -28 4 -54 15 -74l233 360c-14 9 -30 13 -49 13c-39 0 -71 -15 -99 -42zM150 18c44 0 80 22 111 55c56 64 88 165 88 244c0 31 -5 59 -18 80l-235 -362c15 -11 33 -17 54 -17zM385 317
c0 -136 -87 -327 -235 -327c-27 0 -50 6 -70 19l-36 -55l-25 17l38 58c-21 25 -32 60 -32 104c0 136 87 327 235 327c24 0 46 -5 65 -16l32 49l25 -17l-33 -51c24 -25 36 -61 36 -108z" />
    <glyph glyph-name="racute" unicode="&#x155;" horiz-adv-x="390" 
d="M107 0h-35l83 242c25 71 37 123 37 154c0 25 -8 34 -23 34c-12 0 -23 -6 -34 -17c-29 -29 -57 -87 -76 -129l-28 12c29 67 57 113 84 138c19 17 39 26 60 26c33 0 49 -19 49 -58c0 -17 -4 -40 -11 -68c20 39 40 71 71 98c27 23 46 28 67 28c35 0 56 -16 59 -72l-33 -5
c-1 29 -4 47 -28 47c-15 0 -31 -6 -47 -19c-51 -43 -91 -103 -114 -172zM365 746l26 -20l-142 -187l-26 20z" />
    <glyph glyph-name="rcaron" unicode="&#x159;" horiz-adv-x="390" 
d="M107 0h-35l83 242c25 71 37 123 37 154c0 25 -8 34 -23 34c-12 0 -23 -6 -34 -17c-29 -29 -57 -87 -76 -129l-28 12c29 67 57 113 84 138c19 17 39 26 60 26c33 0 49 -19 49 -58c0 -17 -4 -40 -11 -68c20 39 40 71 71 98c27 23 46 28 67 28c35 0 56 -16 59 -72l-33 -5
c-1 29 -4 47 -28 47c-15 0 -31 -6 -47 -19c-51 -43 -91 -103 -114 -172zM269 554h-24l-47 170l30 13l38 -141l110 142l23 -20z" />
    <glyph glyph-name="uni0157" unicode="&#x157;" horiz-adv-x="390" 
d="M107 0h-35l83 242c25 71 37 123 37 154c0 25 -8 34 -23 34c-12 0 -23 -6 -34 -17c-29 -29 -57 -87 -76 -129l-28 12c29 67 57 113 84 138c19 17 39 26 60 26c33 0 49 -19 49 -58c0 -17 -4 -40 -11 -68c20 39 40 71 71 98c27 23 46 28 67 28c35 0 56 -16 59 -72l-33 -5
c-1 29 -4 47 -28 47c-15 0 -31 -6 -47 -19c-51 -43 -91 -103 -114 -172zM13 -85l-7 26c15 7 29 9 42 9c33 0 64 -16 64 -67c0 -61 -45 -105 -126 -142l-11 26c65 31 103 69 103 114c0 24 -11 41 -34 41c-10 0 -20 -2 -31 -7z" />
    <glyph glyph-name="sacute" unicode="&#x15b;" horiz-adv-x="316" 
d="M321 375l-32 -5c-6 41 -26 62 -60 62c-40 0 -62 -28 -62 -79c0 -31 12 -61 27 -109c19 -62 31 -89 31 -132c0 -88 -55 -122 -119 -122c-68 0 -114 37 -121 110l32 4c7 -52 38 -86 90 -86c45 0 85 28 85 95c0 36 -14 64 -31 119c-16 51 -29 85 -29 121c0 77 46 107 98 107
c49 0 83 -26 91 -85zM360 746l26 -20l-142 -187l-26 20z" />
    <glyph glyph-name="uni015F" unicode="&#x15f;" horiz-adv-x="316" 
d="M35 -251c-25 0 -54 6 -81 26l15 23c23 -19 43 -21 66 -21c55 0 83 30 83 69c0 32 -18 47 -49 47c-15 0 -29 -5 -42 -15l-15 18l55 99c-47 12 -75 46 -82 105l32 4c7 -52 38 -86 90 -86c45 0 85 28 85 95c0 36 -14 64 -31 119c-16 51 -29 85 -29 121c0 77 46 107 98 107
c49 0 83 -26 91 -85l-32 -5c-6 41 -26 62 -60 62c-40 0 -62 -28 -62 -79c0 -31 12 -61 27 -109c19 -62 31 -89 31 -132c0 -88 -55 -122 -119 -122h-9l-41 -75c7 3 13 4 24 4c32 0 71 -16 71 -72c0 -57 -43 -98 -116 -98z" />
    <glyph glyph-name="scircumflex" unicode="&#x15d;" horiz-adv-x="316" 
d="M321 375l-32 -5c-6 41 -26 62 -60 62c-40 0 -62 -28 -62 -79c0 -31 12 -61 27 -109c19 -62 31 -89 31 -132c0 -88 -55 -122 -119 -122c-68 0 -114 37 -121 110l32 4c7 -52 38 -86 90 -86c45 0 85 28 85 95c0 36 -14 64 -31 119c-16 51 -29 85 -29 121c0 77 46 107 98 107
c49 0 83 -26 91 -85zM329 541l-38 141l-110 -142l-23 20l130 164h24l47 -170z" />
    <glyph glyph-name="uni0219" unicode="&#x219;" horiz-adv-x="316" 
d="M321 375l-32 -5c-6 41 -26 62 -60 62c-40 0 -62 -28 -62 -79c0 -31 12 -61 27 -109c19 -62 31 -89 31 -132c0 -88 -55 -122 -119 -122c-68 0 -114 37 -121 110l32 4c7 -52 38 -86 90 -86c45 0 85 28 85 95c0 36 -14 64 -31 119c-16 51 -29 85 -29 121c0 77 46 107 98 107
c49 0 83 -26 91 -85zM32 -85l-7 26c15 7 29 9 42 9c33 0 64 -16 64 -67c0 -61 -45 -105 -126 -142l-11 26c65 31 103 69 103 114c0 24 -11 41 -34 41c-10 0 -20 -2 -31 -7z" />
    <glyph glyph-name="tbar" unicode="&#x167;" horiz-adv-x="299" 
d="M180 21c-23 -21 -48 -31 -76 -31c-42 0 -63 22 -63 66c0 20 5 43 14 71l61 178h-68l9 27h68l31 89h-76l9 29h77c25 72 47 129 55 156l35 -4l-55 -152h100l-9 -29h-102l-30 -89h112l-9 -27h-112l-61 -178c-9 -29 -14 -52 -14 -68c0 -26 11 -39 33 -39c19 0 36 8 53 25
c28 27 52 71 73 123l27 -12c-24 -60 -50 -106 -82 -135z" />
    <glyph glyph-name="tcaron" unicode="&#x165;" horiz-adv-x="299" 
d="M406 731l-86 -171l-30 12l86 170zM235 168l27 -12c-24 -60 -50 -106 -82 -135c-23 -21 -48 -31 -76 -31c-42 0 -63 22 -63 66c0 20 5 43 14 71l101 294h-76l9 29h77c25 72 47 129 55 156l35 -4l-55 -152h100l-9 -29h-102l-100 -294c-9 -29 -14 -52 -14 -68
c0 -26 11 -39 33 -39c19 0 36 8 53 25c28 27 52 71 73 123z" />
    <glyph glyph-name="tcommaaccent" unicode="&#x163;" horiz-adv-x="299" 
d="M235 168l27 -12c-24 -60 -50 -106 -82 -135c-23 -21 -48 -31 -76 -31c-42 0 -63 22 -63 66c0 20 5 43 14 71l101 294h-76l9 29h77c25 72 47 129 55 156l35 -4l-55 -152h100l-9 -29h-102l-100 -294c-9 -29 -14 -52 -14 -68c0 -26 11 -39 33 -39c19 0 36 8 53 25
c28 27 52 71 73 123zM36 -85l-7 26c15 7 29 9 42 9c33 0 64 -16 64 -67c0 -61 -45 -105 -126 -142l-11 26c65 31 103 69 103 114c0 24 -11 41 -34 41c-10 0 -20 -2 -31 -7z" />
    <glyph glyph-name="uni021B" unicode="&#x21b;" horiz-adv-x="299" 
d="M235 168l27 -12c-24 -60 -50 -106 -82 -135c-23 -21 -48 -31 -76 -31c-42 0 -63 22 -63 66c0 20 5 43 14 71l101 294h-76l9 29h77c25 72 47 129 55 156l35 -4l-55 -152h100l-9 -29h-102l-100 -294c-9 -29 -14 -52 -14 -68c0 -26 11 -39 33 -39c19 0 36 8 53 25
c28 27 52 71 73 123zM36 -85l-7 26c15 7 29 9 42 9c33 0 64 -16 64 -67c0 -61 -45 -105 -126 -142l-11 26c65 31 103 69 103 114c0 24 -11 41 -34 41c-10 0 -20 -2 -31 -7z" />
    <glyph glyph-name="ubreve" unicode="&#x16d;" horiz-adv-x="532" 
d="M482 171l27 -12c-23 -55 -43 -94 -66 -122c-25 -31 -51 -47 -79 -47c-33 0 -49 19 -49 58c0 17 3 39 10 64c-41 -76 -99 -122 -159 -122c-38 0 -77 17 -77 73c0 23 5 51 16 83c19 72 55 157 71 203c5 16 10 36 10 53c0 16 -5 28 -20 28c-11 0 -23 -6 -34 -17
c-29 -29 -57 -87 -76 -129l-28 12c29 67 57 113 84 138c18 17 38 26 60 26c36 0 50 -23 50 -56c0 -19 -5 -42 -13 -66c-16 -48 -51 -132 -70 -200c-9 -29 -14 -53 -14 -72c0 -31 14 -46 43 -46c37 0 72 25 103 60c39 43 65 95 76 124l84 246h35l-79 -228
c-29 -84 -40 -135 -40 -166c0 -27 8 -36 23 -36c17 0 35 14 51 37c23 31 45 75 61 114zM311 579c51 0 85 37 98 100l29 -13c-16 -73 -61 -116 -129 -116s-109 44 -92 125h30c-12 -60 13 -96 64 -96z" />
    <glyph glyph-name="uhungarumlaut" unicode="&#x171;" horiz-adv-x="532" 
d="M482 171l27 -12c-23 -55 -43 -94 -66 -122c-25 -31 -51 -47 -79 -47c-33 0 -49 19 -49 58c0 17 3 39 10 64c-41 -76 -99 -122 -159 -122c-38 0 -77 17 -77 73c0 23 5 51 16 83c19 72 55 157 71 203c5 16 10 36 10 53c0 16 -5 28 -20 28c-11 0 -23 -6 -34 -17
c-29 -29 -57 -87 -76 -129l-28 12c29 67 57 113 84 138c18 17 38 26 60 26c36 0 50 -23 50 -56c0 -19 -5 -42 -13 -66c-16 -48 -51 -132 -70 -200c-9 -29 -14 -53 -14 -72c0 -31 14 -46 43 -46c37 0 72 25 103 60c39 43 65 95 76 124l84 246h35l-79 -228
c-29 -84 -40 -135 -40 -166c0 -27 8 -36 23 -36c17 0 35 14 51 37c23 31 45 75 61 114zM362 722l-119 -181l-25 17l119 181zM500 722l-119 -181l-25 17l119 181z" />
    <glyph glyph-name="umacron" unicode="&#x16b;" horiz-adv-x="532" 
d="M482 171l27 -12c-23 -55 -43 -94 -66 -122c-25 -31 -51 -47 -79 -47c-33 0 -49 19 -49 58c0 17 3 39 10 64c-41 -76 -99 -122 -159 -122c-38 0 -77 17 -77 73c0 23 5 51 16 83c19 72 55 157 71 203c5 16 10 36 10 53c0 16 -5 28 -20 28c-11 0 -23 -6 -34 -17
c-29 -29 -57 -87 -76 -129l-28 12c29 67 57 113 84 138c18 17 38 26 60 26c36 0 50 -23 50 -56c0 -19 -5 -42 -13 -66c-16 -48 -51 -132 -70 -200c-9 -29 -14 -53 -14 -72c0 -31 14 -46 43 -46c37 0 72 25 103 60c39 43 65 95 76 124l84 246h35l-79 -228
c-29 -84 -40 -135 -40 -166c0 -27 8 -36 23 -36c17 0 35 14 51 37c23 31 45 75 61 114zM430 651l-8 -30h-222l8 30h222z" />
    <glyph glyph-name="uogonek" unicode="&#x173;" horiz-adv-x="532" 
d="M379 -189l27 -12c-20 -60 -57 -85 -104 -85c-53 0 -81 33 -81 78c0 74 70 143 136 198h-2c-27 4 -40 23 -40 58c0 19 3 39 10 64c-41 -76 -99 -122 -159 -122c-38 0 -77 17 -77 73c0 20 5 46 14 77c19 73 57 160 73 209c5 16 10 36 10 53c0 16 -5 28 -20 28
c-11 0 -23 -6 -34 -17c-29 -29 -57 -85 -76 -129l-28 12c31 68 56 112 85 139c17 17 37 25 59 25c36 0 50 -23 50 -56c0 -19 -5 -42 -13 -66c-16 -50 -54 -139 -73 -208c-7 -26 -11 -47 -11 -64c0 -31 14 -46 43 -46c35 0 70 22 99 53c41 43 69 101 80 131l84 246h35
l-79 -228c-29 -84 -40 -135 -40 -166c0 -27 8 -36 23 -36c17 0 34 13 50 36c24 31 45 76 62 115l27 -12c-24 -57 -46 -99 -69 -126c-31 -35 -66 -58 -97 -89c-48 -48 -86 -100 -86 -152c0 -25 10 -50 46 -50c35 0 60 23 76 69z" />
    <glyph glyph-name="uring" unicode="&#x16f;" horiz-adv-x="532" 
d="M482 171l27 -12c-23 -55 -43 -94 -66 -122c-25 -31 -51 -47 -79 -47c-33 0 -49 19 -49 58c0 17 3 39 10 64c-41 -76 -99 -122 -159 -122c-38 0 -77 17 -77 73c0 23 5 51 16 83c19 72 55 157 71 203c5 16 10 36 10 53c0 16 -5 28 -20 28c-11 0 -23 -6 -34 -17
c-29 -29 -57 -87 -76 -129l-28 12c29 67 57 113 84 138c18 17 38 26 60 26c36 0 50 -23 50 -56c0 -19 -5 -42 -13 -66c-16 -48 -51 -132 -70 -200c-9 -29 -14 -53 -14 -72c0 -31 14 -46 43 -46c37 0 72 25 103 60c39 43 65 95 76 124l84 246h35l-79 -228
c-29 -84 -40 -135 -40 -166c0 -27 8 -36 23 -36c17 0 35 14 51 37c23 31 45 75 61 114zM221 650c0 60 46 86 86 86s86 -26 86 -86s-46 -86 -86 -86s-86 26 -86 86zM251 650c0 -36 25 -60 56 -60s56 24 56 60s-25 60 -56 60s-56 -24 -56 -60z" />
    <glyph glyph-name="utilde" unicode="&#x169;" horiz-adv-x="532" 
d="M482 171l27 -12c-23 -55 -43 -94 -66 -122c-25 -31 -51 -47 -79 -47c-33 0 -49 19 -49 58c0 17 3 39 10 64c-41 -76 -99 -122 -159 -122c-38 0 -77 17 -77 73c0 23 5 51 16 83c19 72 55 157 71 203c5 16 10 36 10 53c0 16 -5 28 -20 28c-11 0 -23 -6 -34 -17
c-29 -29 -57 -87 -76 -129l-28 12c29 67 57 113 84 138c18 17 38 26 60 26c36 0 50 -23 50 -56c0 -19 -5 -42 -13 -66c-16 -48 -51 -132 -70 -200c-9 -29 -14 -53 -14 -72c0 -31 14 -46 43 -46c37 0 72 25 103 60c39 43 65 95 76 124l84 246h35l-79 -228
c-29 -84 -40 -135 -40 -166c0 -27 8 -36 23 -36c17 0 35 14 51 37c23 31 45 75 61 114zM373 598c23 0 46 14 69 57l24 -17c-27 -51 -58 -70 -93 -70c-48 0 -88 45 -128 45c-27 0 -49 -15 -72 -58l-24 17c29 53 59 71 96 71c54 0 91 -45 128 -45z" />
    <glyph glyph-name="wacute" unicode="&#x1e83;" horiz-adv-x="688" 
d="M416 -10c-43 0 -85 20 -98 96c-45 -60 -85 -96 -149 -96c-67 0 -103 40 -103 112c0 106 78 208 137 288c-1 -1 -3 -1 -6 -1c-15 0 -28 9 -41 18c-12 9 -24 18 -39 18c-35 0 -48 -44 -55 -108l-32 5c11 104 47 133 85 133c23 0 39 -12 55 -23c13 -11 25 -19 38 -19
c7 0 13 3 17 8c11 15 19 23 30 42l25 -17c-64 -93 -178 -222 -178 -345c0 -40 11 -81 68 -81c56 0 99 41 140 98c-1 61 4 118 17 171c20 81 55 140 100 140c19 0 37 -12 37 -48c0 -35 -12 -79 -35 -130c-20 -44 -48 -92 -83 -137c4 -63 28 -94 72 -94c56 0 105 44 142 108
c43 72 68 165 68 244c0 32 -4 53 -12 74l31 14c12 -27 16 -51 16 -84c0 -84 -25 -184 -72 -261c-43 -73 -103 -125 -175 -125zM433 374c0 14 -4 21 -12 21c-23 0 -44 -48 -61 -113c-11 -43 -18 -91 -21 -139c25 39 47 82 63 121c19 47 31 87 31 110zM568 746l26 -20
l-142 -187l-26 20z" />
    <glyph glyph-name="wcircumflex" unicode="&#x175;" horiz-adv-x="688" 
d="M416 -10c-43 0 -85 20 -98 96c-45 -60 -85 -96 -149 -96c-67 0 -103 40 -103 112c0 106 78 208 137 288c-1 -1 -3 -1 -6 -1c-15 0 -28 9 -41 18c-12 9 -24 18 -39 18c-35 0 -48 -44 -55 -108l-32 5c11 104 47 133 85 133c23 0 39 -12 55 -23c13 -11 25 -19 38 -19
c7 0 13 3 17 8c11 15 19 23 30 42l25 -17c-64 -93 -178 -222 -178 -345c0 -40 11 -81 68 -81c56 0 99 41 140 98c-1 61 4 118 17 171c20 81 55 140 100 140c19 0 37 -12 37 -48c0 -35 -12 -79 -35 -130c-20 -44 -48 -92 -83 -137c4 -63 28 -94 72 -94c56 0 105 44 142 108
c43 72 68 165 68 244c0 32 -4 53 -12 74l31 14c12 -27 16 -51 16 -84c0 -84 -25 -184 -72 -261c-43 -73 -103 -125 -175 -125zM433 374c0 14 -4 21 -12 21c-23 0 -44 -48 -61 -113c-11 -43 -18 -91 -21 -139c25 39 47 82 63 121c19 47 31 87 31 110zM537 541l-38 141
l-110 -142l-23 20l130 164h24l47 -170z" />
    <glyph glyph-name="wdieresis" unicode="&#x1e85;" horiz-adv-x="688" 
d="M416 -10c-43 0 -85 20 -98 96c-45 -60 -85 -96 -149 -96c-67 0 -103 40 -103 112c0 106 78 208 137 288c-1 -1 -3 -1 -6 -1c-15 0 -28 9 -41 18c-12 9 -24 18 -39 18c-35 0 -48 -44 -55 -108l-32 5c11 104 47 133 85 133c23 0 39 -12 55 -23c13 -11 25 -19 38 -19
c7 0 13 3 17 8c11 15 19 23 30 42l25 -17c-64 -93 -178 -222 -178 -345c0 -40 11 -81 68 -81c56 0 99 41 140 98c-1 61 4 118 17 171c20 81 55 140 100 140c19 0 37 -12 37 -48c0 -35 -12 -79 -35 -130c-20 -44 -48 -92 -83 -137c4 -63 28 -94 72 -94c56 0 105 44 142 108
c43 72 68 165 68 244c0 32 -4 53 -12 74l31 14c12 -27 16 -51 16 -84c0 -84 -25 -184 -72 -261c-43 -73 -103 -125 -175 -125zM433 374c0 14 -4 21 -12 21c-23 0 -44 -48 -61 -113c-11 -43 -18 -91 -21 -139c25 39 47 82 63 121c19 47 31 87 31 110zM348 625
c-19 0 -31 12 -31 31c0 17 12 31 31 31c17 0 31 -14 31 -31c0 -19 -14 -31 -31 -31zM540 625c-19 0 -31 12 -31 31c0 17 12 31 31 31c17 0 31 -14 31 -31c0 -19 -14 -31 -31 -31z" />
    <glyph glyph-name="wgrave" unicode="&#x1e81;" horiz-adv-x="688" 
d="M416 -10c-43 0 -85 20 -98 96c-45 -60 -85 -96 -149 -96c-67 0 -103 40 -103 112c0 106 78 208 137 288c-1 -1 -3 -1 -6 -1c-15 0 -28 9 -41 18c-12 9 -24 18 -39 18c-35 0 -48 -44 -55 -108l-32 5c11 104 47 133 85 133c23 0 39 -12 55 -23c13 -11 25 -19 38 -19
c7 0 13 3 17 8c11 15 19 23 30 42l25 -17c-64 -93 -178 -222 -178 -345c0 -40 11 -81 68 -81c56 0 99 41 140 98c-1 61 4 118 17 171c20 81 55 140 100 140c19 0 37 -12 37 -48c0 -35 -12 -79 -35 -130c-20 -44 -48 -92 -83 -137c4 -63 28 -94 72 -94c56 0 105 44 142 108
c43 72 68 165 68 244c0 32 -4 53 -12 74l31 14c12 -27 16 -51 16 -84c0 -84 -25 -184 -72 -261c-43 -73 -103 -125 -175 -125zM433 374c0 14 -4 21 -12 21c-23 0 -44 -48 -61 -113c-11 -43 -18 -91 -21 -139c25 39 47 82 63 121c19 47 31 87 31 110zM419 746l85 -193
l-31 -13l-85 193z" />
    <glyph glyph-name="ycircumflex" unicode="&#x177;" horiz-adv-x="428" 
d="M-81 -293l-11 27c88 36 186 117 273 228c15 71 22 164 22 251c0 72 -5 137 -18 176c-9 27 -23 41 -40 41c-48 0 -72 -91 -80 -168l-30 5c11 105 45 193 113 193c35 0 56 -24 69 -63c15 -44 20 -105 20 -173s-6 -140 -17 -207c86 132 149 263 149 372c0 21 -2 38 -5 49
l-5 16l34 9l6 -19c3 -12 6 -30 6 -53c0 -127 -91 -290 -194 -436c-86 -121 -201 -210 -292 -248zM354 541l-38 141l-110 -142l-23 20l130 164h24l47 -170z" />
    <glyph glyph-name="ygrave" unicode="&#x1ef3;" horiz-adv-x="428" 
d="M-81 -293l-11 27c88 36 186 117 273 228c15 71 22 164 22 251c0 72 -5 137 -18 176c-9 27 -23 41 -40 41c-48 0 -72 -91 -80 -168l-30 5c11 105 45 193 113 193c35 0 56 -24 69 -63c15 -44 20 -105 20 -173s-6 -140 -17 -207c86 132 149 263 149 372c0 21 -2 38 -5 49
l-5 16l34 9l6 -19c3 -12 6 -30 6 -53c0 -127 -91 -290 -194 -436c-86 -121 -201 -210 -292 -248zM235 746l85 -193l-31 -13l-85 193z" />
    <glyph glyph-name="zacute" unicode="&#x17a;" horiz-adv-x="370" 
d="M301 410l34 43l25 -16l-270 -327h2c31 0 53 -20 78 -47c19 -20 34 -43 65 -43c54 0 71 67 87 113l30 -8c-21 -61 -52 -135 -116 -135c-37 0 -62 25 -89 54c-19 20 -34 39 -59 39c-27 0 -33 -14 -46 -33l-46 -57l-21 20l278 338h-4c-28 0 -53 21 -77 44
c-15 13 -25 25 -44 25c-29 0 -39 -29 -46 -72l-29 8c9 60 30 94 73 94c27 0 45 -13 64 -32c21 -19 40 -40 65 -40c23 0 33 15 46 32zM340 746l26 -20l-142 -187l-26 20z" />
    <glyph glyph-name="zdotaccent" unicode="&#x17c;" horiz-adv-x="370" 
d="M301 410l34 43l25 -16l-270 -327h2c31 0 53 -20 78 -47c19 -20 34 -43 65 -43c54 0 71 67 87 113l30 -8c-21 -61 -52 -135 -116 -135c-37 0 -62 25 -89 54c-19 20 -34 39 -59 39c-27 0 -33 -14 -46 -33l-46 -57l-21 20l278 338h-4c-28 0 -53 21 -77 44
c-15 13 -25 25 -44 25c-29 0 -39 -29 -46 -72l-29 8c9 60 30 94 73 94c27 0 45 -13 64 -32c21 -19 40 -40 65 -40c23 0 33 15 46 32zM264 625c-19 0 -31 12 -31 31c0 17 12 31 31 31c17 0 31 -14 31 -31c0 -19 -14 -31 -31 -31z" />
    <glyph glyph-name="c_t" unicode="&#xe220;" horiz-adv-x="661" 
d="M597 168l27 -12c-24 -60 -50 -106 -83 -135c-23 -21 -48 -31 -75 -31c-42 0 -63 22 -63 66c0 20 5 43 14 71l101 294h-76l9 29h77l75 213c-23 -17 -60 -35 -125 -35c-79 0 -118 22 -180 22c-72 0 -107 -40 -107 -95c0 -61 42 -95 94 -95h1c59 0 102 -29 105 -93l-35 -2
c-3 45 -33 65 -72 65c-35 0 -69 -16 -101 -43c-67 -56 -122 -157 -122 -258c0 -55 18 -109 86 -109c64 0 112 48 140 132l28 -16c-31 -92 -91 -146 -170 -146c-80 0 -120 54 -120 138c0 118 60 226 139 287c17 13 37 24 58 33c-35 16 -67 48 -67 107c0 76 56 125 143 125
c65 0 103 -22 180 -22c89 0 119 28 144 61h37c-21 -56 -55 -153 -96 -269h100l-9 -29h-102l-100 -294c-9 -29 -14 -52 -14 -68c0 -26 11 -39 33 -39c19 0 36 8 53 25c28 27 52 71 73 123z" />
    <glyph glyph-name="s_t" unicode="&#xfb06;" horiz-adv-x="585" 
d="M522 168l27 -12c-20 -51 -43 -93 -70 -122c-26 -29 -55 -44 -88 -44c-42 0 -63 22 -63 66c0 20 5 43 14 71l101 294h-76l9 29h77l73 205c-19 -15 -51 -27 -104 -27c-69 0 -90 22 -138 22c-68 0 -95 -43 -95 -94c0 -32 9 -56 26 -71c33 -33 63 -26 84 -53
c12 -15 19 -34 22 -57l-32 -5c-6 41 -26 62 -60 62c-40 0 -62 -28 -62 -79c0 -31 12 -61 27 -109c19 -62 31 -89 31 -132c0 -88 -55 -122 -119 -122c-68 0 -114 37 -121 110l32 4c7 -52 38 -86 90 -86c45 0 85 28 85 95c0 36 -14 64 -31 119c-16 51 -29 85 -29 121
c0 67 34 97 75 105c-25 19 -49 47 -49 98c0 73 47 124 126 124c52 0 72 -22 141 -22c96 0 112 38 122 61h37c-21 -56 -55 -153 -96 -269h100l-9 -29h-102l-100 -294c-9 -29 -14 -52 -14 -68c0 -26 11 -39 33 -39c21 0 42 12 62 35c24 27 45 66 64 113z" />
    <glyph glyph-name="space_uni0326" 
d="M123 -85l-7 26c15 7 29 9 42 9c33 0 64 -16 64 -67c0 -61 -45 -105 -126 -142l-11 26c65 31 103 69 103 114c0 24 -11 41 -34 41c-10 0 -20 -2 -31 -7z" />
    <glyph glyph-name="uni0192" unicode="&#x192;" horiz-adv-x="330" 
d="M209 382h103l-8 -27h-103l-104 -390c-42 -159 -91 -169 -149 -169c-36 0 -64 10 -89 43l22 19c21 -27 41 -34 68 -34c51 0 83 24 115 149l99 382h-84l8 27h84l5 21c43 164 96 204 172 204c41 0 67 -14 86 -41l-21 -20c-17 23 -35 33 -66 33c-67 0 -101 -49 -135 -184z
" />
    <glyph glyph-name="oneeighth" unicode="&#x215b;" horiz-adv-x="576" 
d="M365 320h-157l12 27h58l98 334c-20 -7 -46 -11 -79 -14l8 28c39 4 64 12 91 21h25l-109 -369h65zM35 252h506v-27h-506v27zM159 61c0 65 57 101 120 101c69 0 108 -35 108 -87c0 -63 -61 -89 -112 -110c33 -24 66 -52 66 -103c0 -68 -54 -112 -130 -112
c-69 0 -116 36 -116 96c0 73 72 105 123 126c-30 22 -59 43 -59 89zM353 76c0 35 -22 58 -73 58c-49 0 -87 -29 -87 -73c0 -37 25 -56 56 -77c48 19 104 37 104 92zM244 -48c-43 -16 -115 -41 -115 -106c0 -40 30 -68 82 -68c60 0 96 36 96 84c0 44 -32 67 -63 90z" />
    <glyph glyph-name="onethird" unicode="&#x2153;" horiz-adv-x="576" 
d="M373 320h-157l12 27h58l98 334c-20 -7 -46 -11 -79 -14l8 28c39 4 64 12 91 21h25l-109 -369h65zM35 252h506v-27h-506v27zM386 -111c0 -77 -75 -139 -182 -139c-72 0 -111 29 -111 76c0 27 14 45 34 61l23 -16c-20 -19 -23 -29 -23 -45c0 -29 29 -48 77 -48
c90 0 148 52 148 109c0 40 -27 62 -64 62c-16 0 -33 -4 -51 -12l-37 -17l-15 23l88 40c43 19 99 46 99 98c0 35 -25 53 -68 53c-56 0 -100 -30 -100 -65c0 -13 8 -24 27 -24c11 0 18 2 33 13l12 -24c-16 -12 -34 -16 -49 -16c-31 0 -55 14 -55 49c0 53 63 95 135 95
c57 0 99 -27 99 -80c0 -55 -45 -85 -98 -110h1c47 -7 77 -32 77 -83z" />
    <glyph glyph-name="threeeighths" unicode="&#x215c;" horiz-adv-x="576" 
d="M477 449c0 -77 -75 -139 -182 -139c-72 0 -111 29 -111 76c0 27 14 45 34 61l23 -16c-20 -19 -23 -29 -23 -45c0 -29 29 -48 77 -48c90 0 148 52 148 109c0 40 -27 62 -64 62c-16 0 -33 -4 -51 -12l-37 -17l-15 23l88 40c43 19 99 46 99 98c0 35 -25 53 -68 53
c-56 0 -100 -30 -100 -65c0 -13 8 -24 27 -24c11 0 18 2 33 13l12 -24c-16 -12 -34 -16 -49 -16c-31 0 -55 14 -55 49c0 53 63 95 135 95c57 0 99 -27 99 -80c0 -55 -45 -85 -98 -110h1c47 -7 77 -32 77 -83zM35 252h506v-27h-506v27zM167 60c0 65 57 101 120 101
c69 0 108 -35 108 -87c0 -63 -61 -89 -112 -110c33 -24 66 -52 66 -103c0 -68 -54 -112 -130 -112c-69 0 -116 36 -116 96c0 73 72 105 123 126c-30 22 -59 43 -59 89zM361 75c0 35 -22 58 -73 58c-49 0 -87 -29 -87 -73c0 -37 25 -56 56 -77c48 19 104 37 104 92zM252 -49
c-43 -16 -115 -41 -115 -106c0 -40 30 -68 82 -68c60 0 96 36 96 84c0 44 -32 67 -63 90z" />
    <glyph glyph-name="fiveeighths" unicode="&#x215d;" horiz-adv-x="576" 
d="M215 508l90 205c55 -7 100 -13 123 -13c24 0 31 14 39 39l26 -11c-15 -43 -29 -56 -65 -56c-24 0 -67 6 -102 10l-58 -131c23 17 53 31 92 31c56 0 103 -27 103 -92c0 -93 -89 -180 -199 -180c-68 0 -103 34 -103 77c0 27 12 43 25 62l27 -11c-15 -19 -20 -35 -20 -51
c0 -29 24 -49 72 -49c95 0 164 79 164 151c0 43 -24 65 -73 65c-44 0 -88 -19 -113 -58zM35 252h506v-27h-506v27zM159 61c0 65 57 101 120 101c69 0 108 -35 108 -87c0 -63 -61 -89 -112 -110c33 -24 66 -52 66 -103c0 -68 -54 -112 -130 -112c-69 0 -116 36 -116 96
c0 73 72 105 123 126c-30 22 -59 43 -59 89zM353 76c0 35 -22 58 -73 58c-49 0 -87 -29 -87 -73c0 -37 25 -56 56 -77c48 19 104 37 104 92zM244 -48c-43 -16 -115 -41 -115 -106c0 -40 30 -68 82 -68c60 0 96 36 96 84c0 44 -32 67 -63 90z" />
    <glyph glyph-name="twothirds" unicode="&#x2154;" horiz-adv-x="576" 
d="M353 594l22 -15c-17 -27 -41 -50 -76 -50s-66 21 -66 68c0 75 75 125 155 125c72 0 118 -34 118 -101c0 -74 -61 -127 -133 -178c-29 -21 -99 -64 -147 -96h226l-9 -27h-283l7 20c67 43 155 100 189 124c65 48 116 92 116 155c0 48 -31 75 -84 75
c-67 0 -123 -42 -123 -98c0 -21 9 -39 36 -39c21 0 39 12 52 37zM35 252h506v-27h-506v27zM378 -111c0 -77 -75 -139 -182 -139c-72 0 -111 29 -111 76c0 27 14 45 34 61l23 -16c-20 -19 -23 -29 -23 -45c0 -29 29 -48 77 -48c90 0 148 52 148 109c0 40 -27 62 -64 62
c-16 0 -33 -4 -51 -12l-37 -17l-15 23l88 40c43 19 99 46 99 98c0 35 -25 53 -68 53c-56 0 -100 -30 -100 -65c0 -13 8 -24 27 -24c11 0 18 2 33 13l12 -24c-16 -12 -34 -16 -49 -16c-31 0 -55 14 -55 49c0 53 63 95 135 95c57 0 99 -27 99 -80c0 -55 -45 -85 -98 -110h1
c47 -7 77 -32 77 -83z" />
    <glyph glyph-name="seveneighths" unicode="&#x215e;" horiz-adv-x="576" 
d="M525 695l-265 -375h-35l258 365h-191l-29 -88h-30l46 137h30l-7 -22h228zM35 252h506v-27h-506v27zM159 61c0 65 57 101 120 101c69 0 108 -35 108 -87c0 -63 -61 -89 -112 -110c33 -24 66 -52 66 -103c0 -68 -54 -112 -130 -112c-69 0 -116 36 -116 96
c0 73 72 105 123 126c-30 22 -59 43 -59 89zM353 76c0 35 -22 58 -73 58c-49 0 -87 -29 -87 -73c0 -37 25 -56 56 -77c48 19 104 37 104 92zM244 -48c-43 -16 -115 -41 -115 -106c0 -40 30 -68 82 -68c60 0 96 36 96 84c0 44 -32 67 -63 90z" />
    <glyph glyph-name="dollar.lin" horiz-adv-x="534" 
d="M209 564c0 -71 45 -120 98 -162l82 278c-14 4 -29 6 -46 6c-73 0 -134 -39 -134 -122zM268 14c96 0 155 57 155 156c0 95 -52 133 -103 176l-97 -327c15 -3 30 -5 45 -5zM267 -14c-19 0 -36 2 -52 6l-29 -99h-30l32 107c-72 28 -115 92 -118 168l-40 -141h-30l66 225h26
c-13 -96 21 -189 104 -224l100 338c-62 54 -123 104 -123 195c0 109 87 153 171 153c19 0 37 -2 53 -6l29 97h30l-32 -107c47 -20 74 -59 79 -107l27 90h30l-49 -163h-28c1 11 2 19 2 30c0 61 -28 102 -69 122l-85 -289c61 -51 128 -95 128 -208c0 -123 -85 -187 -192 -187z
" />
    <glyph glyph-name="Euro.lin" horiz-adv-x="676" 
d="M607 231l-67 -230h-30l29 99c-43 -61 -108 -114 -207 -114c-146 0 -226 119 -226 283v4h-81l8 27h74c2 34 7 67 15 100h-63l8 27h63c45 152 157 287 327 287c122 0 181 -74 192 -178l39 131h30l-67 -226h-26c16 119 -27 245 -170 245c-147 0 -245 -122 -288 -259h287
l-8 -27h-286c-9 -35 -15 -68 -17 -100h233l-8 -27h-226v-6c0 -139 67 -253 194 -253c134 0 211 122 243 217h28z" />
    <glyph glyph-name="sterling.lin" horiz-adv-x="606" 
d="M434 -14c-68 0 -117 29 -166 58c-36 23 -71 42 -114 53c-19 -32 -54 -111 -125 -111c-33 0 -57 18 -57 53c0 51 50 92 135 92c9 0 18 0 27 -1c19 36 39 82 62 131h-110l11 27h111c43 91 87 186 119 251c64 121 132 175 215 175c40 0 63 -11 82 -30l-21 -23
c-19 17 -34 23 -66 23c-72 0 -129 -57 -180 -156c-33 -61 -74 -152 -114 -240h158l-8 -27h-162c-23 -51 -45 -98 -64 -137c47 -11 85 -31 121 -54c47 -27 90 -54 149 -54c48 0 73 27 73 58c0 17 -8 28 -15 35c-5 4 -10 7 -15 9l17 23c8 -3 15 -8 22 -15
c11 -11 23 -28 23 -53c0 -49 -40 -87 -108 -87zM32 16c50 0 67 51 88 87h-14c-56 0 -102 -25 -102 -62c0 -19 12 -25 28 -25z" />
    <glyph glyph-name="yen.lin" horiz-adv-x="663" 
d="M411 27l-12 -27h-241l12 27h98l54 186h-139l8 27h139l26 89l-4 11h-131l8 27h115l-99 306h-92l12 27h223l-12 -27h-94l101 -314l263 314h-87l12 27h213l-12 -27h-89l-256 -306h119l-8 -27h-134l-13 -16l-25 -84h142l-8 -27h-142l-54 -186h107z" />
    <glyph glyph-name="zero.lin" horiz-adv-x="637" 
d="M432 718c136 0 202 -104 202 -251c0 -222 -137 -485 -357 -485c-136 0 -202 104 -202 251c0 222 137 485 357 485zM432 690c-204 0 -321 -261 -321 -457c0 -117 42 -223 166 -223c204 0 321 261 321 457c0 117 -42 223 -166 223z" />
    <glyph glyph-name="one.lin" horiz-adv-x="332" 
d="M327 705l-200 -678h111l-12 -27h-255l12 27h108l189 642c-33 -12 -75 -26 -126 -35l8 29c51 11 94 25 137 42h28z" />
    <glyph glyph-name="two.lin" horiz-adv-x="562" 
d="M427 -64h-35l22 64h-428l6 20c117 84 237 168 326 237c109 85 221 164 221 293c0 81 -57 136 -158 136c-127 0 -229 -86 -229 -187c0 -49 22 -73 65 -73c45 0 71 29 90 58l24 -15c-24 -37 -59 -71 -116 -71c-52 0 -97 28 -97 100c0 120 121 216 263 216
c121 0 194 -64 194 -164c0 -143 -125 -227 -237 -315c-85 -66 -197 -142 -287 -208h407z" />
    <glyph glyph-name="three.lin" horiz-adv-x="562" 
d="M201 -14c-126 0 -185 58 -185 123c0 37 16 64 41 87l20 -20c-21 -19 -28 -42 -28 -67c0 -51 49 -95 152 -95c159 0 268 108 268 224c0 75 -46 117 -126 117c-25 0 -47 -4 -64 -13l-83 -39l-15 22l147 70c80 37 190 100 190 194c0 63 -47 97 -127 97
c-105 0 -203 -59 -203 -142c0 -29 13 -48 44 -48c16 0 32 5 55 21l12 -24c-21 -17 -44 -25 -69 -25c-40 0 -76 22 -76 75c0 100 118 171 237 171c100 0 163 -44 163 -125c0 -89 -83 -152 -186 -202l-14 -7h4c88 -4 147 -50 147 -142c0 -135 -126 -252 -304 -252z" />
    <glyph glyph-name="four.lin" horiz-adv-x="549" 
d="M446 0h-256l12 27h108l43 158h-317l5 17l458 501h34l-136 -491h132l-8 -27h-132l-43 -158h112zM361 212l118 426l-390 -426h272z" />
    <glyph glyph-name="five.lin" horiz-adv-x="557" 
d="M185 -14c-112 0 -169 52 -169 123c0 37 16 69 45 101l23 -20c-23 -25 -34 -52 -34 -81c0 -56 44 -95 135 -95c171 0 301 138 301 285c0 84 -42 131 -130 131c-79 0 -169 -40 -212 -107l-23 19l158 360c65 -19 166 -33 211 -33c21 0 37 4 47 12c13 11 18 29 23 54l31 -5
c-7 -32 -18 -55 -33 -68c-17 -16 -39 -21 -67 -21c-49 0 -142 14 -192 27l-118 -271c45 37 112 61 175 61c104 0 166 -52 166 -159c0 -166 -149 -313 -337 -313z" />
    <glyph glyph-name="six.lin" horiz-adv-x="571" 
d="M538 273c0 -141 -106 -287 -272 -287c-124 0 -189 77 -189 209c0 339 246 519 429 519c81 0 122 -34 141 -82l-29 -12c-13 39 -45 66 -113 66c-141 0 -317 -120 -376 -342c53 76 136 112 220 112c115 0 189 -67 189 -183zM347 428c-72 0 -143 -30 -187 -82
c-15 -17 -26 -37 -33 -58c-11 -31 -14 -61 -14 -93c0 -108 46 -181 154 -181c147 0 235 134 235 259c0 96 -54 155 -155 155z" />
    <glyph glyph-name="seven.lin" horiz-adv-x="528" 
d="M226 700h386l-5 -17l-474 -683h-37l467 672h-346l-53 -159h-32l75 225h32z" />
    <glyph glyph-name="eight.lin" horiz-adv-x="518" 
d="M169 543c0 105 95 171 207 171c117 0 166 -70 166 -142c0 -116 -117 -168 -205 -208c62 -49 127 -105 127 -196c0 -101 -82 -182 -214 -182c-109 0 -194 60 -194 160c0 124 130 179 225 224c-53 40 -112 91 -112 173zM506 572c0 56 -34 115 -130 115
c-97 0 -171 -59 -171 -144c0 -72 53 -119 107 -160c84 40 194 86 194 189zM92 146c0 -84 65 -133 160 -133c114 0 176 72 176 155c0 84 -61 133 -121 182c-88 -40 -215 -92 -215 -204z" />
    <glyph glyph-name="nine.lin" horiz-adv-x="570" 
d="M296 272c75 0 143 31 187 82c17 21 30 46 39 70c8 28 10 57 10 86c0 102 -47 176 -151 176c-144 0 -238 -137 -238 -260c0 -92 52 -154 153 -154zM143 -14c-85 0 -128 31 -147 86l28 12c16 -47 48 -70 117 -70c161 0 323 129 376 345c-56 -80 -137 -115 -221 -115
c-119 0 -189 69 -189 182c0 140 114 288 276 288c120 0 185 -76 185 -204c0 -344 -222 -524 -425 -524z" />
    <glyph glyph-name="percent.lin" horiz-adv-x="651" 
d="M46 -22l-24 16l636 728l24 -16zM111 495c0 99 68 223 175 223c60 0 101 -38 101 -114c0 -98 -68 -222 -175 -222c-60 0 -101 38 -101 113zM145 495c0 -47 15 -85 68 -85c31 0 55 12 75 31c42 40 65 107 65 163c0 49 -15 86 -68 86c-35 0 -62 -15 -83 -39
c-38 -41 -57 -101 -57 -156zM320 95c0 99 68 223 175 223c60 0 101 -38 101 -114c0 -98 -68 -222 -175 -222c-60 0 -101 38 -101 113zM354 95c0 -47 15 -85 68 -85c31 0 55 12 75 31c42 40 65 107 65 163c0 49 -15 86 -68 86c-35 0 -62 -15 -83 -39
c-38 -41 -57 -101 -57 -156z" />
    <glyph glyph-name="perthousand.lin" horiz-adv-x="973" 
d="M46 -22l-24 16l636 728l24 -16zM111 495c0 99 68 223 175 223c60 0 101 -38 101 -114c0 -98 -68 -222 -175 -222c-60 0 -101 38 -101 113zM145 495c0 -47 15 -85 68 -85c31 0 55 12 75 31c42 40 65 107 65 163c0 49 -15 86 -68 86c-35 0 -62 -15 -83 -39
c-38 -41 -57 -101 -57 -156zM624 95c0 99 68 223 175 223c60 0 101 -38 101 -114c0 -98 -68 -222 -175 -222c-60 0 -101 38 -101 113zM320 95c0 99 68 223 175 223c60 0 101 -38 101 -114c0 -98 -68 -222 -175 -222c-60 0 -101 38 -101 113zM658 95c0 -47 15 -85 68 -85
c31 0 55 12 75 31c42 40 65 107 65 163c0 49 -15 86 -68 86c-35 0 -62 -15 -83 -39c-38 -41 -57 -101 -57 -156zM354 95c0 -47 15 -85 68 -85c31 0 55 12 75 31c42 40 65 107 65 163c0 49 -15 86 -68 86c-35 0 -62 -15 -83 -39c-38 -41 -57 -101 -57 -156z" />
    <glyph glyph-name="zero.num" horiz-adv-x="385" 
d="M293 732c81 0 122 -60 122 -144c0 -123 -90 -268 -214 -268c-81 0 -122 60 -122 144c0 123 90 268 214 268zM290 704c-110 0 -177 -138 -177 -240c0 -60 22 -116 91 -116c110 0 177 138 177 240c0 60 -22 116 -91 116z" />
    <glyph glyph-name="one.num" horiz-adv-x="217" 
d="M197 320h-157l12 27h58l98 334c-20 -7 -46 -11 -79 -14l8 28c39 4 64 12 91 21h25l-109 -369h65z" />
    <glyph glyph-name="two.num" horiz-adv-x="348" 
d="M237 594l22 -15c-17 -27 -41 -50 -76 -50s-66 21 -66 68c0 75 75 125 155 125c72 0 118 -34 118 -101c0 -74 -61 -127 -133 -178c-29 -21 -99 -64 -147 -96h226l-9 -27h-283l7 20c67 43 155 100 189 124c65 48 116 92 116 155c0 48 -31 75 -84 75
c-67 0 -123 -42 -123 -98c0 -21 9 -39 36 -39c21 0 39 12 52 37z" />
    <glyph glyph-name="three.num" horiz-adv-x="341" 
d="M350 449c0 -77 -75 -139 -182 -139c-72 0 -111 29 -111 76c0 27 14 45 34 61l23 -16c-20 -19 -23 -29 -23 -45c0 -29 29 -48 77 -48c90 0 148 52 148 109c0 40 -27 62 -64 62c-16 0 -33 -4 -51 -12l-37 -17l-15 23l88 40c43 19 99 46 99 98c0 35 -25 53 -68 53
c-56 0 -100 -30 -100 -65c0 -13 8 -24 27 -24c11 0 18 2 33 13l12 -24c-16 -12 -34 -16 -49 -16c-31 0 -55 14 -55 49c0 53 63 95 135 95c57 0 99 -27 99 -80c0 -55 -45 -85 -98 -110h1c47 -7 77 -32 77 -83z" />
    <glyph glyph-name="four.num" horiz-adv-x="327" 
d="M313 320h-179l12 27h71l24 80h-179l4 17l259 271h33l-76 -261h75l-12 -27h-71l-24 -80h75zM249 454l60 206l-198 -206h138z" />
    <glyph glyph-name="five.num" horiz-adv-x="326" 
d="M104 508l90 205c55 -7 100 -13 123 -13c24 0 31 14 39 39l26 -11c-15 -43 -29 -56 -65 -56c-24 0 -67 6 -102 10l-58 -131c23 17 53 31 92 31c56 0 103 -27 103 -92c0 -93 -89 -180 -199 -180c-68 0 -103 34 -103 77c0 27 12 43 25 62l27 -11c-15 -19 -20 -35 -20 -51
c0 -29 24 -49 72 -49c95 0 164 79 164 151c0 43 -24 65 -73 65c-44 0 -88 -19 -113 -58z" />
    <glyph glyph-name="six.num" 
d="M363 470c0 -82 -54 -160 -155 -160c-73 0 -123 44 -123 128s36 164 92 217c43 41 97 67 157 67c55 0 79 -22 90 -55l-27 -12c-7 27 -25 39 -64 39c-84 0 -160 -61 -197 -158c28 32 68 46 112 46c69 0 115 -35 115 -112zM242 554c-48 0 -82 -20 -101 -47
c-9 -13 -15 -27 -18 -41c-3 -9 -4 -19 -4 -32c0 -52 28 -96 91 -96c81 0 119 68 119 132c0 56 -29 84 -87 84z" />
    <glyph glyph-name="seven.num" horiz-adv-x="313" 
d="M392 695l-265 -375h-35l258 365h-191l-29 -88h-30l46 137h30l-7 -22h228z" />
    <glyph glyph-name="eight.num" horiz-adv-x="318" 
d="M135 621c0 65 57 101 120 101c69 0 108 -35 108 -87c0 -63 -61 -89 -112 -110c33 -24 66 -52 66 -103c0 -68 -54 -112 -130 -112c-69 0 -116 36 -116 96c0 73 72 105 123 126c-30 22 -59 43 -59 89zM329 636c0 35 -22 58 -73 58c-49 0 -87 -29 -87 -73
c0 -37 25 -56 56 -77c48 19 104 37 104 92zM220 512c-43 -16 -115 -41 -115 -106c0 -40 30 -68 82 -68c60 0 96 36 96 84c0 44 -32 67 -63 90z" />
    <glyph glyph-name="nine.num" 
d="M225 477c35 0 71 11 95 36c10 11 18 26 23 43c3 13 5 27 5 43c0 52 -24 96 -85 96c-75 0 -124 -67 -124 -134c0 -49 27 -84 86 -84zM143 310c-52 0 -85 18 -100 55l27 12c12 -29 37 -39 73 -39c80 0 153 50 190 158c-28 -31 -72 -46 -112 -46c-69 0 -116 40 -116 111
c0 84 68 161 161 161c73 0 116 -47 116 -123c0 -89 -32 -169 -84 -222c-41 -43 -94 -67 -155 -67z" />
    <glyph glyph-name="zero.den" horiz-adv-x="385" 
d="M237 402c81 0 122 -60 122 -144c0 -123 -90 -268 -214 -268c-81 0 -122 60 -122 144c0 123 90 268 214 268zM234 374c-110 0 -177 -138 -177 -240c0 -60 22 -116 91 -116c110 0 177 138 177 240c0 60 -22 116 -91 116z" />
    <glyph glyph-name="one.den" horiz-adv-x="217" 
d="M136 -10h-157l12 27h58l98 334c-20 -7 -46 -11 -79 -14l8 28c39 4 64 12 91 21h25l-109 -369h65z" />
    <glyph glyph-name="two.den" horiz-adv-x="348" 
d="M176 264l22 -15c-17 -27 -41 -50 -76 -50s-66 21 -66 68c0 75 75 125 155 125c72 0 118 -34 118 -101c0 -74 -61 -127 -133 -178c-29 -21 -99 -64 -147 -96h226l-9 -27h-283l7 20c67 43 155 100 189 124c65 48 116 92 116 155c0 48 -31 75 -84 75
c-67 0 -123 -42 -123 -98c0 -21 9 -39 36 -39c21 0 39 12 52 37z" />
    <glyph glyph-name="three.den" horiz-adv-x="341" 
d="M297 119c0 -77 -75 -139 -182 -139c-72 0 -111 29 -111 76c0 27 14 45 34 61l23 -16c-20 -19 -23 -29 -23 -45c0 -29 29 -48 77 -48c90 0 148 52 148 109c0 40 -27 62 -64 62c-16 0 -33 -4 -51 -12l-37 -17l-15 23l88 40c43 19 99 46 99 98c0 35 -25 53 -68 53
c-56 0 -100 -30 -100 -65c0 -13 8 -24 27 -24c11 0 18 2 33 13l12 -24c-16 -12 -34 -16 -49 -16c-31 0 -55 14 -55 49c0 53 63 95 135 95c57 0 99 -27 99 -80c0 -55 -45 -85 -98 -110h1c47 -7 77 -32 77 -83z" />
    <glyph glyph-name="four.den" horiz-adv-x="327" 
d="M255 -10h-179l12 27h71l24 80h-179l4 17l259 271h33l-76 -261h75l-12 -27h-71l-24 -80h75zM191 124l60 206l-198 -206h138z" />
    <glyph glyph-name="five.den" horiz-adv-x="326" 
d="M50 178l90 205c55 -7 100 -13 123 -13c24 0 31 14 39 39l26 -11c-15 -43 -29 -56 -65 -56c-24 0 -67 6 -102 10l-58 -131c23 17 53 31 92 31c56 0 103 -27 103 -92c0 -93 -89 -180 -199 -180c-68 0 -103 34 -103 77c0 27 12 43 25 62l27 -11c-15 -19 -20 -35 -20 -51
c0 -29 24 -49 72 -49c95 0 164 79 164 151c0 43 -24 65 -73 65c-44 0 -88 -19 -113 -58z" />
    <glyph glyph-name="six.den" 
d="M303 140c0 -82 -54 -160 -155 -160c-73 0 -123 44 -123 128s36 164 92 217c43 41 97 67 157 67c55 0 79 -22 90 -55l-27 -12c-7 27 -25 39 -64 39c-84 0 -160 -61 -197 -158c28 32 68 46 112 46c69 0 115 -35 115 -112zM182 224c-48 0 -82 -20 -101 -47
c-9 -13 -15 -27 -18 -41c-3 -9 -4 -19 -4 -32c0 -52 28 -96 91 -96c81 0 119 68 119 132c0 56 -29 84 -87 84z" />
    <glyph glyph-name="seven.den" horiz-adv-x="313" 
d="M338 365l-265 -375h-35l258 365h-191l-29 -88h-30l46 137h30l-7 -22h228z" />
    <glyph glyph-name="eight.den" horiz-adv-x="318" 
d="M74 291c0 65 57 101 120 101c69 0 108 -35 108 -87c0 -63 -61 -89 -112 -110c33 -24 66 -52 66 -103c0 -68 -54 -112 -130 -112c-69 0 -116 36 -116 96c0 73 72 105 123 126c-30 22 -59 43 -59 89zM268 306c0 35 -22 58 -73 58c-49 0 -87 -29 -87 -73
c0 -37 25 -56 56 -77c48 19 104 37 104 92zM159 182c-43 -16 -115 -41 -115 -106c0 -40 30 -68 82 -68c60 0 96 36 96 84c0 44 -32 67 -63 90z" />
    <glyph glyph-name="nine.den" 
d="M164 147c35 0 71 11 95 36c10 11 18 26 23 43c3 13 5 27 5 43c0 52 -24 96 -85 96c-75 0 -124 -67 -124 -134c0 -49 27 -84 86 -84zM82 -20c-52 0 -85 18 -100 55l27 12c12 -29 37 -39 73 -39c80 0 153 50 190 158c-28 -31 -72 -46 -112 -46c-69 0 -116 40 -116 111
c0 84 68 161 161 161c73 0 116 -47 116 -123c0 -89 -32 -169 -84 -222c-41 -43 -94 -67 -155 -67z" />
    <glyph glyph-name="J.alt" unicode="&#xe489;" horiz-adv-x="321" 
d="M81 11l194 662h-108l12 27h248l-12 -27h-104l-196 -670c-52 -180 -133 -262 -252 -262c-79 0 -127 35 -134 102l34 5c5 -49 39 -77 100 -77c107 0 171 83 218 240z" />
    <glyph glyph-name="Y.alt" unicode="&#xe498;" horiz-adv-x="668" 
d="M646 673h-87l12 27h213l-12 -27h-89l-292 -349l-87 -297h107l-12 -27h-241l12 27h98l88 302l-111 344h-92l12 27h223l-12 -27h-94l101 -314z" />
    <glyph glyph-name="Jcircumflex.alt" horiz-adv-x="321" 
d="M81 11l194 662h-108l12 27h248l-12 -27h-104l-196 -670c-52 -180 -133 -262 -252 -262c-79 0 -127 35 -134 102l34 5c5 -49 39 -77 100 -77c107 0 171 83 218 240zM407 766l-66 116l-124 -118l-18 22l138 132h19l78 -139z" />
    <glyph glyph-name="Yacute.alt" horiz-adv-x="668" 
d="M646 673h-87l12 27h213l-12 -27h-89l-292 -349l-87 -297h107l-12 -27h-241l12 27h98l88 302l-111 344h-92l12 27h223l-12 -27h-94l101 -314zM581 933l22 -22l-134 -148l-22 22z" />
    <glyph glyph-name="Ycircumflex.alt" horiz-adv-x="668" 
d="M646 673h-87l12 27h213l-12 -27h-89l-292 -349l-87 -297h107l-12 -27h-241l12 27h98l88 302l-111 344h-92l12 27h223l-12 -27h-94l101 -314zM589 766l-66 116l-124 -118l-18 22l138 132h19l78 -139z" />
    <glyph glyph-name="Ydieresis.alt" horiz-adv-x="668" 
d="M646 673h-87l12 27h213l-12 -27h-89l-292 -349l-87 -297h107l-12 -27h-241l12 27h98l88 302l-111 344h-92l12 27h223l-12 -27h-94l101 -314zM419 798c-19 0 -31 12 -31 31c0 17 12 31 31 31c17 0 31 -14 31 -31c0 -19 -14 -31 -31 -31zM611 798c-19 0 -31 12 -31 31
c0 17 12 31 31 31c17 0 31 -14 31 -31c0 -19 -14 -31 -31 -31z" />
    <glyph glyph-name="Ygrave.alt" horiz-adv-x="668" 
d="M646 673h-87l12 27h213l-12 -27h-89l-292 -349l-87 -297h107l-12 -27h-241l12 27h98l88 302l-111 344h-92l12 27h223l-12 -27h-94l101 -314zM440 933l93 -155l-26 -17l-93 155z" />
    <glyph glyph-name="space_uni0326.alt" horiz-adv-x="379" 
d="M284 560l7 -26c-3 -2 -6 -4 -10 -5c-7 -3 -17 -4 -29 -4c-33 0 -68 17 -68 68c0 59 42 102 126 141l11 -26c-67 -31 -103 -71 -103 -114c0 -24 12 -41 39 -41c7 0 14 1 19 3z" />
    <glyph glyph-name="caron.alt" horiz-adv-x="384" 
d="M332 731l-86 -171l-30 12l86 170z" />
    <glyph glyph-name="questiondown.uc" horiz-adv-x="375" 
d="M157 418l-26 12c21 44 56 75 107 75c56 0 87 -33 87 -80c0 -78 -91 -115 -165 -157c-75 -43 -116 -82 -116 -150c0 -57 34 -100 106 -100c76 0 120 45 120 101c0 35 -17 63 -60 63c-37 0 -58 -23 -58 -55c0 -9 1 -18 6 -27l-28 -12c-7 11 -10 24 -10 39c0 51 36 85 92 85
c57 0 92 -38 92 -93c0 -75 -66 -131 -154 -131c-91 0 -140 54 -140 130c0 79 51 129 134 176c68 39 147 67 147 129c0 28 -16 52 -53 52c-39 0 -64 -24 -81 -57zM296 673c16 0 29 -13 29 -28c0 -17 -13 -30 -29 -30s-28 13 -28 30c0 15 12 28 28 28z" />
    <glyph glyph-name="exclamdown.uc" horiz-adv-x="250" 
d="M191 515h36l-153 -523h-36zM242 663c16 0 29 -13 29 -28c0 -17 -13 -30 -29 -30s-28 13 -28 30c0 15 12 28 28 28z" />
    <glyph glyph-name="hyphen.uc" horiz-adv-x="281" 
d="M85 356l8 27h184l-8 -27h-184z" />
    <glyph glyph-name="endash.uc" horiz-adv-x="525" 
d="M91 356l8 27h418l-8 -27h-418z" />
    <glyph glyph-name="emdash.uc" horiz-adv-x="695" 
d="M91 356l8 27h588l-8 -27h-588z" />
    <glyph glyph-name="guilsinglleft.uc" horiz-adv-x="260" 
d="M192 211l-105 135v8l147 131l19 -20l-130 -117l90 -116z" />
    <glyph glyph-name="guilsinglright.uc" horiz-adv-x="260" 
d="M103 211l-19 20l130 117l-90 116l21 21l105 -135v-8z" />
    <glyph glyph-name="guillemotleft.uc" horiz-adv-x="414" 
d="M346 211l-105 135v8l147 131l19 -20l-130 -117l90 -116zM192 211l-105 135v8l147 131l19 -20l-130 -117l90 -116z" />
    <glyph glyph-name="guillemotright.uc" horiz-adv-x="414" 
d="M103 211l-19 20l130 117l-90 116l21 21l105 -135v-8zM257 211l-19 20l130 117l-90 116l21 21l105 -135v-8z" />
    <glyph glyph-name="parenleft.uc" horiz-adv-x="305" 
d="M182 4l-26 -16c-39 68 -61 142 -61 230c0 207 119 400 262 496l17 -23c-132 -101 -243 -282 -243 -473c0 -84 22 -149 51 -214z" />
    <glyph glyph-name="parenright.uc" horiz-adv-x="305" 
d="M205 698l26 16c39 -68 61 -142 61 -230c0 -207 -119 -400 -262 -496l-17 23c132 101 243 282 243 473c0 84 -22 149 -51 214z" />
    <glyph glyph-name="bracketleft.uc" horiz-adv-x="287" 
d="M186 27l-8 -27h-158l205 700h159l-8 -27h-123l-189 -646h122z" />
    <glyph glyph-name="bracketright.uc" horiz-adv-x="287" 
d="M174 673l8 27h158l-205 -700h-159l8 27h123l189 646h-122z" />
    <glyph glyph-name="braceleft.uc" horiz-adv-x="288" 
d="M185 0h-23c-51 0 -97 17 -97 77c0 40 20 79 39 116c15 33 30 64 30 96c0 27 -13 53 -54 53h-30l8 27h24c89 0 103 59 108 114c5 51 3 79 10 114c13 72 67 103 139 103h36l-8 -27h-27c-57 0 -94 -26 -105 -82c-5 -35 -6 -61 -9 -110c-5 -61 -28 -110 -92 -129
c23 -13 36 -36 36 -63c0 -39 -20 -72 -37 -109s-32 -68 -32 -100c0 -39 23 -53 64 -53h28z" />
    <glyph glyph-name="braceright.uc" horiz-adv-x="288" 
d="M176 700h23c51 0 97 -17 97 -77c0 -40 -20 -79 -39 -116c-15 -33 -30 -64 -30 -96c0 -27 13 -53 54 -53h30l-8 -27h-24c-89 0 -103 -59 -108 -114c-5 -51 -3 -79 -10 -114c-13 -72 -67 -103 -139 -103h-36l8 27h27c57 0 94 26 105 82c5 35 6 61 9 110c5 61 28 110 92 129
c-23 13 -36 36 -36 63c0 39 20 72 37 109s32 68 32 100c0 39 -23 53 -64 53h-28z" />
    <glyph glyph-name="slash.uc" horiz-adv-x="297" 
d="M29 -23l-29 16l340 731l29 -16z" />
    <glyph glyph-name="backslash.uc" horiz-adv-x="499" 
d="M174 709l32 14l196 -735l-32 -14z" />
    <glyph glyph-name="bar.uc" horiz-adv-x="275" 
d="M155 -34v764h30v-764h-30z" />
    <glyph glyph-name="at.uc" horiz-adv-x="851" 
d="M569 164c-47 0 -83 24 -83 67v7c-29 -45 -66 -74 -117 -74c-44 0 -89 24 -89 95c0 69 42 168 104 233c33 35 76 58 120 58c33 0 53 -14 64 -34l10 28h37l-82 -236c-7 -19 -15 -38 -15 -63c0 -43 28 -53 56 -53c85 0 196 107 196 271c0 145 -99 227 -264 227
c-212 0 -382 -154 -382 -406c0 -160 106 -278 318 -278s302 104 352 197l26 -18c-51 -96 -151 -207 -378 -207c-229 0 -354 126 -354 306c0 274 191 434 418 434c164 0 300 -78 300 -255c0 -190 -138 -299 -237 -299zM504 522c-36 0 -72 -22 -99 -51
c-56 -62 -89 -154 -89 -211c0 -49 24 -68 57 -68c58 0 105 61 126 124l45 130c5 13 7 26 7 38c0 23 -16 38 -47 38z" />
    <glyph glyph-name="grave.uc" horiz-adv-x="404" 
d="M258 933l93 -155l-26 -17l-93 155z" />
    <glyph glyph-name="dieresis.uc" horiz-adv-x="426" 
d="M248 798c-19 0 -31 12 -31 31c0 17 12 31 31 31c17 0 31 -14 31 -31c0 -19 -14 -31 -31 -31zM440 798c-19 0 -31 12 -31 31c0 17 12 31 31 31c17 0 31 -14 31 -31c0 -19 -14 -31 -31 -31z" />
    <glyph glyph-name="macron.uc" horiz-adv-x="408" 
d="M474 831l-8 -30h-232l8 30h232z" />
    <glyph glyph-name="acute.uc" horiz-adv-x="396" 
d="M426 933l22 -22l-134 -148l-22 22z" />
    <glyph glyph-name="circumflex.uc" 
d="M412 766l-66 116l-124 -118l-18 22l138 132h19l78 -139z" />
    <glyph glyph-name="caron.uc" 
d="M238 768h-19l-78 139l27 13l66 -116l124 118l18 -22z" />
    <glyph glyph-name="breve.uc" horiz-adv-x="406" 
d="M349 796c56 0 91 37 106 100l29 -13c-17 -73 -65 -116 -137 -116c-71 0 -114 44 -97 125h30c-12 -60 14 -96 69 -96z" />
    <glyph glyph-name="dotaccent.uc" horiz-adv-x="416" 
d="M242 798c-19 0 -31 12 -31 31c0 17 12 31 31 31c17 0 31 -14 31 -31c0 -19 -14 -31 -31 -31z" />
    <glyph glyph-name="ring.uc" horiz-adv-x="402" 
d="M265 847c0 60 46 86 86 86s86 -26 86 -86s-46 -86 -86 -86s-86 26 -86 86zM297 847c0 -35 25 -58 54 -58c31 0 54 23 54 58s-23 58 -54 58c-29 0 -54 -23 -54 -58z" />
    <glyph glyph-name="tilde.uc" horiz-adv-x="402" 
d="M443 830c21 0 42 17 65 58l27 -17c-32 -51 -59 -70 -91 -70c-27 0 -53 15 -78 28c-17 8 -32 17 -51 17c-27 0 -46 -19 -70 -60l-27 17c31 51 59 72 96 72c24 0 44 -9 65 -20s41 -25 64 -25z" />
    <glyph glyph-name="hungarumlaut.uc" horiz-adv-x="446" 
d="M367 918l-131 -155l-25 16l131 155zM511 918l-131 -155l-25 16l131 155z" />
    <glyph glyph-name="uni0237" unicode="&#x237;" horiz-adv-x="238" 
d="M32 -64c16 49 101 312 121 371c12 39 21 69 21 96c0 18 -7 27 -22 27c-47 0 -81 -102 -97 -140l-27 12c32 74 64 158 127 158c31 0 55 -17 55 -56c0 -31 -10 -62 -25 -105l-121 -371c-53 -147 -106 -176 -168 -176c-61 0 -93 32 -93 79c0 12 2 22 5 30c1 4 3 8 5 11
l31 -4l-4 -11c-2 -7 -3 -15 -3 -24c0 -31 20 -51 59 -51c56 0 95 41 136 154z" />
    <glyph glyph-name="uni2009" unicode="&#x2009;" horiz-adv-x="80" 
 />
    <glyph glyph-name="uni2032" unicode="&#x2032;" horiz-adv-x="172" 
d="M144 488h-36l110 222h36z" />
    <glyph glyph-name="uni2033" unicode="&#x2033;" horiz-adv-x="302" 
d="M144 488h-36l110 222h36zM274 488h-36l110 222h36z" />
    <glyph glyph-name="plus.lin" horiz-adv-x="496" 
d="M469 337h-178v-186h-30v186h-177v27h177v176h30v-176h178v-27z" />
    <glyph glyph-name="minus.lin" horiz-adv-x="496" 
d="M469 364v-27h-385v27h385z" />
    <glyph glyph-name="multiply.lin" horiz-adv-x="504" 
d="M403 184l-143 143l-143 -143l-19 22l142 142l-142 141l19 22l143 -143l143 143l19 -22l-141 -141l141 -142z" />
    <glyph glyph-name="divide.lin" horiz-adv-x="436" 
d="M247 441c-15 0 -27 11 -27 26s12 26 27 26s26 -11 26 -26s-11 -26 -26 -26zM409 365v-27h-325v27h325zM247 211c-15 0 -27 11 -27 26s12 26 27 26s26 -11 26 -26s-11 -26 -26 -26z" />
    <glyph glyph-name="equal.lin" horiz-adv-x="439" 
d="M392 444v-27h-325v27h325zM392 284v-27h-325v27h325z" />
    <glyph glyph-name="less.lin" horiz-adv-x="424" 
d="M367 189l-325 153v16l325 154v-29l-282 -133l282 -132v-29z" />
    <glyph glyph-name="greater.lin" horiz-adv-x="454" 
d="M87 189v29l282 132l-282 134v28l325 -155v-15z" />
    <glyph glyph-name="K.alt" unicode="&#xe48a;" horiz-adv-x="706" 
d="M229 27l-12 -27h-246l12 27h103l190 646h-108l12 27h248l-12 -27h-104l-103 -350l418 350h-87l12 27h239l-12 -27h-105l-365 -303l216 -343h108l-12 -27h-247l12 27h99l-202 320l-89 -75l-72 -245h107z" />
    <glyph glyph-name="N.alt" unicode="&#xe48d;" horiz-adv-x="775" 
d="M117 27h104l-12 -27h-239l12 27h103l192 646h-109l12 27h146l224 -658l186 631h-110l12 27h245l-12 -27h-103l-199 -675h-40l-224 661z" />
    <glyph glyph-name="T.alt" unicode="&#xe493;" horiz-adv-x="696" 
d="M504 673l-190 -646h101l-12 -27h-236l12 27h99l190 646h-257l-40 -158h-32l47 185h607l-47 -185h-32l40 158h-250z" />
    <glyph glyph-name="Z.alt" unicode="&#xe499;" horiz-adv-x="609" 
d="M225 673l-46 -164h-32l54 191h468l-6 -21l-618 -652h431l45 159h32l-53 -186h-510l6 21l618 652h-389z" />
    <glyph glyph-name="Tbar.alt" horiz-adv-x="696" 
d="M414 27l-12 -27h-236l12 27h99l100 341h-153l8 27h153l82 278h-257l-40 -158h-32l47 185h607l-47 -185h-32l40 158h-250l-82 -278h155l-8 -27h-155l-100 -341h101z" />
    <glyph glyph-name="Eng.alt" horiz-adv-x="775" 
d="M533 -14l-228 673l-188 -632h104l-12 -27h-239l12 27h103l192 646h-109l12 27h146l224 -658l186 631h-110l12 27h245l-12 -27h-103l-197 -670c-53 -180 -133 -262 -252 -262c-79 0 -127 35 -134 102l34 5c5 -49 39 -77 100 -77c103 0 167 74 214 215z" />
    <glyph glyph-name="J.alt1" unicode="&#xe4a9;" horiz-adv-x="438" 
d="M252 196l143 477h-102l12 27h235l-12 -27h-97l-146 -488c-43 -139 -98 -193 -187 -193c-69 0 -110 29 -125 88l30 13c12 -44 39 -71 95 -71c77 0 118 53 154 174z" />
    <glyph glyph-name="N.alt1" unicode="&#xe4ad;" horiz-adv-x="856" 
d="M268 252l126 421h-127l8 27h159l205 -632l179 605h-110l12 27h245l-12 -27h-103l-199 -675h-26l-209 643l-119 -400c-56 -192 -124 -283 -243 -283c-67 0 -105 35 -105 86c0 25 8 42 19 53c5 7 12 12 19 16l16 -24c-4 -3 -7 -6 -10 -10c-5 -7 -10 -17 -10 -33
c0 -33 22 -57 70 -58c43 -1 81 17 109 45c47 47 78 124 106 219z" />
    <glyph glyph-name="M.alt" unicode="&#xe48c;" horiz-adv-x="991" 
d="M67 -43c-72 0 -108 41 -108 94c0 33 15 57 40 78l19 -25c-17 -14 -25 -32 -25 -53c0 -32 19 -64 74 -64c44 0 79 20 110 55c40 47 69 121 96 209l124 422h-125l8 27h163l60 -644l439 644h152l-12 -27h-98l-192 -646h103l-12 -27h-234l12 27h95l181 611l-434 -638h-28
l-59 632l-115 -393c-59 -198 -129 -282 -234 -282z" />
    <glyph glyph-name="ampersand.uc" horiz-adv-x="818" 
d="M329 -18c-169 0 -257 107 -257 260c0 132 65 228 148 228c48 0 70 -33 75 -72c11 21 18 39 26 58c28 67 38 111 38 143c0 40 -12 69 -36 100l27 22c24 -36 45 -67 45 -122c0 -35 -12 -85 -43 -156c-45 -101 -121 -257 -180 -377c38 -36 90 -54 157 -54
c176 0 228 144 228 272c0 71 -7 130 -12 166c-8 3 -17 4 -27 4c-55 0 -95 -41 -95 -109c0 -15 1 -25 3 -32c1 -4 3 -7 4 -10l-26 -12c-3 4 -5 9 -7 14c-3 9 -6 22 -6 39c0 81 55 140 127 140c56 0 95 -35 132 -68c32 -29 63 -56 103 -56c44 0 62 33 62 65
c0 49 -41 71 -89 78l7 26c56 -5 113 -37 113 -104c0 -48 -27 -95 -92 -95c-52 0 -87 31 -122 62c-19 16 -34 32 -53 43c5 -35 14 -88 14 -151c0 -147 -69 -302 -264 -302zM108 241c0 -61 14 -110 41 -149c43 88 88 179 125 259c-3 51 -18 89 -57 89
c-64 0 -109 -92 -109 -199z" />
    <glyph glyph-name="Eng.alt1" horiz-adv-x="825" 
d="M368 -259c-79 0 -127 35 -134 102l34 5c5 -49 39 -77 100 -77c107 0 173 81 220 236l-173 628l-123 -412c-55 -185 -125 -269 -230 -269c-72 0 -108 41 -108 93c0 35 15 58 40 79l19 -25c-19 -15 -25 -34 -25 -53c0 -32 19 -64 74 -64c47 0 81 22 112 58
c39 45 66 113 89 192l132 439h-126l8 27h155l174 -633l177 606h-108l12 27h245l-12 -27h-104l-196 -670c-52 -180 -133 -262 -252 -262z" />
    </font>
</defs>
</svg>
