<?xml version="1.0" standalone="no"?>
<!DOCTYPE svg PUBLIC "-//W3C//DTD SVG 1.1//EN" "http://www.w3.org/Graphics/SVG/1.1/DTD/svg11.dtd" >
<svg xmlns="http://www.w3.org/2000/svg" xmlns:xlink="http://www.w3.org/1999/xlink" version="1.1">
<metadata>
Created by FontForge 20170910 at Sun Jul 24 11:53:27 2016
 By Jimmy Wärting
Copyright \(c\) 2014 Commercial Type. All rights reserved.
</metadata>
<defs>
<font id="MarianText-1757Roman" horiz-adv-x="450" >
  <font-face 
    font-family="Marian Text"
    font-weight="400"
    font-stretch="normal"
    units-per-em="1000"
    panose-1="0 0 0 0 0 0 0 0 0 0"
    ascent="700"
    descent="-300"
    x-height="450"
    cap-height="700"
    bbox="-171 -318 1138 1135"
    underline-thickness="26"
    underline-position="-204"
    unicode-range="U+000D-FB06"
  />
<missing-glyph horiz-adv-x="250" 
 />
    <glyph glyph-name="f_b" unicode="fb" horiz-adv-x="853" 
d="M583 -10c-72 0 -120 23 -148 54v-44l-36 -10v431h-247v-394h85v-27h-204v27h83v394h-103v29h103v110c0 68 23 111 56 139c36 31 81 39 124 39c40 0 79 -8 103 -32v14l36 23v-355c31 47 90 72 161 72c127 0 222 -91 222 -235c0 -148 -107 -235 -235 -235zM152 559v-109
h247v208c-16 37 -63 50 -104 50c-37 0 -71 -9 -98 -30c-31 -25 -45 -63 -45 -119zM583 20c113 0 199 81 199 205s-74 205 -186 205c-53 0 -96 -16 -124 -37c-23 -17 -37 -37 -37 -64v-244c27 -39 84 -65 148 -65z" />
    <glyph glyph-name="f_f" unicode="ff" horiz-adv-x="623" 
d="M152 539v-89h247v110c0 39 7 68 19 92c-35 27 -75 36 -118 36s-77 -9 -106 -33c-28 -23 -42 -61 -42 -116zM33 0v27h83v394h-103v29h103v90c0 68 23 111 56 139c36 31 81 39 132 39c52 0 94 -11 129 -42c6 8 13 16 22 23c36 31 81 39 132 39c57 0 103 -15 140 -51
l-18 -22c-35 31 -79 43 -126 43c-43 0 -77 -9 -106 -33c-28 -23 -42 -61 -42 -116v-109h162v-29h-162v-394h85v-27h-204v27h83v394h-247v-394h85v-27h-204z" />
    <glyph glyph-name="f_f_b" unicode="ffb" horiz-adv-x="1136" 
d="M866 -10c-72 0 -120 23 -148 54v-44l-36 -10v431h-247v-394h85v-27h-204v27h83v394h-247v-394h85v-27h-204v27h83v394h-103v29h103v90c0 68 23 111 56 139c36 31 81 39 132 39c52 0 94 -11 129 -42c6 8 13 16 22 23c36 31 81 39 124 39c40 0 79 -8 103 -32v14l36 23v-355
c31 47 90 72 161 72c127 0 222 -91 222 -235c0 -148 -107 -235 -235 -235zM435 559v-109h247v208c-16 37 -63 50 -104 50c-37 0 -71 -9 -98 -30c-31 -25 -45 -63 -45 -119zM152 539v-89h247v110c0 39 7 68 19 92c-35 27 -75 36 -118 36s-77 -9 -106 -33
c-28 -23 -42 -61 -42 -116zM866 20c113 0 199 81 199 205s-74 205 -186 205c-53 0 -96 -16 -124 -37c-23 -17 -37 -37 -37 -64v-244c27 -39 84 -65 148 -65z" />
    <glyph glyph-name="f_f_h" unicode="ffh" horiz-adv-x="1167" 
d="M435 559v-109h247v208c-16 36 -63 50 -106 50c-35 0 -69 -9 -96 -30c-31 -25 -45 -63 -45 -119zM152 539v-89h247v110c0 39 7 68 19 92c-35 27 -75 36 -118 36s-77 -9 -106 -33c-28 -23 -42 -61 -42 -116zM33 0v27h83v394h-103v29h103v90c0 68 23 111 56 139
c36 31 81 39 132 39c52 0 94 -11 129 -42c6 8 13 16 22 23c36 31 81 39 122 39s80 -9 105 -33v15l36 23v-361c35 40 100 78 179 78c95 0 158 -45 158 -149v-284h83v-27h-205v27h86v284c0 81 -47 119 -122 119c-68 0 -123 -30 -160 -65c-11 -11 -19 -20 -19 -40v-298h84v-27
h-203v27h83v394h-247v-394h85v-27h-204v27h83v394h-247v-394h85v-27h-204z" />
    <glyph glyph-name="f_f_i" unicode="ffi" horiz-adv-x="829" 
d="M399 450v110c0 39 7 68 19 92c-35 27 -75 36 -118 36s-77 -9 -106 -33c-28 -23 -42 -61 -42 -116v-89h247zM237 0h-204v27h83v394h-103v29h103v90c0 68 23 111 56 139c36 31 81 39 132 39c52 0 94 -11 129 -42c6 8 13 16 22 23c36 31 82 39 125 39c72 0 121 -27 136 -88
l-31 -13c-15 51 -54 71 -109 71c-35 0 -70 -9 -99 -33c-28 -23 -42 -61 -42 -116v-109h161c25 0 74 1 99 4h23v-427h82v-27h-201v27h83v398c-23 -3 -57 -4 -85 -4h-162v-394h85v-27h-204v27h83v394h-247v-394h85v-27z" />
    <glyph glyph-name="f_f_j" unicode="ffj" horiz-adv-x="823" 
d="M399 450v110c0 39 7 68 19 92c-35 27 -75 36 -118 36s-77 -9 -106 -33c-28 -23 -42 -61 -42 -116v-89h247zM563 -280c-56 0 -89 15 -128 46l16 25c35 -28 65 -41 112 -41c88 0 119 54 119 158v517c-23 -3 -57 -4 -85 -4h-162v-394h85v-27h-204v27h83v394h-247v-394h85
v-27h-204v27h83v394h-103v29h103v90c0 68 23 111 56 139c36 31 81 39 132 39c52 0 94 -11 129 -42c6 8 13 16 22 23c36 31 82 39 125 39c72 0 121 -27 136 -88l-31 -13c-15 51 -54 71 -109 71c-35 0 -70 -9 -99 -33c-28 -23 -42 -61 -42 -116v-109h161c25 0 74 1 99 4h23
v-546c0 -136 -56 -188 -155 -188z" />
    <glyph glyph-name="f_f_k" unicode="ffk" horiz-adv-x="1102" 
d="M435 559v-109h247v208c-16 36 -63 50 -106 50c-35 0 -69 -9 -96 -30c-31 -25 -45 -63 -45 -119zM152 539v-89h247v110c0 39 7 68 19 92c-35 27 -75 36 -118 36s-77 -9 -106 -33c-28 -23 -42 -61 -42 -116zM33 0v27h83v394h-103v29h103v90c0 68 23 111 56 139
c36 31 81 39 132 39c52 0 94 -11 129 -42c6 8 13 16 22 23c36 31 81 39 122 39s80 -9 105 -33v15l36 23v-510l211 190h-62v27h189v-27h-84l-199 -179l225 -217h86v-27h-207v27h72l-202 194l-29 -26v-168h76v-27h-195v27h83v394h-247v-394h85v-27h-204v27h83v394h-247v-394
h85v-27h-204z" />
    <glyph glyph-name="f_f_l" unicode="ffl" horiz-adv-x="833" 
d="M576 708c-35 0 -69 -9 -96 -30c-31 -25 -45 -63 -45 -119v-109h247v208c-16 36 -63 50 -106 50zM300 688c-43 0 -77 -9 -106 -33c-28 -23 -42 -61 -42 -116v-89h247v110c0 39 7 68 19 92c-35 27 -75 36 -118 36zM304 718c52 0 94 -11 129 -42c6 8 13 16 22 23
c36 31 81 39 122 39s80 -9 105 -33v15l36 23v-716h86v-27h-209v27h87v394h-247v-394h85v-27h-204v27h83v394h-247v-394h85v-27h-204v27h83v394h-103v29h103v90c0 68 23 111 56 139c36 31 81 39 132 39z" />
    <glyph glyph-name="f_h" unicode="fh" horiz-adv-x="884" 
d="M152 559v-109h247v208c-16 36 -63 50 -106 50c-35 0 -69 -9 -96 -30c-31 -25 -45 -63 -45 -119zM33 0v27h83v394h-103v29h103v110c0 68 23 111 56 139c36 31 81 39 122 39s80 -9 105 -33v15l36 23v-361c35 40 100 78 179 78c95 0 158 -45 158 -149v-284h83v-27h-205v27
h86v284c0 81 -47 119 -122 119c-68 0 -123 -30 -160 -65c-11 -11 -19 -20 -19 -40v-298h84v-27h-203v27h83v394h-247v-394h85v-27h-204z" />
    <glyph glyph-name="f_i" unicode="fi" horiz-adv-x="546" 
d="M314 421h-162v-394h85v-27h-204v27h83v394h-103v29h103v110c0 68 23 111 56 139c36 31 82 39 125 39c72 0 121 -27 136 -88l-31 -13c-15 51 -54 71 -109 71c-35 0 -70 -9 -99 -33c-28 -23 -42 -61 -42 -116v-109h161c25 0 74 1 99 4h23v-427h82v-27h-201v27h83v398
c-23 -3 -57 -4 -85 -4z" />
    <glyph glyph-name="f_j" unicode="fj" horiz-adv-x="540" 
d="M280 -280c-56 0 -89 15 -128 46l16 25c35 -28 65 -41 112 -41c88 0 119 54 119 158v517c-23 -3 -57 -4 -85 -4h-162v-394h85v-27h-204v27h83v394h-103v29h103v110c0 68 23 111 56 139c36 31 82 39 125 39c72 0 121 -27 136 -88l-31 -13c-15 51 -54 71 -109 71
c-35 0 -70 -9 -99 -33c-28 -23 -42 -61 -42 -116v-109h161c25 0 74 1 99 4h23v-546c0 -136 -56 -188 -155 -188z" />
    <glyph glyph-name="f_k" unicode="fk" horiz-adv-x="819" 
d="M152 559v-109h247v208c-16 36 -63 50 -106 50c-35 0 -69 -9 -96 -30c-31 -25 -45 -63 -45 -119zM33 0v27h83v394h-103v29h103v110c0 68 23 111 56 139c36 31 81 39 122 39s80 -9 105 -33v15l36 23v-510l211 190h-62v27h189v-27h-84l-199 -179l225 -217h86v-27h-207v27h72
l-202 194l-29 -26v-168h76v-27h-195v27h83v394h-247v-394h85v-27h-204z" />
    <glyph glyph-name="f_l" unicode="fl" horiz-adv-x="550" 
d="M152 450h247v208c-16 36 -63 50 -106 50c-35 0 -69 -9 -96 -30c-31 -25 -45 -63 -45 -119v-109zM237 0h-204v27h83v394h-103v29h103v110c0 68 23 111 56 139c36 31 81 39 122 39s80 -9 105 -33v15l36 23v-716h86v-27h-209v27h87v394h-247v-394h85v-27z" />
    <glyph glyph-name=".notdef" horiz-adv-x="250" 
 />
    <glyph glyph-name="NULL" horiz-adv-x="0" 
 />
    <glyph glyph-name="NULL" horiz-adv-x="0" 
 />
    <glyph glyph-name="CR" unicode="&#xd;" horiz-adv-x="196" 
 />
    <glyph glyph-name="space" unicode=" " horiz-adv-x="196" 
 />
    <glyph glyph-name="numbersign" unicode="#" horiz-adv-x="659" 
d="M398 223l28 172h-164l-28 -172h164zM361 0l32 196h-164l-32 -196h-32l32 196h-164v27h169l28 172h-165v27h170l28 170h32l-28 -170h164l28 170h32l-28 -170h163v-27h-168l-28 -172h164v-27h-169l-32 -196h-32z" />
    <glyph glyph-name="dollar" unicode="$" horiz-adv-x="456" 
d="M99 427c0 -53 35 -80 116 -118v211c-72 0 -116 -32 -116 -93zM367 124c0 67 -40 94 -120 131v-241c66 0 120 34 120 110zM215 -87v75c-69 9 -110 50 -130 97v-86h-30v178h29c7 -79 51 -146 131 -161v254c-104 48 -150 83 -150 154c0 84 65 124 150 124v71h32v-73
c63 -9 95 -43 111 -82v72h30v-149h-28c-16 80 -53 120 -113 131v-225c83 -40 154 -79 154 -172c0 -94 -76 -135 -154 -135v-73h-32z" />
    <glyph glyph-name="percent" unicode="%" horiz-adv-x="749" 
d="M122 -37l494 646l24 -20l-494 -646zM324 409c0 -104 -77 -145 -141 -145s-141 41 -141 145s77 145 141 145s141 -41 141 -145zM183 526c-52 0 -107 -40 -107 -117s55 -117 107 -117s107 40 107 117s-55 117 -107 117zM566 -20c-64 0 -141 41 -141 145s77 145 141 145
s141 -41 141 -145s-77 -145 -141 -145zM673 125c0 77 -55 117 -107 117s-107 -40 -107 -117s55 -117 107 -117s107 40 107 117z" />
    <glyph glyph-name="ampersand" unicode="&#x26;" horiz-adv-x="757" 
d="M633 -14c-79 0 -152 85 -200 138c-57 -88 -127 -138 -207 -138c-103 0 -178 57 -178 160c0 93 91 163 166 214c-48 53 -102 122 -102 195c0 124 99 159 160 159c72 0 151 -37 151 -141c0 -105 -85 -167 -159 -217l166 -179c69 127 110 264 211 264c40 0 61 -21 73 -49
l-27 -13c-11 23 -22 34 -46 34c-87 0 -127 -152 -189 -260c51 -54 109 -139 181 -139c53 0 69 38 82 102l31 -8c-20 -84 -48 -122 -113 -122zM226 14c71 0 133 50 186 133c-43 46 -130 138 -177 190c-68 -46 -151 -109 -151 -191c0 -81 54 -132 142 -132zM148 555
c0 -66 52 -128 95 -176c67 45 144 100 144 194c0 79 -55 113 -115 113c-52 0 -124 -35 -124 -131z" />
    <glyph glyph-name="quotesingle" unicode="'" horiz-adv-x="152" 
d="M94 710v-222h-36v222h36z" />
    <glyph glyph-name="parenleft" unicode="(" horiz-adv-x="297" 
d="M259 -238l-23 -19c-115 142 -173 281 -173 492c0 210 60 355 172 497l24 -19c-102 -131 -160 -268 -160 -478s58 -344 160 -473z" />
    <glyph glyph-name="parenright" unicode=")" horiz-adv-x="297" 
d="M61 -257l-23 19c102 129 160 263 160 473s-58 347 -160 478l24 19c112 -142 172 -287 172 -497c0 -211 -58 -350 -173 -492z" />
    <glyph glyph-name="asterisk" unicode="*" horiz-adv-x="502" 
d="M275 501l90 -156l-25 -13l-89 154l-89 -154l-25 13l90 156h-179v27h179l-90 156l25 13l89 -154l89 154l25 -13l-90 -156h179v-27h-179z" />
    <glyph glyph-name="plus" unicode="+" horiz-adv-x="515" 
d="M242 45v186h-177v27h177v176h30v-176h178v-27h-178v-186h-30z" />
    <glyph glyph-name="comma" unicode="," horiz-adv-x="249" 
d="M150 34c0 44 -20 67 -55 67c-11 0 -20 -2 -27 -5l-10 -5l-11 25l13 7c9 4 21 8 38 8c37 0 88 -18 88 -98c0 -77 -49 -140 -124 -187l-17 26c61 39 105 98 105 162z" />
    <glyph glyph-name="hyphen" unicode="-" horiz-adv-x="330" 
d="M257 220h-184v27h184v-27z" />
    <glyph glyph-name="period" unicode="." horiz-adv-x="214" 
d="M114 -10c-16 0 -31 12 -31 31s15 31 31 31s31 -12 31 -31s-15 -31 -31 -31z" />
    <glyph glyph-name="slash" unicode="/" horiz-adv-x="325" 
d="M332 711l-324 -890l-30 9l324 890z" />
    <glyph glyph-name="zero" unicode="0" horiz-adv-x="556" 
d="M47 225c0 133 95 235 231 235s231 -102 231 -235s-95 -235 -231 -235s-231 102 -231 235zM83 225c0 -111 74 -205 195 -205c120 0 195 94 195 205s-74 205 -195 205s-195 -94 -195 -205z" />
    <glyph glyph-name="one" unicode="1" horiz-adv-x="321" 
d="M67 0v27h91v387c-31 -12 -69 -25 -116 -37v30c49 13 92 26 128 43h24v-423h90v-27h-217z" />
    <glyph glyph-name="two" unicode="2" horiz-adv-x="452" 
d="M364 -72l6 62h-332v21c39 26 116 70 182 121c81 65 149 122 149 204c0 57 -37 94 -120 94c-101 0 -153 -57 -153 -121c0 -37 20 -59 52 -59c28 0 42 16 53 40l29 -13c-15 -35 -40 -57 -84 -57c-45 0 -86 25 -86 89c0 83 69 151 189 151c104 0 156 -45 156 -124
c0 -89 -79 -159 -167 -225c-51 -39 -106 -71 -145 -94h310l-9 -89h-30z" />
    <glyph glyph-name="three" unicode="3" horiz-adv-x="487" 
d="M209 -211c-132 0 -186 70 -186 137c0 23 6 45 19 65l25 -17c-8 -14 -12 -29 -12 -46c0 -53 46 -109 154 -109c133 0 204 85 204 191c0 84 -57 138 -150 138c-19 0 -36 -5 -51 -12l-78 -42l-12 24l129 70c70 38 124 76 124 146c0 60 -41 96 -121 96
c-78 0 -148 -34 -148 -110c0 -35 16 -61 48 -61c9 0 16 2 35 9l8 -24c-20 -9 -31 -12 -46 -12c-45 0 -79 29 -79 88c0 94 86 140 182 140c99 0 157 -44 157 -124c0 -76 -53 -119 -126 -156l-20 -10c4 1 9 1 13 1c104 0 171 -68 171 -161c0 -125 -87 -221 -240 -221z" />
    <glyph glyph-name="four" unicode="4" horiz-adv-x="507" 
d="M214 -220v27h97v198h-268v18l276 470h28v-461h148v-27h-148v-198h106v-27h-239zM311 32v388l-228 -388h228z" />
    <glyph glyph-name="five" unicode="5" horiz-adv-x="456" 
d="M188 -211c-112 0 -170 55 -170 127c0 11 2 24 7 35l30 -4c-5 -12 -5 -22 -5 -31c0 -56 47 -97 138 -97c116 0 204 71 204 199c0 109 -65 163 -145 163c-77 0 -124 -44 -140 -100l-32 9l60 361c75 -16 127 -22 167 -22c18 0 30 4 37 13c9 9 12 25 11 46h30
c-1 -33 -7 -53 -16 -68c-15 -19 -37 -21 -62 -21c-43 0 -88 4 -141 15l-44 -264c25 35 68 61 132 61c92 0 179 -54 179 -193c0 -151 -108 -229 -240 -229z" />
    <glyph glyph-name="six" unicode="6" horiz-adv-x="512" 
d="M466 214c0 -124 -72 -224 -207 -224c-140 0 -209 110 -209 249c0 230 101 422 273 422c57 0 99 -15 136 -47l-18 -26c-31 29 -71 43 -118 43c-136 0 -211 -144 -232 -307c35 72 96 106 172 106c112 0 203 -76 203 -216zM430 214c0 115 -67 186 -167 186
c-71 0 -131 -35 -164 -100c-7 -12 -13 -29 -13 -61c0 -115 49 -219 173 -219c116 0 171 91 171 194z" />
    <glyph glyph-name="seven" unicode="7" horiz-adv-x="449" 
d="M153 -211l220 634h-288l-9 -162h-32l13 225h32l-2 -36h326v-18l-223 -643h-37z" />
    <glyph glyph-name="eight" unicode="8" horiz-adv-x="465" 
d="M234 -10c-124 0 -189 74 -189 167s84 152 152 189c-62 32 -131 73 -131 167c0 93 85 148 168 148c107 0 170 -61 170 -141c0 -91 -79 -139 -138 -174c66 -37 154 -83 154 -187c0 -100 -67 -169 -186 -169zM102 513c0 -88 75 -121 131 -150c49 27 135 69 135 157
c0 59 -46 111 -134 111c-68 0 -132 -47 -132 -118zM234 20c101 0 150 62 150 139c0 96 -92 138 -155 170c-64 -32 -148 -87 -148 -172c0 -75 49 -137 153 -137z" />
    <glyph glyph-name="nine" unicode="9" horiz-adv-x="512" 
d="M82 237c0 -117 66 -187 165 -187c75 0 141 40 169 108c5 13 10 29 10 56c0 104 -51 216 -175 216c-117 0 -169 -97 -169 -193zM188 -211c-56 0 -100 13 -136 49l19 25c25 -25 63 -44 118 -44c153 0 217 126 233 301c-39 -68 -106 -100 -178 -100c-109 0 -198 76 -198 217
c0 119 73 223 205 223c139 0 211 -114 211 -254c0 -253 -82 -417 -274 -417z" />
    <glyph glyph-name="colon" unicode=":" horiz-adv-x="214" 
d="M114 -10c-16 0 -31 12 -31 31s15 31 31 31s31 -12 31 -31s-15 -31 -31 -31zM114 398c-16 0 -31 12 -31 31s15 31 31 31s31 -12 31 -31s-15 -31 -31 -31z" />
    <glyph glyph-name="semicolon" unicode=";" horiz-adv-x="249" 
d="M150 34c0 44 -20 67 -55 67c-11 0 -20 -2 -27 -5l-10 -5l-11 25l13 7c9 4 21 8 38 8c37 0 88 -18 88 -98c0 -77 -49 -140 -124 -187l-17 26c61 39 105 98 105 162zM107 398c-16 0 -31 12 -31 31s15 31 31 31s31 -12 31 -31s-15 -31 -31 -31z" />
    <glyph glyph-name="less" unicode="&#x3c;" horiz-adv-x="440" 
d="M375 83l-325 153v16l325 154v-29l-282 -133l282 -132v-29z" />
    <glyph glyph-name="equal" unicode="=" horiz-adv-x="455" 
d="M65 338h325v-27h-325v27zM65 178h325v-27h-325v27z" />
    <glyph glyph-name="greater" unicode="&#x3e;" horiz-adv-x="440" 
d="M65 83v29l282 132l-282 134v28l325 -155v-15z" />
    <glyph glyph-name="question" unicode="?" horiz-adv-x="438" 
d="M137 138h-34v211l19 16c24 -19 60 -28 99 -28c76 0 141 50 141 162c0 81 -52 147 -152 147c-47 0 -91 -8 -130 -43l-16 25c48 37 91 47 147 47c115 0 187 -74 187 -176c0 -138 -86 -190 -177 -190c-32 0 -60 6 -84 19v-190zM118 -10c-16 0 -29 13 -29 28
c0 17 13 30 29 30s28 -13 28 -30c0 -15 -12 -28 -28 -28z" />
    <glyph glyph-name="at" unicode="@" horiz-adv-x="831" 
d="M525 13c-45 0 -79 21 -84 64c-1 1 -1 4 -1 7c-28 -43 -66 -71 -115 -71c-44 0 -89 24 -89 95c0 69 42 168 104 233c33 35 76 58 120 58c33 0 53 -14 64 -34l10 28h37l-82 -236c-7 -19 -15 -38 -15 -63c0 -43 28 -53 56 -53c85 0 196 107 196 271c0 145 -99 227 -264 227
c-212 0 -382 -154 -382 -406c0 -160 106 -278 318 -278s302 104 352 197l26 -18c-51 -96 -151 -207 -378 -207c-229 0 -354 126 -354 306c0 274 191 434 418 434c164 0 300 -78 300 -255c0 -190 -138 -299 -237 -299zM460 371c-36 0 -72 -22 -99 -51
c-56 -62 -89 -154 -89 -211c0 -49 24 -68 57 -68c58 0 105 61 126 124l45 130c5 13 7 26 7 38c0 23 -16 38 -47 38z" />
    <glyph glyph-name="A" unicode="A" horiz-adv-x="778" 
d="M537 263l-150 386l-151 -386h301zM234 27v-27h-217v27h92l267 682h24l269 -682h92v-27h-227v27h97l-83 208h-323l-82 -208h91z" />
    <glyph glyph-name="B" unicode="B" horiz-adv-x="652" 
d="M139 27v646h-106v27h304c130 0 218 -43 218 -160c0 -88 -46 -143 -122 -164v-1c71 -8 172 -58 172 -178c0 -132 -92 -197 -236 -197h-336v27h106zM519 539c0 99 -75 134 -182 134h-162v-286h186c32 0 60 6 84 17c49 24 74 71 74 135zM175 27h194c123 0 200 57 200 170
c0 75 -42 130 -126 153c-24 7 -53 10 -85 10h-183v-333z" />
    <glyph glyph-name="C" unicode="C" horiz-adv-x="751" 
d="M649 21v124c-35 -80 -117 -159 -262 -159c-207 0 -340 162 -340 363c0 200 133 365 345 365c144 0 223 -74 257 -161v126h30v-227h-28c-9 64 -31 118 -67 158c-44 48 -108 76 -192 76c-197 0 -309 -158 -309 -337c0 -180 112 -335 304 -335c149 0 248 93 264 224h28v-217
h-30z" />
    <glyph glyph-name="D" unicode="D" horiz-adv-x="774" 
d="M33 0v27h106v646h-106v27h314c255 0 380 -146 380 -350s-124 -350 -380 -350h-314zM347 673h-172v-646h172c237 0 344 142 344 323s-104 323 -344 323z" />
    <glyph glyph-name="E" unicode="E" horiz-adv-x="640" 
d="M32 0v27h107v646h-107v27h520v-192h-32v165h-345v-289h227v115h32v-258h-32v116h-227v-330h376v199h32v-226h-551z" />
    <glyph glyph-name="F" unicode="F" horiz-adv-x="608" 
d="M32 0v27h107v646h-107v27h520v-203h-32v176h-345v-299h222v110h32v-247h-32v110h-222v-320h112v-27h-255z" />
    <glyph glyph-name="G" unicode="G" horiz-adv-x="798" 
d="M681 288v-217c-47 -39 -144 -85 -271 -85c-239 0 -363 164 -363 368s140 360 344 360c146 0 222 -78 251 -160v135h30v-237h-28c-7 64 -30 115 -63 154c-47 53 -113 80 -192 80c-184 0 -306 -151 -306 -332c0 -185 106 -340 328 -340c115 0 199 42 234 71v203h-129v27
h270v-27h-105z" />
    <glyph glyph-name="H" unicode="H" horiz-adv-x="816" 
d="M32 0v27h107v646h-107v27h242v-27h-99v-289h466v289h-99v27h242v-27h-107v-646h107v-27h-242v27h99v329h-466v-329h99v-27h-242z" />
    <glyph glyph-name="I" unicode="I" horiz-adv-x="314" 
d="M32 0v27h107v646h-107v27h250v-27h-107v-646h107v-27h-250z" />
    <glyph glyph-name="J" unicode="J" horiz-adv-x="330" 
d="M6 -269c-92 0 -138 43 -155 100l28 11c15 -47 54 -81 127 -81c115 0 152 88 152 240v672h-107v27h249v-27h-106v-672c0 -185 -59 -270 -188 -270z" />
    <glyph glyph-name="K" unicode="K" horiz-adv-x="737" 
d="M32 0v27h107v646h-107v27h243v-27h-100v-356l337 356h-78v27h230v-27h-112l-287 -303l341 -343h109v-27h-256v27h100l-317 319l-67 -72v-247h100v-27h-243z" />
    <glyph glyph-name="L" unicode="L" horiz-adv-x="650" 
d="M32 0v27h107v646h-107v27h259v-27h-116v-646h376v189h32v-216h-551z" />
    <glyph glyph-name="M" unicode="M" horiz-adv-x="927" 
d="M277 0h-245v27h107v646h-107v27h150l280 -630l281 630h151v-27h-106v-646h106v-27h-249v27h107v616l-278 -623h-25l-278 625v-618h106v-27z" />
    <glyph glyph-name="N" unicode="N" horiz-adv-x="813" 
d="M681 -3l-37 1l-473 656v-627h112v-27h-251v27h107v647h-108v27h147l471 -650v622h-119v27h257v-27h-106v-676z" />
    <glyph glyph-name="O" unicode="O" horiz-adv-x="814" 
d="M407 -14c-214 0 -360 159 -360 364s146 364 360 364s360 -159 360 -364s-146 -364 -360 -364zM407 686c-197 0 -324 -151 -324 -336s127 -336 324 -336s324 151 324 336s-127 336 -324 336z" />
    <glyph glyph-name="P" unicode="P" horiz-adv-x="614" 
d="M32 0v27h107v646h-107v27h315c139 0 230 -64 230 -187c0 -121 -99 -192 -236 -192h-166v-294h110v-27h-253zM347 673h-172v-325h166c118 0 200 62 200 165c0 104 -73 160 -194 160z" />
    <glyph glyph-name="Q" unicode="Q" horiz-adv-x="814" 
d="M407 686c-197 0 -324 -151 -324 -336s127 -336 324 -336s324 151 324 336s-127 336 -324 336zM766 -318c-119 0 -196 56 -281 122c-35 27 -68 51 -103 70c-36 -45 -75 -84 -131 -84c-44 0 -81 23 -81 68c0 41 32 73 104 73c36 0 69 -8 100 -21c20 27 40 54 64 77
c-11 -1 -20 -1 -31 -1c-214 0 -360 159 -360 364s146 364 360 364s360 -159 360 -364c0 -176 -108 -321 -275 -355c-35 -20 -63 -58 -92 -97c36 -19 68 -43 103 -70c80 -61 151 -116 264 -116c150 0 176 98 189 210h31c-13 -128 -53 -240 -221 -240zM255 -182
c40 0 70 31 101 68c-27 11 -54 17 -83 17c-40 0 -71 -13 -71 -45c0 -28 24 -40 53 -40z" />
    <glyph glyph-name="R" unicode="R" horiz-adv-x="733" 
d="M356 673h-181v-318h175c121 0 180 62 180 165c0 97 -62 153 -174 153zM285 27v-27h-253v27h107v646h-107v27h324c129 0 210 -63 210 -180c0 -113 -72 -192 -197 -192h-2c59 -77 161 -188 230 -255c37 -37 56 -46 104 -46h45v-27h-57c-50 0 -75 11 -117 51
c-77 72 -190 199 -249 277h-148v-301h110z" />
    <glyph glyph-name="S" unicode="S" horiz-adv-x="572" 
d="M310 -14c-126 0 -196 76 -220 154v-137h-30v230h28c11 -116 86 -219 222 -219c85 0 169 41 169 150c0 72 -36 115 -135 163c-48 24 -88 40 -139 65c-88 45 -127 90 -127 161c0 108 83 161 179 161c111 0 164 -67 186 -135v120h30v-193h-28c-27 125 -97 180 -189 180
c-81 0 -142 -43 -142 -130c0 -53 26 -94 105 -133c51 -27 94 -44 141 -68c108 -54 155 -99 155 -190c0 -134 -107 -179 -205 -179z" />
    <glyph glyph-name="T" unicode="T" horiz-adv-x="746" 
d="M248 0v27h107v646h-273v-171h-32v198h646v-198h-32v171h-273v-646h107v-27h-250z" />
    <glyph glyph-name="U" unicode="U" horiz-adv-x="818" 
d="M409 -14c-73 0 -135 13 -182 44c-59 39 -91 103 -91 202v441h-107v27h253v-27h-110v-441c0 -81 24 -138 72 -173c40 -31 96 -43 165 -43c79 0 139 17 180 54c39 35 58 89 58 162v441h-101v27h243v-27h-106v-441c0 -85 -25 -146 -70 -185c-48 -43 -119 -61 -204 -61z" />
    <glyph glyph-name="V" unicode="V" horiz-adv-x="768" 
d="M373 -9l-269 682h-92v27h229v-27h-101l245 -623l245 623h-91v27h217v-27h-92l-267 -682h-24z" />
    <glyph glyph-name="W" unicode="W" horiz-adv-x="1121" 
d="M351 -9h-31l-218 682h-86v27h215v-27h-94l200 -623l209 643h29l212 -641l199 621h-96v27h215v-27h-85l-218 -682h-31l-211 640z" />
    <glyph glyph-name="X" unicode="X" horiz-adv-x="782" 
d="M22 0v27h104l248 341l-218 305h-110v27h264v-27h-114l200 -278l202 278h-101v27h247v-27h-109l-223 -307l241 -339h107v-27h-254v27h107l-223 312l-227 -312h116v-27h-257z" />
    <glyph glyph-name="Y" unicode="Y" horiz-adv-x="676" 
d="M541 673h-87v27h215v-27h-94l-223 -343v-303h100v-27h-236v27h100v303l-216 343h-93v27h225v-27h-94l198 -313z" />
    <glyph glyph-name="Z" unicode="Z" horiz-adv-x="669" 
d="M45 -10v18l505 675h-422v-164h-32v191h499v-18l-505 -675h464v194h32v-221h-541z" />
    <glyph glyph-name="bracketleft" unicode="[" horiz-adv-x="315" 
d="M88 -239v939h199v-27h-163v-885h163v-27h-199z" />
    <glyph glyph-name="backslash" unicode="\" horiz-adv-x="325" 
d="M317 -178l-324 890l30 12l324 -890z" />
    <glyph glyph-name="bracketright" unicode="]" horiz-adv-x="315" 
d="M227 700v-939h-199v27h163v885h-163v27h199z" />
    <glyph glyph-name="asciicircum" unicode="^" horiz-adv-x="555" 
d="M430 444l-151 228l-153 -228l-26 17l166 249h23l166 -249z" />
    <glyph glyph-name="underscore" unicode="_" horiz-adv-x="394" 
d="M391 -219h-388v27h388v-27z" />
    <glyph glyph-name="grave" unicode="`" 
d="M151 733l28 13l93 -193l-28 -13z" />
    <glyph glyph-name="a" unicode="a" horiz-adv-x="471" 
d="M387 -10c-36 0 -64 12 -64 65v3c-36 -35 -88 -68 -159 -68c-86 0 -116 55 -116 106c0 59 47 94 106 125c60 31 116 55 169 78v64c0 51 -38 67 -105 67c-60 0 -111 -23 -134 -68l-31 13c31 61 89 85 165 85c92 0 141 -25 141 -97v-305c0 -25 10 -38 31 -38
c17 0 32 8 43 32l22 -15c-12 -32 -39 -47 -68 -47zM164 20c71 0 122 34 159 69v179c-47 -20 -101 -43 -157 -74c-47 -25 -82 -51 -82 -98c0 -33 13 -76 80 -76z" />
    <glyph glyph-name="b" unicode="b" horiz-adv-x="546" 
d="M276 -10c-72 0 -120 23 -148 54v-44l-36 -10v710l-83 -13v28l96 15h23v-342c31 47 90 72 161 72c127 0 222 -91 222 -235c0 -148 -107 -235 -235 -235zM276 20c113 0 199 81 199 205s-74 205 -186 205c-53 0 -96 -16 -124 -37c-23 -17 -37 -37 -37 -64v-244
c27 -39 84 -65 148 -65z" />
    <glyph glyph-name="c" unicode="c" horiz-adv-x="491" 
d="M277 460c97 0 150 -48 162 -100l-31 -9c-13 42 -52 79 -131 79c-119 0 -206 -81 -206 -204c0 -117 70 -206 193 -206c80 0 128 36 159 79l23 -19c-35 -48 -90 -90 -182 -90c-136 0 -229 93 -229 236c0 144 109 234 242 234z" />
    <glyph glyph-name="d" unicode="d" horiz-adv-x="571" 
d="M423 -12l-3 67c-25 -33 -76 -65 -155 -65c-128 0 -230 91 -230 235c0 160 121 235 240 235c77 0 121 -30 144 -62v303l-87 -14v28l100 15h23v-657l3 -56l93 13v-27l-106 -15h-22zM398 65c14 14 21 31 21 51v205c0 32 -5 44 -21 63c-21 24 -65 46 -125 46
c-107 0 -202 -69 -202 -205c0 -124 79 -205 197 -205c57 0 103 18 130 45z" />
    <glyph glyph-name="e" unicode="e" horiz-adv-x="485" 
d="M441 258h-368c-1 -11 -2 -22 -2 -33c0 -115 56 -205 182 -205c79 0 134 34 161 73l25 -16c-35 -49 -94 -87 -186 -87c-141 0 -218 95 -218 235c0 132 91 235 222 235c121 0 184 -74 184 -176v-26zM258 430c-87 0 -155 -58 -179 -142h326c-3 76 -47 142 -147 142z" />
    <glyph glyph-name="f" unicode="f" horiz-adv-x="340" 
d="M33 0v27h83v394h-103v29h103v110c0 68 23 111 56 139c36 31 81 39 132 39c57 0 103 -15 140 -51l-18 -22c-35 31 -79 43 -126 43c-43 0 -77 -9 -106 -33c-28 -23 -42 -61 -42 -116v-109h162v-29h-162v-394h85v-27h-204z" />
    <glyph glyph-name="g" unicode="g" horiz-adv-x="537" 
d="M383 291c0 84 -62 141 -147 141s-147 -58 -147 -141s62 -141 147 -141s147 57 147 141zM241 -280c-171 0 -227 80 -227 151c0 40 18 72 43 92l24 -17c-19 -19 -31 -47 -31 -75c0 -59 46 -121 191 -121c83 0 202 34 202 137c0 55 -34 101 -122 101h-165
c-60 0 -91 30 -91 74c0 41 31 67 75 82c-52 27 -86 76 -86 147c0 107 80 169 182 169c51 0 92 -14 125 -41c21 19 48 37 88 37c35 0 76 -12 76 -79h-33c0 43 -23 51 -46 51c-29 0 -49 -14 -64 -29c24 -29 36 -65 36 -108c0 -107 -81 -169 -182 -169c-20 0 -38 2 -55 7
c-51 -7 -80 -31 -80 -66c0 -24 15 -43 55 -43h165c108 0 158 -57 158 -132c0 -125 -139 -168 -238 -168z" />
    <glyph glyph-name="h" unicode="h" horiz-adv-x="597" 
d="M29 0v27h83v673l-83 -13v28l96 15h23v-348c35 40 100 78 179 78c95 0 158 -45 158 -149v-284h83v-27h-205v27h86v284c0 81 -47 119 -122 119c-68 0 -123 -30 -160 -65c-11 -11 -19 -20 -19 -40v-298h84v-27h-203z" />
    <glyph glyph-name="i" unicode="i" horiz-adv-x="259" 
d="M125 625c-19 0 -31 12 -31 31c0 17 12 31 31 31c17 0 31 -14 31 -31c0 -19 -14 -31 -31 -31zM29 27h83v393l-86 -13v28l99 15h23v-423h82v-27h-201v27z" />
    <glyph glyph-name="j" unicode="j" horiz-adv-x="261" 
d="M133 625c-19 0 -31 12 -31 31c0 17 12 31 31 31c17 0 31 -14 31 -31c0 -19 -14 -31 -31 -31zM1 -280c-56 0 -89 15 -128 46l16 25c35 -28 65 -41 112 -41c88 0 119 54 119 158v512l-86 -13v28l99 15h23v-542c0 -136 -56 -188 -155 -188z" />
    <glyph glyph-name="k" unicode="k" horiz-adv-x="526" 
d="M23 0v27h83v673l-86 -13v28l99 15h23v-497l211 190h-62v27h189v-27h-84l-199 -179l225 -217h86v-27h-207v27h72l-202 194l-29 -26v-168h76v-27h-195z" />
    <glyph glyph-name="l" unicode="l" horiz-adv-x="267" 
d="M29 0v27h87v673l-88 -14v28l101 16h23v-703h86v-27h-209z" />
    <glyph glyph-name="m" unicode="m" horiz-adv-x="873" 
d="M29 0v27h83v339l-5 55l-84 -14v28l96 15h22l6 -68c31 40 83 78 160 78c75 0 125 -34 141 -85c30 43 84 85 166 85c103 0 148 -51 148 -143v-290h82v-27h-201v27h83v290c0 71 -29 113 -112 113c-64 0 -106 -28 -133 -55c-17 -18 -26 -35 -26 -50v-298h82v-27h-201v27h83
v308c0 60 -41 95 -112 95c-64 0 -106 -28 -133 -55c-17 -18 -26 -35 -26 -50v-298h84v-27h-203z" />
    <glyph glyph-name="n" unicode="n" horiz-adv-x="596" 
d="M29 0v27h83v328l-5 66l-84 -14v28l96 15h22l5 -70c33 41 101 80 181 80c95 0 158 -45 158 -149v-284h83v-27h-205v27h86v284c0 81 -47 119 -122 119c-68 0 -123 -30 -160 -65c-11 -11 -19 -20 -19 -40v-298h84v-27h-203z" />
    <glyph glyph-name="o" unicode="o" horiz-adv-x="532" 
d="M35 225c0 133 95 235 231 235s231 -102 231 -235s-95 -235 -231 -235s-231 102 -231 235zM71 225c0 -113 75 -207 195 -207s195 95 195 207c0 113 -75 207 -195 207s-195 -94 -195 -207z" />
    <glyph glyph-name="p" unicode="p" horiz-adv-x="571" 
d="M299 20c122 0 201 81 201 206c0 123 -68 204 -191 204c-55 0 -96 -16 -124 -37c-23 -17 -37 -37 -37 -64v-244c25 -39 79 -65 151 -65zM29 -273v27h83v601l-5 66l-84 -14v28l96 15h22l5 -65c28 47 90 75 166 75c136 0 224 -90 224 -234c0 -149 -98 -236 -238 -236
c-75 0 -122 23 -150 54v-290h84v-27h-203z" />
    <glyph glyph-name="q" unicode="q" horiz-adv-x="554" 
d="M335 -273v27h84v300c-25 -33 -77 -64 -154 -64c-128 0 -230 91 -230 235c0 160 121 235 240 235c79 0 123 -33 144 -66v64h36v-704h83v-27h-203zM398 65c14 14 21 31 21 51v205c0 23 -5 44 -21 63c-23 25 -65 46 -125 46c-107 0 -202 -69 -202 -205
c0 -124 79 -205 197 -205c57 0 103 18 130 45z" />
    <glyph glyph-name="r" unicode="r" horiz-adv-x="401" 
d="M29 0v27h83v330l-5 64l-84 -14v28l96 15h22l6 -78c25 45 69 88 132 88c53 0 82 -29 87 -78l-35 -5c-3 33 -17 55 -56 55c-55 0 -95 -49 -112 -74c-13 -21 -15 -34 -15 -59v-272h84v-27h-203z" />
    <glyph glyph-name="s" unicode="s" horiz-adv-x="412" 
d="M224 -10c-82 0 -125 42 -143 89v-79h-26v171h24c9 -104 60 -153 144 -153c72 0 103 35 103 86c0 66 -57 88 -120 114c-71 29 -141 52 -141 130c0 69 56 112 128 112c65 0 101 -35 117 -74v64h26v-153h-24c-8 80 -46 135 -121 135c-59 0 -90 -33 -90 -81
c0 -60 53 -78 115 -102c77 -32 146 -58 146 -142c0 -71 -50 -117 -138 -117z" />
    <glyph glyph-name="t" unicode="t" horiz-adv-x="369" 
d="M226 -10c-72 0 -121 21 -121 110v321h-80v29h80v112h36v-112h168v-29h-168v-321c0 -61 29 -80 85 -80c31 0 62 6 98 27v-30c-28 -16 -61 -27 -98 -27z" />
    <glyph glyph-name="u" unicode="u" horiz-adv-x="573" 
d="M430 -7l-4 66c-33 -39 -90 -69 -171 -69c-97 0 -160 37 -160 141v292h-83v27h119v-319c0 -80 44 -111 124 -111c60 0 117 22 148 51c19 19 22 34 22 54v298h-84v27h120v-366l3 -62l86 14v-28l-98 -15h-22z" />
    <glyph glyph-name="v" unicode="v" horiz-adv-x="544" 
d="M260 -2l-179 425h-69v27h190v-27h-85l157 -374l156 374h-84v27h186v-27h-68l-179 -425h-25z" />
    <glyph glyph-name="w" unicode="w" horiz-adv-x="798" 
d="M273 -2h-37l-146 425h-77v27h191v-27h-79l130 -380l133 410h35l132 -409l122 379h-83v27h191v-27h-76l-136 -425h-37l-131 406z" />
    <glyph glyph-name="x" unicode="x" horiz-adv-x="551" 
d="M24 0v27h73l156 206l-148 190h-77v27h184v-27h-67l128 -164l124 164h-69v27h184v-27h-77l-144 -190l162 -206h74v-27h-184v27h70l-142 180l-136 -180h72v-27h-183z" />
    <glyph glyph-name="y" unicode="y" horiz-adv-x="541" 
d="M109 -280c-24 0 -41 5 -53 10c-7 3 -13 6 -17 11l12 27l17 -9c11 -5 24 -9 41 -9c36 0 54 22 69 55l80 194l-174 424h-78v27h189v-27h-75l157 -381l157 381h-74v27h175v-27h-68l-261 -628c-25 -60 -58 -75 -97 -75z" />
    <glyph glyph-name="z" unicode="z" horiz-adv-x="470" 
d="M35 0v18l331 405h-266l-10 -126h-30l12 153h342v-18l-331 -405h302l5 129h30l-5 -156h-380z" />
    <glyph glyph-name="braceleft" unicode="{" horiz-adv-x="326" 
d="M298 -239h-22c-72 0 -154 34 -154 142c0 36 9 70 17 109c7 32 13 67 13 111c0 52 -25 94 -92 94h-27v27h27c67 0 92 42 92 94c0 43 -4 75 -11 102c-8 43 -19 75 -19 118c0 112 82 142 154 142h22v-27h-22c-58 0 -118 -27 -118 -115c0 -39 9 -75 17 -115
c7 -32 13 -66 13 -105c0 -51 -24 -90 -63 -106c-1 0 -1 -2 0 -2c39 -16 63 -55 63 -107c0 -39 -8 -76 -15 -115c-8 -37 -15 -73 -15 -105c0 -83 60 -115 118 -115h22v-27z" />
    <glyph glyph-name="bar" unicode="|" horiz-adv-x="250" 
d="M140 -249h-30v979h30v-979z" />
    <glyph glyph-name="braceright" unicode="}" horiz-adv-x="326" 
d="M50 -239h-22v27h22c58 0 118 32 118 115c0 32 -7 68 -15 105c-7 39 -15 76 -15 115c0 52 24 91 63 107c1 0 1 2 0 2c-39 16 -63 55 -63 106c0 39 6 73 13 105c8 40 17 76 17 115c0 88 -60 115 -118 115h-22v27h22c72 0 154 -30 154 -142c0 -43 -11 -75 -19 -118
c-7 -27 -11 -59 -11 -102c0 -52 25 -94 92 -94h27v-27h-27c-67 0 -92 -42 -92 -94c0 -44 6 -79 13 -111c8 -39 17 -73 17 -109c0 -108 -82 -142 -154 -142z" />
    <glyph glyph-name="asciitilde" unicode="~" horiz-adv-x="512" 
d="M176 298c52 0 115 -58 163 -58c25 0 46 13 69 60l24 -16c-27 -56 -57 -74 -93 -74c-52 0 -115 59 -163 59c-27 0 -48 -14 -71 -61l-25 15c27 56 56 75 96 75z" />
    <glyph glyph-name="uni00A0" unicode="&#xa0;" horiz-adv-x="196" 
 />
    <glyph glyph-name="exclamdown" unicode="&#xa1;" horiz-adv-x="251" 
d="M144 385v-523h-36v523h36zM126 533c16 0 28 -13 28 -28c0 -17 -12 -30 -28 -30s-29 13 -29 30c0 15 13 28 29 28z" />
    <glyph glyph-name="cent" unicode="&#xa2;" horiz-adv-x="490" 
d="M197 32l116 396c-11 1 -20 2 -31 2c-119 0 -206 -81 -206 -204c0 -92 44 -166 121 -194zM431 99l23 -19c-35 -48 -92 -90 -185 -90c-19 0 -35 1 -48 4l-27 -93l-32 9l27 92c-92 31 -149 111 -149 224c0 144 109 234 242 234c13 0 27 -1 40 -3l26 91l31 -9l-26 -89
c55 -17 85 -51 94 -90l-31 -9c-9 29 -31 55 -71 70l-116 -398c13 -2 26 -3 40 -3c80 0 131 36 162 79z" />
    <glyph glyph-name="sterling" unicode="&#xa3;" horiz-adv-x="636" 
d="M493 -201c-73 0 -126 41 -176 81c-39 31 -77 59 -122 70c-10 -31 -49 -113 -111 -113c-32 0 -54 17 -54 52c0 52 47 93 142 93c15 35 32 79 49 128h-116l11 27h115c48 139 100 296 134 396c43 121 101 175 184 175c40 0 66 -11 87 -30l-17 -23c-21 17 -38 23 -70 23
c-72 0 -118 -57 -151 -156c-32 -96 -83 -249 -131 -385h153l-8 -27h-154c-19 -51 -36 -95 -51 -132c51 -11 91 -40 130 -71c48 -40 97 -78 159 -78c63 0 94 37 94 80c0 21 -9 34 -17 42c-5 5 -10 8 -16 11l16 25c9 -4 17 -10 24 -17c12 -12 25 -32 25 -61
c0 -64 -48 -110 -129 -110zM87 -133c39 0 67 72 74 87c-55 -1 -99 -26 -99 -63c0 -16 8 -24 25 -24z" />
    <glyph glyph-name="yen" unicode="&#xa5;" horiz-adv-x="582" 
d="M395 0h-217v27h91v161h-155v27h155v64l-16 26h-139v27h123l-155 249h-82v27h205v-27h-86l168 -273l175 273h-75v27h195v-27h-84l-160 -249h121v-27h-137l-17 -27v-63h154v-27h-154v-161h90v-27z" />
    <glyph glyph-name="brokenbar" unicode="&#xa6;" horiz-adv-x="250" 
d="M140 281h-30v449h30v-449zM140 -249h-30v449h30v-449z" />
    <glyph glyph-name="section" unicode="&#xa7;" horiz-adv-x="459" 
d="M323 57c35 0 70 26 70 78c0 36 -13 60 -44 99l-174 216c-5 0 -13 1 -24 1c-35 0 -70 -26 -70 -78c0 -36 14 -62 47 -103l170 -212c5 0 14 -1 25 -1zM210 -234c-31 0 -57 6 -80 21l11 29c24 -16 46 -21 70 -21c71 0 116 49 116 121c0 43 -23 87 -62 136l-162 202
c-37 47 -53 77 -53 118c0 77 57 104 102 104h5c-27 37 -45 70 -45 111c0 82 55 121 118 121c21 0 45 -4 68 -20l-15 -25c-23 13 -38 16 -54 16c-49 0 -84 -35 -84 -91c0 -44 26 -86 65 -134l159 -198c37 -47 55 -77 55 -120c0 -77 -59 -104 -102 -104h-8
c29 -43 46 -78 46 -115c0 -97 -66 -151 -150 -151z" />
    <glyph glyph-name="dieresis" unicode="&#xa8;" 
d="M129 625c-19 0 -31 12 -31 31c0 17 12 31 31 31c17 0 31 -14 31 -31c0 -19 -14 -31 -31 -31zM321 625c-19 0 -31 12 -31 31c0 17 12 31 31 31c17 0 31 -14 31 -31c0 -19 -14 -31 -31 -31z" />
    <glyph glyph-name="copyright" unicode="&#xa9;" horiz-adv-x="883" 
d="M441 589c207 0 372 -150 372 -368c0 -219 -165 -367 -372 -367c-206 0 -371 148 -371 367c0 218 165 368 371 368zM441 561c-190 0 -335 -143 -335 -340c0 -196 145 -339 335 -339c189 0 336 143 336 339c0 197 -147 340 -336 340zM602 7v66c-21 -45 -73 -89 -163 -89
c-143 0 -228 101 -228 237c0 139 85 239 224 239c91 0 146 -47 167 -95v72h28v-158h-25c-4 46 -19 82 -46 109c-28 28 -69 44 -122 44c-127 0 -190 -97 -190 -211c0 -115 63 -209 194 -209c48 0 90 14 119 42c25 24 41 57 44 104h26v-151h-28z" />
    <glyph glyph-name="ordfeminine" unicode="&#xaa;" horiz-adv-x="336" 
d="M237 595v-175c0 -15 6 -23 18 -23c11 0 17 4 28 20l18 -18c-12 -19 -29 -29 -50 -29c-23 0 -43 12 -46 40v-1c-19 -20 -48 -39 -89 -39c-53 0 -76 32 -76 67c0 41 32 64 67 83c31 16 67 30 98 42v33c0 28 -24 36 -60 36c-39 0 -66 -13 -77 -40l-26 11c13 39 52 56 103 56
c59 0 92 -16 92 -63zM118 496c-25 -15 -42 -28 -42 -57c0 -23 11 -41 44 -41c40 0 68 24 85 47v90c-28 -11 -59 -23 -87 -39z" />
    <glyph glyph-name="guillemotleft" unicode="&#xab;" horiz-adv-x="469" 
d="M386 108l-158 131v10l157 131l19 -22l-137 -114l137 -114zM203 108l-158 131v10l157 131l19 -22l-137 -114l137 -114z" />
    <glyph glyph-name="logicalnot" unicode="&#xac;" horiz-adv-x="463" 
d="M373 107v143h-333v27h363v-170h-30z" />
    <glyph glyph-name="registered" unicode="&#xae;" horiz-adv-x="480" 
d="M55 546c0 102 83 179 185 179s185 -77 185 -179c0 -101 -83 -178 -185 -178s-185 77 -185 178zM85 546c0 -83 64 -151 155 -151s155 68 155 151s-64 151 -155 151s-155 -68 -155 -151zM248 622h-35v-60h34c23 0 30 15 30 30c0 19 -6 30 -29 30zM148 463v23h35v136h-35v23
h96c36 0 63 -17 63 -53c0 -28 -20 -46 -47 -51c15 -19 31 -36 40 -43c5 -4 12 -12 19 -12h27v-23h-26c-12 0 -26 3 -37 15c-20 17 -43 46 -56 61h-14v-53h31v-23h-96z" />
    <glyph glyph-name="macron" unicode="&#xaf;" 
d="M108 651h234v-30h-234v30z" />
    <glyph glyph-name="degree" unicode="&#xb0;" horiz-adv-x="357" 
d="M178 429c-64 0 -138 37 -138 133s74 133 138 133s139 -37 139 -133s-75 -133 -139 -133zM178 667c-57 0 -104 -37 -104 -105s48 -105 104 -105s105 37 105 105s-48 105 -105 105z" />
    <glyph glyph-name="plusminus" unicode="&#xb1;" horiz-adv-x="515" 
d="M65 42v27h177v162h-177v27h177v176h30v-176h178v-27h-178v-162h178v-27h-385z" />
    <glyph glyph-name="twosuperior" unicode="&#xb2;" horiz-adv-x="364" 
d="M278 274l5 47h-245v21c40 27 122 87 159 124c43 40 80 75 80 124c0 51 -37 81 -97 81c-59 0 -105 -29 -105 -82c0 -29 18 -46 41 -46s34 11 41 30l25 -10c-9 -27 -32 -47 -67 -47s-72 21 -72 73c0 73 69 110 137 110c76 0 129 -38 129 -109c0 -60 -43 -97 -91 -145
c-31 -29 -85 -69 -124 -97h222l-8 -74h-30z" />
    <glyph glyph-name="threesuperior" unicode="&#xb3;" horiz-adv-x="378" 
d="M171 316c-80 0 -118 40 -118 80c0 17 3 26 14 42l27 -13c-7 -15 -8 -18 -8 -29c0 -27 28 -52 85 -52c71 0 110 39 110 88c0 44 -33 74 -80 74c-17 0 -30 -6 -43 -13l-32 -17l-16 23l71 38c37 19 76 40 76 79c0 29 -18 55 -74 55c-51 0 -87 -22 -87 -57
c0 -13 4 -25 23 -25c7 0 13 1 20 4l9 4l11 -22c-4 -3 -8 -5 -12 -7c-8 -3 -18 -6 -31 -6c-28 0 -54 14 -54 51c0 53 53 86 121 86c75 0 108 -36 108 -81c0 -43 -32 -66 -68 -86l-7 -4h3c56 -3 96 -41 96 -96c0 -68 -55 -116 -144 -116z" />
    <glyph glyph-name="acute" unicode="&#xb4;" 
d="M178 553l93 193l29 -14l-93 -193z" />
    <glyph glyph-name="uni03BC" unicode="&#xb5;" horiz-adv-x="648" 
d="M205 -198h-36v648h36v-319c0 -80 44 -111 124 -111c60 0 117 22 148 51c19 19 22 34 22 54v325h36v-366l3 -62l86 14v-28l-98 -15h-22l-4 66c-33 -39 -90 -69 -171 -69c-56 0 -99 15 -124 52v-240z" />
    <glyph glyph-name="paragraph" unicode="&#xb6;" horiz-adv-x="580" 
d="M191 0v27h100v289h-27c-139 0 -214 71 -214 192c0 120 85 192 224 192h266v-27h-100v-646h100v-27h-349zM264 343h27v330h-17c-121 0 -189 -64 -189 -165c0 -100 58 -165 179 -165zM404 673h-77v-646h77v646z" />
    <glyph glyph-name="periodcentered" unicode="&#xb7;" horiz-adv-x="222" 
d="M123 223c-16 0 -31 12 -31 31s15 31 31 31s31 -12 31 -31s-15 -31 -31 -31z" />
    <glyph glyph-name="cedilla" unicode="&#xb8;" 
d="M170 -106l58 116h32l-46 -93c7 3 13 4 24 4c32 0 83 -16 83 -83c0 -57 -39 -89 -102 -89c-33 0 -62 11 -85 32l15 23c20 -19 47 -27 71 -27c44 0 67 25 67 61c0 40 -28 55 -55 55c-16 0 -30 -4 -41 -13z" />
    <glyph glyph-name="onesuperior" unicode="&#xb9;" horiz-adv-x="310" 
d="M181 697v-348h76v-27h-186v27h76v315c-21 -7 -48 -14 -79 -21v27c33 8 67 16 90 27h23z" />
    <glyph glyph-name="ordmasculine" unicode="&#xba;" horiz-adv-x="366" 
d="M40 514c0 84 61 144 143 144s143 -60 143 -144s-61 -144 -143 -144s-143 60 -143 144zM294 514c0 64 -40 116 -111 116s-111 -52 -111 -116s44 -116 111 -116s111 52 111 116z" />
    <glyph glyph-name="guillemotright" unicode="&#xbb;" horiz-adv-x="469" 
d="M424 239l-158 -131l-18 22l137 114l-137 114l19 22l157 -131v-10zM241 239l-158 -131l-18 22l137 114l-137 114l19 22l157 -131v-10z" />
    <glyph glyph-name="onequarter" unicode="&#xbc;" horiz-adv-x="566" 
d="M188 320v27h83v334c-21 -7 -50 -12 -86 -19v28c43 7 78 13 98 24h22v-367h81v-27h-198zM536 225h-506v27h506v-27zM435 -99v-27h-88v-80h68v-27h-168v27h66v80h-206v18l213 269h27v-260h88zM150 -99h163v205z" />
    <glyph glyph-name="onehalf" unicode="&#xbd;" horiz-adv-x="566" 
d="M188 320v27h83v334c-21 -7 -50 -12 -86 -19v28c43 7 78 13 98 24h22v-367h81v-27h-198zM536 225h-506v27h506v-27zM140 -233v21c46 30 127 92 168 127c51 43 88 89 88 140c0 56 -36 86 -104 86c-48 0 -104 -32 -104 -88c0 -32 19 -50 46 -50s35 15 44 35l27 -12
c-13 -31 -33 -50 -72 -50c-37 0 -79 19 -79 77c0 75 73 116 138 116c84 0 138 -37 138 -114c0 -61 -47 -115 -103 -162c-32 -29 -93 -70 -132 -99h232l-2 -27h-285z" />
    <glyph glyph-name="threequarters" unicode="&#xbe;" horiz-adv-x="566" 
d="M265 310c-94 0 -136 45 -136 90c0 16 4 30 11 39c3 5 6 10 11 14l27 -12l-9 -11c-4 -7 -8 -16 -8 -28c0 -33 32 -64 104 -64c80 0 120 36 120 92c0 49 -33 77 -85 77c-16 0 -29 -3 -38 -8l-45 -24l-16 23l83 44c39 20 74 45 74 88c0 39 -30 64 -82 64
c-53 0 -99 -27 -99 -66c0 -19 11 -32 34 -32c9 0 16 2 23 5c3 1 6 3 9 5l14 -21l-15 -8c-9 -4 -20 -8 -35 -8c-32 0 -62 18 -62 58c0 56 63 95 131 95c72 0 116 -35 116 -91c0 -48 -31 -74 -74 -98l-8 -4h6c59 0 103 -39 103 -99c0 -72 -53 -120 -154 -120zM536 225h-506v27
h506v-27zM427 -100v-27h-88v-80h68v-27h-168v27h66v80h-206v18l213 269h27v-260h88zM142 -100h163v205z" />
    <glyph glyph-name="questiondown" unicode="&#xbf;" horiz-adv-x="438" 
d="M301 389h34v-211l-19 -16c-24 19 -60 28 -99 28c-76 0 -141 -50 -141 -162c0 -81 52 -147 152 -147c47 0 91 8 130 43l16 -25c-48 -37 -91 -47 -147 -47c-115 0 -187 74 -187 176c0 138 86 190 177 190c32 0 60 -6 84 -19v190zM320 537c16 0 29 -13 29 -28
c0 -17 -13 -30 -29 -30s-28 13 -28 30c0 15 12 28 28 28z" />
    <glyph glyph-name="Agrave" unicode="&#xc0;" horiz-adv-x="778" 
d="M537 263l-150 386l-151 -386h301zM234 27v-27h-217v27h92l267 682h24l269 -682h92v-27h-227v27h97l-83 208h-323l-82 -208h91zM260 917l24 16l114 -154l-24 -16z" />
    <glyph glyph-name="Aacute" unicode="&#xc1;" horiz-adv-x="778" 
d="M537 263l-150 386l-151 -386h301zM234 27v-27h-217v27h92l267 682h24l269 -682h92v-27h-227v27h97l-83 208h-323l-82 -208h91zM358 779l114 154l24 -16l-114 -154z" />
    <glyph glyph-name="Acircumflex" unicode="&#xc2;" horiz-adv-x="778" 
d="M537 263l-150 386l-151 -386h301zM234 27v-27h-217v27h92l267 682h24l269 -682h92v-27h-227v27h97l-83 208h-323l-82 -208h91zM292 764l-23 16l111 138h19l111 -138l-23 -16l-97 121z" />
    <glyph glyph-name="Atilde" unicode="&#xc3;" horiz-adv-x="778" 
d="M537 263l-150 386l-151 -386h301zM234 27v-27h-217v27h92l267 682h24l269 -682h92v-27h-227v27h97l-83 208h-323l-82 -208h91zM395 855c21 -11 41 -25 64 -25c21 0 42 17 65 58l27 -17c-32 -51 -59 -70 -91 -70c-27 0 -53 15 -78 28c-17 8 -32 17 -51 17
c-27 0 -46 -19 -70 -60l-27 17c31 51 59 72 96 72c24 0 44 -9 65 -20z" />
    <glyph glyph-name="Adieresis" unicode="&#xc4;" horiz-adv-x="778" 
d="M537 263l-150 386l-151 -386h301zM234 27v-27h-217v27h92l267 682h24l269 -682h92v-27h-227v27h97l-83 208h-323l-82 -208h91zM293 798c-19 0 -31 12 -31 31c0 17 12 31 31 31c17 0 31 -14 31 -31c0 -19 -14 -31 -31 -31zM485 798c-19 0 -31 12 -31 31c0 17 12 31 31 31
c17 0 31 -14 31 -31c0 -19 -14 -31 -31 -31z" />
    <glyph glyph-name="Aring" unicode="&#xc5;" horiz-adv-x="778" 
d="M537 263l-150 386l-151 -386h301zM234 27v-27h-217v27h92l267 682h24l269 -682h92v-27h-227v27h97l-83 208h-323l-82 -208h91zM388 761c-40 0 -86 26 -86 86s46 86 86 86s86 -26 86 -86s-46 -86 -86 -86zM388 905c-29 0 -54 -23 -54 -58s25 -58 54 -58c31 0 54 23 54 58
s-23 58 -54 58z" />
    <glyph glyph-name="AE" unicode="&#xc6;" horiz-adv-x="989" 
d="M487 673l-176 -319h177v319h-1zM2 -10v27h87l365 656h-83v27h530v-192h-32v165h-345v-319h227v115h32v-258h-32v116h-227v-300h376v199h32v-226h-551v27h107v300h-192l-171 -310h82v-27h-205z" />
    <glyph glyph-name="Ccedilla" unicode="&#xc7;" horiz-adv-x="751" 
d="M369 -251c-33 0 -62 11 -85 32l15 23c20 -19 47 -27 71 -27c44 0 67 25 67 61c0 40 -28 55 -55 55c-16 0 -30 -4 -41 -13l-21 14l46 93c-195 11 -319 167 -319 362c0 200 133 365 345 365c144 0 223 -74 257 -161v126h30v-227h-28c-9 64 -31 118 -67 158
c-44 48 -108 76 -192 76c-197 0 -309 -158 -309 -337c0 -180 112 -335 304 -335c149 0 248 93 264 224h28v-217h-30v124c-32 -77 -113 -154 -247 -159h-4l-34 -69c7 3 13 4 24 4c32 0 83 -16 83 -83c0 -57 -39 -89 -102 -89z" />
    <glyph glyph-name="Egrave" unicode="&#xc8;" horiz-adv-x="640" 
d="M32 0v27h107v646h-107v27h520v-192h-32v165h-345v-289h227v115h32v-258h-32v116h-227v-330h376v199h32v-226h-551zM223 917l24 16l114 -154l-24 -16z" />
    <glyph glyph-name="Eacute" unicode="&#xc9;" horiz-adv-x="640" 
d="M32 0v27h107v646h-107v27h520v-192h-32v165h-345v-289h227v115h32v-258h-32v116h-227v-330h376v199h32v-226h-551zM282 779l114 154l24 -16l-114 -154z" />
    <glyph glyph-name="Ecircumflex" unicode="&#xca;" horiz-adv-x="640" 
d="M32 0v27h107v646h-107v27h520v-192h-32v165h-345v-289h227v115h32v-258h-32v116h-227v-330h376v199h32v-226h-551zM225 764l-23 16l111 138h19l111 -138l-23 -16l-97 121z" />
    <glyph glyph-name="Edieresis" unicode="&#xcb;" horiz-adv-x="640" 
d="M32 0v27h107v646h-107v27h520v-192h-32v165h-345v-289h227v115h32v-258h-32v116h-227v-330h376v199h32v-226h-551zM226 798c-19 0 -31 12 -31 31c0 17 12 31 31 31c17 0 31 -14 31 -31c0 -19 -14 -31 -31 -31zM418 798c-19 0 -31 12 -31 31c0 17 12 31 31 31
c17 0 31 -14 31 -31c0 -19 -14 -31 -31 -31z" />
    <glyph glyph-name="Igrave" unicode="&#xcc;" horiz-adv-x="314" 
d="M32 0v27h107v646h-107v27h250v-27h-107v-646h107v-27h-250zM58 917l24 16l114 -154l-24 -16z" />
    <glyph glyph-name="Iacute" unicode="&#xcd;" horiz-adv-x="314" 
d="M32 0v27h107v646h-107v27h250v-27h-107v-646h107v-27h-250zM126 779l114 154l24 -16l-114 -154z" />
    <glyph glyph-name="Icircumflex" unicode="&#xce;" horiz-adv-x="314" 
d="M32 0v27h107v646h-107v27h250v-27h-107v-646h107v-27h-250zM60 764l-23 16l111 138h19l111 -138l-23 -16l-97 121z" />
    <glyph glyph-name="Idieresis" unicode="&#xcf;" horiz-adv-x="314" 
d="M32 0v27h107v646h-107v27h250v-27h-107v-646h107v-27h-250zM61 798c-19 0 -31 12 -31 31c0 17 12 31 31 31c17 0 31 -14 31 -31c0 -19 -14 -31 -31 -31zM253 798c-19 0 -31 12 -31 31c0 17 12 31 31 31c17 0 31 -14 31 -31c0 -19 -14 -31 -31 -31z" />
    <glyph glyph-name="Eth" unicode="&#xd0;" horiz-adv-x="784" 
d="M357 0h-314v27h106v321h-111v27h111v298h-106v27h314c255 0 380 -146 380 -350s-124 -350 -380 -350zM185 27h172c237 0 344 142 344 323s-104 323 -344 323h-172v-298h183v-27h-183v-321z" />
    <glyph glyph-name="Ntilde" unicode="&#xd1;" horiz-adv-x="813" 
d="M681 -3l-37 1l-473 656v-627h112v-27h-251v27h107v647h-108v27h147l471 -650v622h-119v27h257v-27h-106v-676zM411 855c21 -11 41 -25 64 -25c21 0 42 17 65 58l27 -17c-32 -51 -59 -70 -91 -70c-27 0 -53 15 -78 28c-17 8 -32 17 -51 17c-27 0 -46 -19 -70 -60l-27 17
c31 51 59 72 96 72c24 0 44 -9 65 -20z" />
    <glyph glyph-name="Ograve" unicode="&#xd2;" horiz-adv-x="814" 
d="M407 -14c-214 0 -360 159 -360 364s146 364 360 364s360 -159 360 -364s-146 -364 -360 -364zM407 686c-197 0 -324 -151 -324 -336s127 -336 324 -336s324 151 324 336s-127 336 -324 336zM343 917l24 16l114 -154l-24 -16z" />
    <glyph glyph-name="Oacute" unicode="&#xd3;" horiz-adv-x="814" 
d="M407 -14c-214 0 -360 159 -360 364s146 364 360 364s360 -159 360 -364s-146 -364 -360 -364zM407 686c-197 0 -324 -151 -324 -336s127 -336 324 -336s324 151 324 336s-127 336 -324 336zM351 779l114 154l24 -16l-114 -154z" />
    <glyph glyph-name="Ocircumflex" unicode="&#xd4;" horiz-adv-x="814" 
d="M407 -14c-214 0 -360 159 -360 364s146 364 360 364s360 -159 360 -364s-146 -364 -360 -364zM407 686c-197 0 -324 -151 -324 -336s127 -336 324 -336s324 151 324 336s-127 336 -324 336zM310 764l-23 16l111 138h19l111 -138l-23 -16l-97 121z" />
    <glyph glyph-name="Otilde" unicode="&#xd5;" horiz-adv-x="814" 
d="M407 -14c-214 0 -360 159 -360 364s146 364 360 364s360 -159 360 -364s-146 -364 -360 -364zM407 686c-197 0 -324 -151 -324 -336s127 -336 324 -336s324 151 324 336s-127 336 -324 336zM410 855c21 -11 41 -25 64 -25c21 0 42 17 65 58l27 -17
c-32 -51 -59 -70 -91 -70c-27 0 -53 15 -78 28c-17 8 -32 17 -51 17c-27 0 -46 -19 -70 -60l-27 17c31 51 59 72 96 72c24 0 44 -9 65 -20z" />
    <glyph glyph-name="Odieresis" unicode="&#xd6;" horiz-adv-x="814" 
d="M407 -14c-214 0 -360 159 -360 364s146 364 360 364s360 -159 360 -364s-146 -364 -360 -364zM407 686c-197 0 -324 -151 -324 -336s127 -336 324 -336s324 151 324 336s-127 336 -324 336zM311 798c-19 0 -31 12 -31 31c0 17 12 31 31 31c17 0 31 -14 31 -31
c0 -19 -14 -31 -31 -31zM503 798c-19 0 -31 12 -31 31c0 17 12 31 31 31c17 0 31 -14 31 -31c0 -19 -14 -31 -31 -31z" />
    <glyph glyph-name="multiply" unicode="&#xd7;" horiz-adv-x="517" 
d="M401 78l-143 143l-143 -143l-19 22l142 142l-142 141l19 22l143 -143l143 143l19 -22l-141 -141l141 -142z" />
    <glyph glyph-name="Oslash" unicode="&#xd8;" horiz-adv-x="814" 
d="M83 350c0 -100 36 -189 101 -250l415 527c-52 37 -116 59 -192 59c-197 0 -324 -151 -324 -336zM407 14c197 0 324 151 324 336c0 104 -40 197 -109 258l-416 -528c53 -41 121 -66 201 -66zM407 -14c-87 0 -160 26 -220 70l-72 -91l-25 16l74 93
c-75 67 -117 163 -117 276c0 205 146 364 360 364c83 0 152 -23 211 -63l63 80l25 -16l-64 -82c79 -67 125 -166 125 -283c0 -205 -146 -364 -360 -364z" />
    <glyph glyph-name="Ugrave" unicode="&#xd9;" horiz-adv-x="818" 
d="M409 -14c-73 0 -135 13 -182 44c-59 39 -91 103 -91 202v441h-107v27h253v-27h-110v-441c0 -81 24 -138 72 -173c40 -31 96 -43 165 -43c79 0 139 17 180 54c39 35 58 89 58 162v441h-101v27h243v-27h-106v-441c0 -85 -25 -146 -70 -185c-48 -43 -119 -61 -204 -61z
M310 917l24 16l114 -154l-24 -16z" />
    <glyph glyph-name="Uacute" unicode="&#xda;" horiz-adv-x="818" 
d="M409 -14c-73 0 -135 13 -182 44c-59 39 -91 103 -91 202v441h-107v27h253v-27h-110v-441c0 -81 24 -138 72 -173c40 -31 96 -43 165 -43c79 0 139 17 180 54c39 35 58 89 58 162v441h-101v27h243v-27h-106v-441c0 -85 -25 -146 -70 -185c-48 -43 -119 -61 -204 -61z
M378 779l114 154l24 -16l-114 -154z" />
    <glyph glyph-name="Ucircumflex" unicode="&#xdb;" horiz-adv-x="818" 
d="M409 -14c-73 0 -135 13 -182 44c-59 39 -91 103 -91 202v441h-107v27h253v-27h-110v-441c0 -81 24 -138 72 -173c40 -31 96 -43 165 -43c79 0 139 17 180 54c39 35 58 89 58 162v441h-101v27h243v-27h-106v-441c0 -85 -25 -146 -70 -185c-48 -43 -119 -61 -204 -61z
M312 764l-23 16l111 138h19l111 -138l-23 -16l-97 121z" />
    <glyph glyph-name="Udieresis" unicode="&#xdc;" horiz-adv-x="818" 
d="M409 -14c-73 0 -135 13 -182 44c-59 39 -91 103 -91 202v441h-107v27h253v-27h-110v-441c0 -81 24 -138 72 -173c40 -31 96 -43 165 -43c79 0 139 17 180 54c39 35 58 89 58 162v441h-101v27h243v-27h-106v-441c0 -85 -25 -146 -70 -185c-48 -43 -119 -61 -204 -61z
M313 798c-19 0 -31 12 -31 31c0 17 12 31 31 31c17 0 31 -14 31 -31c0 -19 -14 -31 -31 -31zM505 798c-19 0 -31 12 -31 31c0 17 12 31 31 31c17 0 31 -14 31 -31c0 -19 -14 -31 -31 -31z" />
    <glyph glyph-name="Yacute" unicode="&#xdd;" horiz-adv-x="676" 
d="M541 673h-87v27h215v-27h-94l-223 -343v-303h100v-27h-236v27h100v303l-216 343h-93v27h225v-27h-94l198 -313zM309 779l114 154l24 -16l-114 -154z" />
    <glyph glyph-name="Thorn" unicode="&#xde;" horiz-adv-x="608" 
d="M32 0v27h101v646h-101v27h241v-27h-104v-135h172c139 0 230 -64 230 -187c0 -121 -87 -192 -236 -192h-166v-132h104v-27h-241zM341 511h-172v-325h166c128 0 200 61 200 165s-73 160 -194 160z" />
    <glyph glyph-name="germandbls" unicode="&#xdf;" horiz-adv-x="574" 
d="M402 -10c-64 0 -142 23 -142 110c0 20 4 34 7 46l35 -5c-4 -11 -6 -25 -6 -40c0 -67 57 -83 106 -83c71 0 106 35 106 88c0 64 -53 88 -110 115c-65 30 -125 53 -125 127c0 76 68 106 118 143c41 33 70 52 70 106c0 68 -50 107 -139 107c-44 0 -83 -9 -111 -33
c-27 -23 -44 -60 -44 -119v-525h63v-27h-180v27h81v398h-101v27h101v102c0 71 24 114 60 141c35 27 83 37 131 37c108 0 175 -48 175 -135c0 -68 -39 -96 -91 -134c-43 -29 -97 -55 -97 -114c0 -54 46 -71 99 -95c67 -32 136 -67 136 -148c0 -76 -54 -116 -142 -116z" />
    <glyph glyph-name="agrave" unicode="&#xe0;" horiz-adv-x="471" 
d="M387 -10c-36 0 -64 12 -64 65v3c-36 -35 -88 -68 -159 -68c-86 0 -116 55 -116 106c0 59 47 94 106 125c60 31 116 55 169 78v64c0 51 -38 67 -105 67c-60 0 -111 -23 -134 -68l-31 13c31 61 89 85 165 85c92 0 141 -25 141 -97v-305c0 -25 10 -38 31 -38
c17 0 32 8 43 32l22 -15c-12 -32 -39 -47 -68 -47zM164 20c71 0 122 34 159 69v179c-47 -20 -101 -43 -157 -74c-47 -25 -82 -51 -82 -98c0 -33 13 -76 80 -76zM127 733l28 13l93 -193l-28 -13z" />
    <glyph glyph-name="aacute" unicode="&#xe1;" horiz-adv-x="471" 
d="M387 -10c-36 0 -64 12 -64 65v3c-36 -35 -88 -68 -159 -68c-86 0 -116 55 -116 106c0 59 47 94 106 125c60 31 116 55 169 78v64c0 51 -38 67 -105 67c-60 0 -111 -23 -134 -68l-31 13c31 61 89 85 165 85c92 0 141 -25 141 -97v-305c0 -25 10 -38 31 -38
c17 0 32 8 43 32l22 -15c-12 -32 -39 -47 -68 -47zM164 20c71 0 122 34 159 69v179c-47 -20 -101 -43 -157 -74c-47 -25 -82 -51 -82 -98c0 -33 13 -76 80 -76zM184 553l93 193l29 -14l-93 -193z" />
    <glyph glyph-name="acircumflex" unicode="&#xe2;" horiz-adv-x="471" 
d="M387 -10c-36 0 -64 12 -64 65v3c-36 -35 -88 -68 -159 -68c-86 0 -116 55 -116 106c0 59 47 94 106 125c60 31 116 55 169 78v64c0 51 -38 67 -105 67c-60 0 -111 -23 -134 -68l-31 13c31 61 89 85 165 85c92 0 141 -25 141 -97v-305c0 -25 10 -38 31 -38
c17 0 32 8 43 32l22 -15c-12 -32 -39 -47 -68 -47zM164 20c71 0 122 34 159 69v179c-47 -20 -101 -43 -157 -74c-47 -25 -82 -51 -82 -98c0 -33 13 -76 80 -76zM303 540l-86 142l-87 -142l-30 13l104 171h23l105 -171z" />
    <glyph glyph-name="atilde" unicode="&#xe3;" horiz-adv-x="471" 
d="M387 -10c-36 0 -64 12 -64 65v3c-36 -35 -88 -68 -159 -68c-86 0 -116 55 -116 106c0 59 47 94 106 125c60 31 116 55 169 78v64c0 51 -38 67 -105 67c-60 0 -111 -23 -134 -68l-31 13c31 61 89 85 165 85c92 0 141 -25 141 -97v-305c0 -25 10 -38 31 -38
c17 0 32 8 43 32l22 -15c-12 -32 -39 -47 -68 -47zM164 20c71 0 122 34 159 69v179c-47 -20 -101 -43 -157 -74c-47 -25 -82 -51 -82 -98c0 -33 13 -76 80 -76zM154 643c27 0 50 -11 71 -22c20 -12 38 -23 57 -23c23 0 46 14 69 57l24 -17c-27 -51 -58 -70 -93 -70
c-27 0 -49 13 -72 25c-20 11 -37 20 -56 20c-27 0 -49 -15 -72 -58l-24 17c29 53 59 71 96 71z" />
    <glyph glyph-name="adieresis" unicode="&#xe4;" horiz-adv-x="471" 
d="M387 -10c-36 0 -64 12 -64 65v3c-36 -35 -88 -68 -159 -68c-86 0 -116 55 -116 106c0 59 47 94 106 125c60 31 116 55 169 78v64c0 51 -38 67 -105 67c-60 0 -111 -23 -134 -68l-31 13c31 61 89 85 165 85c92 0 141 -25 141 -97v-305c0 -25 10 -38 31 -38
c17 0 32 8 43 32l22 -15c-12 -32 -39 -47 -68 -47zM164 20c71 0 122 34 159 69v179c-47 -20 -101 -43 -157 -74c-47 -25 -82 -51 -82 -98c0 -33 13 -76 80 -76zM120 625c-19 0 -31 12 -31 31c0 17 12 31 31 31c17 0 31 -14 31 -31c0 -19 -14 -31 -31 -31zM312 625
c-19 0 -31 12 -31 31c0 17 12 31 31 31c17 0 31 -14 31 -31c0 -19 -14 -31 -31 -31z" />
    <glyph glyph-name="aring" unicode="&#xe5;" horiz-adv-x="471" 
d="M387 -10c-36 0 -64 12 -64 65v3c-36 -35 -88 -68 -159 -68c-86 0 -116 55 -116 106c0 59 47 94 106 125c60 31 116 55 169 78v64c0 51 -38 67 -105 67c-60 0 -111 -23 -134 -68l-31 13c31 61 89 85 165 85c92 0 141 -25 141 -97v-305c0 -25 10 -38 31 -38
c17 0 32 8 43 32l22 -15c-12 -32 -39 -47 -68 -47zM164 20c71 0 122 34 159 69v179c-47 -20 -101 -43 -157 -74c-47 -25 -82 -51 -82 -98c0 -33 13 -76 80 -76zM225 564c-40 0 -86 26 -86 86s46 86 86 86s86 -26 86 -86s-46 -86 -86 -86zM225 710c-31 0 -56 -24 -56 -60
s25 -60 56 -60s56 24 56 60s-25 60 -56 60z" />
    <glyph glyph-name="ae" unicode="&#xe6;" horiz-adv-x="760" 
d="M528 -10c-96 0 -160 51 -188 132c-22 -65 -70 -132 -170 -132c-92 0 -122 56 -122 105c0 60 46 100 111 128c55 23 112 46 164 66v53c0 72 -38 88 -105 88c-60 0 -111 -23 -134 -68l-31 13c31 61 89 85 165 85c85 0 136 -28 136 -113v-6c33 71 97 119 178 119
c121 0 184 -74 184 -176v-21h-357c-2 -12 -3 -25 -3 -38c0 -115 52 -205 172 -205c79 0 134 34 161 73l25 -16c-35 -49 -94 -87 -186 -87zM533 430c-80 0 -144 -56 -168 -137h315c-3 74 -49 137 -147 137zM170 20c39 0 68 12 91 29c45 34 62 99 62 143v66
c-47 -17 -103 -39 -152 -62c-52 -24 -87 -53 -87 -101c0 -31 13 -75 86 -75z" />
    <glyph glyph-name="ccedilla" unicode="&#xe7;" horiz-adv-x="491" 
d="M239 -251c-33 0 -62 11 -85 32l15 23c20 -19 47 -27 71 -27c44 0 67 25 67 61c0 40 -28 55 -55 55c-16 0 -30 -4 -41 -13l-21 14l49 97c-123 11 -204 102 -204 235c0 144 109 234 242 234c97 0 150 -48 162 -100l-31 -9c-13 42 -52 79 -131 79c-119 0 -206 -81 -206 -204
c0 -117 70 -206 193 -206c80 0 128 36 159 79l23 -19c-33 -47 -93 -90 -173 -90h-3l-36 -73c7 3 13 4 24 4c32 0 83 -16 83 -83c0 -57 -39 -89 -102 -89z" />
    <glyph glyph-name="egrave" unicode="&#xe8;" horiz-adv-x="485" 
d="M441 258h-368c-1 -11 -2 -22 -2 -33c0 -115 56 -205 182 -205c79 0 134 34 161 73l25 -16c-35 -49 -94 -87 -186 -87c-141 0 -218 95 -218 235c0 132 91 235 222 235c121 0 184 -74 184 -176v-26zM258 430c-87 0 -155 -58 -179 -142h326c-3 76 -47 142 -147 142zM186 733
l28 13l93 -193l-28 -13z" />
    <glyph glyph-name="eacute" unicode="&#xe9;" horiz-adv-x="485" 
d="M441 258h-368c-1 -11 -2 -22 -2 -33c0 -115 56 -205 182 -205c79 0 134 34 161 73l25 -16c-35 -49 -94 -87 -186 -87c-141 0 -218 95 -218 235c0 132 91 235 222 235c121 0 184 -74 184 -176v-26zM258 430c-87 0 -155 -58 -179 -142h326c-3 76 -47 142 -147 142zM198 553
l93 193l29 -14l-93 -193z" />
    <glyph glyph-name="ecircumflex" unicode="&#xea;" horiz-adv-x="485" 
d="M441 258h-368c-1 -11 -2 -22 -2 -33c0 -115 56 -205 182 -205c79 0 134 34 161 73l25 -16c-35 -49 -94 -87 -186 -87c-141 0 -218 95 -218 235c0 132 91 235 222 235c121 0 184 -74 184 -176v-26zM258 430c-87 0 -155 -58 -179 -142h326c-3 76 -47 142 -147 142zM334 540
l-86 142l-87 -142l-30 13l104 171h23l105 -171z" />
    <glyph glyph-name="edieresis" unicode="&#xeb;" horiz-adv-x="485" 
d="M441 258h-368c-1 -11 -2 -22 -2 -33c0 -115 56 -205 182 -205c79 0 134 34 161 73l25 -16c-35 -49 -94 -87 -186 -87c-141 0 -218 95 -218 235c0 132 91 235 222 235c121 0 184 -74 184 -176v-26zM258 430c-87 0 -155 -58 -179 -142h326c-3 76 -47 142 -147 142zM158 625
c-19 0 -31 12 -31 31c0 17 12 31 31 31c17 0 31 -14 31 -31c0 -19 -14 -31 -31 -31zM350 625c-19 0 -31 12 -31 31c0 17 12 31 31 31c17 0 31 -14 31 -31c0 -19 -14 -31 -31 -31z" />
    <glyph glyph-name="igrave" unicode="&#xec;" horiz-adv-x="259" 
d="M29 0v27h83v393l-86 -13v28l99 15h23v-423h82v-27h-201zM9 733l28 13l93 -193l-28 -13z" />
    <glyph glyph-name="iacute" unicode="&#xed;" horiz-adv-x="259" 
d="M29 0v27h83v393l-86 -13v28l99 15h23v-423h82v-27h-201zM66 553l93 193l29 -14l-93 -193z" />
    <glyph glyph-name="icircumflex" unicode="&#xee;" horiz-adv-x="259" 
d="M29 0v27h83v393l-86 -13v28l99 15h23v-423h82v-27h-201zM185 540l-86 142l-87 -142l-30 13l104 171h23l105 -171z" />
    <glyph glyph-name="idieresis" unicode="&#xef;" horiz-adv-x="259" 
d="M35 625c-19 0 -31 12 -31 31c0 17 12 31 31 31c17 0 31 -14 31 -31c0 -19 -14 -31 -31 -31zM187 625c-19 0 -31 12 -31 31c0 17 12 31 31 31c17 0 31 -14 31 -31c0 -19 -14 -31 -31 -31zM29 0v27h83v393l-86 -13v28l99 15h23v-423h82v-27h-201z" />
    <glyph glyph-name="eth" unicode="&#xf0;" horiz-adv-x="545" 
d="M270 -10c-139 0 -231 95 -231 235c0 151 105 235 238 235c79 0 135 -27 171 -63c-27 117 -84 188 -149 235l-95 -98l-20 19l91 95c-43 25 -90 43 -145 58l8 29c57 -15 110 -37 157 -66l66 68l20 -19l-63 -65c101 -77 181 -188 181 -399c0 -152 -82 -264 -229 -264z
M270 18c132 0 193 108 193 236c0 25 0 52 -5 77c-7 33 -16 45 -45 64c-27 17 -66 37 -134 37c-120 0 -204 -79 -204 -207c0 -114 71 -207 195 -207z" />
    <glyph glyph-name="ntilde" unicode="&#xf1;" horiz-adv-x="596" 
d="M29 0v27h83v328l-5 66l-84 -14v28l96 15h22l5 -70c33 41 101 80 181 80c95 0 158 -45 158 -149v-284h83v-27h-205v27h86v284c0 81 -47 119 -122 119c-68 0 -123 -30 -160 -65c-11 -11 -19 -20 -19 -40v-298h84v-27h-203zM224 643c27 0 50 -11 71 -22
c20 -12 38 -23 57 -23c23 0 46 14 69 57l24 -17c-27 -51 -58 -70 -93 -70c-27 0 -49 13 -72 25c-20 11 -37 20 -56 20c-27 0 -49 -15 -72 -58l-24 17c29 53 59 71 96 71z" />
    <glyph glyph-name="ograve" unicode="&#xf2;" horiz-adv-x="532" 
d="M35 225c0 133 95 235 231 235s231 -102 231 -235s-95 -235 -231 -235s-231 102 -231 235zM71 225c0 -113 75 -207 195 -207s195 95 195 207c0 113 -75 207 -195 207s-195 -94 -195 -207zM201 733l28 13l93 -193l-28 -13z" />
    <glyph glyph-name="oacute" unicode="&#xf3;" horiz-adv-x="532" 
d="M35 225c0 133 95 235 231 235s231 -102 231 -235s-95 -235 -231 -235s-231 102 -231 235zM71 225c0 -113 75 -207 195 -207s195 95 195 207c0 113 -75 207 -195 207s-195 -94 -195 -207zM235 553l93 193l29 -14l-93 -193z" />
    <glyph glyph-name="ocircumflex" unicode="&#xf4;" horiz-adv-x="532" 
d="M35 225c0 133 95 235 231 235s231 -102 231 -235s-95 -235 -231 -235s-231 102 -231 235zM71 225c0 -113 75 -207 195 -207s195 95 195 207c0 113 -75 207 -195 207s-195 -94 -195 -207zM354 540l-86 142l-87 -142l-30 13l104 171h23l105 -171z" />
    <glyph glyph-name="otilde" unicode="&#xf5;" horiz-adv-x="532" 
d="M35 225c0 133 95 235 231 235s231 -102 231 -235s-95 -235 -231 -235s-231 102 -231 235zM71 225c0 -113 75 -207 195 -207s195 95 195 207c0 113 -75 207 -195 207s-195 -94 -195 -207zM205 643c27 0 50 -11 71 -22c20 -12 38 -23 57 -23c23 0 46 14 69 57l24 -17
c-27 -51 -58 -70 -93 -70c-27 0 -49 13 -72 25c-20 11 -37 20 -56 20c-27 0 -49 -15 -72 -58l-24 17c29 53 59 71 96 71z" />
    <glyph glyph-name="odieresis" unicode="&#xf6;" horiz-adv-x="532" 
d="M35 225c0 133 95 235 231 235s231 -102 231 -235s-95 -235 -231 -235s-231 102 -231 235zM71 225c0 -113 75 -207 195 -207s195 95 195 207c0 113 -75 207 -195 207s-195 -94 -195 -207zM171 625c-19 0 -31 12 -31 31c0 17 12 31 31 31c17 0 31 -14 31 -31
c0 -19 -14 -31 -31 -31zM363 625c-19 0 -31 12 -31 31c0 17 12 31 31 31c17 0 31 -14 31 -31c0 -19 -14 -31 -31 -31z" />
    <glyph glyph-name="divide" unicode="&#xf7;" horiz-adv-x="455" 
d="M228 334c-15 0 -27 11 -27 26s12 26 27 26s26 -11 26 -26s-11 -26 -26 -26zM65 258h325v-27h-325v27zM228 103c-15 0 -27 11 -27 26s12 26 27 26s26 -11 26 -26s-11 -26 -26 -26z" />
    <glyph glyph-name="oslash" unicode="&#xf8;" horiz-adv-x="532" 
d="M71 225c0 -60 20 -114 59 -153l255 321c-33 26 -73 39 -119 39c-120 0 -195 -94 -195 -207zM266 18c120 0 195 95 195 207c0 59 -20 109 -55 148l-253 -320c31 -23 69 -35 113 -35zM266 -10c-51 0 -95 13 -132 39l-67 -84l-25 16l68 86c-47 43 -75 106 -75 178
c0 133 95 235 231 235c53 0 99 -16 138 -43l63 80l25 -16l-66 -83c45 -43 71 -102 71 -173c0 -133 -95 -235 -231 -235z" />
    <glyph glyph-name="ugrave" unicode="&#xf9;" horiz-adv-x="573" 
d="M430 -7l-4 66c-33 -39 -90 -69 -171 -69c-97 0 -160 37 -160 141v292h-83v27h119v-319c0 -80 44 -111 124 -111c60 0 117 22 148 51c19 19 22 34 22 54v298h-84v27h120v-366l3 -62l86 14v-28l-98 -15h-22zM191 733l28 13l93 -193l-28 -13z" />
    <glyph glyph-name="uacute" unicode="&#xfa;" horiz-adv-x="573" 
d="M430 -7l-4 66c-33 -39 -90 -69 -171 -69c-97 0 -160 37 -160 141v292h-83v27h119v-319c0 -80 44 -111 124 -111c60 0 117 22 148 51c19 19 22 34 22 54v298h-84v27h120v-366l3 -62l86 14v-28l-98 -15h-22zM248 553l93 193l29 -14l-93 -193z" />
    <glyph glyph-name="ucircumflex" unicode="&#xfb;" horiz-adv-x="573" 
d="M430 -7l-4 66c-33 -39 -90 -69 -171 -69c-97 0 -160 37 -160 141v292h-83v27h119v-319c0 -80 44 -111 124 -111c60 0 117 22 148 51c19 19 22 34 22 54v298h-84v27h120v-366l3 -62l86 14v-28l-98 -15h-22zM367 540l-86 142l-87 -142l-30 13l104 171h23l105 -171z" />
    <glyph glyph-name="udieresis" unicode="&#xfc;" horiz-adv-x="573" 
d="M430 -7l-4 66c-33 -39 -90 -69 -171 -69c-97 0 -160 37 -160 141v292h-83v27h119v-319c0 -80 44 -111 124 -111c60 0 117 22 148 51c19 19 22 34 22 54v298h-84v27h120v-366l3 -62l86 14v-28l-98 -15h-22zM184 625c-19 0 -31 12 -31 31c0 17 12 31 31 31
c17 0 31 -14 31 -31c0 -19 -14 -31 -31 -31zM376 625c-19 0 -31 12 -31 31c0 17 12 31 31 31c17 0 31 -14 31 -31c0 -19 -14 -31 -31 -31z" />
    <glyph glyph-name="yacute" unicode="&#xfd;" horiz-adv-x="541" 
d="M109 -280c-24 0 -41 5 -53 10c-7 3 -13 6 -17 11l12 27l17 -9c11 -5 24 -9 41 -9c36 0 54 22 69 55l80 194l-174 424h-78v27h189v-27h-75l157 -381l157 381h-74v27h175v-27h-68l-261 -628c-25 -60 -58 -75 -97 -75zM264 553l93 193l29 -14l-93 -193z" />
    <glyph glyph-name="thorn" unicode="&#xfe;" horiz-adv-x="551" 
d="M128 329v-244c25 -39 79 -65 151 -65c122 0 201 81 201 206c0 123 -68 204 -191 204c-55 0 -96 -16 -124 -37c-23 -17 -37 -37 -37 -64zM128 -246h84v-27h-203v27h83v946l-88 -14v28l101 16h23v-341c13 19 31 34 53 46c31 17 68 25 111 25c136 0 224 -90 224 -234
c0 -149 -98 -236 -238 -236c-75 0 -122 23 -150 54v-290z" />
    <glyph glyph-name="ydieresis" unicode="&#xff;" horiz-adv-x="541" 
d="M109 -280c-24 0 -41 5 -53 10c-7 3 -13 6 -17 11l12 27l17 -9c11 -5 24 -9 41 -9c36 0 54 22 69 55l80 194l-174 424h-78v27h189v-27h-75l157 -381l157 381h-74v27h175v-27h-68l-261 -628c-25 -60 -58 -75 -97 -75zM189 625c-19 0 -31 12 -31 31c0 17 12 31 31 31
c17 0 31 -14 31 -31c0 -19 -14 -31 -31 -31zM381 625c-19 0 -31 12 -31 31c0 17 12 31 31 31c17 0 31 -14 31 -31c0 -19 -14 -31 -31 -31z" />
    <glyph glyph-name="dotlessi" unicode="&#x131;" horiz-adv-x="259" 
d="M29 0v27h83v393l-86 -13v28l99 15h23v-423h82v-27h-201z" />
    <glyph glyph-name="Lslash" unicode="&#x141;" horiz-adv-x="650" 
d="M583 0h-551v27h107v250l-86 -40l-14 27l100 47v362h-107v27h259v-27h-116v-346l263 123l14 -27l-277 -129v-267h376v189h32v-216z" />
    <glyph glyph-name="lslash" unicode="&#x142;" horiz-adv-x="279" 
d="M242 2h-209v27h87v348l-90 -53l-15 27l105 62v289l-88 -14v28l101 16h23v-298l83 49l15 -27l-98 -58v-369h86v-27z" />
    <glyph glyph-name="OE" unicode="&#x152;" horiz-adv-x="995" 
d="M427 27h67v646h-67c-237 0 -344 -142 -344 -323s104 -323 344 -323zM938 0h-511c-255 0 -380 146 -380 350s124 350 380 350h480v-192h-32v165h-345v-289h227v115h32v-258h-32v116h-227v-330h376v199h32v-226z" />
    <glyph glyph-name="oe" unicode="&#x153;" horiz-adv-x="891" 
d="M663 -10c-104 0 -169 53 -196 140c-32 -84 -107 -140 -204 -140c-133 0 -228 102 -228 235s95 235 228 235c100 0 175 -57 206 -145c29 87 102 145 198 145c117 0 180 -74 180 -176v-26h-358c-1 -11 -2 -22 -2 -33c0 -115 52 -205 176 -205c75 0 130 34 157 73l25 -16
c-35 -49 -94 -87 -182 -87zM71 225c0 -113 75 -207 192 -207s188 95 188 207c0 113 -71 207 -188 207s-192 -94 -192 -207zM668 430c-84 0 -150 -58 -173 -142h316c-3 76 -47 142 -143 142z" />
    <glyph glyph-name="Scaron" unicode="&#x160;" horiz-adv-x="572" 
d="M310 -14c-126 0 -196 76 -220 154v-137h-30v230h28c11 -116 86 -219 222 -219c85 0 169 41 169 150c0 72 -36 115 -135 163c-48 24 -88 40 -139 65c-88 45 -127 90 -127 161c0 108 83 161 179 161c111 0 164 -67 186 -135v120h30v-193h-28c-27 125 -97 180 -189 180
c-81 0 -142 -43 -142 -130c0 -53 26 -94 105 -133c51 -27 94 -44 141 -68c108 -54 155 -99 155 -190c0 -134 -107 -179 -205 -179zM266 768l-111 138l23 16l97 -121l98 121l23 -16l-111 -138h-19z" />
    <glyph glyph-name="scaron" unicode="&#x161;" horiz-adv-x="412" 
d="M224 -10c-82 0 -125 42 -143 89v-79h-26v171h24c9 -104 60 -153 144 -153c72 0 103 35 103 86c0 66 -57 88 -120 114c-71 29 -141 52 -141 130c0 69 56 112 128 112c65 0 101 -35 117 -74v64h26v-153h-24c-8 80 -46 135 -121 135c-59 0 -90 -33 -90 -81
c0 -60 53 -78 115 -102c77 -32 146 -58 146 -142c0 -71 -50 -117 -138 -117zM192 554l-105 171l29 13l87 -142l86 142l30 -13l-104 -171h-23z" />
    <glyph glyph-name="Ydieresis" unicode="&#x178;" horiz-adv-x="676" 
d="M541 673h-87v27h215v-27h-94l-223 -343v-303h100v-27h-236v27h100v303l-216 343h-93v27h225v-27h-94l198 -313zM244 798c-19 0 -31 12 -31 31c0 17 12 31 31 31c17 0 31 -14 31 -31c0 -19 -14 -31 -31 -31zM436 798c-19 0 -31 12 -31 31c0 17 12 31 31 31
c17 0 31 -14 31 -31c0 -19 -14 -31 -31 -31z" />
    <glyph glyph-name="Zcaron" unicode="&#x17d;" horiz-adv-x="669" 
d="M45 -10v18l505 675h-422v-164h-32v191h499v-18l-505 -675h464v194h32v-221h-541zM339 768l-111 138l23 16l97 -121l98 121l23 -16l-111 -138h-19z" />
    <glyph glyph-name="zcaron" unicode="&#x17e;" horiz-adv-x="470" 
d="M35 0v18l331 405h-266l-10 -126h-30l12 153h342v-18l-331 -405h302l5 129h30l-5 -156h-380zM227 554l-105 171l29 13l87 -142l86 142l30 -13l-104 -171h-23z" />
    <glyph glyph-name="circumflex" unicode="&#x2c6;" 
d="M312 540l-86 142l-87 -142l-30 13l104 171h23l105 -171z" />
    <glyph glyph-name="caron" unicode="&#x2c7;" 
d="M214 554l-105 171l29 13l87 -142l86 142l30 -13l-104 -171h-23z" />
    <glyph glyph-name="breve" unicode="&#x2d8;" 
d="M109 673l30 4c1 -61 30 -98 86 -98s82 37 86 98l30 -4c-3 -79 -47 -123 -116 -123s-112 43 -116 123z" />
    <glyph glyph-name="dotaccent" unicode="&#x2d9;" 
d="M225 625c-19 0 -31 12 -31 31c0 17 12 31 31 31c17 0 31 -14 31 -31c0 -19 -14 -31 -31 -31z" />
    <glyph glyph-name="ring" unicode="&#x2da;" 
d="M225 564c-40 0 -86 26 -86 86s46 86 86 86s86 -26 86 -86s-46 -86 -86 -86zM225 710c-31 0 -56 -24 -56 -60s25 -60 56 -60s56 24 56 60s-25 60 -56 60z" />
    <glyph glyph-name="ogonek" unicode="&#x2db;" 
d="M204 -256c31 0 45 12 65 31l16 -27c-24 -19 -42 -34 -82 -34c-61 0 -95 35 -95 90c0 64 48 117 121 206h40c-85 -102 -125 -149 -125 -204c0 -35 16 -62 60 -62z" />
    <glyph glyph-name="tilde" unicode="&#x2dc;" 
d="M164 643c27 0 50 -11 71 -22c20 -12 38 -23 57 -23c23 0 46 14 69 57l24 -17c-27 -51 -58 -70 -93 -70c-27 0 -49 13 -72 25c-20 11 -37 20 -56 20c-27 0 -49 -15 -72 -58l-24 17c29 53 59 71 96 71z" />
    <glyph glyph-name="hungarumlaut" unicode="&#x2dd;" 
d="M188 746l27 -12l-90 -193l-27 12zM326 746l27 -12l-90 -193l-27 12z" />
    <glyph glyph-name="pi" unicode="&#x3c0;" horiz-adv-x="628" 
d="M483 -18c-38 0 -79 18 -79 125c0 79 10 156 26 282l-74 8l-91 11c-19 -137 -30 -253 -47 -322c-22 -86 -51 -104 -96 -104c-32 0 -53 10 -77 34l18 23c17 -19 39 -27 59 -27c41 0 52 32 63 79c15 69 25 183 44 320h-16c-96 0 -112 -56 -120 -136l-32 4
c11 107 42 163 142 163c36 0 97 -7 158 -15c56 -7 112 -12 153 -12c23 0 36 2 44 3c7 33 7 53 8 86h32c-3 -45 -3 -63 -11 -111l-22 -4c-15 -3 -34 -4 -61 -4c-12 0 -25 0 -37 1c-16 -125 -27 -204 -27 -279c0 -61 12 -95 48 -95c17 0 30 8 39 23c13 18 22 51 29 100l32 -5
c-9 -52 -19 -89 -38 -114c-16 -23 -38 -34 -67 -34z" />
    <glyph glyph-name="endash" unicode="&#x2013;" horiz-adv-x="484" 
d="M451 220h-418v27h418v-27z" />
    <glyph glyph-name="emdash" unicode="&#x2014;" horiz-adv-x="654" 
d="M621 220h-588v27h588v-27z" />
    <glyph glyph-name="quoteleft" unicode="&#x2018;" horiz-adv-x="208" 
d="M79 579c0 -43 25 -65 68 -68l-4 -29c-57 3 -100 31 -100 95s43 109 123 148l13 -27c-68 -33 -100 -70 -100 -119z" />
    <glyph glyph-name="quoteright" unicode="&#x2019;" horiz-adv-x="208" 
d="M130 624c0 43 -25 65 -68 68l4 29c57 -3 100 -31 100 -95s-43 -109 -123 -148l-13 27c68 33 100 70 100 119z" />
    <glyph glyph-name="quotesinglbase" unicode="&#x201a;" horiz-adv-x="208" 
d="M130 -13c0 43 -25 65 -68 68l4 29c57 -3 100 -31 100 -95s-43 -109 -123 -148l-13 27c68 33 100 70 100 119z" />
    <glyph glyph-name="quotedblleft" unicode="&#x201c;" horiz-adv-x="394" 
d="M239 579c0 -43 25 -65 68 -68l-4 -29c-57 3 -100 31 -100 95s43 109 123 148l13 -27c-68 -33 -100 -70 -100 -119zM79 579c0 -43 25 -65 68 -68l-4 -29c-57 3 -100 31 -100 95s43 109 123 148l13 -27c-68 -33 -100 -70 -100 -119z" />
    <glyph glyph-name="quotedblright" unicode="&#x201d;" horiz-adv-x="368" 
d="M290 624c0 43 -25 65 -68 68l4 29c57 -3 100 -31 100 -95s-43 -109 -123 -148l-13 27c68 33 100 70 100 119zM130 624c0 43 -25 65 -68 68l4 29c57 -3 100 -31 100 -95s-43 -109 -123 -148l-13 27c68 33 100 70 100 119z" />
    <glyph glyph-name="quotedblbase" unicode="&#x201e;" horiz-adv-x="368" 
d="M290 -13c0 43 -25 65 -68 68l4 29c57 -3 100 -31 100 -95s-43 -109 -123 -148l-13 27c68 33 100 70 100 119zM130 -13c0 43 -25 65 -68 68l4 29c57 -3 100 -31 100 -95s-43 -109 -123 -148l-13 27c68 33 100 70 100 119z" />
    <glyph glyph-name="dagger" unicode="&#x2020;" horiz-adv-x="514" 
d="M273 7h-32v411c-24 5 -41 18 -64 18c-16 0 -28 -8 -40 -17c-15 -11 -28 -21 -49 -21c-25 0 -45 16 -45 44c0 15 6 31 19 44l22 -12c-9 -15 -11 -22 -11 -31c0 -7 2 -17 17 -17c12 0 22 8 33 16c15 11 29 22 54 22s43 -13 64 -17v258h32v-258c21 4 37 17 64 17
s40 -12 55 -23c11 -8 20 -15 32 -15c15 0 17 10 17 17c0 9 -2 16 -11 31l22 12c13 -13 19 -29 19 -44c0 -28 -20 -44 -47 -44c-19 0 -31 9 -43 18c-13 11 -25 20 -44 20c-23 0 -41 -13 -64 -18v-411z" />
    <glyph glyph-name="daggerdbl" unicode="&#x2021;" horiz-adv-x="514" 
d="M273 7h-32v196c-21 -4 -39 -17 -64 -17s-39 11 -54 22c-11 8 -20 16 -33 16c-15 0 -17 -10 -17 -17c0 -9 2 -16 11 -31l-22 -12c-13 13 -19 29 -19 44c0 28 20 44 45 44c20 0 33 -10 46 -19c13 -11 26 -19 43 -19c23 0 40 13 64 18v247c-24 5 -41 18 -64 18
c-16 0 -28 -8 -40 -17c-15 -11 -28 -21 -49 -21c-25 0 -45 16 -45 44c0 15 6 31 19 44l22 -12c-9 -15 -11 -22 -11 -31c0 -7 2 -17 17 -17s25 10 38 19c12 11 26 19 49 19c25 0 43 -13 64 -17v197h32v-197c21 4 37 17 64 17c24 0 39 -10 52 -21c12 -9 22 -17 35 -17
c15 0 17 10 17 17c0 9 -2 16 -11 31l22 12c13 -13 19 -29 19 -44c0 -28 -20 -44 -47 -44c-20 0 -33 10 -46 21c-12 9 -24 17 -41 17c-23 0 -41 -13 -64 -18v-247c23 -5 41 -18 64 -18c17 0 29 9 42 18c13 11 26 20 45 20c27 0 47 -16 47 -44c0 -15 -6 -31 -19 -44l-22 12
c9 15 11 22 11 31c0 7 -2 17 -17 17c-13 0 -22 -8 -33 -16c-15 -11 -29 -22 -54 -22c-27 0 -43 13 -64 17v-196z" />
    <glyph glyph-name="bullet" unicode="&#x2022;" horiz-adv-x="230" 
d="M115 262c-16 0 -32 13 -32 32s16 32 32 32s32 -13 32 -32s-16 -32 -32 -32z" />
    <glyph glyph-name="ellipsis" unicode="&#x2026;" horiz-adv-x="638" 
d="M538 -10c-16 0 -31 12 -31 31s15 31 31 31s31 -12 31 -31s-15 -31 -31 -31zM326 -10c-16 0 -31 12 -31 31s15 31 31 31s31 -12 31 -31s-15 -31 -31 -31zM114 -10c-16 0 -31 12 -31 31s15 31 31 31s31 -12 31 -31s-15 -31 -31 -31z" />
    <glyph glyph-name="perthousand" unicode="&#x2030;" horiz-adv-x="1079" 
d="M621 609l24 -20l-494 -646l-24 20zM324 409c0 -104 -77 -145 -141 -145s-141 41 -141 145s77 145 141 145s141 -41 141 -145zM183 526c-52 0 -107 -40 -107 -117s55 -117 107 -117s107 40 107 117s-55 117 -107 117zM564 270c64 0 141 -41 141 -145s-77 -145 -141 -145
s-141 41 -141 145s77 145 141 145zM755 125c0 104 77 145 141 145s141 -41 141 -145s-77 -145 -141 -145s-141 41 -141 145zM896 8c52 0 107 40 107 117s-55 117 -107 117s-107 -40 -107 -117s55 -117 107 -117zM564 8c52 0 107 40 107 117s-55 117 -107 117
s-107 -40 -107 -117s55 -117 107 -117z" />
    <glyph glyph-name="guilsinglleft" unicode="&#x2039;" horiz-adv-x="286" 
d="M203 108l-158 131v10l157 131l19 -22l-137 -114l137 -114z" />
    <glyph glyph-name="guilsinglright" unicode="&#x203a;" horiz-adv-x="286" 
d="M241 239l-158 -131l-18 22l137 114l-137 114l19 22l157 -131v-10z" />
    <glyph glyph-name="fraction" unicode="&#x2044;" horiz-adv-x="242" 
d="M413 708l-560 -724l-24 20l560 724z" />
    <glyph glyph-name="Euro" unicode="&#x20ac;" horiz-adv-x="673" 
d="M391 -14c-140 0 -240 101 -264 236h-92v27h88c-2 15 -3 30 -3 45s1 30 3 45h-88v27h92c24 137 124 239 268 239c107 0 169 -56 198 -125v95h30v-193h-28c-15 121 -80 195 -200 195c-131 0 -211 -91 -232 -211h248v-27h-252c-2 -15 -3 -30 -3 -45s1 -30 3 -45h192v-27
h-188c21 -117 101 -208 228 -208c116 0 191 77 204 186h28v-184h-30v93c-29 -63 -96 -123 -202 -123z" />
    <glyph glyph-name="trademark" unicode="&#x2122;" horiz-adv-x="798" 
d="M124 430v25h48v229h-92v-66h-30v92h276v-92h-30v66h-90v-229h48v-25h-130zM486 430h-124v25h47v229h-47v26h87l101 -230l105 230h87v-25h-48v-230h48v-25h-130v25h48v198l-98 -214h-30l-93 213v-197h47v-25z" />
    <glyph glyph-name="uni03A9" unicode="&#x2126;" horiz-adv-x="900" 
d="M390 0h-330v167h30v-140h225c-107 43 -215 145 -215 324c0 200 133 359 345 359c217 0 355 -159 355 -359c0 -179 -108 -281 -215 -324h225v140h30v-167h-330v23c140 48 254 148 254 328s-119 329 -319 329c-195 0 -309 -149 -309 -329c0 -182 114 -280 254 -328v-23z
" />
    <glyph glyph-name="partialdiff" unicode="&#x2202;" horiz-adv-x="551" 
d="M280 -10c-147 0 -235 93 -235 235c0 141 89 235 240 235c73 0 128 -23 167 -55c-47 169 -183 258 -376 281v28c236 -24 430 -144 430 -456c0 -160 -69 -268 -226 -268zM280 17c140 0 190 105 190 241c0 36 -3 70 -8 102c-41 44 -96 72 -176 72c-139 0 -205 -87 -205 -207
c0 -121 67 -208 199 -208z" />
    <glyph glyph-name="uni0394" unicode="&#x2206;" horiz-adv-x="781" 
d="M60 0v17l316 680h27l318 -681v-16h-661zM681 27l-291 624l-291 -624h582z" />
    <glyph glyph-name="product" unicode="&#x220f;" horiz-adv-x="798" 
d="M30 0v27h111v646h-111v27h738v-27h-111v-646h111v-27h-253v27h106v646h-444v-646h106v-27h-253z" />
    <glyph glyph-name="summation" unicode="&#x2211;" horiz-adv-x="641" 
d="M50 0v18l259 342l-250 322v18h522v-194h-33v167h-445l240 -310v-10l-247 -326h457v197h33v-224h-536z" />
    <glyph glyph-name="minus" unicode="&#x2212;" horiz-adv-x="515" 
d="M65 258h385v-27h-385v27z" />
    <glyph glyph-name="radical" unicode="&#x221a;" horiz-adv-x="639" 
d="M276 -21l-154 290l-97 -58l-14 26l123 74l158 -296l283 685h34l-298 -721h-35z" />
    <glyph glyph-name="infinity" unicode="&#x221e;" horiz-adv-x="516" 
d="M364 157c-40 0 -68 16 -107 63c-37 -44 -65 -63 -105 -63c-45 0 -87 26 -87 86s42 86 87 86c40 0 66 -16 105 -63c35 43 67 63 107 63c45 0 87 -26 87 -86s-42 -86 -87 -86zM152 185c33 0 54 19 85 58c-31 39 -52 58 -85 58s-55 -23 -55 -58s22 -58 55 -58zM364 185
c33 0 55 23 55 58s-22 58 -55 58s-55 -19 -87 -58c31 -39 52 -58 87 -58z" />
    <glyph glyph-name="integral" unicode="&#x222b;" horiz-adv-x="368" 
d="M-90 -71l24 19c17 -28 41 -36 65 -36c43 0 63 24 74 63c48 169 68 356 97 547c24 147 72 189 148 189c43 0 67 -12 90 -47l-24 -19c-16 27 -37 36 -65 36c-64 0 -96 -48 -113 -163c-28 -183 -50 -370 -99 -553c-16 -59 -52 -83 -107 -83c-37 0 -69 12 -90 47z" />
    <glyph glyph-name="approxequal" unicode="&#x2248;" horiz-adv-x="466" 
d="M155 354c53 0 114 -62 159 -62c21 0 47 7 60 59l27 -7c-18 -71 -53 -82 -87 -82c-53 0 -114 63 -159 63c-24 0 -49 -5 -63 -62l-27 8c19 72 53 83 90 83zM155 215c53 0 114 -62 159 -62c21 0 47 7 60 59l27 -7c-18 -71 -53 -82 -87 -82c-53 0 -114 63 -159 63
c-23 0 -47 -7 -63 -62l-27 8c22 70 53 83 90 83z" />
    <glyph glyph-name="notequal" unicode="&#x2260;" horiz-adv-x="455" 
d="M390 151h-186l-54 -117l-26 12l49 105h-108v27h121l62 133h-183v27h195l50 107l25 -13l-44 -94h99v-27h-111l-62 -133h173v-27z" />
    <glyph glyph-name="lessequal" unicode="&#x2264;" horiz-adv-x="440" 
d="M375 103l-325 153v16l325 154v-30l-280 -132l280 -131v-30zM375 42h-310v27h310v-27z" />
    <glyph glyph-name="greaterequal" unicode="&#x2265;" horiz-adv-x="440" 
d="M390 256l-325 -153v30l280 131l-280 133v29l325 -155v-15zM65 69h310v-27h-310v27z" />
    <glyph glyph-name="lozenge" unicode="&#x25ca;" 
d="M410 221l-185 -193l-185 193l185 194zM80 221l145 -150l145 151l-144 150z" />
    <glyph glyph-name="Dcroat" unicode="&#x110;" horiz-adv-x="784" 
d="M357 0h-314v27h106v321h-111v27h111v298h-106v27h314c255 0 380 -146 380 -350s-124 -350 -380 -350zM185 27h172c237 0 344 142 344 323s-104 323 -344 323h-172v-298h183v-27h-183v-321z" />
    <glyph glyph-name="Eng" unicode="&#x14a;" horiz-adv-x="817" 
d="M493 -269c-92 0 -138 43 -155 100l28 11c15 -47 54 -81 127 -81c113 0 153 84 154 233l-476 660v-627h112v-27h-251v27h107v647h-108v27h147l471 -650v622h-119v27h257v-27h-106v-676c0 -184 -59 -266 -188 -266z" />
    <glyph glyph-name="IJ" unicode="&#x132;" horiz-adv-x="657" 
d="M32 0v27h107v646h-107v27h250v-27h-107v-646h107v-27h-250zM333 -269c-92 0 -138 43 -155 100l28 11c15 -47 54 -81 127 -81c115 0 152 88 152 240v672h-107v27h249v-27h-106v-672c0 -185 -59 -270 -188 -270z" />
    <glyph glyph-name="dcroat" unicode="&#x111;" horiz-adv-x="571" 
d="M445 -12h-22l-3 67c-25 -33 -76 -65 -155 -65c-128 0 -230 91 -230 235c0 160 121 235 240 235c77 0 121 -30 144 -62v183h-161v27h161v93l-87 -14v28l100 15h23v-122h89v-27h-89v-508l3 -56l93 13v-27zM398 65c14 14 21 31 21 51v205c0 32 -5 44 -21 63
c-21 24 -65 46 -125 46c-107 0 -202 -69 -202 -205c0 -124 79 -205 197 -205c57 0 103 18 130 45z" />
    <glyph glyph-name="eng" unicode="&#x14b;" horiz-adv-x="590" 
d="M330 -280c-56 0 -89 15 -128 46l16 25c35 -28 65 -41 112 -41c88 0 119 54 119 158v403c0 81 -47 119 -122 119c-68 0 -123 -30 -160 -65c-11 -11 -19 -20 -19 -40v-298h84v-27h-203v27h83v328l-5 66l-84 -14v28l96 15h22l5 -70c33 41 101 80 181 80
c95 0 158 -45 158 -149v-403c0 -136 -56 -188 -155 -188z" />
    <glyph glyph-name="ij" unicode="&#x133;" horiz-adv-x="504" 
d="M125 625c-19 0 -31 12 -31 31c0 17 12 31 31 31c17 0 31 -14 31 -31c0 -19 -14 -31 -31 -31zM29 27h83v393l-86 -13v28l99 15h23v-423h82v-27h-201v27zM376 625c-19 0 -31 12 -31 31c0 17 12 31 31 31c17 0 31 -14 31 -31c0 -19 -14 -31 -31 -31zM244 -280
c-56 0 -89 15 -128 46l16 25c35 -28 65 -41 112 -41c88 0 119 54 119 158v512l-86 -13v28l99 15h23v-542c0 -136 -56 -188 -155 -188z" />
    <glyph glyph-name="Abreve" unicode="&#x102;" horiz-adv-x="778" 
d="M537 263l-150 386l-151 -386h301zM234 27v-27h-217v27h92l267 682h24l269 -682h92v-27h-227v27h97l-83 208h-323l-82 -208h91zM266 879l30 4c5 -55 38 -87 93 -87s85 32 93 87l30 -4c-7 -72 -55 -112 -123 -112c-64 0 -115 39 -123 112z" />
    <glyph glyph-name="Amacron" unicode="&#x100;" horiz-adv-x="778" 
d="M537 263l-150 386l-151 -386h301zM234 27v-27h-217v27h92l267 682h24l269 -682h92v-27h-227v27h97l-83 208h-323l-82 -208h91zM271 831h236v-30h-236v30z" />
    <glyph glyph-name="Aogonek" unicode="&#x104;" horiz-adv-x="778" 
d="M593 -286c-61 0 -95 35 -95 90c0 66 52 119 137 212l-87 219h-323l-82 -208h91v-27h-217v27h92l267 682h24l269 -682h92v-27h-98c-85 -90 -129 -141 -129 -194c0 -35 16 -62 60 -62c31 0 45 12 65 31l16 -27c-24 -19 -42 -34 -82 -34zM537 263l-150 386l-151 -386h301z
" />
    <glyph glyph-name="Aringacute" unicode="&#x1fa;" horiz-adv-x="778" 
d="M331 981l114 154l24 -16l-114 -154zM537 263l-150 386l-151 -386h301zM234 27v-27h-217v27h92l267 682h24l269 -682h92v-27h-227v27h97l-83 208h-323l-82 -208h91zM389 761c-40 0 -86 26 -86 86s46 86 86 86s86 -26 86 -86s-46 -86 -86 -86zM389 905
c-29 0 -54 -23 -54 -58s25 -58 54 -58c31 0 54 23 54 58s-23 58 -54 58z" />
    <glyph glyph-name="AEacute" unicode="&#x1fc;" horiz-adv-x="989" 
d="M487 673l-176 -319h177v319h-1zM2 -10v27h87l365 656h-83v27h530v-192h-32v165h-345v-319h227v115h32v-258h-32v116h-227v-300h376v199h32v-226h-551v27h107v300h-192l-171 -310h82v-27h-205zM604 779l114 154l24 -16l-114 -154z" />
    <glyph glyph-name="Cacute" unicode="&#x106;" horiz-adv-x="751" 
d="M649 21v124c-35 -80 -117 -159 -262 -159c-207 0 -340 162 -340 363c0 200 133 365 345 365c144 0 223 -74 257 -161v126h30v-227h-28c-9 64 -31 118 -67 158c-44 48 -108 76 -192 76c-197 0 -309 -158 -309 -337c0 -180 112 -335 304 -335c149 0 248 93 264 224h28v-217
h-30zM359 779l114 154l24 -16l-114 -154z" />
    <glyph glyph-name="Ccaron" unicode="&#x10c;" horiz-adv-x="751" 
d="M649 21v124c-35 -80 -117 -159 -262 -159c-207 0 -340 162 -340 363c0 200 133 365 345 365c144 0 223 -74 257 -161v126h30v-227h-28c-9 64 -31 118 -67 158c-44 48 -108 76 -192 76c-197 0 -309 -158 -309 -337c0 -180 112 -335 304 -335c149 0 248 93 264 224h28v-217
h-30zM381 768l-111 138l23 16l97 -121l98 121l23 -16l-111 -138h-19z" />
    <glyph glyph-name="Ccircumflex" unicode="&#x108;" horiz-adv-x="751" 
d="M649 21v124c-35 -80 -117 -159 -262 -159c-207 0 -340 162 -340 363c0 200 133 365 345 365c144 0 223 -74 257 -161v126h30v-227h-28c-9 64 -31 118 -67 158c-44 48 -108 76 -192 76c-197 0 -309 -158 -309 -337c0 -180 112 -335 304 -335c149 0 248 93 264 224h28v-217
h-30zM293 764l-23 16l111 138h19l111 -138l-23 -16l-97 121z" />
    <glyph glyph-name="Cdotaccent" unicode="&#x10a;" horiz-adv-x="751" 
d="M649 21v124c-35 -80 -117 -159 -262 -159c-207 0 -340 162 -340 363c0 200 133 365 345 365c144 0 223 -74 257 -161v126h30v-227h-28c-9 64 -31 118 -67 158c-44 48 -108 76 -192 76c-197 0 -309 -158 -309 -337c0 -180 112 -335 304 -335c149 0 248 93 264 224h28v-217
h-30zM385 798c-19 0 -31 12 -31 31c0 17 12 31 31 31c17 0 31 -14 31 -31c0 -19 -14 -31 -31 -31z" />
    <glyph glyph-name="Dcaron" unicode="&#x10e;" horiz-adv-x="774" 
d="M33 0v27h106v646h-106v27h314c255 0 380 -146 380 -350s-124 -350 -380 -350h-314zM347 673h-172v-646h172c237 0 344 142 344 323s-104 323 -344 323zM351 768l-111 138l23 16l97 -121l98 121l23 -16l-111 -138h-19z" />
    <glyph glyph-name="Ebreve" unicode="&#x114;" horiz-adv-x="640" 
d="M32 0v27h107v646h-107v27h520v-192h-32v165h-345v-289h227v115h32v-258h-32v116h-227v-330h376v199h32v-226h-551zM199 879l30 4c5 -55 38 -87 93 -87s85 32 93 87l30 -4c-7 -72 -55 -112 -123 -112c-64 0 -115 39 -123 112z" />
    <glyph glyph-name="Ecaron" unicode="&#x11a;" horiz-adv-x="640" 
d="M32 0v27h107v646h-107v27h520v-192h-32v165h-345v-289h227v115h32v-258h-32v116h-227v-330h376v199h32v-226h-551zM313 768l-111 138l23 16l97 -121l98 121l23 -16l-111 -138h-19z" />
    <glyph glyph-name="Edotaccent" unicode="&#x116;" horiz-adv-x="640" 
d="M32 0v27h107v646h-107v27h520v-192h-32v165h-345v-289h227v115h32v-258h-32v116h-227v-330h376v199h32v-226h-551zM322 798c-19 0 -31 12 -31 31c0 17 12 31 31 31c17 0 31 -14 31 -31c0 -19 -14 -31 -31 -31z" />
    <glyph glyph-name="Emacron" unicode="&#x112;" horiz-adv-x="640" 
d="M32 0v27h107v646h-107v27h520v-192h-32v165h-345v-289h227v115h32v-258h-32v116h-227v-330h376v199h32v-226h-551zM204 831h236v-30h-236v30z" />
    <glyph glyph-name="Eogonek" unicode="&#x118;" horiz-adv-x="640" 
d="M467 -286c-61 0 -95 35 -95 90c0 61 45 113 114 196h-454v27h107v646h-107v27h520v-192h-32v165h-345v-289h227v115h32v-258h-32v116h-227v-330h376v199h32v-226h-58c-80 -94 -117 -141 -117 -194c0 -35 16 -62 60 -62c31 0 45 12 65 31l16 -27c-24 -19 -42 -34 -82 -34z
" />
    <glyph glyph-name="Gbreve" unicode="&#x11e;" horiz-adv-x="798" 
d="M681 288v-217c-47 -39 -144 -85 -271 -85c-239 0 -363 164 -363 368s140 360 344 360c146 0 222 -78 251 -160v135h30v-237h-28c-7 64 -30 115 -63 154c-47 53 -113 80 -192 80c-184 0 -306 -151 -306 -332c0 -185 106 -340 328 -340c115 0 199 42 234 71v203h-129v27
h270v-27h-105zM282 879l30 4c5 -55 38 -87 93 -87s85 32 93 87l30 -4c-7 -72 -55 -112 -123 -112c-64 0 -115 39 -123 112z" />
    <glyph glyph-name="Gcircumflex" unicode="&#x11c;" horiz-adv-x="798" 
d="M681 288v-217c-47 -39 -144 -85 -271 -85c-239 0 -363 164 -363 368s140 360 344 360c146 0 222 -78 251 -160v135h30v-237h-28c-7 64 -30 115 -63 154c-47 53 -113 80 -192 80c-184 0 -306 -151 -306 -332c0 -185 106 -340 328 -340c115 0 199 42 234 71v203h-129v27
h270v-27h-105zM308 764l-23 16l111 138h19l111 -138l-23 -16l-97 121z" />
    <glyph glyph-name="uni0122" unicode="&#x122;" horiz-adv-x="798" 
d="M681 288v-217c-47 -39 -144 -85 -271 -85c-239 0 -363 164 -363 368s140 360 344 360c146 0 222 -78 251 -160v135h30v-237h-28c-7 64 -30 115 -63 154c-47 53 -113 80 -192 80c-184 0 -306 -151 -306 -332c0 -185 106 -340 328 -340c115 0 199 42 234 71v203h-129v27
h270v-27h-105zM354 -279l-12 28c63 24 86 58 86 95c0 33 -19 59 -62 60l4 29c56 -3 92 -31 92 -87s-36 -94 -108 -125z" />
    <glyph glyph-name="Gdotaccent" unicode="&#x120;" horiz-adv-x="798" 
d="M681 288v-217c-47 -39 -144 -85 -271 -85c-239 0 -363 164 -363 368s140 360 344 360c146 0 222 -78 251 -160v135h30v-237h-28c-7 64 -30 115 -63 154c-47 53 -113 80 -192 80c-184 0 -306 -151 -306 -332c0 -185 106 -340 328 -340c115 0 199 42 234 71v203h-129v27
h270v-27h-105zM405 798c-19 0 -31 12 -31 31c0 17 12 31 31 31c17 0 31 -14 31 -31c0 -19 -14 -31 -31 -31z" />
    <glyph glyph-name="Hbar" unicode="&#x126;" horiz-adv-x="816" 
d="M175 384h466v136h-466v-136zM274 0h-242v27h107v493h-101v27h101v126h-107v27h242v-27h-99v-126h466v126h-99v27h242v-27h-107v-126h102v-27h-102v-493h107v-27h-242v27h99v329h-466v-329h99v-27z" />
    <glyph glyph-name="Hcircumflex" unicode="&#x124;" horiz-adv-x="816" 
d="M32 0v27h107v646h-107v27h242v-27h-99v-289h466v289h-99v27h242v-27h-107v-646h107v-27h-242v27h99v329h-466v-329h99v-27h-242zM311 764l-23 16l111 138h19l111 -138l-23 -16l-97 121z" />
    <glyph glyph-name="Ibreve" unicode="&#x12c;" horiz-adv-x="314" 
d="M32 0v27h107v646h-107v27h250v-27h-107v-646h107v-27h-250zM34 879l30 4c5 -55 38 -87 93 -87s85 32 93 87l30 -4c-7 -72 -55 -112 -123 -112c-64 0 -115 39 -123 112z" />
    <glyph glyph-name="Idotaccent" unicode="&#x130;" horiz-adv-x="314" 
d="M32 0v27h107v646h-107v27h250v-27h-107v-646h107v-27h-250zM157 798c-19 0 -31 12 -31 31c0 17 12 31 31 31c17 0 31 -14 31 -31c0 -19 -14 -31 -31 -31z" />
    <glyph glyph-name="Imacron" unicode="&#x12a;" horiz-adv-x="314" 
d="M32 0v27h107v646h-107v27h250v-27h-107v-646h107v-27h-250zM39 831h236v-30h-236v30z" />
    <glyph glyph-name="Iogonek" unicode="&#x12e;" horiz-adv-x="314" 
d="M173 -286c-61 0 -95 35 -95 90c0 62 39 113 106 196h-152v27h107v646h-107v27h250v-27h-107v-646h107v-27h-59c-77 -93 -109 -140 -109 -194c0 -35 16 -62 60 -62c31 0 45 12 65 31l16 -27c-24 -19 -42 -34 -82 -34z" />
    <glyph glyph-name="Itilde" unicode="&#x128;" horiz-adv-x="314" 
d="M32 0v27h107v646h-107v27h250v-27h-107v-646h107v-27h-250zM163 855c21 -11 41 -25 64 -25c21 0 42 17 65 58l27 -17c-32 -51 -59 -70 -91 -70c-27 0 -53 15 -78 28c-17 8 -32 17 -51 17c-27 0 -46 -19 -70 -60l-27 17c31 51 59 72 96 72c24 0 44 -9 65 -20z" />
    <glyph glyph-name="Jcircumflex" unicode="&#x134;" horiz-adv-x="330" 
d="M6 -269c-92 0 -138 43 -155 100l28 11c15 -47 54 -81 127 -81c115 0 152 88 152 240v672h-107v27h249v-27h-106v-672c0 -185 -59 -270 -188 -270zM89 764l-23 16l111 138h19l111 -138l-23 -16l-97 121z" />
    <glyph glyph-name="uni0136" unicode="&#x136;" horiz-adv-x="737" 
d="M32 0v27h107v646h-107v27h243v-27h-100v-356l337 356h-78v27h230v-27h-112l-287 -303l341 -343h109v-27h-256v27h100l-317 319l-67 -72v-247h100v-27h-243zM307 -279l-12 28c63 24 86 58 86 95c0 33 -19 59 -62 60l4 29c56 -3 92 -31 92 -87s-36 -94 -108 -125z" />
    <glyph glyph-name="Lacute" unicode="&#x139;" horiz-adv-x="650" 
d="M32 0v27h107v646h-107v27h259v-27h-116v-646h376v189h32v-216h-551zM127 779l114 154l24 -16l-114 -154z" />
    <glyph glyph-name="Lcaron" unicode="&#x13d;" horiz-adv-x="650" 
d="M32 0v27h107v646h-107v27h259v-27h-116v-646h376v189h32v-216h-551zM375 561l-31 5l31 176l31 -5z" />
    <glyph glyph-name="uni013B" unicode="&#x13b;" horiz-adv-x="650" 
d="M32 0v27h107v646h-107v27h259v-27h-116v-646h376v189h32v-216h-551zM278 -279l-12 28c63 24 86 58 86 95c0 33 -19 59 -62 60l4 29c56 -3 92 -31 92 -87s-36 -94 -108 -125z" />
    <glyph glyph-name="Ldot" unicode="&#x13f;" horiz-adv-x="650" 
d="M32 0v27h107v646h-107v27h259v-27h-116v-646h376v189h32v-216h-551zM541 348c-16 0 -31 12 -31 31s15 31 31 31s31 -12 31 -31s-15 -31 -31 -31z" />
    <glyph glyph-name="Nacute" unicode="&#x143;" horiz-adv-x="813" 
d="M681 -3l-37 1l-473 656v-627h112v-27h-251v27h107v647h-108v27h147l471 -650v622h-119v27h257v-27h-106v-676zM374 779l114 154l24 -16l-114 -154z" />
    <glyph glyph-name="Ncaron" unicode="&#x147;" horiz-adv-x="813" 
d="M681 -3l-37 1l-473 656v-627h112v-27h-251v27h107v647h-108v27h147l471 -650v622h-119v27h257v-27h-106v-676zM396 768l-111 138l23 16l97 -121l98 121l23 -16l-111 -138h-19z" />
    <glyph glyph-name="uni0145" unicode="&#x145;" horiz-adv-x="813" 
d="M681 -3l-37 1l-473 656v-627h112v-27h-251v27h107v647h-108v27h147l471 -650v622h-119v27h257v-27h-106v-676zM354 -279l-12 28c63 24 86 58 86 95c0 33 -19 59 -62 60l4 29c56 -3 92 -31 92 -87s-36 -94 -108 -125z" />
    <glyph glyph-name="Obreve" unicode="&#x14e;" horiz-adv-x="814" 
d="M407 -14c-214 0 -360 159 -360 364s146 364 360 364s360 -159 360 -364s-146 -364 -360 -364zM407 686c-197 0 -324 -151 -324 -336s127 -336 324 -336s324 151 324 336s-127 336 -324 336zM284 879l30 4c5 -55 38 -87 93 -87s85 32 93 87l30 -4
c-7 -72 -55 -112 -123 -112c-64 0 -115 39 -123 112z" />
    <glyph glyph-name="Ohungarumlaut" unicode="&#x150;" horiz-adv-x="814" 
d="M407 -14c-214 0 -360 159 -360 364s146 364 360 364s360 -159 360 -364s-146 -364 -360 -364zM407 686c-197 0 -324 -151 -324 -336s127 -336 324 -336s324 151 324 336s-127 336 -324 336zM381 933l27 -13l-77 -157l-27 13zM526 933l27 -13l-77 -157l-27 13z" />
    <glyph glyph-name="Omacron" unicode="&#x14c;" horiz-adv-x="814" 
d="M407 -14c-214 0 -360 159 -360 364s146 364 360 364s360 -159 360 -364s-146 -364 -360 -364zM407 686c-197 0 -324 -151 -324 -336s127 -336 324 -336s324 151 324 336s-127 336 -324 336zM289 831h236v-30h-236v30z" />
    <glyph glyph-name="Oslashacute" unicode="&#x1fe;" horiz-adv-x="814" 
d="M83 350c0 -100 36 -189 101 -250l415 527c-52 37 -116 59 -192 59c-197 0 -324 -151 -324 -336zM407 14c197 0 324 151 324 336c0 104 -40 197 -109 258l-416 -528c53 -41 121 -66 201 -66zM407 -14c-87 0 -160 26 -220 70l-72 -91l-25 16l74 93
c-75 67 -117 163 -117 276c0 205 146 364 360 364c83 0 152 -23 211 -63l63 80l25 -16l-64 -82c79 -67 125 -166 125 -283c0 -205 -146 -364 -360 -364zM370 779l114 154l24 -16l-114 -154z" />
    <glyph glyph-name="Racute" unicode="&#x154;" horiz-adv-x="733" 
d="M356 673h-181v-318h175c121 0 180 62 180 165c0 97 -62 153 -174 153zM285 27v-27h-253v27h107v646h-107v27h324c129 0 210 -63 210 -180c0 -113 -72 -192 -197 -192h-2c59 -77 161 -188 230 -255c37 -37 56 -46 104 -46h45v-27h-57c-50 0 -75 11 -117 51
c-77 72 -190 199 -249 277h-148v-301h110zM285 779l114 154l24 -16l-114 -154z" />
    <glyph glyph-name="Rcaron" unicode="&#x158;" horiz-adv-x="733" 
d="M356 673h-181v-318h175c121 0 180 62 180 165c0 97 -62 153 -174 153zM285 27v-27h-253v27h107v646h-107v27h324c129 0 210 -63 210 -180c0 -113 -72 -192 -197 -192h-2c59 -77 161 -188 230 -255c37 -37 56 -46 104 -46h45v-27h-57c-50 0 -75 11 -117 51
c-77 72 -190 199 -249 277h-148v-301h110zM318 768l-111 138l23 16l97 -121l98 121l23 -16l-111 -138h-19z" />
    <glyph glyph-name="uni0156" unicode="&#x156;" horiz-adv-x="733" 
d="M356 673h-181v-318h175c121 0 180 62 180 165c0 97 -62 153 -174 153zM285 27v-27h-253v27h107v646h-107v27h324c129 0 210 -63 210 -180c0 -113 -72 -192 -197 -192h-2c59 -77 161 -188 230 -255c37 -37 56 -46 104 -46h45v-27h-57c-50 0 -75 11 -117 51
c-77 72 -190 199 -249 277h-148v-301h110zM341 -279l-12 28c63 24 86 58 86 95c0 33 -19 59 -62 60l4 29c56 -3 92 -31 92 -87s-36 -94 -108 -125z" />
    <glyph glyph-name="Sacute" unicode="&#x15a;" horiz-adv-x="572" 
d="M310 -14c-126 0 -196 76 -220 154v-137h-30v230h28c11 -116 86 -219 222 -219c85 0 169 41 169 150c0 72 -36 115 -135 163c-48 24 -88 40 -139 65c-88 45 -127 90 -127 161c0 108 83 161 179 161c111 0 164 -67 186 -135v120h30v-193h-28c-27 125 -97 180 -189 180
c-81 0 -142 -43 -142 -130c0 -53 26 -94 105 -133c51 -27 94 -44 141 -68c108 -54 155 -99 155 -190c0 -134 -107 -179 -205 -179zM252 779l114 154l24 -16l-114 -154z" />
    <glyph glyph-name="uni015E" unicode="&#x15e;" horiz-adv-x="572" 
d="M289 -251c-33 0 -62 11 -85 32l15 23c20 -19 47 -27 71 -27c44 0 67 25 67 61c0 40 -28 55 -55 55c-16 0 -30 -4 -41 -13l-21 14l46 93c-111 8 -174 80 -196 153v-137h-30v230h28c11 -116 86 -219 222 -219c85 0 169 41 169 150c0 72 -36 115 -135 163
c-48 24 -88 40 -139 65c-88 45 -127 90 -127 161c0 108 83 161 179 161c111 0 164 -67 186 -135v120h30v-193h-28c-27 125 -97 180 -189 180c-81 0 -142 -43 -142 -130c0 -53 26 -94 105 -133c51 -27 94 -44 141 -68c108 -54 155 -99 155 -190c0 -127 -98 -176 -193 -179h-4
l-34 -69c7 3 13 4 24 4c32 0 83 -16 83 -83c0 -57 -39 -89 -102 -89z" />
    <glyph glyph-name="Scircumflex" unicode="&#x15c;" horiz-adv-x="572" 
d="M310 -14c-126 0 -196 76 -220 154v-137h-30v230h28c11 -116 86 -219 222 -219c85 0 169 41 169 150c0 72 -36 115 -135 163c-48 24 -88 40 -139 65c-88 45 -127 90 -127 161c0 108 83 161 179 161c111 0 164 -67 186 -135v120h30v-193h-28c-27 125 -97 180 -189 180
c-81 0 -142 -43 -142 -130c0 -53 26 -94 105 -133c51 -27 94 -44 141 -68c108 -54 155 -99 155 -190c0 -134 -107 -179 -205 -179zM186 764l-23 16l111 138h19l111 -138l-23 -16l-97 121z" />
    <glyph glyph-name="uni0218" unicode="&#x218;" horiz-adv-x="572" 
d="M260 -279l-12 28c63 24 86 58 86 95c0 33 -19 59 -62 60l4 29c56 -3 92 -31 92 -87s-36 -94 -108 -125zM310 -14c-126 0 -196 76 -220 154v-137h-30v230h28c11 -116 86 -219 222 -219c85 0 169 41 169 150c0 72 -36 115 -135 163c-48 24 -88 40 -139 65
c-88 45 -127 90 -127 161c0 108 83 161 179 161c111 0 164 -67 186 -135v120h30v-193h-28c-27 125 -97 180 -189 180c-81 0 -142 -43 -142 -130c0 -53 26 -94 105 -133c51 -27 94 -44 141 -68c108 -54 155 -99 155 -190c0 -134 -107 -179 -205 -179z" />
    <glyph glyph-name="Tcaron" unicode="&#x164;" horiz-adv-x="746" 
d="M248 0v27h107v646h-273v-171h-32v198h646v-198h-32v171h-273v-646h107v-27h-250zM373 768l-111 138l23 16l97 -121l98 121l23 -16l-111 -138h-19z" />
    <glyph glyph-name="Tcommaaccent" unicode="&#x162;" horiz-adv-x="746" 
d="M248 0v27h107v646h-273v-171h-32v198h646v-198h-32v171h-273v-646h107v-27h-250zM326 -279l-12 28c63 24 86 58 86 95c0 33 -19 59 -62 60l4 29c56 -3 92 -31 92 -87s-36 -94 -108 -125z" />
    <glyph glyph-name="uni021A" unicode="&#x21a;" horiz-adv-x="746" 
d="M248 0v27h107v646h-273v-171h-32v198h646v-198h-32v171h-273v-646h107v-27h-250zM326 -279l-12 28c63 24 86 58 86 95c0 33 -19 59 -62 60l4 29c56 -3 92 -31 92 -87s-36 -94 -108 -125z" />
    <glyph glyph-name="Tbar" unicode="&#x166;" horiz-adv-x="746" 
d="M498 27v-27h-250v27h107v341h-160v27h160v278h-273v-171h-32v198h646v-198h-32v171h-273v-278h160v-27h-160v-341h107z" />
    <glyph glyph-name="Ubreve" unicode="&#x16c;" horiz-adv-x="818" 
d="M409 -14c-73 0 -135 13 -182 44c-59 39 -91 103 -91 202v441h-107v27h253v-27h-110v-441c0 -81 24 -138 72 -173c40 -31 96 -43 165 -43c79 0 139 17 180 54c39 35 58 89 58 162v441h-101v27h243v-27h-106v-441c0 -85 -25 -146 -70 -185c-48 -43 -119 -61 -204 -61z
M286 879l30 4c5 -55 38 -87 93 -87s85 32 93 87l30 -4c-7 -72 -55 -112 -123 -112c-64 0 -115 39 -123 112z" />
    <glyph glyph-name="Uhungarumlaut" unicode="&#x170;" horiz-adv-x="818" 
d="M409 -14c-73 0 -135 13 -182 44c-59 39 -91 103 -91 202v441h-107v27h253v-27h-110v-441c0 -81 24 -138 72 -173c40 -31 96 -43 165 -43c79 0 139 17 180 54c39 35 58 89 58 162v441h-101v27h243v-27h-106v-441c0 -85 -25 -146 -70 -185c-48 -43 -119 -61 -204 -61z
M389 933l27 -13l-77 -157l-27 13zM534 933l27 -13l-77 -157l-27 13z" />
    <glyph glyph-name="Umacron" unicode="&#x16a;" horiz-adv-x="818" 
d="M409 -14c-73 0 -135 13 -182 44c-59 39 -91 103 -91 202v441h-107v27h253v-27h-110v-441c0 -81 24 -138 72 -173c40 -31 96 -43 165 -43c79 0 139 17 180 54c39 35 58 89 58 162v441h-101v27h243v-27h-106v-441c0 -85 -25 -146 -70 -185c-48 -43 -119 -61 -204 -61z
M291 831h236v-30h-236v30z" />
    <glyph glyph-name="Uogonek" unicode="&#x172;" horiz-adv-x="818" 
d="M456 -286c-61 0 -95 35 -95 90c0 66 54 136 112 186c-20 -3 -41 -4 -64 -4c-80 0 -145 16 -193 52c-51 39 -80 102 -80 194v441h-107v27h253v-27h-110v-441c0 -80 23 -133 66 -168c40 -33 98 -48 171 -48c84 0 147 19 188 63c33 35 50 86 50 153v441h-101v27h243v-27
h-106v-441c0 -79 -20 -135 -59 -175c-26 -26 -60 -45 -103 -58c-73 -68 -124 -128 -124 -192c0 -35 16 -63 60 -63c31 0 45 12 65 31l16 -27c-24 -19 -42 -34 -82 -34z" />
    <glyph glyph-name="Uring" unicode="&#x16e;" horiz-adv-x="818" 
d="M409 -14c-73 0 -135 13 -182 44c-59 39 -91 103 -91 202v441h-107v27h253v-27h-110v-441c0 -81 24 -138 72 -173c40 -31 96 -43 165 -43c79 0 139 17 180 54c39 35 58 89 58 162v441h-101v27h243v-27h-106v-441c0 -85 -25 -146 -70 -185c-48 -43 -119 -61 -204 -61z
M409 731c-40 0 -86 26 -86 86s46 86 86 86s86 -26 86 -86s-46 -86 -86 -86zM409 875c-29 0 -54 -23 -54 -58s25 -58 54 -58c31 0 54 23 54 58s-23 58 -54 58z" />
    <glyph glyph-name="Utilde" unicode="&#x168;" horiz-adv-x="818" 
d="M409 -14c-73 0 -135 13 -182 44c-59 39 -91 103 -91 202v441h-107v27h253v-27h-110v-441c0 -81 24 -138 72 -173c40 -31 96 -43 165 -43c79 0 139 17 180 54c39 35 58 89 58 162v441h-101v27h243v-27h-106v-441c0 -85 -25 -146 -70 -185c-48 -43 -119 -61 -204 -61z
M415 855c21 -11 41 -25 64 -25c21 0 42 17 65 58l27 -17c-32 -51 -59 -70 -91 -70c-27 0 -53 15 -78 28c-17 8 -32 17 -51 17c-27 0 -46 -19 -70 -60l-27 17c31 51 59 72 96 72c24 0 44 -9 65 -20z" />
    <glyph glyph-name="Wacute" unicode="&#x1e82;" horiz-adv-x="1121" 
d="M351 -9h-31l-218 682h-86v27h215v-27h-94l200 -623l209 643h29l212 -641l199 621h-96v27h215v-27h-85l-218 -682h-31l-211 640zM535 779l114 154l24 -16l-114 -154z" />
    <glyph glyph-name="Wcircumflex" unicode="&#x174;" horiz-adv-x="1121" 
d="M351 -9h-31l-218 682h-86v27h215v-27h-94l200 -623l209 643h29l212 -641l199 621h-96v27h215v-27h-85l-218 -682h-31l-211 640zM469 764l-23 16l111 138h19l111 -138l-23 -16l-97 121z" />
    <glyph glyph-name="Wdieresis" unicode="&#x1e84;" horiz-adv-x="1121" 
d="M351 -9h-31l-218 682h-86v27h215v-27h-94l200 -623l209 643h29l212 -641l199 621h-96v27h215v-27h-85l-218 -682h-31l-211 640zM470 798c-19 0 -31 12 -31 31c0 17 12 31 31 31c17 0 31 -14 31 -31c0 -19 -14 -31 -31 -31zM662 798c-19 0 -31 12 -31 31c0 17 12 31 31 31
c17 0 31 -14 31 -31c0 -19 -14 -31 -31 -31z" />
    <glyph glyph-name="Wgrave" unicode="&#x1e80;" horiz-adv-x="1121" 
d="M351 -9h-31l-218 682h-86v27h215v-27h-94l200 -623l209 643h29l212 -641l199 621h-96v27h215v-27h-85l-218 -682h-31l-211 640zM467 917l24 16l114 -154l-24 -16z" />
    <glyph glyph-name="Ycircumflex" unicode="&#x176;" horiz-adv-x="676" 
d="M541 673h-87v27h215v-27h-94l-223 -343v-303h100v-27h-236v27h100v303l-216 343h-93v27h225v-27h-94l198 -313zM243 764l-23 16l111 138h19l111 -138l-23 -16l-97 121z" />
    <glyph glyph-name="Ygrave" unicode="&#x1ef2;" horiz-adv-x="676" 
d="M541 673h-87v27h215v-27h-94l-223 -343v-303h100v-27h-236v27h100v303l-216 343h-93v27h225v-27h-94l198 -313zM241 917l24 16l114 -154l-24 -16z" />
    <glyph glyph-name="Zacute" unicode="&#x179;" horiz-adv-x="669" 
d="M45 -10v18l505 675h-422v-164h-32v191h499v-18l-505 -675h464v194h32v-221h-541zM317 779l114 154l24 -16l-114 -154z" />
    <glyph glyph-name="Zdotaccent" unicode="&#x17b;" horiz-adv-x="669" 
d="M45 -10v18l505 675h-422v-164h-32v191h499v-18l-505 -675h464v194h32v-221h-541zM348 798c-19 0 -31 12 -31 31c0 17 12 31 31 31c17 0 31 -14 31 -31c0 -19 -14 -31 -31 -31z" />
    <glyph glyph-name="abreve" unicode="&#x103;" horiz-adv-x="471" 
d="M387 -10c-36 0 -64 12 -64 65v3c-36 -35 -88 -68 -159 -68c-86 0 -116 55 -116 106c0 59 47 94 106 125c60 31 116 55 169 78v64c0 51 -38 67 -105 67c-60 0 -111 -23 -134 -68l-31 13c31 61 89 85 165 85c92 0 141 -25 141 -97v-305c0 -25 10 -38 31 -38
c17 0 32 8 43 32l22 -15c-12 -32 -39 -47 -68 -47zM164 20c71 0 122 34 159 69v179c-47 -20 -101 -43 -157 -74c-47 -25 -82 -51 -82 -98c0 -33 13 -76 80 -76zM100 673l30 4c1 -61 30 -98 86 -98s82 37 86 98l30 -4c-3 -79 -47 -123 -116 -123s-112 43 -116 123z" />
    <glyph glyph-name="amacron" unicode="&#x101;" horiz-adv-x="471" 
d="M387 -10c-36 0 -64 12 -64 65v3c-36 -35 -88 -68 -159 -68c-86 0 -116 55 -116 106c0 59 47 94 106 125c60 31 116 55 169 78v64c0 51 -38 67 -105 67c-60 0 -111 -23 -134 -68l-31 13c31 61 89 85 165 85c92 0 141 -25 141 -97v-305c0 -25 10 -38 31 -38
c17 0 32 8 43 32l22 -15c-12 -32 -39 -47 -68 -47zM164 20c71 0 122 34 159 69v179c-47 -20 -101 -43 -157 -74c-47 -25 -82 -51 -82 -98c0 -33 13 -76 80 -76zM99 651h234v-30h-234v30z" />
    <glyph glyph-name="aogonek" unicode="&#x105;" horiz-adv-x="471" 
d="M370 -286c-61 0 -95 36 -95 89c0 60 46 119 107 187h-3c-31 3 -56 14 -56 65v3c-36 -35 -88 -68 -159 -68c-86 0 -116 55 -116 106c0 59 47 94 106 125c60 31 116 55 169 78v64c0 51 -38 67 -105 67c-60 0 -111 -23 -134 -68l-31 13c31 61 89 85 165 85
c92 0 141 -25 141 -97v-305c0 -25 10 -38 31 -38c17 0 32 8 43 32l22 -15c-13 -28 -23 -36 -47 -63c-63 -75 -97 -121 -97 -169c0 -33 16 -61 60 -61c31 0 45 12 65 31l16 -27c-24 -19 -42 -34 -82 -34zM164 20c71 0 122 34 159 69v179c-47 -20 -101 -43 -157 -74
c-47 -25 -82 -51 -82 -98c0 -33 13 -76 80 -76z" />
    <glyph glyph-name="aringacute" unicode="&#x1fb;" horiz-adv-x="471" 
d="M387 -10c-36 0 -64 12 -64 65v3c-36 -35 -88 -68 -159 -68c-86 0 -116 55 -116 106c0 59 47 94 106 125c60 31 116 55 169 78v64c0 51 -38 67 -105 67c-60 0 -111 -23 -134 -68l-31 13c31 61 89 85 165 85c92 0 141 -25 141 -97v-305c0 -25 10 -38 31 -38
c17 0 32 8 43 32l22 -15c-12 -32 -39 -47 -68 -47zM164 20c71 0 122 34 159 69v179c-47 -20 -101 -43 -157 -74c-47 -25 -82 -51 -82 -98c0 -33 13 -76 80 -76zM216 564c-40 0 -86 26 -86 86s46 86 86 86s86 -26 86 -86s-46 -86 -86 -86zM216 710c-31 0 -56 -24 -56 -60
s25 -60 56 -60s56 24 56 60s-25 60 -56 60zM170 792l114 154l24 -16l-114 -154z" />
    <glyph glyph-name="aeacute" unicode="&#x1fd;" horiz-adv-x="760" 
d="M528 -10c-96 0 -160 51 -188 132c-22 -65 -70 -132 -170 -132c-92 0 -122 56 -122 105c0 60 46 100 111 128c55 23 112 46 164 66v53c0 72 -38 88 -105 88c-60 0 -111 -23 -134 -68l-31 13c31 61 89 85 165 85c85 0 136 -28 136 -113v-6c33 71 97 119 178 119
c121 0 184 -74 184 -176v-21h-357c-2 -12 -3 -25 -3 -38c0 -115 52 -205 172 -205c79 0 134 34 161 73l25 -16c-35 -49 -94 -87 -186 -87zM533 430c-80 0 -144 -56 -168 -137h315c-3 74 -49 137 -147 137zM170 20c39 0 68 12 91 29c45 34 62 99 62 143v66
c-47 -17 -103 -39 -152 -62c-52 -24 -87 -53 -87 -101c0 -31 13 -75 86 -75zM333 553l93 193l29 -14l-93 -193z" />
    <glyph glyph-name="cacute" unicode="&#x107;" horiz-adv-x="491" 
d="M277 460c97 0 150 -48 162 -100l-31 -9c-13 42 -52 79 -131 79c-119 0 -206 -81 -206 -204c0 -117 70 -206 193 -206c80 0 128 36 159 79l23 -19c-35 -48 -90 -90 -182 -90c-136 0 -229 93 -229 236c0 144 109 234 242 234zM238 553l93 193l29 -14l-93 -193z" />
    <glyph glyph-name="ccaron" unicode="&#x10d;" horiz-adv-x="491" 
d="M277 460c97 0 150 -48 162 -100l-31 -9c-13 42 -52 79 -131 79c-119 0 -206 -81 -206 -204c0 -117 70 -206 193 -206c80 0 128 36 159 79l23 -19c-35 -48 -90 -90 -182 -90c-136 0 -229 93 -229 236c0 144 109 234 242 234zM259 554l-105 171l29 13l87 -142l86 142
l30 -13l-104 -171h-23z" />
    <glyph glyph-name="ccircumflex" unicode="&#x109;" horiz-adv-x="491" 
d="M277 460c97 0 150 -48 162 -100l-31 -9c-13 42 -52 79 -131 79c-119 0 -206 -81 -206 -204c0 -117 70 -206 193 -206c80 0 128 36 159 79l23 -19c-35 -48 -90 -90 -182 -90c-136 0 -229 93 -229 236c0 144 109 234 242 234zM357 540l-86 142l-87 -142l-30 13l104 171h23
l105 -171z" />
    <glyph glyph-name="cdotaccent" unicode="&#x10b;" horiz-adv-x="491" 
d="M277 460c97 0 150 -48 162 -100l-31 -9c-13 42 -52 79 -131 79c-119 0 -206 -81 -206 -204c0 -117 70 -206 193 -206c80 0 128 36 159 79l23 -19c-35 -48 -90 -90 -182 -90c-136 0 -229 93 -229 236c0 144 109 234 242 234zM270 625c-19 0 -31 12 -31 31
c0 17 12 31 31 31c17 0 31 -14 31 -31c0 -19 -14 -31 -31 -31z" />
    <glyph glyph-name="dcaron" unicode="&#x10f;" horiz-adv-x="571" 
d="M423 -12l-3 67c-25 -33 -76 -65 -155 -65c-128 0 -230 91 -230 235c0 160 121 235 240 235c77 0 121 -30 144 -62v303l-87 -14v28l100 15h23v-657l3 -56l93 13v-27l-106 -15h-22zM398 65c14 14 21 31 21 51v205c0 32 -5 44 -21 63c-21 24 -65 46 -125 46
c-107 0 -202 -69 -202 -205c0 -124 79 -205 197 -205c57 0 103 18 130 45zM565 561l-31 5l31 176l31 -5z" />
    <glyph glyph-name="ebreve" unicode="&#x115;" horiz-adv-x="485" 
d="M441 258h-368c-1 -11 -2 -22 -2 -33c0 -115 56 -205 182 -205c79 0 134 34 161 73l25 -16c-35 -49 -94 -87 -186 -87c-141 0 -218 95 -218 235c0 132 91 235 222 235c121 0 184 -74 184 -176v-26zM258 430c-87 0 -155 -58 -179 -142h326c-3 76 -47 142 -147 142zM138 673
l30 4c1 -61 30 -98 86 -98s82 37 86 98l30 -4c-3 -79 -47 -123 -116 -123s-112 43 -116 123z" />
    <glyph glyph-name="ecaron" unicode="&#x11b;" horiz-adv-x="485" 
d="M441 258h-368c-1 -11 -2 -22 -2 -33c0 -115 56 -205 182 -205c79 0 134 34 161 73l25 -16c-35 -49 -94 -87 -186 -87c-141 0 -218 95 -218 235c0 132 91 235 222 235c121 0 184 -74 184 -176v-26zM258 430c-87 0 -155 -58 -179 -142h326c-3 76 -47 142 -147 142zM238 554
l-105 171l29 13l87 -142l86 142l30 -13l-104 -171h-23z" />
    <glyph glyph-name="edotaccent" unicode="&#x117;" horiz-adv-x="485" 
d="M441 258h-368c-1 -11 -2 -22 -2 -33c0 -115 56 -205 182 -205c79 0 134 34 161 73l25 -16c-35 -49 -94 -87 -186 -87c-141 0 -218 95 -218 235c0 132 91 235 222 235c121 0 184 -74 184 -176v-26zM258 430c-87 0 -155 -58 -179 -142h326c-3 76 -47 142 -147 142zM245 625
c-19 0 -31 12 -31 31c0 17 12 31 31 31c17 0 31 -14 31 -31c0 -19 -14 -31 -31 -31z" />
    <glyph glyph-name="emacron" unicode="&#x113;" horiz-adv-x="485" 
d="M441 258h-368c-1 -11 -2 -22 -2 -33c0 -115 56 -205 182 -205c79 0 134 34 161 73l25 -16c-35 -49 -94 -87 -186 -87c-141 0 -218 95 -218 235c0 132 91 235 222 235c121 0 184 -74 184 -176v-26zM258 430c-87 0 -155 -58 -179 -142h326c-3 76 -47 142 -147 142zM136 651
h234v-30h-234v30z" />
    <glyph glyph-name="eogonek" unicode="&#x119;" horiz-adv-x="485" 
d="M292 -286c-61 0 -95 35 -95 90c0 63 49 122 126 194c-21 -5 -43 -8 -70 -8c-141 0 -218 95 -218 235c0 132 91 235 222 235c121 0 184 -74 184 -176v-26h-368c-1 -11 -2 -22 -2 -33c0 -115 56 -205 182 -205c79 0 134 34 161 73l25 -16c-15 -21 -36 -40 -55 -57
c-102 -97 -151 -154 -151 -214c0 -35 16 -62 60 -62c31 0 45 12 65 31l16 -27c-24 -19 -42 -34 -82 -34zM258 430c-87 0 -155 -58 -179 -142h326c-3 76 -47 142 -147 142z" />
    <glyph glyph-name="gbreve" unicode="&#x11f;" horiz-adv-x="537" 
d="M383 291c0 84 -62 141 -147 141s-147 -58 -147 -141s62 -141 147 -141s147 57 147 141zM241 -280c-171 0 -227 80 -227 151c0 40 18 72 43 92l24 -17c-19 -19 -31 -47 -31 -75c0 -59 46 -121 191 -121c83 0 202 34 202 137c0 55 -34 101 -122 101h-165
c-60 0 -91 30 -91 74c0 41 31 67 75 82c-52 27 -86 76 -86 147c0 107 80 169 182 169c51 0 92 -14 125 -41c21 19 48 37 88 37c35 0 76 -12 76 -79h-33c0 43 -23 51 -46 51c-29 0 -49 -14 -64 -29c24 -29 36 -65 36 -108c0 -107 -81 -169 -182 -169c-20 0 -38 2 -55 7
c-51 -7 -80 -31 -80 -66c0 -24 15 -43 55 -43h165c108 0 158 -57 158 -132c0 -125 -139 -168 -238 -168zM134 673l30 4c1 -61 30 -98 86 -98s82 37 86 98l30 -4c-3 -79 -47 -123 -116 -123s-112 43 -116 123z" />
    <glyph glyph-name="gcircumflex" unicode="&#x11d;" horiz-adv-x="537" 
d="M383 291c0 84 -62 141 -147 141s-147 -58 -147 -141s62 -141 147 -141s147 57 147 141zM241 -280c-171 0 -227 80 -227 151c0 40 18 72 43 92l24 -17c-19 -19 -31 -47 -31 -75c0 -59 46 -121 191 -121c83 0 202 34 202 137c0 55 -34 101 -122 101h-165
c-60 0 -91 30 -91 74c0 41 31 67 75 82c-52 27 -86 76 -86 147c0 107 80 169 182 169c51 0 92 -14 125 -41c21 19 48 37 88 37c35 0 76 -12 76 -79h-33c0 43 -23 51 -46 51c-29 0 -49 -14 -64 -29c24 -29 36 -65 36 -108c0 -107 -81 -169 -182 -169c-20 0 -38 2 -55 7
c-51 -7 -80 -31 -80 -66c0 -24 15 -43 55 -43h165c108 0 158 -57 158 -132c0 -125 -139 -168 -238 -168zM337 540l-86 142l-87 -142l-30 13l104 171h23l105 -171z" />
    <glyph glyph-name="uni0123" unicode="&#x123;" horiz-adv-x="535" 
d="M209 627c0 -37 20 -55 61 -55l-4 -28c-56 1 -92 26 -92 83c0 59 36 98 108 129l12 -27c-60 -25 -85 -62 -85 -102zM382 291c0 84 -62 141 -147 141s-147 -58 -147 -141s62 -141 147 -141s147 57 147 141zM240 -280c-171 0 -227 80 -227 151c0 40 18 72 43 92l24 -17
c-19 -19 -31 -47 -31 -75c0 -59 46 -121 191 -121c83 0 202 34 202 137c0 55 -34 101 -122 101h-165c-60 0 -91 30 -91 74c0 41 31 67 75 82c-52 27 -86 76 -86 147c0 107 80 169 182 169c51 0 92 -14 125 -41c21 19 48 37 88 37c35 0 76 -12 76 -79h-33c0 43 -23 51 -46 51
c-29 0 -49 -14 -64 -29c24 -29 36 -65 36 -108c0 -107 -81 -169 -182 -169c-20 0 -38 2 -55 7c-51 -7 -80 -31 -80 -66c0 -24 15 -43 55 -43h165c108 0 158 -57 158 -132c0 -125 -139 -168 -238 -168z" />
    <glyph glyph-name="gdotaccent" unicode="&#x121;" horiz-adv-x="537" 
d="M383 291c0 84 -62 141 -147 141s-147 -58 -147 -141s62 -141 147 -141s147 57 147 141zM241 -280c-171 0 -227 80 -227 151c0 40 18 72 43 92l24 -17c-19 -19 -31 -47 -31 -75c0 -59 46 -121 191 -121c83 0 202 34 202 137c0 55 -34 101 -122 101h-165
c-60 0 -91 30 -91 74c0 41 31 67 75 82c-52 27 -86 76 -86 147c0 107 80 169 182 169c51 0 92 -14 125 -41c21 19 48 37 88 37c35 0 76 -12 76 -79h-33c0 43 -23 51 -46 51c-29 0 -49 -14 -64 -29c24 -29 36 -65 36 -108c0 -107 -81 -169 -182 -169c-20 0 -38 2 -55 7
c-51 -7 -80 -31 -80 -66c0 -24 15 -43 55 -43h165c108 0 158 -57 158 -132c0 -125 -139 -168 -238 -168zM250 625c-19 0 -31 12 -31 31c0 17 12 31 31 31c17 0 31 -14 31 -31c0 -19 -14 -31 -31 -31z" />
    <glyph glyph-name="hbar" unicode="&#x127;" horiz-adv-x="597" 
d="M232 27v-27h-203v27h83v554h-95v27h95v92l-83 -13v28l96 15h23v-122h160v-27h-160v-199c35 40 100 78 179 78c95 0 158 -45 158 -149v-284h83v-27h-205v27h86v284c0 81 -47 119 -122 119c-68 0 -123 -30 -160 -65c-11 -11 -19 -20 -19 -40v-298h84z" />
    <glyph glyph-name="hcircumflex" unicode="&#x125;" horiz-adv-x="597" 
d="M29 0v27h83v673l-83 -13v28l96 15h23v-348c35 40 100 78 179 78c95 0 158 -45 158 -149v-284h83v-27h-205v27h86v284c0 81 -47 119 -122 119c-68 0 -123 -30 -160 -65c-11 -11 -19 -20 -19 -40v-298h84v-27h-203zM191 774l-23 16l111 138h19l111 -138l-23 -16l-97 121z
" />
    <glyph glyph-name="ibreve" unicode="&#x12d;" horiz-adv-x="259" 
d="M29 0v27h83v393l-86 -13v28l99 15h23v-423h82v-27h-201zM-18 673l30 4c1 -61 30 -98 86 -98s82 37 86 98l30 -4c-3 -79 -47 -123 -116 -123s-112 43 -116 123z" />
    <glyph glyph-name="idotaccent" horiz-adv-x="259" 
d="M125 625c-19 0 -31 12 -31 31c0 17 12 31 31 31c17 0 31 -14 31 -31c0 -19 -14 -31 -31 -31zM29 27h83v393l-86 -13v28l99 15h23v-423h82v-27h-201v27z" />
    <glyph glyph-name="imacron" unicode="&#x12b;" horiz-adv-x="259" 
d="M24 651h174v-30h-174v30zM29 0v27h83v393l-86 -13v28l99 15h23v-423h82v-27h-201z" />
    <glyph glyph-name="iogonek" unicode="&#x12f;" horiz-adv-x="259" 
d="M125 625c-19 0 -31 12 -31 31c0 17 12 31 31 31c17 0 31 -14 31 -31c0 -19 -14 -31 -31 -31zM29 27h83v393l-86 -13v28l99 15h23v-423h82v-27h-44c-71 -87 -105 -141 -105 -193c0 -35 16 -63 60 -63c31 0 45 12 65 31l16 -27c-24 -19 -42 -34 -82 -34
c-61 0 -95 35 -95 91c0 60 41 118 101 195h-117v27z" />
    <glyph glyph-name="itilde" unicode="&#x129;" horiz-adv-x="259" 
d="M29 0v27h83v393l-86 -13v28l99 15h23v-423h82v-27h-201zM36 643c27 0 50 -11 71 -22c20 -12 38 -23 57 -23c23 0 46 14 69 57l24 -17c-27 -51 -58 -70 -93 -70c-27 0 -49 13 -72 25c-20 11 -37 20 -56 20c-27 0 -49 -15 -72 -58l-24 17c29 53 59 71 96 71z" />
    <glyph glyph-name="jcircumflex" unicode="&#x135;" horiz-adv-x="261" 
d="M120 -92v512l-86 -13v28l99 15h23v-542c0 -136 -56 -188 -155 -188c-56 0 -89 15 -128 46l16 25c35 -28 65 -41 112 -41c88 0 119 54 119 158zM187 540l-86 142l-87 -142l-30 13l104 171h23l105 -171z" />
    <glyph glyph-name="uni0137" unicode="&#x137;" horiz-adv-x="526" 
d="M23 0v27h83v673l-86 -13v28l99 15h23v-497l211 190h-62v27h189v-27h-84l-199 -179l225 -217h86v-27h-207v27h72l-202 194l-29 -26v-168h76v-27h-195zM180 -279l-12 28c63 24 86 58 86 95c0 33 -19 59 -62 60l4 29c56 -3 92 -31 92 -87s-36 -94 -108 -125z" />
    <glyph glyph-name="lacute" unicode="&#x13a;" horiz-adv-x="267" 
d="M29 0v27h87v673l-88 -14v28l101 16h23v-703h86v-27h-209zM96 779l114 154l24 -16l-114 -154z" />
    <glyph glyph-name="lcaron" unicode="&#x13e;" horiz-adv-x="267" 
d="M250 561l-31 5l31 176l31 -5zM29 0v27h87v673l-88 -14v28l101 16h23v-703h86v-27h-209z" />
    <glyph glyph-name="uni013C" unicode="&#x13c;" horiz-adv-x="267" 
d="M29 0v27h87v673l-88 -14v28l101 16h23v-703h86v-27h-209zM76 -279l-12 28c63 24 86 58 86 95c0 33 -19 59 -62 60l4 29c56 -3 92 -31 92 -87s-36 -94 -108 -125z" />
    <glyph glyph-name="ldot" unicode="&#x140;" horiz-adv-x="317" 
d="M29 0v27h87v673l-88 -14v28l101 16h23v-703h86v-27h-209zM292 330c-16 0 -31 12 -31 31s15 31 31 31s31 -12 31 -31s-15 -31 -31 -31z" />
    <glyph glyph-name="nacute" unicode="&#x144;" horiz-adv-x="596" 
d="M29 0v27h83v328l-5 66l-84 -14v28l96 15h22l5 -70c33 41 101 80 181 80c95 0 158 -45 158 -149v-284h83v-27h-205v27h86v284c0 81 -47 119 -122 119c-68 0 -123 -30 -160 -65c-11 -11 -19 -20 -19 -40v-298h84v-27h-203zM259 553l93 193l29 -14l-93 -193z" />
    <glyph glyph-name="napostrophe" unicode="&#x149;" horiz-adv-x="596" 
d="M29 0v27h83v328l-5 66l-84 -14v28l96 15h22l5 -70c33 41 101 80 181 80c95 0 158 -45 158 -149v-284h83v-27h-205v27h86v284c0 81 -47 119 -122 119c-68 0 -123 -30 -160 -65c-11 -11 -19 -20 -19 -40v-298h84v-27h-203zM14 624c0 43 -25 65 -68 68l4 29
c57 -3 100 -31 100 -95s-43 -109 -123 -148l-13 27c68 33 100 70 100 119z" />
    <glyph glyph-name="ncaron" unicode="&#x148;" horiz-adv-x="596" 
d="M29 0v27h83v328l-5 66l-84 -14v28l96 15h22l5 -70c33 41 101 80 181 80c95 0 158 -45 158 -149v-284h83v-27h-205v27h86v284c0 81 -47 119 -122 119c-68 0 -123 -30 -160 -65c-11 -11 -19 -20 -19 -40v-298h84v-27h-203zM280 554l-105 171l29 13l87 -142l86 142l30 -13
l-104 -171h-23z" />
    <glyph glyph-name="uni0146" unicode="&#x146;" horiz-adv-x="596" 
d="M249 -279l-12 28c63 24 86 58 86 95c0 33 -19 59 -62 60l4 29c56 -3 92 -31 92 -87s-36 -94 -108 -125zM29 0v27h83v328l-5 66l-84 -14v28l96 15h22l5 -70c33 41 101 80 181 80c95 0 158 -45 158 -149v-284h83v-27h-205v27h86v284c0 81 -47 119 -122 119
c-68 0 -123 -30 -160 -65c-11 -11 -19 -20 -19 -40v-298h84v-27h-203z" />
    <glyph glyph-name="obreve" unicode="&#x14f;" horiz-adv-x="532" 
d="M35 225c0 133 95 235 231 235s231 -102 231 -235s-95 -235 -231 -235s-231 102 -231 235zM71 225c0 -113 75 -207 195 -207s195 95 195 207c0 113 -75 207 -195 207s-195 -94 -195 -207zM151 673l30 4c1 -61 30 -98 86 -98s82 37 86 98l30 -4c-3 -79 -47 -123 -116 -123
s-112 43 -116 123z" />
    <glyph glyph-name="ohungarumlaut" unicode="&#x151;" horiz-adv-x="532" 
d="M35 225c0 133 95 235 231 235s231 -102 231 -235s-95 -235 -231 -235s-231 102 -231 235zM71 225c0 -113 75 -207 195 -207s195 95 195 207c0 113 -75 207 -195 207s-195 -94 -195 -207zM265 746l27 -12l-90 -193l-27 12zM403 746l27 -12l-90 -193l-27 12z" />
    <glyph glyph-name="omacron" unicode="&#x14d;" horiz-adv-x="532" 
d="M35 225c0 133 95 235 231 235s231 -102 231 -235s-95 -235 -231 -235s-231 102 -231 235zM71 225c0 -113 75 -207 195 -207s195 95 195 207c0 113 -75 207 -195 207s-195 -94 -195 -207zM150 651h234v-30h-234v30z" />
    <glyph glyph-name="oslashacute" unicode="&#x1ff;" horiz-adv-x="532" 
d="M235 553l93 193l29 -14l-93 -193zM71 225c0 -60 20 -114 59 -153l255 321c-33 26 -73 39 -119 39c-120 0 -195 -94 -195 -207zM266 18c120 0 195 95 195 207c0 59 -20 109 -55 148l-253 -320c31 -23 69 -35 113 -35zM266 -10c-51 0 -95 13 -132 39l-67 -84l-25 16l68 86
c-47 43 -75 106 -75 178c0 133 95 235 231 235c53 0 99 -16 138 -43l63 80l25 -16l-66 -83c45 -43 71 -102 71 -173c0 -133 -95 -235 -231 -235z" />
    <glyph glyph-name="racute" unicode="&#x155;" horiz-adv-x="401" 
d="M29 0v27h83v330l-5 64l-84 -14v28l96 15h22l6 -78c25 45 69 88 132 88c53 0 82 -29 87 -78l-35 -5c-3 33 -17 55 -56 55c-55 0 -95 -49 -112 -74c-13 -21 -15 -34 -15 -59v-272h84v-27h-203zM181 553l93 193l29 -14l-93 -193z" />
    <glyph glyph-name="rcaron" unicode="&#x159;" horiz-adv-x="401" 
d="M29 0v27h83v330l-5 64l-84 -14v28l96 15h22l6 -78c25 45 69 88 132 88c53 0 82 -29 87 -78l-35 -5c-3 33 -17 55 -56 55c-55 0 -95 -49 -112 -74c-13 -21 -15 -34 -15 -59v-272h84v-27h-203zM202 554l-105 171l29 13l87 -142l86 142l30 -13l-104 -171h-23z" />
    <glyph glyph-name="uni0157" unicode="&#x157;" horiz-adv-x="401" 
d="M29 0v27h83v330l-5 64l-84 -14v28l96 15h22l6 -78c25 45 69 88 132 88c53 0 82 -29 87 -78l-35 -5c-3 33 -17 55 -56 55c-55 0 -95 -49 -112 -74c-13 -21 -15 -34 -15 -59v-272h84v-27h-203zM41 -279l-12 28c63 24 86 58 86 95c0 33 -19 59 -62 60l4 29
c56 -3 92 -31 92 -87s-36 -94 -108 -125z" />
    <glyph glyph-name="sacute" unicode="&#x15b;" horiz-adv-x="412" 
d="M224 -10c-82 0 -125 42 -143 89v-79h-26v171h24c9 -104 60 -153 144 -153c72 0 103 35 103 86c0 66 -57 88 -120 114c-71 29 -141 52 -141 130c0 69 56 112 128 112c65 0 101 -35 117 -74v64h26v-153h-24c-8 80 -46 135 -121 135c-59 0 -90 -33 -90 -81
c0 -60 53 -78 115 -102c77 -32 146 -58 146 -142c0 -71 -50 -117 -138 -117zM165 553l93 193l29 -14l-93 -193z" />
    <glyph glyph-name="uni015F" unicode="&#x15f;" horiz-adv-x="412" 
d="M199 -251c-33 0 -62 11 -85 32l15 23c20 -19 47 -27 71 -27c44 0 67 25 67 61c0 40 -28 55 -55 55c-16 0 -30 -4 -41 -13l-21 14l49 97c-67 8 -102 45 -118 88v-79h-26v171h24c9 -104 60 -153 144 -153c72 0 103 35 103 86c0 66 -57 88 -120 114c-71 29 -141 52 -141 130
c0 69 56 112 128 112c65 0 101 -35 117 -74v64h26v-153h-24c-8 80 -46 135 -121 135c-59 0 -90 -33 -90 -81c0 -60 53 -78 115 -102c77 -32 146 -58 146 -142c0 -69 -48 -116 -128 -117h-4l-36 -73c7 3 13 4 24 4c32 0 83 -16 83 -83c0 -57 -39 -89 -102 -89z" />
    <glyph glyph-name="scircumflex" unicode="&#x15d;" horiz-adv-x="412" 
d="M224 -10c-82 0 -125 42 -143 89v-79h-26v171h24c9 -104 60 -153 144 -153c72 0 103 35 103 86c0 66 -57 88 -120 114c-71 29 -141 52 -141 130c0 69 56 112 128 112c65 0 101 -35 117 -74v64h26v-153h-24c-8 80 -46 135 -121 135c-59 0 -90 -33 -90 -81
c0 -60 53 -78 115 -102c77 -32 146 -58 146 -142c0 -71 -50 -117 -138 -117zM284 540l-86 142l-87 -142l-30 13l104 171h23l105 -171z" />
    <glyph glyph-name="uni0219" unicode="&#x219;" horiz-adv-x="412" 
d="M224 -10c-82 0 -125 42 -143 89v-79h-26v171h24c9 -104 60 -153 144 -153c72 0 103 35 103 86c0 66 -57 88 -120 114c-71 29 -141 52 -141 130c0 69 56 112 128 112c65 0 101 -35 117 -74v64h26v-153h-24c-8 80 -46 135 -121 135c-59 0 -90 -33 -90 -81
c0 -60 53 -78 115 -102c77 -32 146 -58 146 -142c0 -71 -50 -117 -138 -117zM116 -279l-12 28c63 24 86 58 86 95c0 33 -19 59 -62 60l4 29c56 -3 92 -31 92 -87s-36 -94 -108 -125z" />
    <glyph glyph-name="tbar" unicode="&#x167;" horiz-adv-x="369" 
d="M324 47v-30c-28 -16 -61 -27 -98 -27c-72 0 -121 21 -121 110v205h-74v27h74v89h-80v29h80v112h36v-112h168v-29h-168v-89h168v-27h-168v-205c0 -61 29 -80 85 -80c31 0 62 6 98 27z" />
    <glyph glyph-name="tcaron" unicode="&#x165;" horiz-adv-x="369" 
d="M255 561l-31 5l31 176l31 -5zM226 -10c-72 0 -121 21 -121 110v321h-80v29h80v112h36v-112h168v-29h-168v-321c0 -61 29 -80 85 -80c31 0 62 6 98 27v-30c-28 -16 -61 -27 -98 -27z" />
    <glyph glyph-name="tcommaaccent" unicode="&#x163;" horiz-adv-x="369" 
d="M226 -10c-72 0 -121 21 -121 110v321h-80v29h80v112h36v-112h168v-29h-168v-321c0 -61 29 -80 85 -80c31 0 62 6 98 27v-30c-28 -16 -61 -27 -98 -27zM109 -279l-12 28c63 24 86 58 86 95c0 33 -19 59 -62 60l4 29c56 -3 92 -31 92 -87s-36 -94 -108 -125z" />
    <glyph glyph-name="uni021B" unicode="&#x21b;" horiz-adv-x="369" 
d="M226 -10c-72 0 -121 21 -121 110v321h-80v29h80v112h36v-112h168v-29h-168v-321c0 -61 29 -80 85 -80c31 0 62 6 98 27v-30c-28 -16 -61 -27 -98 -27zM109 -279l-12 28c63 24 86 58 86 95c0 33 -19 59 -62 60l4 29c56 -3 92 -31 92 -87s-36 -94 -108 -125z" />
    <glyph glyph-name="ubreve" unicode="&#x16d;" horiz-adv-x="573" 
d="M430 -7l-4 66c-33 -39 -90 -69 -171 -69c-97 0 -160 37 -160 141v292h-83v27h119v-319c0 -80 44 -111 124 -111c60 0 117 22 148 51c19 19 22 34 22 54v298h-84v27h120v-366l3 -62l86 14v-28l-98 -15h-22zM164 673l30 4c1 -61 30 -98 86 -98s82 37 86 98l30 -4
c-3 -79 -47 -123 -116 -123s-112 43 -116 123z" />
    <glyph glyph-name="uhungarumlaut" unicode="&#x171;" horiz-adv-x="573" 
d="M430 -7l-4 66c-33 -39 -90 -69 -171 -69c-97 0 -160 37 -160 141v292h-83v27h119v-319c0 -80 44 -111 124 -111c60 0 117 22 148 51c19 19 22 34 22 54v298h-84v27h120v-366l3 -62l86 14v-28l-98 -15h-22zM278 746l27 -12l-90 -193l-27 12zM416 746l27 -12l-90 -193
l-27 12z" />
    <glyph glyph-name="umacron" unicode="&#x16b;" horiz-adv-x="573" 
d="M430 -7l-4 66c-33 -39 -90 -69 -171 -69c-97 0 -160 37 -160 141v292h-83v27h119v-319c0 -80 44 -111 124 -111c60 0 117 22 148 51c19 19 22 34 22 54v298h-84v27h120v-366l3 -62l86 14v-28l-98 -15h-22zM163 651h234v-30h-234v30z" />
    <glyph glyph-name="uogonek" unicode="&#x173;" horiz-adv-x="573" 
d="M477 -225l16 -27c-24 -19 -42 -34 -82 -34c-61 0 -95 35 -95 90c0 62 45 112 114 197l-4 58c-33 -39 -90 -69 -171 -69c-97 0 -160 37 -160 141v292h-83v27h119v-319c0 -80 44 -111 124 -111c60 0 117 22 148 51c19 19 22 34 22 54v298h-84v27h120v-366l3 -62l86 14v-28
l-86 -13c-76 -91 -112 -138 -112 -189c0 -35 16 -62 60 -62c31 0 45 12 65 31z" />
    <glyph glyph-name="uring" unicode="&#x16f;" horiz-adv-x="573" 
d="M430 -7l-4 66c-33 -39 -90 -69 -171 -69c-97 0 -160 37 -160 141v292h-83v27h119v-319c0 -80 44 -111 124 -111c60 0 117 22 148 51c19 19 22 34 22 54v298h-84v27h120v-366l3 -62l86 14v-28l-98 -15h-22zM280 564c-40 0 -86 26 -86 86s46 86 86 86s86 -26 86 -86
s-46 -86 -86 -86zM280 710c-31 0 -56 -24 -56 -60s25 -60 56 -60s56 24 56 60s-25 60 -56 60z" />
    <glyph glyph-name="utilde" unicode="&#x169;" horiz-adv-x="573" 
d="M430 -7l-4 66c-33 -39 -90 -69 -171 -69c-97 0 -160 37 -160 141v292h-83v27h119v-319c0 -80 44 -111 124 -111c60 0 117 22 148 51c19 19 22 34 22 54v298h-84v27h120v-366l3 -62l86 14v-28l-98 -15h-22zM218 643c27 0 50 -11 71 -22c20 -12 38 -23 57 -23
c23 0 46 14 69 57l24 -17c-27 -51 -58 -70 -93 -70c-27 0 -49 13 -72 25c-20 11 -37 20 -56 20c-27 0 -49 -15 -72 -58l-24 17c29 53 59 71 96 71z" />
    <glyph glyph-name="wacute" unicode="&#x1e83;" horiz-adv-x="798" 
d="M273 -2h-37l-146 425h-77v27h191v-27h-79l130 -380l133 410h35l132 -409l122 379h-83v27h191v-27h-76l-136 -425h-37l-131 406zM370 553l93 193l29 -14l-93 -193z" />
    <glyph glyph-name="wcircumflex" unicode="&#x175;" horiz-adv-x="798" 
d="M273 -2h-37l-146 425h-77v27h191v-27h-79l130 -380l133 410h35l132 -409l122 379h-83v27h191v-27h-76l-136 -425h-37l-131 406zM489 540l-86 142l-87 -142l-30 13l104 171h23l105 -171z" />
    <glyph glyph-name="wdieresis" unicode="&#x1e85;" horiz-adv-x="798" 
d="M273 -2h-37l-146 425h-77v27h191v-27h-79l130 -380l133 410h35l132 -409l122 379h-83v27h191v-27h-76l-136 -425h-37l-131 406zM306 625c-19 0 -31 12 -31 31c0 17 12 31 31 31c17 0 31 -14 31 -31c0 -19 -14 -31 -31 -31zM498 625c-19 0 -31 12 -31 31c0 17 12 31 31 31
c17 0 31 -14 31 -31c0 -19 -14 -31 -31 -31z" />
    <glyph glyph-name="wgrave" unicode="&#x1e81;" horiz-adv-x="798" 
d="M273 -2h-37l-146 425h-77v27h191v-27h-79l130 -380l133 410h35l132 -409l122 379h-83v27h191v-27h-76l-136 -425h-37l-131 406zM313 733l28 13l93 -193l-28 -13z" />
    <glyph glyph-name="ycircumflex" unicode="&#x177;" horiz-adv-x="541" 
d="M109 -280c-24 0 -41 5 -53 10c-7 3 -13 6 -17 11l12 27l17 -9c11 -5 24 -9 41 -9c36 0 54 22 69 55l80 194l-174 424h-78v27h189v-27h-75l157 -381l157 381h-74v27h175v-27h-68l-261 -628c-25 -60 -58 -75 -97 -75zM370 540l-86 142l-87 -142l-30 13l104 171h23l105 -171
z" />
    <glyph glyph-name="ygrave" unicode="&#x1ef3;" horiz-adv-x="541" 
d="M109 -280c-24 0 -41 5 -53 10c-7 3 -13 6 -17 11l12 27l17 -9c11 -5 24 -9 41 -9c36 0 54 22 69 55l80 194l-174 424h-78v27h189v-27h-75l157 -381l157 381h-74v27h175v-27h-68l-261 -628c-25 -60 -58 -75 -97 -75zM186 733l28 13l93 -193l-28 -13z" />
    <glyph glyph-name="zacute" unicode="&#x17a;" horiz-adv-x="470" 
d="M35 0v18l331 405h-266l-10 -126h-30l12 153h342v-18l-331 -405h302l5 129h30l-5 -156h-380zM206 553l93 193l29 -14l-93 -193z" />
    <glyph glyph-name="zdotaccent" unicode="&#x17c;" horiz-adv-x="470" 
d="M35 0v18l331 405h-266l-10 -126h-30l12 153h342v-18l-331 -405h302l5 129h30l-5 -156h-380zM238 625c-19 0 -31 12 -31 31c0 17 12 31 31 31c17 0 31 -14 31 -31c0 -19 -14 -31 -31 -31z" />
    <glyph glyph-name="c_t" unicode="&#xe220;" horiz-adv-x="820" 
d="M677 -10c-72 0 -121 21 -121 110v321h-80v29h80v84c0 119 -61 170 -154 170c-79 0 -160 -37 -160 -137c0 -51 19 -90 50 -107c88 -5 136 -51 147 -100l-31 -9c-13 42 -52 79 -131 79c-119 0 -206 -81 -206 -204c0 -117 70 -206 193 -206c80 0 128 36 159 79l23 -19
c-35 -48 -90 -90 -182 -90c-136 0 -229 93 -229 236c0 134 93 222 216 233c-27 24 -45 58 -45 109c0 121 103 166 196 166c108 0 190 -54 190 -199v-85h168v-29h-168v-321c0 -61 29 -80 85 -80c31 0 62 6 98 27v-30c-28 -16 -61 -27 -98 -27z" />
    <glyph glyph-name="s_t" unicode="&#xfb06;" horiz-adv-x="752" 
d="M609 -10c-72 0 -121 21 -121 110v321h-80v29h80v84c0 119 -61 170 -154 170c-79 0 -160 -37 -160 -135c0 -56 25 -96 64 -115c35 -16 54 -29 72 -68v64h26v-153h-24c-8 80 -46 135 -121 135c-59 0 -90 -33 -90 -81c0 -60 53 -78 115 -102c77 -32 146 -58 146 -142
c0 -71 -50 -117 -138 -117c-82 0 -125 42 -143 89v-79h-26v171h24c9 -104 60 -153 144 -153c72 0 103 35 103 86c0 66 -57 88 -120 114c-71 29 -141 52 -141 130c0 61 46 108 118 112h3c-28 20 -48 56 -48 109c0 120 103 165 196 165c108 0 190 -54 190 -199v-85h168v-29
h-168v-321c0 -61 29 -80 85 -80c31 0 62 6 98 27v-30c-28 -16 -61 -27 -98 -27z" />
    <glyph glyph-name="space_uni0326" horiz-adv-x="400" 
d="M150 -279l-12 28c63 24 86 58 86 95c0 33 -19 59 -62 60l4 29c56 -3 92 -31 92 -87s-36 -94 -108 -125z" />
    <glyph glyph-name="uni0192" unicode="&#x192;" horiz-adv-x="381" 
d="M229 382h102l-8 -27h-101l-96 -390c-40 -159 -87 -169 -146 -169c-36 0 -63 10 -90 43l22 19c21 -27 41 -34 68 -34c50 0 83 24 112 149l92 382h-86l8 27h85l5 21c40 164 91 204 168 204c41 0 67 -14 87 -41l-21 -20c-17 23 -35 33 -66 33c-66 0 -100 -49 -132 -184z" />
    <glyph glyph-name="oneeighth" unicode="&#x215b;" horiz-adv-x="566" 
d="M180 320v27h83v334c-21 -7 -50 -12 -86 -19v28c43 7 78 13 98 24h22v-367h81v-27h-198zM536 225h-506v27h506v-27zM284 -250c-87 0 -138 42 -138 107c0 60 54 90 102 109c-39 16 -87 46 -87 101c0 67 64 95 123 95c76 0 127 -35 127 -95c0 -51 -47 -81 -92 -100
c42 -18 101 -46 101 -110c0 -71 -52 -107 -136 -107zM195 67c0 -53 54 -70 90 -86c45 19 92 41 92 86c0 39 -33 67 -93 67c-45 0 -89 -23 -89 -67zM284 -222c64 0 102 28 102 79c0 55 -60 79 -103 95c-44 -18 -103 -41 -103 -95c0 -47 37 -79 104 -79z" />
    <glyph glyph-name="onethird" unicode="&#x2153;" horiz-adv-x="566" 
d="M188 320v27h83v334c-21 -7 -50 -12 -86 -19v28c43 7 78 13 98 24h22v-367h81v-27h-198zM536 225h-506v27h506v-27zM291 -250c-94 0 -136 45 -136 90c0 16 4 30 11 39c3 5 6 10 11 14l27 -12l-9 -11c-4 -7 -8 -16 -8 -28c0 -33 32 -64 104 -64c80 0 120 36 120 92
c0 49 -33 77 -85 77c-16 0 -29 -3 -38 -8l-45 -24l-16 23l83 44c39 20 74 45 74 88c0 39 -30 64 -82 64c-53 0 -99 -27 -99 -66c0 -19 11 -32 34 -32c9 0 16 2 23 5c3 1 6 3 9 5l14 -21l-15 -8c-9 -4 -20 -8 -35 -8c-32 0 -62 18 -62 58c0 56 63 95 131 95
c72 0 116 -35 116 -91c0 -48 -31 -74 -74 -98l-8 -4h6c59 0 103 -39 103 -99c0 -72 -53 -120 -154 -120z" />
    <glyph glyph-name="threeeighths" unicode="&#x215c;" horiz-adv-x="566" 
d="M273 310c-94 0 -136 45 -136 90c0 16 4 30 11 39c3 5 6 10 11 14l27 -12l-9 -11c-4 -7 -8 -16 -8 -28c0 -33 32 -64 104 -64c80 0 120 36 120 92c0 49 -33 77 -85 77c-16 0 -29 -3 -38 -8l-45 -24l-16 23l83 44c39 20 74 45 74 88c0 39 -30 64 -82 64
c-53 0 -99 -27 -99 -66c0 -19 11 -32 34 -32c9 0 16 2 23 5c3 1 6 3 9 5l14 -21l-15 -8c-9 -4 -20 -8 -35 -8c-32 0 -62 18 -62 58c0 56 63 95 131 95c72 0 116 -35 116 -91c0 -48 -31 -74 -74 -98l-8 -4h6c59 0 103 -39 103 -99c0 -72 -53 -120 -154 -120zM536 225h-506v27
h506v-27zM292 -249c-87 0 -138 42 -138 107c0 60 54 90 102 109c-39 16 -87 46 -87 101c0 67 64 95 123 95c76 0 127 -35 127 -95c0 -51 -47 -81 -92 -100c42 -18 101 -46 101 -110c0 -71 -52 -107 -136 -107zM203 68c0 -53 54 -70 90 -86c45 19 92 41 92 86
c0 39 -33 67 -93 67c-45 0 -89 -23 -89 -67zM292 -221c64 0 102 28 102 79c0 55 -60 79 -103 95c-44 -18 -103 -41 -103 -95c0 -47 37 -79 104 -79z" />
    <glyph glyph-name="fiveeighths" unicode="&#x215d;" horiz-adv-x="566" 
d="M249 310c-83 0 -124 38 -124 91c0 19 3 33 10 48l33 -4c-8 -20 -9 -29 -9 -44c0 -36 29 -63 90 -63c92 0 137 55 137 120c0 60 -29 97 -94 97c-35 0 -86 -15 -102 -59l-30 9l36 208c50 -11 118 -13 147 -13c5 0 8 3 10 8c3 8 4 21 5 36h36c-5 -28 -8 -46 -16 -57
c-7 -10 -18 -15 -35 -15c-27 0 -87 4 -122 9l-23 -134c24 23 62 35 94 35c80 0 128 -40 128 -124c0 -85 -63 -148 -171 -148zM536 225h-506v27h506v-27zM284 -250c-87 0 -138 42 -138 107c0 60 54 90 102 109c-39 16 -87 46 -87 101c0 67 64 95 123 95c76 0 127 -35 127 -95
c0 -51 -47 -81 -92 -100c42 -18 101 -46 101 -110c0 -71 -52 -107 -136 -107zM195 67c0 -53 54 -70 90 -86c45 19 92 41 92 86c0 39 -33 67 -93 67c-45 0 -89 -23 -89 -67zM284 -222c64 0 102 28 102 79c0 55 -60 79 -103 95c-44 -18 -103 -41 -103 -95
c0 -47 37 -79 104 -79z" />
    <glyph glyph-name="twothirds" unicode="&#x2154;" horiz-adv-x="566" 
d="M123 320v21c46 30 127 92 168 127c51 43 88 89 88 140c0 56 -36 86 -104 86c-48 0 -104 -32 -104 -88c0 -32 19 -50 46 -50s35 15 44 35l27 -12c-13 -31 -33 -50 -72 -50c-37 0 -79 19 -79 77c0 75 73 116 138 116c84 0 138 -37 138 -114c0 -61 -47 -115 -103 -162
c-32 -29 -93 -70 -132 -99h232l-2 -27h-285zM536 225h-506v27h506v-27zM283 -250c-94 0 -136 45 -136 90c0 16 4 30 11 39c3 5 6 10 11 14l27 -12l-9 -11c-4 -7 -8 -16 -8 -28c0 -33 32 -64 104 -64c80 0 120 36 120 92c0 49 -33 77 -85 77c-16 0 -29 -3 -38 -8l-45 -24
l-16 23l83 44c39 20 74 45 74 88c0 39 -30 64 -82 64c-53 0 -99 -27 -99 -66c0 -19 11 -32 34 -32c9 0 16 2 23 5c3 1 6 3 9 5l14 -21l-15 -8c-9 -4 -20 -8 -35 -8c-32 0 -62 18 -62 58c0 56 63 95 131 95c72 0 116 -35 116 -91c0 -48 -31 -74 -74 -98l-8 -4h6
c59 0 103 -39 103 -99c0 -72 -53 -120 -154 -120z" />
    <glyph glyph-name="seveneighths" unicode="&#x215e;" horiz-adv-x="566" 
d="M203 320l184 365h-209l-4 -88h-30l5 137h30l-1 -22h248v-16l-190 -376h-33zM536 225h-506v27h506v-27zM284 -250c-87 0 -138 42 -138 107c0 60 54 90 102 109c-39 16 -87 46 -87 101c0 67 64 95 123 95c76 0 127 -35 127 -95c0 -51 -47 -81 -92 -100
c42 -18 101 -46 101 -110c0 -71 -52 -107 -136 -107zM195 67c0 -53 54 -70 90 -86c45 19 92 41 92 86c0 39 -33 67 -93 67c-45 0 -89 -23 -89 -67zM284 -222c64 0 102 28 102 79c0 55 -60 79 -103 95c-44 -18 -103 -41 -103 -95c0 -47 37 -79 104 -79z" />
    <glyph glyph-name="dollar.lin" horiz-adv-x="559" 
d="M110 556c0 -66 36 -110 155 -160v290h-11c-85 0 -144 -43 -144 -130zM297 347v-333c87 0 170 41 170 150c0 95 -62 137 -170 183zM297 -106h-32v94c-103 11 -160 76 -179 145v-130h-30v230h28c3 -108 66 -201 181 -217v344c-144 59 -191 105 -191 194
c0 108 80 160 181 160h10v92h32v-95c81 -15 125 -66 140 -122v110h30v-193h-28c-15 107 -67 161 -142 176v-299c144 -59 206 -102 206 -219c0 -133 -106 -178 -206 -178v-92z" />
    <glyph glyph-name="Euro.lin" horiz-adv-x="708" 
d="M382 -14c-158 0 -259 114 -283 286h-62v27h59c-1 16 -2 33 -2 50s1 34 2 50h-59v27h62c24 172 132 288 290 288c69 0 121 -24 158 -60c26 -27 46 -59 59 -98v123h30v-227h-28c-19 143 -90 234 -219 234c-142 0 -233 -107 -254 -260h278v-27h-281c-1 -16 -2 -33 -2 -50
s1 -34 2 -50h221v-27h-218c21 -152 108 -258 247 -258c128 0 210 93 226 224h28v-217h-30v122c-15 -35 -34 -70 -65 -98c-39 -35 -90 -59 -159 -59z" />
    <glyph glyph-name="sterling.lin" horiz-adv-x="624" 
d="M484 -14c-61 0 -108 26 -153 53c-44 27 -88 51 -140 60c-13 -36 -48 -113 -112 -113c-33 0 -57 18 -57 53c0 51 50 92 135 92h11c15 36 29 79 45 130h-111l11 27h109c27 88 57 188 78 251c43 121 101 175 184 175c40 0 66 -11 87 -30l-17 -23c-21 17 -38 23 -70 23
c-72 0 -118 -57 -151 -156c-21 -60 -47 -155 -74 -240h158l-8 -27h-158c-17 -51 -33 -95 -48 -134c57 -9 99 -35 142 -60c44 -27 86 -51 142 -51c48 0 73 27 73 58c0 17 -8 28 -15 35c-5 4 -10 7 -15 9l17 23c8 -3 15 -8 22 -15c11 -11 23 -28 23 -53
c0 -49 -40 -87 -108 -87zM82 16c39 0 61 54 75 87h-1c-56 0 -102 -25 -102 -62c0 -19 12 -25 28 -25z" />
    <glyph glyph-name="yen.lin" horiz-adv-x="644" 
d="M446 0h-256v27h110v186h-141v27h141v92l-5 8h-136v27h121l-181 306h-92v27h225v-27h-95l183 -310l188 310h-86v27h215v-27h-92l-187 -306h118v-27h-134l-6 -10v-90h140v-27h-140v-186h110v-27z" />
    <glyph glyph-name="zero.lin" horiz-adv-x="634" 
d="M317 714c172 0 270 -155 270 -364s-98 -364 -270 -364s-270 155 -270 364s98 364 270 364zM317 686c-157 0 -234 -155 -234 -336s77 -336 234 -336s234 155 234 336s-77 336 -234 336z" />
    <glyph glyph-name="one.lin" horiz-adv-x="358" 
d="M49 0v27h121v642c-33 -12 -75 -24 -126 -37v30c53 15 103 24 138 43h24v-678h120v-27h-277z" />
    <glyph glyph-name="two.lin" horiz-adv-x="556" 
d="M470 -71l5 71h-443v21c75 48 210 164 282 236c69 69 159 148 159 266c0 107 -68 163 -179 163s-206 -60 -206 -164c0 -60 35 -95 83 -95c31 0 50 13 62 28c7 8 13 18 17 29l24 -16c-5 -13 -12 -25 -21 -35c-16 -17 -42 -34 -83 -34c-57 0 -116 34 -116 123
c0 125 116 192 240 192c125 0 215 -65 215 -190c0 -131 -101 -216 -173 -288c-64 -64 -183 -158 -250 -209h421l-7 -98h-30z" />
    <glyph glyph-name="three.lin" horiz-adv-x="557" 
d="M258 -14c-148 0 -216 76 -216 151c0 19 5 33 10 44c3 6 6 11 11 15l23 -17c-2 -3 -4 -7 -5 -11c-3 -8 -5 -18 -5 -31c0 -62 58 -123 182 -123c148 0 216 85 216 193c0 93 -70 148 -157 148c-31 0 -55 -7 -78 -20l-61 -33l-16 23l130 70c70 38 137 81 137 166
c0 77 -54 125 -154 125s-177 -50 -177 -126c0 -36 18 -65 57 -65c13 0 25 3 36 7c6 2 11 4 16 7l8 -26l-16 -8c-11 -4 -25 -7 -44 -7c-55 0 -93 33 -93 92c0 93 97 154 213 154c117 0 190 -57 190 -152c0 -82 -58 -134 -137 -176l-9 -5h8c109 -8 183 -70 183 -174
c0 -128 -85 -221 -252 -221z" />
    <glyph glyph-name="four.lin" horiz-adv-x="600" 
d="M259 0v27h121v168h-358v18l367 490h27v-481h152v-27h-152v-168h120v-27h-277zM380 222v420l-314 -420h314z" />
    <glyph glyph-name="five.lin" horiz-adv-x="572" 
d="M242 -14c-131 0 -202 61 -202 146c0 20 5 37 10 50c3 7 6 14 10 21l28 -13c-3 -5 -5 -10 -7 -16c-4 -11 -7 -25 -7 -42c0 -69 60 -118 168 -118c162 0 247 109 247 243c0 111 -54 173 -169 173c-84 0 -163 -35 -187 -102l-32 8l60 366c72 -19 199 -22 236 -22
c18 0 30 3 36 10c8 9 9 26 12 54h32c0 -37 -6 -62 -23 -77c-11 -11 -29 -16 -52 -16c-44 0 -150 3 -211 14l-45 -274c39 43 99 67 174 67c128 0 205 -66 205 -201c0 -152 -103 -271 -283 -271z" />
    <glyph glyph-name="six.lin" horiz-adv-x="577" 
d="M534 229c0 -147 -94 -243 -240 -243c-152 0 -245 108 -245 279c0 328 138 449 294 449c68 0 112 -22 140 -45c17 -13 30 -28 40 -45l-24 -19c-9 15 -20 28 -35 40c-25 20 -63 41 -122 41c-133 0 -234 -107 -253 -335c43 72 119 106 208 106c142 0 237 -84 237 -228z
M498 229c0 124 -73 200 -202 200c-85 0 -161 -37 -197 -106c-9 -16 -14 -30 -14 -61c0 -135 69 -248 209 -248c131 0 204 93 204 215z" />
    <glyph glyph-name="seven.lin" horiz-adv-x="530" 
d="M143 0l318 672h-380l-9 -159h-30l13 225h30l-2 -38h418v-17l-323 -683h-35z" />
    <glyph glyph-name="eight.lin" horiz-adv-x="545" 
d="M275 -14c-143 0 -230 69 -230 177c0 120 106 169 194 204c-71 29 -168 74 -168 180c0 117 93 167 202 167c113 0 210 -54 210 -159c0 -97 -85 -152 -165 -187c75 -29 182 -81 182 -205c0 -117 -88 -177 -225 -177zM107 549c0 -99 103 -139 175 -166c78 32 165 78 165 171
c0 87 -81 132 -174 132c-90 0 -166 -42 -166 -137zM276 14c121 0 188 54 188 149c0 119 -113 161 -188 190c-81 -32 -195 -75 -195 -190c0 -91 70 -149 195 -149z" />
    <glyph glyph-name="nine.lin" horiz-adv-x="577" 
d="M79 468c0 -120 72 -196 199 -196c91 0 156 38 195 102c11 17 19 38 19 59c0 144 -66 253 -207 253c-131 0 -206 -93 -206 -218zM238 -14c-98 0 -149 41 -184 89l23 20c31 -47 78 -81 162 -81c147 0 234 107 251 338c-41 -71 -119 -108 -215 -108c-143 0 -232 83 -232 224
c0 149 96 246 242 246c153 0 243 -109 243 -282c0 -325 -119 -446 -290 -446z" />
    <glyph glyph-name="percent.lin" horiz-adv-x="705" 
d="M528 722l30 -13l-380 -731l-30 13zM335 546c0 -98 -54 -168 -134 -168s-134 70 -134 168s54 168 134 168s134 -70 134 -168zM201 686c-68 0 -100 -66 -100 -140s32 -140 100 -140s100 66 100 140s-32 140 -100 140zM504 -14c-80 0 -134 70 -134 168s54 168 134 168
s134 -70 134 -168s-54 -168 -134 -168zM404 154c0 -74 32 -140 100 -140s100 66 100 140s-32 140 -100 140s-100 -66 -100 -140z" />
    <glyph glyph-name="perthousand.lin" horiz-adv-x="1018" 
d="M178 -22l-30 13l380 731l30 -13zM67 546c0 98 54 168 134 168s134 -70 134 -168s-54 -168 -134 -168s-134 70 -134 168zM101 546c0 -74 32 -140 100 -140s100 66 100 140s-32 140 -100 140s-100 -66 -100 -140zM817 322c80 0 134 -70 134 -168s-54 -168 -134 -168
s-134 70 -134 168s54 168 134 168zM638 154c0 -98 -54 -168 -134 -168s-134 70 -134 168s54 168 134 168s134 -70 134 -168zM817 14c68 0 100 66 100 140s-32 140 -100 140s-100 -66 -100 -140s32 -140 100 -140zM604 154c0 74 -32 140 -100 140s-100 -66 -100 -140
s32 -140 100 -140s100 66 100 140z" />
    <glyph glyph-name="zero.num" horiz-adv-x="421" 
d="M49 518c0 121 61 206 162 206s161 -85 161 -206c0 -120 -60 -206 -161 -206s-162 86 -162 206zM83 518c0 -93 40 -178 128 -178s127 85 127 178c0 94 -39 178 -127 178s-128 -84 -128 -178z" />
    <glyph glyph-name="one.num" horiz-adv-x="268" 
d="M37 322v27h83v334c-21 -7 -50 -12 -86 -19v28c43 7 78 13 98 24h22v-367h81v-27h-198z" />
    <glyph glyph-name="two.num" horiz-adv-x="361" 
d="M32 322v21c46 30 127 92 168 127c51 43 88 89 88 140c0 56 -36 86 -104 86c-48 0 -104 -32 -104 -88c0 -32 19 -50 46 -50s35 15 44 35l27 -12c-13 -31 -33 -50 -72 -50c-37 0 -79 19 -79 77c0 75 73 116 138 116c84 0 138 -37 138 -114c0 -61 -47 -115 -103 -162
c-32 -29 -93 -70 -132 -99h232l-2 -27h-285z" />
    <glyph glyph-name="three.num" horiz-adv-x="362" 
d="M172 312c-94 0 -136 45 -136 90c0 16 4 30 11 39c3 5 6 10 11 14l27 -12l-9 -11c-4 -7 -8 -16 -8 -28c0 -33 32 -64 104 -64c80 0 120 36 120 92c0 49 -33 77 -85 77c-16 0 -29 -3 -38 -8l-45 -24l-16 23l83 44c39 20 74 45 74 88c0 39 -30 64 -82 64
c-53 0 -99 -27 -99 -66c0 -19 11 -32 34 -32c9 0 16 2 23 5c3 1 6 3 9 5l14 -21l-15 -8c-9 -4 -20 -8 -35 -8c-32 0 -62 18 -62 58c0 56 63 95 131 95c72 0 116 -35 116 -91c0 -48 -31 -74 -74 -98l-8 -4h6c59 0 103 -39 103 -99c0 -72 -53 -120 -154 -120z" />
    <glyph glyph-name="four.num" horiz-adv-x="379" 
d="M353 456v-27h-88v-80h68v-27h-168v27h66v80h-206v18l213 269h27v-260h88zM68 456h163v205z" />
    <glyph glyph-name="five.num" horiz-adv-x="369" 
d="M162 312c-83 0 -124 38 -124 91c0 19 3 33 10 48l33 -4c-8 -20 -9 -29 -9 -44c0 -36 29 -63 90 -63c92 0 137 55 137 120c0 60 -29 97 -94 97c-35 0 -86 -15 -102 -59l-30 9l36 208c50 -11 118 -13 147 -13c5 0 8 3 10 8c3 8 4 21 5 36h36c-5 -28 -8 -46 -16 -57
c-7 -10 -18 -15 -35 -15c-27 0 -87 4 -122 9l-23 -134c24 23 62 35 94 35c80 0 128 -40 128 -124c0 -85 -63 -148 -171 -148z" />
    <glyph glyph-name="six.num" horiz-adv-x="390" 
d="M227 696c-73 0 -127 -54 -142 -163c25 35 69 52 118 52c83 0 142 -49 142 -133c0 -85 -59 -140 -147 -140s-149 63 -149 158c0 189 84 254 178 254c61 0 94 -27 117 -58l-23 -16c-17 27 -45 46 -94 46zM202 557c-43 0 -79 -13 -102 -41c-9 -12 -17 -29 -17 -52
c0 -67 39 -124 115 -124c73 0 113 47 113 112c0 64 -41 105 -109 105z" />
    <glyph glyph-name="seven.num" horiz-adv-x="337" 
d="M96 322l184 365h-209l-4 -88h-30l5 137h30l-1 -22h248v-16l-190 -376h-33z" />
    <glyph glyph-name="eight.num" horiz-adv-x="366" 
d="M184 312c-87 0 -138 42 -138 107c0 60 54 90 102 109c-39 16 -87 46 -87 101c0 67 64 95 123 95c76 0 127 -35 127 -95c0 -51 -47 -81 -92 -100c42 -18 101 -46 101 -110c0 -71 -52 -107 -136 -107zM95 629c0 -53 54 -70 90 -86c45 19 92 41 92 86c0 39 -33 67 -93 67
c-45 0 -89 -23 -89 -67zM184 340c64 0 102 28 102 79c0 55 -60 79 -103 95c-44 -18 -103 -41 -103 -95c0 -47 37 -79 104 -79z" />
    <glyph glyph-name="nine.num" horiz-adv-x="390" 
d="M79 584c0 -65 42 -105 110 -105c39 0 76 13 97 40c15 17 21 32 21 55c0 64 -39 122 -115 122c-75 0 -113 -48 -113 -112zM163 312c-61 0 -96 26 -117 58l24 17c16 -28 45 -47 92 -47c75 0 129 56 144 165c-25 -35 -72 -54 -117 -54c-88 0 -144 49 -144 133
c0 85 59 140 147 140s149 -63 149 -158c0 -189 -84 -254 -178 -254z" />
    <glyph glyph-name="zero.den" horiz-adv-x="421" 
d="M49 186c0 121 61 206 162 206s161 -85 161 -206c0 -120 -60 -206 -161 -206s-162 86 -162 206zM83 186c0 -93 40 -178 128 -178s127 85 127 178c0 94 -39 178 -127 178s-128 -84 -128 -178z" />
    <glyph glyph-name="one.den" horiz-adv-x="268" 
d="M37 -10v27h83v334c-21 -7 -50 -12 -86 -19v28c43 7 78 13 98 24h22v-367h81v-27h-198z" />
    <glyph glyph-name="two.den" horiz-adv-x="361" 
d="M32 -10v21c46 30 127 92 168 127c51 43 88 89 88 140c0 56 -36 86 -104 86c-48 0 -104 -32 -104 -88c0 -32 19 -50 46 -50s35 15 44 35l27 -12c-13 -31 -33 -50 -72 -50c-37 0 -79 19 -79 77c0 75 73 116 138 116c84 0 138 -37 138 -114c0 -61 -47 -115 -103 -162
c-32 -29 -93 -70 -132 -99h232l-2 -27h-285z" />
    <glyph glyph-name="three.den" horiz-adv-x="362" 
d="M172 -20c-94 0 -136 45 -136 90c0 16 4 30 11 39c3 5 6 10 11 14l27 -12l-9 -11c-4 -7 -8 -16 -8 -28c0 -33 32 -64 104 -64c80 0 120 36 120 92c0 49 -33 77 -85 77c-16 0 -29 -3 -38 -8l-45 -24l-16 23l83 44c39 20 74 45 74 88c0 39 -30 64 -82 64
c-53 0 -99 -27 -99 -66c0 -19 11 -32 34 -32c9 0 16 2 23 5c3 1 6 3 9 5l14 -21l-15 -8c-9 -4 -20 -8 -35 -8c-32 0 -62 18 -62 58c0 56 63 95 131 95c72 0 116 -35 116 -91c0 -48 -31 -74 -74 -98l-8 -4h6c59 0 103 -39 103 -99c0 -72 -53 -120 -154 -120z" />
    <glyph glyph-name="four.den" horiz-adv-x="369" 
d="M353 124v-27h-88v-80h68v-27h-168v27h66v80h-206v18l213 269h27v-260h88zM68 124h163v205z" />
    <glyph glyph-name="five.den" horiz-adv-x="369" 
d="M162 -20c-83 0 -124 38 -124 91c0 19 3 33 10 48l33 -4c-8 -20 -9 -29 -9 -44c0 -36 29 -63 90 -63c92 0 137 55 137 120c0 60 -29 97 -94 97c-35 0 -86 -15 -102 -59l-30 9l36 208c50 -11 118 -13 147 -13c5 0 8 3 10 8c3 8 4 21 5 36h36c-5 -28 -8 -46 -16 -57
c-7 -10 -18 -15 -35 -15c-27 0 -87 4 -122 9l-23 -134c24 23 62 35 94 35c80 0 128 -40 128 -124c0 -85 -63 -148 -171 -148z" />
    <glyph glyph-name="six.den" horiz-adv-x="390" 
d="M227 364c-73 0 -127 -54 -142 -163c25 35 69 52 118 52c83 0 142 -49 142 -133c0 -85 -59 -140 -147 -140s-149 63 -149 158c0 189 84 254 178 254c61 0 94 -27 117 -58l-23 -16c-17 27 -45 46 -94 46zM202 225c-43 0 -79 -13 -102 -41c-9 -12 -17 -29 -17 -52
c0 -67 39 -124 115 -124c73 0 113 47 113 112c0 64 -41 105 -109 105z" />
    <glyph glyph-name="seven.den" horiz-adv-x="337" 
d="M96 -10l184 365h-209l-4 -88h-30l5 137h30l-1 -22h248v-16l-190 -376h-33z" />
    <glyph glyph-name="eight.den" horiz-adv-x="366" 
d="M184 -20c-87 0 -138 42 -138 107c0 60 54 90 102 109c-39 16 -87 46 -87 101c0 67 64 95 123 95c76 0 127 -35 127 -95c0 -51 -47 -81 -92 -100c42 -18 101 -46 101 -110c0 -71 -52 -107 -136 -107zM95 297c0 -53 54 -70 90 -86c45 19 92 41 92 86c0 39 -33 67 -93 67
c-45 0 -89 -23 -89 -67zM184 8c64 0 102 28 102 79c0 55 -60 79 -103 95c-44 -18 -103 -41 -103 -95c0 -47 37 -79 104 -79z" />
    <glyph glyph-name="nine.den" horiz-adv-x="390" 
d="M79 252c0 -65 42 -105 110 -105c39 0 76 13 97 40c15 17 21 32 21 55c0 64 -39 122 -115 122c-75 0 -113 -48 -113 -112zM163 -20c-61 0 -96 26 -117 58l24 17c16 -28 45 -47 92 -47c75 0 129 56 144 165c-25 -35 -72 -54 -117 -54c-88 0 -144 49 -144 133
c0 85 59 140 147 140s149 -63 149 -158c0 -189 -84 -254 -178 -254z" />
    <glyph glyph-name="space_uni0326.alt" horiz-adv-x="379" 
d="M160 627c0 -37 20 -55 61 -55l-4 -28c-56 1 -92 26 -92 83c0 59 36 98 108 129l12 -27c-60 -25 -85 -62 -85 -102z" />
    <glyph glyph-name="caron.alt" 
d="M215 561l-31 5l31 176l31 -5z" />
    <glyph glyph-name="questiondown.uc" horiz-adv-x="456" 
d="M309 523h34v-211l-19 -16c-24 19 -60 28 -99 28c-76 0 -141 -50 -141 -162c0 -81 52 -147 152 -147c47 0 91 8 130 43l16 -25c-48 -37 -91 -47 -147 -47c-115 0 -187 74 -187 176c0 138 86 190 177 190c32 0 60 -6 84 -19v190zM328 671c16 0 29 -13 29 -28
c0 -17 -13 -30 -29 -30s-28 13 -28 30c0 15 12 28 28 28z" />
    <glyph glyph-name="exclamdown.uc" horiz-adv-x="237" 
d="M144 523v-523h-36v523h36zM126 671c16 0 28 -13 28 -28c0 -17 -12 -30 -28 -30s-29 13 -29 30c0 15 13 28 29 28z" />
    <glyph glyph-name="hyphen.uc" horiz-adv-x="334" 
d="M259 356h-184v27h184v-27z" />
    <glyph glyph-name="endash.uc" horiz-adv-x="488" 
d="M453 356h-418v27h418v-27z" />
    <glyph glyph-name="emdash.uc" horiz-adv-x="658" 
d="M623 356h-588v27h588v-27z" />
    <glyph glyph-name="guilsinglleft.uc" horiz-adv-x="249" 
d="M193 214l-158 131v10l157 131l17 -22l-137 -114l137 -114z" />
    <glyph glyph-name="guilsinglright.uc" horiz-adv-x="249" 
d="M40 464l16 22l158 -131v-10l-157 -131l-17 22l137 114z" />
    <glyph glyph-name="guillemotleft.uc" horiz-adv-x="433" 
d="M192 214l-157 131v10l158 131l16 -22l-137 -114l137 -114zM376 214l-157 131v10l158 131l16 -22l-137 -114l137 -114z" />
    <glyph glyph-name="guillemotright.uc" horiz-adv-x="433" 
d="M241 214l-17 22l137 114l-137 114l16 22l158 -131v-10zM57 214l-17 22l137 114l-137 114l16 22l158 -131v-10z" />
    <glyph glyph-name="parenleft.uc" horiz-adv-x="271" 
d="M231 -4l-23 -19c-100 123 -143 242 -143 373s43 252 143 373l23 -19c-99 -120 -130 -237 -130 -354c0 -118 32 -237 130 -354z" />
    <glyph glyph-name="parenright.uc" horiz-adv-x="271" 
d="M63 -23l-23 19c98 117 130 236 130 354c0 117 -31 234 -130 354l23 19c100 -121 143 -242 143 -373s-43 -250 -143 -373z" />
    <glyph glyph-name="bracketleft.uc" horiz-adv-x="289" 
d="M90 -10v720h169v-27h-133v-666h133v-27h-169z" />
    <glyph glyph-name="bracketright.uc" horiz-adv-x="289" 
d="M199 710v-720h-169v27h133v666h-133v27h169z" />
    <glyph glyph-name="braceleft.uc" horiz-adv-x="290" 
d="M260 -10h-27c-59 0 -121 33 -121 117c0 31 6 60 13 91c5 27 10 51 10 78c0 37 -16 60 -64 60h-36v27h36c48 0 64 24 64 61c0 24 -5 49 -10 76c-7 32 -13 64 -13 93c0 84 62 117 121 117h27v-27h-27c-42 0 -85 -30 -85 -90c0 -33 6 -60 11 -85c7 -27 12 -52 12 -84
c0 -39 -20 -62 -53 -73v-1c33 -11 53 -35 53 -74c0 -29 -6 -55 -11 -83c-7 -27 -12 -55 -12 -86c0 -61 43 -90 85 -90h27v-27z" />
    <glyph glyph-name="braceright.uc" horiz-adv-x="290" 
d="M57 -10h-27v27h27c42 0 85 29 85 90c0 31 -5 59 -12 86c-5 28 -11 54 -11 83c0 39 20 63 53 74v1c-33 11 -53 34 -53 73c0 32 5 57 12 84c5 25 11 52 11 85c0 60 -43 90 -85 90h-27v27h27c59 0 121 -33 121 -117c0 -29 -6 -61 -13 -93c-5 -27 -10 -52 -10 -76
c0 -37 16 -61 64 -61h36v-27h-36c-48 0 -64 -23 -64 -60c0 -27 5 -51 10 -78c7 -31 13 -60 13 -91c0 -84 -62 -117 -121 -117z" />
    <glyph glyph-name="slash.uc" horiz-adv-x="345" 
d="M25 -13l266 733l29 -10l-265 -733z" />
    <glyph glyph-name="backslash.uc" horiz-adv-x="345" 
d="M54 720l266 -733l-29 -9l-266 733z" />
    <glyph glyph-name="bar.uc" horiz-adv-x="250" 
d="M140 -34h-30v764h30v-764z" />
    <glyph glyph-name="at.uc" horiz-adv-x="842" 
d="M536 164c-45 0 -79 21 -84 64c-1 1 -1 4 -1 7c-28 -43 -66 -71 -115 -71c-44 0 -89 24 -89 95c0 69 42 168 104 233c33 35 76 58 120 58c33 0 53 -14 64 -34l10 28h37l-82 -236c-7 -19 -15 -38 -15 -63c0 -43 28 -53 56 -53c85 0 196 107 196 271c0 145 -99 227 -264 227
c-212 0 -382 -154 -382 -406c0 -160 106 -278 318 -278s302 104 352 197l26 -18c-51 -96 -151 -207 -378 -207c-229 0 -354 126 -354 306c0 274 191 434 418 434c164 0 300 -78 300 -255c0 -190 -138 -299 -237 -299zM471 522c-36 0 -72 -22 -99 -51
c-56 -62 -89 -154 -89 -211c0 -49 24 -68 57 -68c58 0 105 61 126 124l45 130c5 13 7 26 7 38c0 23 -16 38 -47 38z" />
    <glyph glyph-name="grave.uc" 
d="M143 917l24 16l114 -154l-24 -16z" />
    <glyph glyph-name="dieresis.uc" 
d="M129 798c-19 0 -31 12 -31 31c0 17 12 31 31 31c17 0 31 -14 31 -31c0 -19 -14 -31 -31 -31zM321 798c-19 0 -31 12 -31 31c0 17 12 31 31 31c17 0 31 -14 31 -31c0 -19 -14 -31 -31 -31z" />
    <glyph glyph-name="macron.uc" 
d="M107 831h236v-30h-236v30z" />
    <glyph glyph-name="acute.uc" 
d="M151 779l114 154l24 -16l-114 -154z" />
    <glyph glyph-name="circumflex.uc" 
d="M127 764l-23 16l111 138h19l111 -138l-23 -16l-97 121z" />
    <glyph glyph-name="caron.uc" 
d="M215 768l-111 138l23 16l97 -121l98 121l23 -16l-111 -138h-19z" />
    <glyph glyph-name="breve.uc" 
d="M102 879l30 4c5 -55 38 -87 93 -87s85 32 93 87l30 -4c-7 -72 -55 -112 -123 -112c-64 0 -115 39 -123 112z" />
    <glyph glyph-name="dotaccent.uc" 
d="M225 798c-19 0 -31 12 -31 31c0 17 12 31 31 31c17 0 31 -14 31 -31c0 -19 -14 -31 -31 -31z" />
    <glyph glyph-name="ring.uc" 
d="M225 761c-40 0 -86 26 -86 86s46 86 86 86s86 -26 86 -86s-46 -86 -86 -86zM225 905c-29 0 -54 -23 -54 -58s25 -58 54 -58c31 0 54 23 54 58s-23 58 -54 58z" />
    <glyph glyph-name="tilde.uc" 
d="M229 855c21 -11 41 -25 64 -25c21 0 42 17 65 58l27 -17c-32 -51 -59 -70 -91 -70c-27 0 -53 15 -78 28c-17 8 -32 17 -51 17c-27 0 -46 -19 -70 -60l-27 17c31 51 59 72 96 72c24 0 44 -9 65 -20z" />
    <glyph glyph-name="hungarumlaut.uc" 
d="M167 933l27 -13l-77 -157l-27 13zM312 933l27 -13l-77 -157l-27 13z" />
    <glyph glyph-name="A.sc" unicode="&#xf761;" horiz-adv-x="626" 
d="M422 207l-113 275l-112 -275h225zM123 27h72v-27h-175v27h72l207 508h23l211 -508h73v-27h-185v27h77l-64 152h-248z" />
    <glyph glyph-name="B.sc" unicode="&#xf762;" horiz-adv-x="528" 
d="M119 27v478h-82v27h235c99 0 171 -29 171 -126c0 -65 -31 -103 -84 -119c49 -8 122 -42 122 -137c0 -104 -72 -150 -185 -150h-259v27h82zM407 405c0 77 -54 100 -135 100h-117v-206h139c25 0 45 4 60 11c36 16 53 51 53 95zM155 27h141c93 0 149 36 149 123
c0 59 -29 97 -88 114c-17 5 -38 7 -63 7h-139v-244z" />
    <glyph glyph-name="C.sc" unicode="&#xf763;" horiz-adv-x="598" 
d="M511 13v84c-29 -59 -94 -108 -195 -108c-164 0 -266 125 -266 277s103 277 267 277c107 0 167 -48 194 -107v81h30v-171h-28c-11 103 -75 169 -196 169c-148 0 -231 -118 -231 -249s83 -249 230 -249c112 0 189 66 197 165h28v-169h-30z" />
    <glyph glyph-name="D.sc" unicode="&#xf764;" horiz-adv-x="617" 
d="M37 0v27h82v478h-82v27h240c196 0 291 -109 291 -264s-95 -268 -291 -268h-240zM277 505h-122v-478h122c180 0 255 108 255 241c0 134 -74 237 -255 237z" />
    <glyph glyph-name="E.sc" unicode="&#xf765;" horiz-adv-x="537" 
d="M37 0v27h83v478h-83v27h409v-157h-32v130h-258v-211h162v94h32v-214h-32v93h-162v-240h282v149h32v-176h-433z" />
    <glyph glyph-name="F.sc" unicode="&#xf766;" horiz-adv-x="492" 
d="M37 0v27h83v478h-83v27h406v-159h-30v132h-257v-216h162v89h31v-205h-31v89h-162v-235h84v-27h-203z" />
    <glyph glyph-name="G.sc" unicode="&#xf767;" horiz-adv-x="648" 
d="M49 267c0 156 104 276 267 276c106 0 169 -50 193 -106v87h30v-176h-28c-11 104 -82 167 -195 167c-148 0 -231 -113 -231 -248c0 -136 85 -250 243 -250c81 0 140 31 171 54v143h-94v27h206v-27h-76v-156c-37 -31 -107 -69 -208 -69c-173 0 -278 122 -278 278z" />
    <glyph glyph-name="H.sc" unicode="&#xf768;" horiz-adv-x="667" 
d="M37 0v27h83v478h-83v27h204v-27h-85v-210h355v210h-85v27h204v-27h-83v-478h83v-27h-204v27h85v240h-355v-240h85v-27h-204z" />
    <glyph glyph-name="I.sc" unicode="&#xf769;" horiz-adv-x="277" 
d="M240 0h-203v27h83v478h-83v27h203v-27h-84v-478h84v-27z" />
    <glyph glyph-name="J.sc" unicode="&#xf76a;" horiz-adv-x="306" 
d="M41 -174c-106 0 -122 76 -125 88l28 13c3 -9 17 -72 97 -72c85 0 110 66 110 177v473h-86v27h205v-27h-83v-473c0 -143 -46 -206 -146 -206z" />
    <glyph glyph-name="K.sc" unicode="&#xf76b;" horiz-adv-x="590" 
d="M37 0v27h83v478h-83v27h201v-27h-82v-253l246 253h-74v27h202v-27h-88l-220 -226l263 -252h83v-27h-213v27h83l-239 230l-43 -44v-186h82v-27h-201z" />
    <glyph glyph-name="L.sc" unicode="&#xf76c;" horiz-adv-x="511" 
d="M37 0v27h83v478h-83v27h207v-27h-88v-478h277v128h31v-155h-427z" />
    <glyph glyph-name="M.sc" unicode="&#xf76d;" horiz-adv-x="748" 
d="M238 0h-201v27h83v478h-83v27h140l197 -475l198 475h139v-27h-83v-478h83v-27h-205v27h86v471l-202 -485h-35l-202 487v-473h85v-27z" />
    <glyph glyph-name="N.sc" unicode="&#xf76e;" horiz-adv-x="673" 
d="M153 27h84v-27h-195v27h79v478h-84v27h129l359 -490v463h-89v27h205v-27h-84v-506h-42l-362 496v-468z" />
    <glyph glyph-name="O.sc" unicode="&#xf76f;" horiz-adv-x="659" 
d="M329 -11c-163 0 -280 121 -280 277s117 277 280 277s281 -121 281 -277s-118 -277 -281 -277zM329 514c-147 0 -244 -113 -244 -248s97 -248 244 -248c146 0 245 113 245 248s-99 248 -245 248z" />
    <glyph glyph-name="P.sc" unicode="&#xf770;" horiz-adv-x="497" 
d="M120 27v478h-83v27h251c107 0 172 -46 172 -138c0 -93 -70 -154 -178 -154h-126v-213h86v-27h-205v27h83zM288 505h-132v-238h126c89 0 142 51 142 127c0 71 -45 111 -136 111z" />
    <glyph glyph-name="Q.sc" unicode="&#xf771;" horiz-adv-x="659" 
d="M574 266c0 135 -99 248 -245 248c-147 0 -244 -113 -244 -248s97 -248 244 -248c146 0 245 113 245 248zM49 266c0 156 117 277 280 277s281 -121 281 -277c0 -141 -95 -253 -234 -274c-24 -17 -42 -48 -61 -79c27 -15 50 -33 77 -53c56 -44 112 -75 189 -75
c120 0 143 74 146 159h30c-5 -101 -38 -188 -177 -188c-85 0 -142 32 -203 79c-27 20 -50 39 -77 54c-25 -37 -55 -69 -106 -69c-39 0 -70 19 -70 59c0 36 28 64 88 64c28 0 54 -6 79 -17c13 23 27 44 42 63h-4c-163 0 -280 121 -280 277zM196 -152c35 0 58 23 79 54
c-20 8 -41 13 -64 13c-31 0 -55 -9 -55 -36c0 -23 19 -31 40 -31z" />
    <glyph glyph-name="R.sc" unicode="&#xf772;" horiz-adv-x="581" 
d="M283 505h-127v-231h123c89 0 134 49 134 121c0 75 -49 110 -130 110zM449 395c0 -85 -54 -140 -146 -148c45 -56 115 -138 168 -188c27 -24 43 -31 75 -31h38v-28h-41c-39 0 -60 7 -95 39c-55 55 -144 149 -186 207h-106v-219h87v-27h-206v27h83v478h-83v27h246
c99 0 166 -44 166 -137z" />
    <glyph glyph-name="S.sc" unicode="&#xf773;" 
d="M364 374h-27c-15 93 -62 141 -135 141c-57 0 -106 -28 -106 -93c0 -47 24 -78 87 -106c28 -13 57 -24 86 -36c77 -35 130 -70 130 -153c0 -100 -77 -138 -153 -138c-87 0 -149 48 -168 107v-84h-30v176h28c5 -93 66 -171 168 -171c64 0 119 32 119 108
c0 64 -40 95 -105 124c-28 12 -58 23 -85 35c-84 39 -113 78 -113 134c0 89 73 125 142 125s113 -36 132 -84v67h30v-152z" />
    <glyph glyph-name="T.sc" unicode="&#xf774;" horiz-adv-x="584" 
d="M189 0v27h85v477h-199v-128h-30v156h494v-156h-31v128h-198v-477h84v-27h-205z" />
    <glyph glyph-name="U.sc" unicode="&#xf775;" horiz-adv-x="664" 
d="M332 -11c-55 0 -101 9 -136 32c-51 31 -79 82 -79 161v323h-83v27h203v-27h-84v-323c0 -64 22 -106 59 -133c31 -21 72 -30 120 -30c55 0 99 11 130 38s49 66 49 125v323h-82v27h201v-27h-83v-323c0 -72 -24 -122 -67 -153c-37 -27 -86 -40 -148 -40z" />
    <glyph glyph-name="V.sc" unicode="&#xf776;" horiz-adv-x="591" 
d="M471 505h-69v27h170v-27h-68l-193 -511h-32l-193 511h-67v27h178v-27h-75l175 -464z" />
    <glyph glyph-name="W.sc" unicode="&#xf777;" horiz-adv-x="869" 
d="M285 -6h-36l-161 511h-66v27h175v-27h-74l145 -462l155 487h26l156 -487l146 462h-79v27h175v-27h-65l-161 -511h-36l-150 473z" />
    <glyph glyph-name="X.sc" unicode="&#xf778;" horiz-adv-x="611" 
d="M217 27v-27h-188v27h79l176 251l-163 227h-75v27h194v-27h-81l147 -204l142 204h-76v27h185v-27h-74l-161 -229l180 -249h80v-27h-191v27h72l-162 226l-159 -226h75z" />
    <glyph glyph-name="Y.sc" unicode="&#xf779;" horiz-adv-x="557" 
d="M184 0v27h75v227l-164 251h-73v27h181v-27h-73l148 -225l150 225h-64v27h171v-27h-73l-167 -252v-226h74v-27h-185z" />
    <glyph glyph-name="Z.sc" unicode="&#xf77a;" horiz-adv-x="544" 
d="M49 -2v18l388 491h-320v-131h-31v158h397v-18l-388 -491h359v140h30v-167h-435z" />
    <glyph glyph-name="Oslash.sc" unicode="&#xf7f8;" horiz-adv-x="659" 
d="M85 266c0 -76 30 -142 81 -189l300 397c-39 25 -84 40 -137 40c-147 0 -244 -113 -244 -248zM329 18c146 0 245 113 245 248c0 76 -31 143 -84 190l-300 -397c39 -27 84 -41 139 -41zM329 -11c-60 0 -114 17 -158 45l-58 -76l-25 16l59 78c-61 51 -98 126 -98 214
c0 156 117 277 280 277c60 0 112 -16 156 -44l59 78l25 -16l-60 -79c64 -51 101 -127 101 -216c0 -156 -118 -277 -281 -277z" />
    <glyph glyph-name="AE.sc" unicode="&#xf7e6;" horiz-adv-x="819" 
d="M402 274v231h-1l-133 -231h134zM17 -2v27h72l280 480h-74v27h433v-157h-32v130h-258v-231h162v93h32v-214h-32v94h-162v-220h282v149h32v-176h-433v27h83v220h-150l-129 -222h65v-27h-171z" />
    <glyph glyph-name="OE.sc" unicode="&#xf6fa;" horiz-adv-x="807" 
d="M389 505h-47c-179 0 -257 -106 -257 -240c0 -133 77 -238 257 -238h47v478zM342 532h374v-157h-32v130h-259v-211h163v94h32v-214h-32v93h-163v-240h282v149h33v-176h-398c-196 0 -293 110 -293 265c0 156 97 267 293 267z" />
    <glyph glyph-name="Eth.sc" unicode="&#xf7f0;" horiz-adv-x="617" 
d="M299 0h-240v27h82v233h-104v27h104v218h-82v27h240c196 0 291 -109 291 -264s-95 -268 -291 -268zM177 27h122c180 0 255 108 255 241c0 134 -74 237 -255 237h-122v-218h120v-27h-120v-233z" />
    <glyph glyph-name="Dcroat.sc" unicode="&#xf646;" horiz-adv-x="617" 
d="M302 0h-240v27h82v233h-104v27h104v218h-82v27h240c196 0 291 -109 291 -264s-95 -268 -291 -268zM180 27h122c180 0 255 108 255 241c0 134 -74 237 -255 237h-122v-218h120v-27h-120v-233z" />
    <glyph glyph-name="Eng.sc" unicode="&#xf62b;" horiz-adv-x="673" 
d="M414 -174c-108 0 -124 76 -127 88l29 13c3 -9 14 -72 98 -72c75 0 102 48 107 136l-368 504v-468h84v-27h-195v27h79v478h-84v27h129l359 -490v463h-89v27h205v-27h-84v-474c0 -147 -46 -205 -143 -205z" />
    <glyph glyph-name="IJ.sc" unicode="&#xf631;" horiz-adv-x="552" 
d="M240 0h-203v27h83v478h-83v27h203v-27h-84v-478h84v-27zM286 -174c-106 0 -122 76 -125 88l28 13c3 -9 17 -72 97 -72c85 0 110 66 110 177v473h-86v27h205v-27h-83v-473c0 -143 -46 -206 -146 -206z" />
    <glyph glyph-name="Aacute.sc" unicode="&#xf7e1;" horiz-adv-x="626" 
d="M422 207l-113 275l-112 -275h225zM123 27h72v-27h-175v27h72l207 508h23l211 -508h73v-27h-185v27h77l-64 152h-248zM281 643l93 193l29 -14l-93 -193z" />
    <glyph glyph-name="Abreve.sc" unicode="&#xf640;" horiz-adv-x="626" 
d="M422 207l-113 275l-112 -275h225zM123 27h72v-27h-175v27h72l207 508h23l211 -508h73v-27h-185v27h77l-64 152h-248zM197 761l30 4c1 -61 30 -98 86 -98s82 37 86 98l30 -4c-3 -79 -47 -123 -116 -123s-112 43 -116 123z" />
    <glyph glyph-name="Acircumflex.sc" unicode="&#xf7e2;" horiz-adv-x="626" 
d="M422 207l-113 275l-112 -275h225zM123 27h72v-27h-175v27h72l207 508h23l211 -508h73v-27h-185v27h77l-64 152h-248zM400 630l-86 142l-87 -142l-30 13l104 171h23l105 -171z" />
    <glyph glyph-name="Adieresis.sc" unicode="&#xf7e4;" horiz-adv-x="626" 
d="M422 207l-113 275l-112 -275h225zM123 27h72v-27h-175v27h72l207 508h23l211 -508h73v-27h-185v27h77l-64 152h-248zM217 655c-19 0 -31 12 -31 31c0 17 12 31 31 31c17 0 31 -14 31 -31c0 -19 -14 -31 -31 -31zM409 655c-19 0 -31 12 -31 31c0 17 12 31 31 31
c17 0 31 -14 31 -31c0 -19 -14 -31 -31 -31z" />
    <glyph glyph-name="Agrave.sc" unicode="&#xf7e0;" horiz-adv-x="626" 
d="M422 207l-113 275l-112 -275h225zM123 27h72v-27h-175v27h72l207 508h23l211 -508h73v-27h-185v27h77l-64 152h-248zM224 823l28 13l93 -193l-28 -13z" />
    <glyph glyph-name="Amacron.sc" unicode="&#xf641;" horiz-adv-x="626" 
d="M422 207l-113 275l-112 -275h225zM123 27h72v-27h-175v27h72l207 508h23l211 -508h73v-27h-185v27h77l-64 152h-248zM196 701h234v-30h-234v30z" />
    <glyph glyph-name="Aogonek.sc" unicode="&#xf642;" horiz-adv-x="626" 
d="M545 -225l16 -27c-24 -19 -42 -34 -82 -34c-61 0 -95 35 -95 90c0 65 50 114 123 203l-73 172h-248l-63 -152h72v-27h-175v27h72l207 508h23l211 -508h73v-27h-65c-81 -94 -121 -141 -121 -194c0 -35 16 -62 60 -62c31 0 45 12 65 31zM422 207l-113 275l-112 -275h225z
" />
    <glyph glyph-name="Aring.sc" unicode="&#xf7e5;" horiz-adv-x="626" 
d="M422 207l-113 275l-112 -275h225zM123 27h72v-27h-175v27h72l207 508h23l211 -508h73v-27h-185v27h77l-64 152h-248zM313 609c-40 0 -86 26 -86 86s46 86 86 86s86 -26 86 -86s-46 -86 -86 -86zM313 755c-31 0 -56 -24 -56 -60s25 -60 56 -60s56 24 56 60s-25 60 -56 60z
" />
    <glyph glyph-name="uni01FA.sc" horiz-adv-x="626" 
d="M311 609c-40 0 -86 26 -86 86s46 86 86 86s86 -26 86 -86s-46 -86 -86 -86zM311 755c-31 0 -56 -24 -56 -60s25 -60 56 -60s56 24 56 60s-25 60 -56 60zM265 837l114 154l24 -16l-114 -154zM422 207l-113 275l-112 -275h225zM123 27h72v-27h-175v27h72l207 508h23
l211 -508h73v-27h-185v27h77l-64 152h-248z" />
    <glyph glyph-name="Atilde.sc" unicode="&#xf7e3;" horiz-adv-x="626" 
d="M422 207l-113 275l-112 -275h225zM123 27h72v-27h-175v27h72l207 508h23l211 -508h73v-27h-185v27h77l-64 152h-248zM251 726c27 0 50 -11 71 -22c20 -12 38 -23 57 -23c23 0 46 14 69 57l24 -17c-27 -51 -58 -70 -93 -70c-27 0 -49 13 -72 25c-20 11 -37 20 -56 20
c-27 0 -49 -15 -72 -58l-24 17c29 53 59 71 96 71z" />
    <glyph glyph-name="AEacute.sc" unicode="&#xf624;" horiz-adv-x="819" 
d="M402 274v231h-1l-133 -231h134zM17 -2v27h72l280 480h-74v27h433v-157h-32v130h-258v-231h162v93h32v-214h-32v94h-162v-220h282v149h32v-176h-433v27h83v220h-150l-129 -222h65v-27h-171zM498 643l93 193l29 -14l-93 -193z" />
    <glyph glyph-name="Cacute.sc" unicode="&#xf643;" horiz-adv-x="598" 
d="M511 13v84c-29 -59 -94 -108 -195 -108c-164 0 -266 125 -266 277s103 277 267 277c107 0 167 -48 194 -107v81h30v-171h-28c-11 103 -75 169 -196 169c-148 0 -231 -118 -231 -249s83 -249 230 -249c112 0 189 66 197 165h28v-169h-30zM285 643l93 193l29 -14l-93 -193z
" />
    <glyph glyph-name="Ccaron.sc" unicode="&#xf644;" horiz-adv-x="598" 
d="M511 13v84c-29 -59 -94 -108 -195 -108c-164 0 -266 125 -266 277s103 277 267 277c107 0 167 -48 194 -107v81h30v-171h-28c-11 103 -75 169 -196 169c-148 0 -231 -118 -231 -249s83 -249 230 -249c112 0 189 66 197 165h28v-169h-30zM306 644l-105 171l29 13l87 -142
l86 142l30 -13l-104 -171h-23z" />
    <glyph glyph-name="Ccedilla.sc" unicode="&#xf7e7;" horiz-adv-x="598" 
d="M284 -251c-33 0 -62 11 -85 32l15 23c20 -19 47 -27 71 -27c44 0 67 25 67 61c0 40 -28 55 -55 55c-16 0 -30 -4 -41 -13l-21 14l48 97c-144 16 -233 131 -233 275c0 152 103 277 267 277c107 0 167 -48 194 -107v81h30v-171h-28c-11 103 -75 169 -196 169
c-148 0 -231 -118 -231 -249s83 -249 230 -249c112 0 189 66 197 165h28v-169h-30v84c-29 -59 -94 -108 -195 -108h-1l-36 -72c7 3 13 4 24 4c32 0 83 -16 83 -83c0 -57 -39 -89 -102 -89z" />
    <glyph glyph-name="Ccircumflex.sc" unicode="&#xf628;" horiz-adv-x="598" 
d="M511 13v84c-29 -59 -94 -108 -195 -108c-164 0 -266 125 -266 277s103 277 267 277c107 0 167 -48 194 -107v81h30v-171h-28c-11 103 -75 169 -196 169c-148 0 -231 -118 -231 -249s83 -249 230 -249c112 0 189 66 197 165h28v-169h-30zM404 630l-86 142l-87 -142l-30 13
l104 171h23l105 -171z" />
    <glyph glyph-name="Cdotaccent.sc" unicode="&#xf629;" horiz-adv-x="598" 
d="M511 13v84c-29 -59 -94 -108 -195 -108c-164 0 -266 125 -266 277s103 277 267 277c107 0 167 -48 194 -107v81h30v-171h-28c-11 103 -75 169 -196 169c-148 0 -231 -118 -231 -249s83 -249 230 -249c112 0 189 66 197 165h28v-169h-30zM317 655c-19 0 -31 12 -31 31
c0 17 12 31 31 31c17 0 31 -14 31 -31c0 -19 -14 -31 -31 -31z" />
    <glyph glyph-name="Dcaron.sc" unicode="&#xf645;" horiz-adv-x="617" 
d="M37 0v27h82v478h-82v27h240c196 0 291 -109 291 -264s-95 -268 -291 -268h-240zM277 505h-122v-478h122c180 0 255 108 255 241c0 134 -74 237 -255 237zM274 645l-105 171l29 13l87 -142l86 142l30 -13l-104 -171h-23z" />
    <glyph glyph-name="Eacute.sc" unicode="&#xf7e9;" horiz-adv-x="537" 
d="M37 0v27h83v478h-83v27h409v-157h-32v130h-258v-211h162v94h32v-214h-32v93h-162v-240h282v149h32v-176h-433zM235 643l93 193l29 -14l-93 -193z" />
    <glyph glyph-name="Ebreve.sc" unicode="&#xf62a;" horiz-adv-x="537" 
d="M37 0v27h83v478h-83v27h409v-157h-32v130h-258v-211h162v94h32v-214h-32v93h-162v-240h282v149h32v-176h-433zM151 761l30 4c1 -61 30 -98 86 -98s82 37 86 98l30 -4c-3 -79 -47 -123 -116 -123s-112 43 -116 123z" />
    <glyph glyph-name="Ecaron.sc" unicode="&#xf647;" horiz-adv-x="537" 
d="M37 0v27h83v478h-83v27h409v-157h-32v130h-258v-211h162v94h32v-214h-32v93h-162v-240h282v149h32v-176h-433zM256 644l-105 171l29 13l87 -142l86 142l30 -13l-104 -171h-23z" />
    <glyph glyph-name="Ecircumflex.sc" unicode="&#xf7ea;" horiz-adv-x="537" 
d="M37 0v27h83v478h-83v27h409v-157h-32v130h-258v-211h162v94h32v-214h-32v93h-162v-240h282v149h32v-176h-433zM354 630l-86 142l-87 -142l-30 13l104 171h23l105 -171z" />
    <glyph glyph-name="Edieresis.sc" unicode="&#xf7eb;" horiz-adv-x="537" 
d="M37 0v27h83v478h-83v27h409v-157h-32v130h-258v-211h162v94h32v-214h-32v93h-162v-240h282v149h32v-176h-433zM171 655c-19 0 -31 12 -31 31c0 17 12 31 31 31c17 0 31 -14 31 -31c0 -19 -14 -31 -31 -31zM363 655c-19 0 -31 12 -31 31c0 17 12 31 31 31
c17 0 31 -14 31 -31c0 -19 -14 -31 -31 -31z" />
    <glyph glyph-name="Edotaccent.sc" unicode="&#xf648;" horiz-adv-x="537" 
d="M37 0v27h83v478h-83v27h409v-157h-32v130h-258v-211h162v94h32v-214h-32v93h-162v-240h282v149h32v-176h-433zM267 655c-19 0 -31 12 -31 31c0 17 12 31 31 31c17 0 31 -14 31 -31c0 -19 -14 -31 -31 -31z" />
    <glyph glyph-name="Egrave.sc" unicode="&#xf7e8;" horiz-adv-x="537" 
d="M37 0v27h83v478h-83v27h409v-157h-32v130h-258v-211h162v94h32v-214h-32v93h-162v-240h282v149h32v-176h-433zM178 823l28 13l93 -193l-28 -13z" />
    <glyph glyph-name="Emacron.sc" unicode="&#xf649;" horiz-adv-x="537" 
d="M37 0v27h83v478h-83v27h409v-157h-32v130h-258v-211h162v94h32v-214h-32v93h-162v-240h282v149h32v-176h-433zM150 701h234v-30h-234v30z" />
    <glyph glyph-name="Eogonek.sc" unicode="&#xf64a;" horiz-adv-x="537" 
d="M430 -225l16 -27c-24 -19 -42 -34 -82 -34c-61 0 -95 35 -95 90c0 61 44 113 113 196h-345v27h83v478h-83v27h409v-157h-32v130h-258v-211h162v94h32v-214h-32v93h-162v-240h282v149h32v-176h-48c-80 -94 -117 -141 -117 -194c0 -35 16 -62 60 -62c31 0 45 12 65 31z" />
    <glyph glyph-name="Gbreve.sc" unicode="&#xf64b;" horiz-adv-x="648" 
d="M49 267c0 156 104 276 267 276c106 0 169 -50 193 -106v87h30v-176h-28c-11 104 -82 167 -195 167c-148 0 -231 -113 -231 -248c0 -136 85 -250 243 -250c81 0 140 31 171 54v143h-94v27h206v-27h-76v-156c-37 -31 -107 -69 -208 -69c-173 0 -278 122 -278 278zM204 761
l30 4c1 -61 30 -98 86 -98s82 37 86 98l30 -4c-3 -79 -47 -123 -116 -123s-112 43 -116 123z" />
    <glyph glyph-name="Gcircumflex.sc" unicode="&#xf62c;" horiz-adv-x="648" 
d="M49 267c0 156 104 276 267 276c106 0 169 -50 193 -106v87h30v-176h-28c-11 104 -82 167 -195 167c-148 0 -231 -113 -231 -248c0 -136 85 -250 243 -250c81 0 140 31 171 54v143h-94v27h206v-27h-76v-156c-37 -31 -107 -69 -208 -69c-173 0 -278 122 -278 278zM407 630
l-86 142l-87 -142l-30 13l104 171h23l105 -171z" />
    <glyph glyph-name="Gcommaaccent.sc" unicode="&#xf64c;" horiz-adv-x="648" 
d="M49 267c0 156 104 276 267 276c106 0 169 -50 193 -106v87h30v-176h-28c-11 104 -82 167 -195 167c-148 0 -231 -113 -231 -248c0 -136 85 -250 243 -250c81 0 140 31 171 54v143h-94v27h206v-27h-76v-156c-37 -31 -107 -69 -208 -69c-173 0 -278 122 -278 278zM253 -279
l-12 28c63 24 86 58 86 95c0 33 -19 59 -62 60l4 29c56 -3 92 -31 92 -87s-36 -94 -108 -125z" />
    <glyph glyph-name="Gdotaccent.sc" unicode="&#xf62d;" horiz-adv-x="648" 
d="M49 267c0 156 104 276 267 276c106 0 169 -50 193 -106v87h30v-176h-28c-11 104 -82 167 -195 167c-148 0 -231 -113 -231 -248c0 -136 85 -250 243 -250c81 0 140 31 171 54v143h-94v27h206v-27h-76v-156c-37 -31 -107 -69 -208 -69c-173 0 -278 122 -278 278zM320 655
c-19 0 -31 12 -31 31c0 17 12 31 31 31c17 0 31 -14 31 -31c0 -19 -14 -31 -31 -31z" />
    <glyph glyph-name="Hbar.sc" unicode="&#xf62e;" horiz-adv-x="667" 
d="M156 295h355v88h-355v-88zM241 0h-204v27h83v356h-67v27h67v95h-83v27h204v-27h-85v-95h355v95h-85v27h204v-27h-83v-95h50v-27h-50v-356h83v-27h-204v27h85v240h-355v-240h85v-27z" />
    <glyph glyph-name="Hcircumflex.sc" unicode="&#xf62f;" horiz-adv-x="667" 
d="M37 0v27h83v478h-83v27h204v-27h-85v-210h355v210h-85v27h204v-27h-83v-478h83v-27h-204v27h85v240h-355v-240h85v-27h-204zM411 630l-86 142l-87 -142l-30 13l104 171h23l105 -171z" />
    <glyph glyph-name="Iacute.sc" unicode="&#xf7ed;" horiz-adv-x="277" 
d="M240 0h-203v27h83v478h-83v27h203v-27h-84v-478h84v-27zM111 643l93 193l29 -14l-93 -193z" />
    <glyph glyph-name="Ibreve.sc" unicode="&#xf630;" horiz-adv-x="277" 
d="M240 0h-203v27h83v478h-83v27h203v-27h-84v-478h84v-27zM27 761l30 4c1 -61 30 -98 86 -98s82 37 86 98l30 -4c-3 -79 -47 -123 -116 -123s-112 43 -116 123z" />
    <glyph glyph-name="Icircumflex.sc" unicode="&#xf7ee;" horiz-adv-x="277" 
d="M240 0h-203v27h83v478h-83v27h203v-27h-84v-478h84v-27zM230 630l-86 142l-87 -142l-30 13l104 171h23l105 -171z" />
    <glyph glyph-name="Idieresis.sc" unicode="&#xf7ef;" horiz-adv-x="277" 
d="M240 0h-203v27h83v478h-83v27h203v-27h-84v-478h84v-27zM47 655c-19 0 -31 12 -31 31c0 17 12 31 31 31c17 0 31 -14 31 -31c0 -19 -14 -31 -31 -31zM239 655c-19 0 -31 12 -31 31c0 17 12 31 31 31c17 0 31 -14 31 -31c0 -19 -14 -31 -31 -31z" />
    <glyph glyph-name="Idotaccent.sc" unicode="&#xf666;" horiz-adv-x="277" 
d="M240 0h-203v27h83v478h-83v27h203v-27h-84v-478h84v-27zM143 655c-19 0 -31 12 -31 31c0 17 12 31 31 31c17 0 31 -14 31 -31c0 -19 -14 -31 -31 -31z" />
    <glyph glyph-name="Igrave.sc" unicode="&#xf7ec;" horiz-adv-x="277" 
d="M240 0h-203v27h83v478h-83v27h203v-27h-84v-478h84v-27zM54 823l28 13l93 -193l-28 -13z" />
    <glyph glyph-name="Imacron.sc" unicode="&#xf64d;" horiz-adv-x="277" 
d="M240 0h-203v27h83v478h-83v27h203v-27h-84v-478h84v-27zM26 701h234v-30h-234v30z" />
    <glyph glyph-name="Iogonek.sc" unicode="&#xf64e;" horiz-adv-x="277" 
d="M147 -286c-61 0 -95 35 -95 90c0 61 37 115 104 196h-119v27h83v478h-83v27h203v-27h-84v-478h84v-27h-44c-77 -93 -108 -140 -108 -194c0 -35 16 -62 60 -62c31 0 45 12 65 31l16 -27c-24 -19 -42 -34 -82 -34z" />
    <glyph glyph-name="Itilde.sc" unicode="&#xf632;" horiz-adv-x="277" 
d="M240 0h-203v27h83v478h-83v27h203v-27h-84v-478h84v-27zM81 726c27 0 50 -11 71 -22c20 -12 38 -23 57 -23c23 0 46 14 69 57l24 -17c-27 -51 -58 -70 -93 -70c-27 0 -49 13 -72 25c-20 11 -37 20 -56 20c-27 0 -49 -15 -72 -58l-24 17c29 53 59 71 96 71z" />
    <glyph glyph-name="Jcircumflex.sc" unicode="&#xf633;" horiz-adv-x="306" 
d="M41 -174c-106 0 -122 76 -125 88l28 13c3 -9 17 -72 97 -72c85 0 110 66 110 177v473h-86v27h205v-27h-83v-473c0 -143 -46 -206 -146 -206zM257 630l-86 142l-87 -142l-30 13l104 171h23l105 -171z" />
    <glyph glyph-name="Kcommaaccent.sc" unicode="&#xf64f;" horiz-adv-x="590" 
d="M37 0v27h83v478h-83v27h201v-27h-82v-253l246 253h-74v27h202v-27h-88l-220 -226l263 -252h83v-27h-213v27h83l-239 230l-43 -44v-186h82v-27h-201zM204 -279l-12 28c63 24 86 58 86 95c0 33 -19 59 -62 60l4 29c56 -3 92 -31 92 -87s-36 -94 -108 -125z" />
    <glyph glyph-name="Lacute.sc" unicode="&#xf650;" horiz-adv-x="511" 
d="M37 0v27h83v478h-83v27h207v-27h-88v-478h277v128h31v-155h-427zM114 643l93 193l29 -14l-93 -193z" />
    <glyph glyph-name="Lcaron.sc" unicode="&#xf651;" horiz-adv-x="511" 
d="M37 0v27h83v478h-83v27h207v-27h-88v-478h277v128h31v-155h-427zM325 351l-31 5l31 176l31 -5z" />
    <glyph glyph-name="Lcommaaccent.sc" unicode="&#xf652;" horiz-adv-x="511" 
d="M37 0v27h83v478h-83v27h207v-27h-88v-478h277v128h31v-155h-427zM179 -279l-12 28c63 24 86 58 86 95c0 33 -19 59 -62 60l4 29c56 -3 92 -31 92 -87s-36 -94 -108 -125z" />
    <glyph glyph-name="Ldot.sc" unicode="&#xf634;" horiz-adv-x="511" 
d="M37 0v27h83v478h-83v27h207v-27h-88v-478h277v128h31v-155h-427zM425 266c-16 0 -31 12 -31 31s15 31 31 31s31 -12 31 -31s-15 -31 -31 -31z" />
    <glyph glyph-name="Lslash.sc" unicode="&#xf6f9;" horiz-adv-x="511" 
d="M464 0h-427v27h83v180l-65 -28l-12 26l77 34v266h-83v27h207v-27h-88v-251l176 77l12 -26l-188 -82v-196h277v128h31v-155z" />
    <glyph glyph-name="Nacute.sc" unicode="&#xf653;" horiz-adv-x="673" 
d="M153 27h84v-27h-195v27h79v478h-84v27h129l359 -490v463h-89v27h205v-27h-84v-506h-42l-362 496v-468zM293 643l93 193l29 -14l-93 -193z" />
    <glyph glyph-name="Ncaron.sc" unicode="&#xf654;" horiz-adv-x="673" 
d="M153 27h84v-27h-195v27h79v478h-84v27h129l359 -490v463h-89v27h205v-27h-84v-506h-42l-362 496v-468zM314 644l-105 171l29 13l87 -142l86 142l30 -13l-104 -171h-23z" />
    <glyph glyph-name="Ncommaaccent.sc" unicode="&#xf655;" horiz-adv-x="673" 
d="M153 27h84v-27h-195v27h79v478h-84v27h129l359 -490v463h-89v27h205v-27h-84v-506h-42l-362 496v-468zM278 -279l-12 28c63 24 86 58 86 95c0 33 -19 59 -62 60l4 29c56 -3 92 -31 92 -87s-36 -94 -108 -125z" />
    <glyph glyph-name="Ntilde.sc" unicode="&#xf7f1;" horiz-adv-x="673" 
d="M153 27h84v-27h-195v27h79v478h-84v27h129l359 -490v463h-89v27h205v-27h-84v-506h-42l-362 496v-468zM263 726c27 0 50 -11 71 -22c20 -12 38 -23 57 -23c23 0 46 14 69 57l24 -17c-27 -51 -58 -70 -93 -70c-27 0 -49 13 -72 25c-20 11 -37 20 -56 20
c-27 0 -49 -15 -72 -58l-24 17c29 53 59 71 96 71z" />
    <glyph glyph-name="Oacute.sc" unicode="&#xf7f3;" horiz-adv-x="659" 
d="M329 -11c-163 0 -280 121 -280 277s117 277 280 277s281 -121 281 -277s-118 -277 -281 -277zM329 514c-147 0 -244 -113 -244 -248s97 -248 244 -248c146 0 245 113 245 248s-99 248 -245 248zM300 643l93 193l29 -14l-93 -193z" />
    <glyph glyph-name="Obreve.sc" unicode="&#xf635;" horiz-adv-x="659" 
d="M329 -11c-163 0 -280 121 -280 277s117 277 280 277s281 -121 281 -277s-118 -277 -281 -277zM329 514c-147 0 -244 -113 -244 -248s97 -248 244 -248c146 0 245 113 245 248s-99 248 -245 248zM216 761l30 4c1 -61 30 -98 86 -98s82 37 86 98l30 -4
c-3 -79 -47 -123 -116 -123s-112 43 -116 123z" />
    <glyph glyph-name="Ocircumflex.sc" unicode="&#xf7f4;" horiz-adv-x="659" 
d="M329 -11c-163 0 -280 121 -280 277s117 277 280 277s281 -121 281 -277s-118 -277 -281 -277zM329 514c-147 0 -244 -113 -244 -248s97 -248 244 -248c146 0 245 113 245 248s-99 248 -245 248zM419 630l-86 142l-87 -142l-30 13l104 171h23l105 -171z" />
    <glyph glyph-name="Odieresis.sc" unicode="&#xf7f6;" horiz-adv-x="659" 
d="M329 -11c-163 0 -280 121 -280 277s117 277 280 277s281 -121 281 -277s-118 -277 -281 -277zM329 514c-147 0 -244 -113 -244 -248s97 -248 244 -248c146 0 245 113 245 248s-99 248 -245 248zM236 655c-19 0 -31 12 -31 31c0 17 12 31 31 31c17 0 31 -14 31 -31
c0 -19 -14 -31 -31 -31zM428 655c-19 0 -31 12 -31 31c0 17 12 31 31 31c17 0 31 -14 31 -31c0 -19 -14 -31 -31 -31z" />
    <glyph glyph-name="Ograve.sc" unicode="&#xf7f2;" horiz-adv-x="659" 
d="M329 -11c-163 0 -280 121 -280 277s117 277 280 277s281 -121 281 -277s-118 -277 -281 -277zM329 514c-147 0 -244 -113 -244 -248s97 -248 244 -248c146 0 245 113 245 248s-99 248 -245 248zM243 823l28 13l93 -193l-28 -13z" />
    <glyph glyph-name="Ohungarumlaut.sc" unicode="&#xf656;" horiz-adv-x="659" 
d="M329 -11c-163 0 -280 121 -280 277s117 277 280 277s281 -121 281 -277s-118 -277 -281 -277zM329 514c-147 0 -244 -113 -244 -248s97 -248 244 -248c146 0 245 113 245 248s-99 248 -245 248zM330 836l27 -12l-90 -193l-27 12zM468 836l27 -12l-90 -193l-27 12z" />
    <glyph glyph-name="Omacron.sc" unicode="&#xf657;" horiz-adv-x="659" 
d="M329 -11c-163 0 -280 121 -280 277s117 277 280 277s281 -121 281 -277s-118 -277 -281 -277zM329 514c-147 0 -244 -113 -244 -248s97 -248 244 -248c146 0 245 113 245 248s-99 248 -245 248zM215 701h234v-30h-234v30z" />
    <glyph glyph-name="Otilde.sc" unicode="&#xf7f5;" horiz-adv-x="659" 
d="M329 -11c-163 0 -280 121 -280 277s117 277 280 277s281 -121 281 -277s-118 -277 -281 -277zM329 514c-147 0 -244 -113 -244 -248s97 -248 244 -248c146 0 245 113 245 248s-99 248 -245 248zM270 726c27 0 50 -11 71 -22c20 -12 38 -23 57 -23c23 0 46 14 69 57
l24 -17c-27 -51 -58 -70 -93 -70c-27 0 -49 13 -72 25c-20 11 -37 20 -56 20c-27 0 -49 -15 -72 -58l-24 17c29 53 59 71 96 71z" />
    <glyph glyph-name="Oslashacute.sc" unicode="&#xf627;" horiz-adv-x="659" 
d="M300 643l93 193l29 -14l-93 -193zM85 266c0 -76 30 -142 81 -189l300 397c-39 25 -84 40 -137 40c-147 0 -244 -113 -244 -248zM329 18c146 0 245 113 245 248c0 76 -31 143 -84 190l-300 -397c39 -27 84 -41 139 -41zM329 -11c-60 0 -114 17 -158 45l-58 -76l-25 16
l59 78c-61 51 -98 126 -98 214c0 156 117 277 280 277c60 0 112 -16 156 -44l59 78l25 -16l-60 -79c64 -51 101 -127 101 -216c0 -156 -118 -277 -281 -277z" />
    <glyph glyph-name="Racute.sc" unicode="&#xf658;" horiz-adv-x="581" 
d="M283 505h-127v-231h123c89 0 134 49 134 121c0 75 -49 110 -130 110zM449 395c0 -85 -54 -140 -146 -148c45 -56 115 -138 168 -188c27 -24 43 -31 75 -31h38v-28h-41c-39 0 -60 7 -95 39c-55 55 -144 149 -186 207h-106v-219h87v-27h-206v27h83v478h-83v27h246
c99 0 166 -44 166 -137zM232 643l93 193l29 -14l-93 -193z" />
    <glyph glyph-name="Rcaron.sc" unicode="&#xf659;" horiz-adv-x="581" 
d="M283 505h-127v-231h123c89 0 134 49 134 121c0 75 -49 110 -130 110zM449 395c0 -85 -54 -140 -146 -148c45 -56 115 -138 168 -188c27 -24 43 -31 75 -31h38v-28h-41c-39 0 -60 7 -95 39c-55 55 -144 149 -186 207h-106v-219h87v-27h-206v27h83v478h-83v27h246
c99 0 166 -44 166 -137zM253 644l-105 171l29 13l87 -142l86 142l30 -13l-104 -171h-23z" />
    <glyph glyph-name="Rcommaaccent.sc" unicode="&#xf65a;" horiz-adv-x="581" 
d="M283 505h-127v-231h123c89 0 134 49 134 121c0 75 -49 110 -130 110zM449 395c0 -85 -54 -140 -146 -148c45 -56 115 -138 168 -188c27 -24 43 -31 75 -31h38v-28h-41c-39 0 -60 7 -95 39c-55 55 -144 149 -186 207h-106v-219h87v-27h-206v27h83v478h-83v27h246
c99 0 166 -44 166 -137zM286 -279l-12 28c63 24 86 58 86 95c0 33 -19 59 -62 60l4 29c56 -3 92 -31 92 -87s-36 -94 -108 -125z" />
    <glyph glyph-name="Sacute.sc" unicode="&#xf65b;" 
d="M364 374h-27c-15 93 -62 141 -135 141c-57 0 -106 -28 -106 -93c0 -47 24 -78 87 -106c28 -13 57 -24 86 -36c77 -35 130 -70 130 -153c0 -100 -77 -138 -153 -138c-87 0 -149 48 -168 107v-84h-30v176h28c5 -93 66 -171 168 -171c64 0 119 32 119 108
c0 64 -40 95 -105 124c-28 12 -58 23 -85 35c-84 39 -113 78 -113 134c0 89 73 125 142 125s113 -36 132 -84v67h30v-152zM192 643l93 193l29 -14l-93 -193z" />
    <glyph glyph-name="Scaron.sc" unicode="&#xf6fd;" 
d="M364 374h-27c-15 93 -62 141 -135 141c-57 0 -106 -28 -106 -93c0 -47 24 -78 87 -106c28 -13 57 -24 86 -36c77 -35 130 -70 130 -153c0 -100 -77 -138 -153 -138c-87 0 -149 48 -168 107v-84h-30v176h28c5 -93 66 -171 168 -171c64 0 119 32 119 108
c0 64 -40 95 -105 124c-28 12 -58 23 -85 35c-84 39 -113 78 -113 134c0 89 73 125 142 125s113 -36 132 -84v67h30v-152zM213 644l-105 171l29 13l87 -142l86 142l30 -13l-104 -171h-23z" />
    <glyph glyph-name="Scedilla.sc" unicode="&#xf65c;" 
d="M198 -251c-33 0 -62 11 -85 32l15 23c20 -19 47 -27 71 -27c44 0 67 25 67 61c0 40 -28 55 -55 55c-16 0 -30 -4 -41 -13l-21 14l50 100c-64 15 -106 55 -122 102v-84h-30v176h28c5 -93 66 -171 168 -171c64 0 119 32 119 108c0 64 -40 95 -105 124c-28 12 -58 23 -85 35
c-84 39 -113 78 -113 134c0 89 73 125 142 125s113 -36 132 -84v67h30v-152h-27c-15 93 -62 141 -135 141c-57 0 -106 -28 -106 -93c0 -47 24 -78 87 -106c28 -13 57 -24 86 -36c77 -35 130 -70 130 -153c0 -100 -77 -138 -153 -138c-5 0 -11 0 -16 1l-36 -73c7 3 13 4 24 4
c32 0 83 -16 83 -83c0 -57 -39 -89 -102 -89z" />
    <glyph glyph-name="Scircumflex.sc" unicode="&#xf636;" 
d="M364 374h-27c-15 93 -62 141 -135 141c-57 0 -106 -28 -106 -93c0 -47 24 -78 87 -106c28 -13 57 -24 86 -36c77 -35 130 -70 130 -153c0 -100 -77 -138 -153 -138c-87 0 -149 48 -168 107v-84h-30v176h28c5 -93 66 -171 168 -171c64 0 119 32 119 108
c0 64 -40 95 -105 124c-28 12 -58 23 -85 35c-84 39 -113 78 -113 134c0 89 73 125 142 125s113 -36 132 -84v67h30v-152zM311 630l-86 142l-87 -142l-30 13l104 171h23l105 -171z" />
    <glyph glyph-name="Scommaaccent.sc" unicode="&#xf65d;" 
d="M174 -279l-12 28c63 24 86 58 86 95c0 33 -19 59 -62 60l4 29c56 -3 92 -31 92 -87s-36 -94 -108 -125zM364 374h-27c-15 93 -62 141 -135 141c-57 0 -106 -28 -106 -93c0 -47 24 -78 87 -106c28 -13 57 -24 86 -36c77 -35 130 -70 130 -153c0 -100 -77 -138 -153 -138
c-87 0 -149 48 -168 107v-84h-30v176h28c5 -93 66 -171 168 -171c64 0 119 32 119 108c0 64 -40 95 -105 124c-28 12 -58 23 -85 35c-84 39 -113 78 -113 134c0 89 73 125 142 125s113 -36 132 -84v67h30v-152z" />
    <glyph glyph-name="Tcaron.sc" unicode="&#xf65e;" horiz-adv-x="584" 
d="M189 0v27h85v477h-199v-128h-30v156h494v-156h-31v128h-198v-477h84v-27h-205zM284 644l-105 171l29 13l87 -142l86 142l30 -13l-104 -171h-23z" />
    <glyph glyph-name="Tcommaaccent.sc" unicode="&#xf65f;" horiz-adv-x="584" 
d="M189 0v27h85v477h-199v-128h-30v156h494v-156h-31v128h-198v-477h84v-27h-205zM248 -279l-12 28c63 24 86 58 86 95c0 33 -19 59 -62 60l4 29c56 -3 92 -31 92 -87s-36 -94 -108 -125z" />
    <glyph glyph-name="uni021A.sc" horiz-adv-x="584" 
d="M189 0v27h85v477h-199v-128h-30v156h494v-156h-31v128h-198v-477h84v-27h-205zM248 -279l-12 28c63 24 86 58 86 95c0 33 -19 59 -62 60l4 29c56 -3 92 -31 92 -87s-36 -94 -108 -125z" />
    <glyph glyph-name="Tbar.sc" unicode="&#xf637;" horiz-adv-x="584" 
d="M394 27v-27h-205v27h85v238h-129v27h129v212h-199v-128h-30v156h494v-156h-31v128h-198v-212h129v-27h-129v-238h84z" />
    <glyph glyph-name="Thorn.sc" unicode="&#xf7fe;" horiz-adv-x="496" 
d="M37 0v27h83v478h-83v27h205v-27h-86v-84h131c108 0 172 -51 172 -143c0 -89 -66 -145 -177 -145h-126v-106h85v-27h-204zM287 394h-131v-234h131c88 1 136 46 136 118c0 73 -45 116 -136 116z" />
    <glyph glyph-name="Uacute.sc" unicode="&#xf7fa;" horiz-adv-x="664" 
d="M332 -11c-55 0 -101 9 -136 32c-51 31 -79 82 -79 161v323h-83v27h203v-27h-84v-323c0 -64 22 -106 59 -133c31 -21 72 -30 120 -30c55 0 99 11 130 38s49 66 49 125v323h-82v27h201v-27h-83v-323c0 -72 -24 -122 -67 -153c-37 -27 -86 -40 -148 -40zM290 643l93 193
l29 -14l-93 -193z" />
    <glyph glyph-name="Ubreve.sc" unicode="&#xf638;" horiz-adv-x="664" 
d="M332 -11c-55 0 -101 9 -136 32c-51 31 -79 82 -79 161v323h-83v27h203v-27h-84v-323c0 -64 22 -106 59 -133c31 -21 72 -30 120 -30c55 0 99 11 130 38s49 66 49 125v323h-82v27h201v-27h-83v-323c0 -72 -24 -122 -67 -153c-37 -27 -86 -40 -148 -40zM206 761l30 4
c1 -61 30 -98 86 -98s82 37 86 98l30 -4c-3 -79 -47 -123 -116 -123s-112 43 -116 123z" />
    <glyph glyph-name="Ucircumflex.sc" unicode="&#xf7fb;" horiz-adv-x="664" 
d="M332 -11c-55 0 -101 9 -136 32c-51 31 -79 82 -79 161v323h-83v27h203v-27h-84v-323c0 -64 22 -106 59 -133c31 -21 72 -30 120 -30c55 0 99 11 130 38s49 66 49 125v323h-82v27h201v-27h-83v-323c0 -72 -24 -122 -67 -153c-37 -27 -86 -40 -148 -40zM409 630l-86 142
l-87 -142l-30 13l104 171h23l105 -171z" />
    <glyph glyph-name="Udieresis.sc" unicode="&#xf7fc;" horiz-adv-x="664" 
d="M332 -11c-55 0 -101 9 -136 32c-51 31 -79 82 -79 161v323h-83v27h203v-27h-84v-323c0 -64 22 -106 59 -133c31 -21 72 -30 120 -30c55 0 99 11 130 38s49 66 49 125v323h-82v27h201v-27h-83v-323c0 -72 -24 -122 -67 -153c-37 -27 -86 -40 -148 -40zM226 655
c-19 0 -31 12 -31 31c0 17 12 31 31 31c17 0 31 -14 31 -31c0 -19 -14 -31 -31 -31zM418 655c-19 0 -31 12 -31 31c0 17 12 31 31 31c17 0 31 -14 31 -31c0 -19 -14 -31 -31 -31z" />
    <glyph glyph-name="Ugrave.sc" unicode="&#xf7f9;" horiz-adv-x="664" 
d="M332 -11c-55 0 -101 9 -136 32c-51 31 -79 82 -79 161v323h-83v27h203v-27h-84v-323c0 -64 22 -106 59 -133c31 -21 72 -30 120 -30c55 0 99 11 130 38s49 66 49 125v323h-82v27h201v-27h-83v-323c0 -72 -24 -122 -67 -153c-37 -27 -86 -40 -148 -40zM233 823l28 13
l93 -193l-28 -13z" />
    <glyph glyph-name="Uhungarumlaut.sc" unicode="&#xf660;" horiz-adv-x="664" 
d="M332 -11c-55 0 -101 9 -136 32c-51 31 -79 82 -79 161v323h-83v27h203v-27h-84v-323c0 -64 22 -106 59 -133c31 -21 72 -30 120 -30c55 0 99 11 130 38s49 66 49 125v323h-82v27h201v-27h-83v-323c0 -72 -24 -122 -67 -153c-37 -27 -86 -40 -148 -40zM320 836l27 -12
l-90 -193l-27 12zM458 836l27 -12l-90 -193l-27 12z" />
    <glyph glyph-name="Umacron.sc" unicode="&#xf661;" horiz-adv-x="664" 
d="M332 -11c-55 0 -101 9 -136 32c-51 31 -79 82 -79 161v323h-83v27h203v-27h-84v-323c0 -64 22 -106 59 -133c31 -21 72 -30 120 -30c55 0 99 11 130 38s49 66 49 125v323h-82v27h201v-27h-83v-323c0 -72 -24 -122 -67 -153c-37 -27 -86 -40 -148 -40zM205 701h234v-30
h-234v30z" />
    <glyph glyph-name="Uogonek.sc" unicode="&#xf662;" horiz-adv-x="664" 
d="M378 -286c-61 0 -95 35 -95 90c0 60 42 110 107 190c-19 -3 -37 -5 -58 -5c-55 0 -101 9 -136 32c-51 31 -79 82 -79 161v323h-83v27h203v-27h-84v-323c0 -64 22 -106 59 -133c31 -21 72 -30 120 -30c55 0 99 11 130 38s49 66 49 125v323h-82v27h201v-27h-83v-323
c0 -72 -24 -122 -67 -153c-11 -7 -23 -14 -38 -21c-83 -101 -123 -146 -123 -202c0 -35 16 -62 60 -62c31 0 45 12 65 31l16 -27c-24 -19 -42 -34 -82 -34z" />
    <glyph glyph-name="Uring.sc" unicode="&#xf663;" horiz-adv-x="664" 
d="M332 -11c-55 0 -101 9 -136 32c-51 31 -79 82 -79 161v323h-83v27h203v-27h-84v-323c0 -64 22 -106 59 -133c31 -21 72 -30 120 -30c55 0 99 11 130 38s49 66 49 125v323h-82v27h201v-27h-83v-323c0 -72 -24 -122 -67 -153c-37 -27 -86 -40 -148 -40zM322 604
c-40 0 -86 26 -86 86s46 86 86 86s86 -26 86 -86s-46 -86 -86 -86zM322 750c-31 0 -56 -24 -56 -60s25 -60 56 -60s56 24 56 60s-25 60 -56 60z" />
    <glyph glyph-name="Utilde.sc" unicode="&#xf639;" horiz-adv-x="664" 
d="M332 -11c-55 0 -101 9 -136 32c-51 31 -79 82 -79 161v323h-83v27h203v-27h-84v-323c0 -64 22 -106 59 -133c31 -21 72 -30 120 -30c55 0 99 11 130 38s49 66 49 125v323h-82v27h201v-27h-83v-323c0 -72 -24 -122 -67 -153c-37 -27 -86 -40 -148 -40zM260 726
c27 0 50 -11 71 -22c20 -12 38 -23 57 -23c23 0 46 14 69 57l24 -17c-27 -51 -58 -70 -93 -70c-27 0 -49 13 -72 25c-20 11 -37 20 -56 20c-27 0 -49 -15 -72 -58l-24 17c29 53 59 71 96 71z" />
    <glyph glyph-name="Wacute.sc" unicode="&#xf63a;" horiz-adv-x="869" 
d="M285 -6h-36l-161 511h-66v27h175v-27h-74l145 -462l155 487h26l156 -487l146 462h-79v27h175v-27h-65l-161 -511h-36l-150 473zM389 643l93 193l29 -14l-93 -193z" />
    <glyph glyph-name="Wcircumflex.sc" unicode="&#xf63b;" horiz-adv-x="869" 
d="M285 -6h-36l-161 511h-66v27h175v-27h-74l145 -462l155 487h26l156 -487l146 462h-79v27h175v-27h-65l-161 -511h-36l-150 473zM508 630l-86 142l-87 -142l-30 13l104 171h23l105 -171z" />
    <glyph glyph-name="Wdieresis.sc" unicode="&#xf63c;" horiz-adv-x="869" 
d="M285 -6h-36l-161 511h-66v27h175v-27h-74l145 -462l155 487h26l156 -487l146 462h-79v27h175v-27h-65l-161 -511h-36l-150 473zM325 655c-19 0 -31 12 -31 31c0 17 12 31 31 31c17 0 31 -14 31 -31c0 -19 -14 -31 -31 -31zM517 655c-19 0 -31 12 -31 31c0 17 12 31 31 31
c17 0 31 -14 31 -31c0 -19 -14 -31 -31 -31z" />
    <glyph glyph-name="Wgrave.sc" unicode="&#xf63d;" horiz-adv-x="869" 
d="M285 -6h-36l-161 511h-66v27h175v-27h-74l145 -462l155 487h26l156 -487l146 462h-79v27h175v-27h-65l-161 -511h-36l-150 473zM332 823l28 13l93 -193l-28 -13z" />
    <glyph glyph-name="Yacute.sc" unicode="&#xf7fd;" horiz-adv-x="557" 
d="M184 0v27h75v227l-164 251h-73v27h181v-27h-73l148 -225l150 225h-64v27h171v-27h-73l-167 -252v-226h74v-27h-185zM249 643l93 193l29 -14l-93 -193z" />
    <glyph glyph-name="Ycircumflex.sc" unicode="&#xf63e;" horiz-adv-x="557" 
d="M184 0v27h75v227l-164 251h-73v27h181v-27h-73l148 -225l150 225h-64v27h171v-27h-73l-167 -252v-226h74v-27h-185zM367 630l-86 142l-87 -142l-30 13l104 171h23l105 -171z" />
    <glyph glyph-name="Ydieresis.sc" unicode="&#xf7ff;" horiz-adv-x="557" 
d="M184 0v27h75v227l-164 251h-73v27h181v-27h-73l148 -225l150 225h-64v27h171v-27h-73l-167 -252v-226h74v-27h-185zM184 655c-19 0 -31 12 -31 31c0 17 12 31 31 31c17 0 31 -14 31 -31c0 -19 -14 -31 -31 -31zM376 655c-19 0 -31 12 -31 31c0 17 12 31 31 31
c17 0 31 -14 31 -31c0 -19 -14 -31 -31 -31z" />
    <glyph glyph-name="Ygrave.sc" unicode="&#xf63f;" horiz-adv-x="557" 
d="M184 0v27h75v227l-164 251h-73v27h181v-27h-73l148 -225l150 225h-64v27h171v-27h-73l-167 -252v-226h74v-27h-185zM191 823l28 13l93 -193l-28 -13z" />
    <glyph glyph-name="Zacute.sc" unicode="&#xf664;" horiz-adv-x="544" 
d="M49 -2v18l388 491h-320v-131h-31v158h397v-18l-388 -491h359v140h30v-167h-435zM254 643l93 193l29 -14l-93 -193z" />
    <glyph glyph-name="Zcaron.sc" unicode="&#xf6ff;" horiz-adv-x="544" 
d="M49 -2v18l388 491h-320v-131h-31v158h397v-18l-388 -491h359v140h30v-167h-435zM275 644l-105 171l29 13l87 -142l86 142l30 -13l-104 -171h-23z" />
    <glyph glyph-name="Zdotaccent.sc" unicode="&#xf665;" horiz-adv-x="544" 
d="M49 -2v18l388 491h-320v-131h-31v158h397v-18l-388 -491h359v140h30v-167h-435zM286 655c-19 0 -31 12 -31 31c0 17 12 31 31 31c17 0 31 -14 31 -31c0 -19 -14 -31 -31 -31z" />
    <glyph glyph-name="germandbls.sc" unicode="&#xf667;" horiz-adv-x="890" 
d="M804 374h-27c-15 93 -62 141 -135 141c-57 0 -106 -28 -106 -93c0 -47 24 -78 87 -106c28 -13 57 -24 86 -36c77 -35 130 -70 130 -153c0 -100 -77 -138 -153 -138c-87 0 -149 48 -168 107v-84h-30v176h28c5 -93 66 -171 168 -171c64 0 119 32 119 108
c0 64 -40 95 -105 124c-28 12 -58 23 -85 35c-84 39 -113 78 -113 134c0 89 73 125 142 125s113 -36 132 -84v67h30v-152zM364 374h-27c-15 93 -62 141 -135 141c-57 0 -106 -28 -106 -93c0 -47 24 -78 87 -106c28 -13 57 -24 86 -36c77 -35 130 -70 130 -153
c0 -100 -77 -138 -153 -138c-87 0 -149 48 -168 107v-84h-30v176h28c5 -93 66 -171 168 -171c64 0 119 32 119 108c0 64 -40 95 -105 124c-28 12 -58 23 -85 35c-84 39 -113 78 -113 134c0 89 73 125 142 125s113 -36 132 -84v67h30v-152z" />
    <glyph glyph-name="napostrophe.sc" horiz-adv-x="802" 
d="M282 27h84v-27h-195v27h79v478h-84v27h129l359 -490v463h-89v27h205v-27h-84v-506h-42l-362 496v-468zM102 446c0 43 -25 65 -68 68l4 29c57 -3 100 -31 100 -95s-43 -109 -123 -148l-13 27c68 33 100 70 100 119z" />
    <glyph glyph-name="dollar.sc" horiz-adv-x="457" 
d="M104 422c0 -53 32 -85 119 -118v211h-4c-64 0 -115 -28 -115 -93zM381 125c0 71 -52 102 -126 131v-239h2c67 0 124 33 124 108zM255 -86h-32v77c-72 11 -119 53 -138 104v-83h-30v176h28c4 -84 53 -153 140 -168v249c-118 43 -155 86 -155 149c0 89 75 125 151 125h4v73
h32v-76c57 -11 95 -42 111 -82v68h30v-152h-27c-11 80 -51 125 -114 138v-220c96 -37 162 -72 162 -165c0 -100 -79 -138 -160 -138h-2v-75z" />
    <glyph glyph-name="Euro.sc" horiz-adv-x="593" 
d="M501 13v83c-27 -59 -84 -107 -176 -107c-130 0 -219 90 -240 215h-63v27h60c-1 11 -2 23 -2 35c0 13 1 26 2 38h-60v27h64c24 123 110 212 240 212c96 0 150 -47 175 -106v80h30v-171h-28c-11 103 -66 169 -177 169c-112 0 -183 -80 -204 -184h200v-27h-204
c-1 -12 -2 -25 -2 -38c0 -12 1 -24 2 -35h160v-27h-156c19 -106 91 -187 203 -187c103 0 169 65 178 165h28v-169h-30z" />
    <glyph glyph-name="sterling.sc" horiz-adv-x="530" 
d="M390 -33c-47 0 -82 19 -115 40c-31 19 -60 40 -96 49c-28 -60 -60 -84 -97 -84c-29 0 -50 16 -50 45c0 43 37 72 105 72c7 0 13 0 20 -1c11 27 23 59 35 95h-70l2 27h78c27 75 53 155 72 210c31 88 77 123 136 123c31 0 50 -10 69 -25l-15 -23c-19 13 -31 20 -54 20
c-51 0 -79 -40 -102 -105c-17 -51 -43 -128 -70 -200h119l-1 -27h-127l-39 -101c39 -11 68 -30 99 -49c32 -20 62 -38 101 -38c46 0 58 26 58 45c0 15 -6 24 -13 31c-4 3 -8 6 -13 8l18 21c7 -3 14 -7 20 -12c11 -9 20 -24 20 -47c0 -37 -27 -74 -90 -74zM85 0
c27 0 42 25 59 61h-7c-47 0 -73 -17 -73 -42c0 -15 9 -19 21 -19z" />
    <glyph glyph-name="yen.sc" horiz-adv-x="510" 
d="M349 0h-189v27h77v151h-132v27h132v45l-11 19h-121v27h105l-126 209h-72v27h182v-27h-71l133 -224l134 224h-67v27h175v-27h-72l-126 -209h103v-27h-119l-11 -20v-44h131v-27h-131v-151h76v-27z" />
    <glyph glyph-name="florin.sc" horiz-adv-x="431" 
d="M71 -55c-23 0 -49 6 -69 26l17 23c19 -19 36 -21 52 -21c41 0 60 25 83 104l65 232h-85l8 27h84l15 53c30 110 74 132 129 132c31 0 54 -8 73 -29l-17 -23c-19 21 -37 24 -56 24c-47 0 -72 -29 -95 -112l-13 -45h110l-8 -27h-109l-67 -240c-32 -108 -65 -124 -117 -124z
" />
    <glyph glyph-name="zero.sc" horiz-adv-x="523" 
d="M49 266c0 160 77 277 213 277s212 -117 212 -277s-76 -277 -212 -277s-213 117 -213 277zM438 266c0 133 -55 249 -176 249s-177 -116 -177 -249s56 -249 177 -249s176 116 176 249z" />
    <glyph glyph-name="one.sc" horiz-adv-x="306" 
d="M46 0v27h94v474c-25 -9 -57 -16 -98 -27v28c45 12 82 18 110 33h24v-508h93v-27h-223z" />
    <glyph glyph-name="two.sc" horiz-adv-x="459" 
d="M374 -65l5 65h-347v21c59 38 164 122 220 175c53 50 123 115 123 198c0 73 -50 121 -137 121c-83 0 -154 -46 -154 -123c0 -44 23 -70 59 -70c23 0 38 11 47 22c5 7 10 14 13 23l26 -12c-5 -11 -11 -21 -18 -30c-13 -15 -33 -30 -68 -30c-48 0 -93 28 -93 97
c0 97 89 151 188 151c104 0 173 -54 173 -149c0 -94 -78 -161 -136 -217c-51 -45 -136 -109 -187 -149h323l-7 -93h-30z" />
    <glyph glyph-name="three.sc" horiz-adv-x="462" 
d="M213 -11c-117 0 -170 58 -170 118c0 16 4 29 8 37l9 13l27 -13c-2 -3 -4 -6 -5 -9c-3 -7 -5 -16 -5 -27c0 -46 42 -91 136 -91c109 0 166 57 166 136c0 69 -49 112 -122 112c-19 0 -39 -5 -52 -12l-56 -30l-12 25l104 55c53 27 103 65 103 123c0 53 -40 89 -116 89
c-80 0 -136 -38 -136 -93c0 -27 13 -46 41 -46c11 0 21 3 29 6c4 2 8 4 12 7l13 -21c-4 -4 -9 -7 -15 -10c-11 -5 -24 -9 -41 -9c-39 0 -73 24 -73 72c0 72 77 122 170 122s152 -45 152 -117c0 -59 -45 -96 -106 -133l-5 -3h2c87 -7 144 -54 144 -137
c0 -93 -70 -164 -202 -164z" />
    <glyph glyph-name="four.sc" horiz-adv-x="485" 
d="M214 0v27h93v119h-278v18l287 370h27v-361h120v-27h-120v-119h94v-27h-223zM307 173v304l-234 -304h234z" />
    <glyph glyph-name="five.sc" horiz-adv-x="472" 
d="M199 -11c-104 0 -160 49 -160 114c0 17 4 31 8 42l9 16l28 -13l-6 -13c-3 -9 -5 -19 -5 -31c0 -51 45 -87 126 -87c125 0 190 83 190 180c0 80 -43 126 -127 126c-63 0 -125 -26 -144 -77l-32 8l47 280c59 -16 159 -17 193 -17c10 0 17 2 21 6c7 7 7 18 10 37h30
c-3 -29 -7 -48 -19 -60c-9 -9 -22 -13 -41 -13c-37 0 -122 2 -168 10l-34 -199c31 35 84 53 139 53c99 0 161 -50 161 -154c0 -116 -82 -208 -226 -208z" />
    <glyph glyph-name="six.sc" horiz-adv-x="479" 
d="M281 515c-103 0 -175 -76 -194 -239c35 51 94 75 159 75c113 0 189 -65 189 -176c0 -112 -77 -186 -191 -186c-120 0 -195 84 -195 212c0 250 110 342 234 342c83 0 123 -43 145 -73l-26 -19c-17 28 -52 64 -121 64zM247 323c-64 0 -119 -25 -146 -69
c-11 -15 -16 -31 -16 -58c0 -95 53 -179 160 -179c100 0 154 67 154 158s-55 148 -152 148z" />
    <glyph glyph-name="seven.sc" horiz-adv-x="432" 
d="M120 0l250 504h-294l-7 -121h-30l11 178h30l-2 -29h332v-17l-255 -515h-35z" />
    <glyph glyph-name="eight.sc" horiz-adv-x="451" 
d="M227 -11c-113 0 -181 52 -181 136c0 87 77 127 142 154c-55 21 -122 58 -122 136c0 89 84 128 160 128c96 0 166 -50 166 -125c0 -69 -62 -111 -122 -138c58 -24 135 -65 135 -156c0 -88 -69 -135 -178 -135zM102 415c0 -71 74 -98 131 -120c59 24 123 59 123 123
c0 57 -51 97 -130 97c-60 0 -124 -32 -124 -100zM227 17c88 0 142 38 142 107c0 83 -87 118 -143 139c-61 -24 -144 -57 -144 -138c0 -65 54 -108 145 -108z" />
    <glyph glyph-name="nine.sc" horiz-adv-x="479" 
d="M80 357c0 -88 54 -147 153 -147c64 0 119 26 148 73c7 11 13 28 13 48c0 103 -53 184 -157 184c-102 0 -157 -69 -157 -158zM197 -11c-79 0 -116 32 -146 73l26 17c23 -35 55 -61 120 -61c108 0 179 76 195 239c-32 -51 -95 -75 -160 -75c-116 0 -188 67 -188 175
c0 110 76 186 193 186c116 0 193 -85 193 -213c0 -251 -102 -341 -233 -341z" />
    <glyph glyph-name="percent.sc" horiz-adv-x="683" 
d="M123 -30l414 613l27 -16l-414 -613zM42 404c0 93 72 139 134 139s133 -46 133 -139c0 -94 -71 -140 -133 -140s-134 46 -134 140zM176 292c50 0 101 42 101 112c0 71 -51 111 -101 111s-102 -40 -102 -111c0 -70 52 -112 102 -112zM508 -11c-62 0 -134 45 -134 139
c0 95 72 140 134 140c61 0 133 -45 133 -140c0 -94 -72 -139 -133 -139zM609 128c0 72 -51 112 -101 112s-102 -40 -102 -112c0 -69 52 -111 102 -111s101 42 101 111z" />
    <glyph glyph-name="perthousand.sc" horiz-adv-x="994" 
d="M564 567l-414 -613l-27 16l414 613zM42 404c0 93 72 139 134 139s133 -46 133 -139c0 -94 -71 -140 -133 -140s-134 46 -134 140zM74 404c0 -70 52 -112 102 -112s101 42 101 112c0 71 -51 111 -101 111s-102 -40 -102 -111zM508 -11c-62 0 -134 45 -134 139
c0 95 72 140 134 140c61 0 133 -45 133 -140c0 -94 -72 -139 -133 -139zM952 128c0 -94 -72 -139 -134 -139c-60 0 -134 45 -134 139c0 95 74 140 134 140c62 0 134 -45 134 -140zM508 240c-50 0 -102 -40 -102 -112c0 -69 52 -111 102 -111s101 42 101 111
c0 72 -51 112 -101 112zM919 128c0 72 -50 112 -101 112s-101 -40 -101 -112c0 -69 50 -111 101 -111s101 42 101 111z" />
    <glyph glyph-name="question.sc" unicode="&#xf73f;" horiz-adv-x="376" 
d="M128 130h-32v150l21 12c17 -15 50 -21 78 -21c61 0 110 42 110 121c0 58 -31 115 -117 115c-37 0 -75 -9 -107 -38l-16 25c39 31 78 41 123 41c105 0 153 -66 153 -143c0 -100 -69 -149 -146 -149c-24 0 -47 3 -67 14v-127zM113 -2c-15 0 -26 11 -26 26s11 27 26 27
s27 -12 27 -27s-12 -26 -27 -26z" />
    <glyph glyph-name="questiondown.sc" unicode="&#xf7bf;" horiz-adv-x="376" 
d="M258 403h32v-150l-21 -12c-17 15 -50 21 -78 21c-61 0 -110 -42 -110 -121c0 -58 31 -115 117 -115c37 0 75 9 107 38l16 -25c-39 -31 -78 -41 -123 -41c-105 0 -153 66 -153 143c0 100 69 149 146 149c24 0 47 -3 67 -14v127zM273 535c15 0 26 -11 26 -26
s-11 -27 -26 -27s-27 12 -27 27s12 26 27 26z" />
    <glyph glyph-name="exclam.sc" unicode="&#xf721;" horiz-adv-x="225" 
d="M130 532v-402h-36v402h36zM112 -2c-15 0 -26 11 -26 26s11 27 26 27s27 -12 27 -27s-12 -26 -27 -26z" />
    <glyph glyph-name="exclamdown.sc" unicode="&#xf7a1;" horiz-adv-x="225" 
d="M130 402v-402h-36v402h36zM112 534c15 0 27 -11 27 -26s-12 -27 -27 -27s-26 12 -26 27s11 26 26 26z" />
    <glyph glyph-name="quoteleft.sc" unicode="&#xf61f;" horiz-adv-x="216" 
d="M69 397c0 -43 25 -65 68 -68l-4 -29c-57 3 -100 31 -100 95s43 109 123 148l13 -27c-68 -33 -100 -70 -100 -119z" />
    <glyph glyph-name="quoteright.sc" unicode="&#xf620;" horiz-adv-x="216" 
d="M143 446c0 43 -25 65 -68 68l4 29c57 -3 100 -31 100 -95s-43 -109 -123 -148l-13 27c68 33 100 70 100 119z" />
    <glyph glyph-name="quotedblleft.sc" unicode="&#xf61c;" horiz-adv-x="376" 
d="M229 397c0 -43 25 -65 68 -68l-4 -29c-57 3 -100 31 -100 95s43 109 123 148l13 -27c-68 -33 -100 -70 -100 -119zM69 397c0 -43 25 -65 68 -68l-4 -29c-57 3 -100 31 -100 95s43 109 123 148l13 -27c-68 -33 -100 -70 -100 -119z" />
    <glyph glyph-name="quotedblright.sc" unicode="&#xf61d;" horiz-adv-x="376" 
d="M303 446c0 43 -25 65 -68 68l4 29c57 -3 100 -31 100 -95s-43 -109 -123 -148l-13 27c68 33 100 70 100 119zM143 446c0 43 -25 65 -68 68l4 29c57 -3 100 -31 100 -95s-43 -109 -123 -148l-13 27c68 33 100 70 100 119z" />
    <glyph glyph-name="parenleft.sc" unicode="&#xf618;" horiz-adv-x="257" 
d="M215 4l-22 -18c-85 81 -126 168 -126 281s40 200 125 281l23 -19c-81 -86 -112 -163 -112 -262c0 -100 28 -182 112 -263z" />
    <glyph glyph-name="parenright.sc" unicode="&#xf619;" horiz-adv-x="257" 
d="M64 -14l-22 18c84 81 112 163 112 263c0 99 -31 176 -112 262l23 19c85 -81 125 -168 125 -281s-41 -200 -126 -281z" />
    <glyph glyph-name="bracketleft.sc" unicode="&#xf60e;" horiz-adv-x="287" 
d="M92 -8v549h158v-27h-122v-495h122v-27h-158z" />
    <glyph glyph-name="bracketright.sc" unicode="&#xf60f;" horiz-adv-x="287" 
d="M195 541v-549h-158v27h122v495h-122v27h158z" />
    <glyph glyph-name="braceleft.sc" unicode="&#xf60c;" horiz-adv-x="267" 
d="M230 -18h-25c-48 0 -98 26 -98 95c0 24 4 47 8 70s8 43 8 63c0 28 -15 43 -51 43h-25v27h25c36 0 51 13 51 40c0 23 -3 42 -7 61c-7 25 -12 48 -12 75c0 67 50 94 101 94h25v-27h-25c-33 0 -65 -22 -65 -67c0 -21 5 -44 9 -68c5 -23 10 -47 10 -68c0 -29 -14 -44 -39 -53
v-1c26 -9 39 -28 39 -56c0 -23 -4 -46 -8 -69c-4 -21 -8 -41 -8 -64c0 -45 29 -68 62 -68h25v-27z" />
    <glyph glyph-name="braceright.sc" unicode="&#xf60d;" horiz-adv-x="267" 
d="M62 -18h-25v27h25c33 0 62 23 62 68c0 23 -4 43 -8 64c-4 23 -8 46 -8 69c0 28 13 47 39 56v1c-25 9 -39 24 -39 53c0 21 5 45 10 68c4 24 9 47 9 68c0 45 -32 67 -65 67h-25v27h25c51 0 101 -27 101 -94c0 -27 -5 -50 -12 -75c-4 -19 -7 -38 -7 -61c0 -27 15 -40 51 -40
h25v-27h-25c-36 0 -51 -15 -51 -43c0 -20 4 -40 8 -63s8 -46 8 -70c0 -69 -50 -95 -98 -95z" />
    <glyph glyph-name="slash.sc" horiz-adv-x="312" 
d="M297 593l-254 -677l-28 12l254 673z" />
    <glyph glyph-name="backslash.sc" horiz-adv-x="307" 
d="M292 -67l-28 -9l-249 660l29 10z" />
    <glyph glyph-name="bar.sc" horiz-adv-x="250" 
d="M140 -206h-30v936h30v-936z" />
    <glyph glyph-name="ampersand.sc" unicode="&#xf726;" horiz-adv-x="623" 
d="M512 -11c-63 0 -120 62 -157 107c-43 -68 -91 -107 -162 -107c-80 0 -136 45 -136 121c0 78 71 128 127 165c-39 44 -76 93 -76 150c0 85 67 118 125 118s121 -31 121 -108c0 -79 -69 -125 -123 -163l120 -123c23 44 40 94 63 133c23 37 48 64 89 64c36 0 56 -19 68 -44
l-27 -13c-8 19 -22 29 -41 29c-27 0 -47 -20 -64 -51c-23 -39 -39 -94 -66 -141c35 -43 87 -108 139 -108c39 0 49 32 57 77l32 -5c-15 -75 -42 -101 -89 -101zM144 425c0 -48 31 -90 68 -131c45 32 106 75 106 141c0 55 -41 79 -85 79c-45 0 -89 -29 -89 -89zM193 18
c63 0 106 41 141 101c-43 43 -98 100 -130 134c-52 -33 -111 -78 -111 -142c0 -55 36 -93 100 -93z" />
    <glyph glyph-name="uni0237" unicode="&#x237;" horiz-adv-x="261" 
d="M120 -92v512l-86 -13v28l99 15h23v-542c0 -136 -56 -188 -155 -188c-56 0 -89 15 -128 46l16 25c35 -28 65 -41 112 -41c88 0 119 54 119 158z" />
    <glyph glyph-name="uni2009" unicode="&#x2009;" horiz-adv-x="80" 
 />
    <glyph glyph-name="uni2032" unicode="&#x2032;" horiz-adv-x="166" 
d="M126 710l-47 -223h-36l47 223h36z" />
    <glyph glyph-name="uni2033" unicode="&#x2033;" horiz-adv-x="296" 
d="M126 710l-47 -223h-36l47 223h36zM256 710l-47 -223h-36l47 223h36z" />
    <glyph glyph-name="plus.lin" horiz-adv-x="507" 
d="M234 151v186h-177v27h177v176h30v-176h178v-27h-178v-186h-30z" />
    <glyph glyph-name="minus.lin" horiz-adv-x="515" 
d="M65 364h385v-27h-385v27z" />
    <glyph glyph-name="multiply.lin" horiz-adv-x="521" 
d="M405 184l-143 143l-143 -143l-19 22l142 142l-142 141l19 22l143 -143l143 143l19 -22l-141 -141l141 -142z" />
    <glyph glyph-name="divide.lin" horiz-adv-x="455" 
d="M228 441c-15 0 -27 11 -27 26s12 26 27 26s26 -11 26 -26s-11 -26 -26 -26zM65 365h325v-27h-325v27zM228 210c-15 0 -27 11 -27 26s12 26 27 26s26 -11 26 -26s-11 -26 -26 -26z" />
    <glyph glyph-name="equal.lin" horiz-adv-x="447" 
d="M57 444h325v-27h-325v27zM57 284h325v-27h-325v27z" />
    <glyph glyph-name="less.lin" horiz-adv-x="432" 
d="M367 189l-325 153v16l325 154v-29l-282 -133l282 -132v-29z" />
    <glyph glyph-name="greater.lin" horiz-adv-x="432" 
d="M57 189v29l282 132l-282 134v28l325 -155v-15z" />
    <glyph glyph-name="R.alt" unicode="&#xe491;" horiz-adv-x="710" 
d="M601 -10c-35 0 -61 11 -80 34c-25 29 -41 76 -53 147c-16 93 -48 157 -165 157h-128v-301h110v-27h-253v27h107v646h-101v27h318c129 0 210 -63 210 -180c0 -104 -58 -169 -162 -186c56 -24 83 -75 98 -159c11 -60 23 -101 42 -126c15 -19 34 -29 59 -29
c39 0 58 21 71 50l24 -18c-15 -35 -41 -62 -97 -62zM356 673h-181v-318h176c117 0 179 64 179 165c0 99 -62 153 -174 153z" />
    <glyph glyph-name="Q.alt" unicode="&#xe490;" horiz-adv-x="814" 
d="M784 -318c-103 0 -155 49 -258 126c-87 64 -180 106 -280 106c-13 0 -28 -1 -46 -3v27c67 5 145 28 202 48h-6c-208 0 -349 161 -349 364c0 205 146 364 360 364s360 -159 360 -364c0 -159 -87 -290 -226 -341c-45 -16 -145 -57 -230 -78c79 -11 159 -40 232 -96
c99 -72 146 -123 241 -123c112 0 162 69 175 210h32c-12 -165 -82 -240 -207 -240zM407 14c197 0 324 151 324 336s-127 336 -324 336s-324 -151 -324 -336s127 -336 324 -336z" />
    <glyph glyph-name="R.scalt" horiz-adv-x="568" 
d="M252 246h-96v-219h88v-27h-207v27h83v478h-82v27h256c99 0 166 -44 166 -137c0 -81 -47 -128 -132 -140c47 -17 66 -58 83 -126c9 -37 18 -64 28 -81c11 -19 27 -28 47 -28c40 0 49 31 52 36l23 -17c-3 -8 -17 -49 -76 -49c-31 0 -52 10 -71 34c-14 20 -27 54 -38 101
c-16 73 -37 121 -124 121zM294 505h-138v-231h130c91 0 138 49 138 121c0 75 -50 110 -130 110z" />
    </font>
</defs>
</svg>
